<svg version="1.1" xmlns="http://www.w3.org/2000/svg" xmlns:xlink="http://www.w3.org/1999/xlink" width="72.2022" height="61.39642"><g transform="translate(-204.20222,-77.60909)"><g data-paper-data="{&quot;isPaintingLayer&quot;:true}" fill="none" fill-rule="nonzero" stroke="none" stroke-width="none" stroke-linecap="none" stroke-linejoin="miter" stroke-miterlimit="10" stroke-dasharray="" stroke-dashoffset="0" font-family="none" font-weight="none" font-size="none" text-anchor="none" style="mix-blend-mode: normal"><path d="M206.70222,136.5055c0,0 0,-36.22849 0,-44.91603c0,-6.30043 5.48387,-11.48038 11.06036,-11.48038c8.96075,0 36.12074,0 45.08148,0c6.30723,0 11.06036,5.23461 11.06036,11.34038c0,8.74217 0,45.05604 0,45.05604z" data-paper-data="{&quot;origPos&quot;:null}" fill="#191919" stroke="#000000" stroke-width="5" stroke-linecap="butt"/><path d="M232.66666,96.33333h17l6.66667,11.71171v21.62162l-33.33333,-0.3003l0.33333,-21.02102z" data-paper-data="{&quot;origPos&quot;:null}" fill="none" stroke="#ffffff" stroke-width="4" stroke-linecap="round"/><path d="M233,96c0,0 1.74781,-9.33333 8.33333,-9.33333c5.65868,0 7.66667,9.33333 7.66667,9.33333" data-paper-data="{&quot;origPos&quot;:null}" fill="none" stroke="#ffffff" stroke-width="4" stroke-linecap="round"/><path d="M230.66667,123.66666v-11h18v11z" data-paper-data="{&quot;origPos&quot;:null}" fill="none" stroke="#ffffff" stroke-width="3.5" stroke-linecap="butt"/></g></g></svg>