<svg version="1.1" xmlns="http://www.w3.org/2000/svg" xmlns:xlink="http://www.w3.org/1999/xlink" width="95.97898" height="111.67398" viewBox="0,0,95.97898,111.67398"><defs><linearGradient x1="230.08703" y1="121.51098" x2="225.46513" y2="152.36294" gradientUnits="userSpaceOnUse" id="color-1"><stop offset="0" stop-color="#fff300"/><stop offset="1" stop-color="#fef400"/></linearGradient></defs><g transform="translate(-185.42103,-121.06758)"><g data-paper-data="{&quot;isPaintingLayer&quot;:true}" fill="none" fill-rule="none" stroke="none" stroke-width="none" stroke-linecap="none" stroke-linejoin="none" stroke-miterlimit="10" stroke-dasharray="" stroke-dashoffset="0" font-family="none" font-weight="none" font-size="none" text-anchor="none" style="mix-blend-mode: normal"><g data-paper-data="{&quot;origPos&quot;:null}" id="tail" fill-rule="evenodd" stroke-width="2"><path d="M259.42103,205.8c2.4,-0.5 5.3,-1.3 7.7,-3.5c5.5,-4.9 7.2,-13 11,-10.9c3.9,2.1 3.8,15.2 -8.4,19.2c-4.2,1.4 -8,1.4 -11.1,1.3c-0.8,0 -7.7,-0.7 -10.1,-4.1c-2.4,-3.4 -0.7,-4.3 0.1,-4.7c0.9,-0.5 7.4,3.3 10.8,2.7z" fill="#ffab19" stroke="#001026" stroke-linecap="round" stroke-linejoin="round"/><path d="M277.52103,191.6c2,0.6 3,4.8 2,8.3c-1,3.5 -2.6,5.3 -3.9,6.6c0.2,-0.7 0.6,-2.9 -1.1,-4.2c-2.1,-1.7 -5.8,-0.8 -5.8,-0.8c0,0 3.1,-3.8 4.7,-6.5c1.6,-2.3 2.1,-3.8 4.1,-3.4z" id="detail" fill="#ffffff" stroke="none" stroke-linecap="butt" stroke-linejoin="miter"/></g><path d="M243.32103,206.6c3.7,-3.2 8.3,0.5 10.3,2c2,1.5 3,2.4 7.3,4.6c1.7,0.9 3.9,1.7 5.1,2.1c0.5,0.1 1,0.1 1.5,-0.1c0.9,-0.4 2.6,-1.1 4.5,0.3c4.2,3.7 -5.7,17.8 -11,16.1c-5.5,-1.7 -2.4,-6.5 -0.7,-8.9c0.2,-0.4 0,-0.9 -0.4,-1l-0.4,-0.1c-7.9,-2.5 -14.1,-6.9 -15.9,-8.1c-1.7,-1.2 -3.5,-4.2 -0.3,-6.9z" data-paper-data="{&quot;origPos&quot;:null}" id="leg" fill="#ffab19" fill-rule="evenodd" stroke="#001026" stroke-width="2" stroke-linecap="round" stroke-linejoin="round"/><path d="M232.92103,194.7c0,2.6 -2.1,5.3 -3.3,6.9c-1.2,1.6 -6.8,7.5 -13.7,4.4c-2.9,-1.5 -9.7,-7.1 -6.1,-10.4c3.6,-3.3 6.9,0.8 9.3,2.9c2,1.8 8.1,-5.4 8.6,-5.8c1.7,-1.5 5.1,-0.8 5.2,2z" data-paper-data="{&quot;origPos&quot;:null}" id="arm" fill="#ffab19" fill-rule="evenodd" stroke="#001026" stroke-width="2" stroke-linecap="round" stroke-linejoin="round"/><g data-paper-data="{&quot;origPos&quot;:null}" id="body-and-leg" fill-rule="evenodd" stroke-width="2"><path d="M235.12103,208.7c-1.2,-0.9 -2.4,-2.4 -4,-4.7c-1.3,-1.9 -2.7,-5.6 -2.7,-5.6c-0.9,-2.5 -1.5,-7.3 1.8,-7.2c2.2,0.1 4.2,-0.2 7.6,-0.7c6,-1.2 7.1,-2 9.6,2.1c2.7,4.8 9.6,8.3 1.1,16.6c0,0 -4.9,3.8 -10.8,9.6c-4,3.9 -10.3,9.5 -12.5,11.4c-0.5,0.4 -1.1,0.6 -1.7,0.7c-9.7,0.9 -16.9,-0.1 -16.9,-4.4c0,-7.2 14.3,-4.7 14.3,-4.7c0,0 4.6,-3.9 6.7,-5.8z" id="body" fill="#ffab19" stroke="#001026" stroke-linecap="round" stroke-linejoin="round"/><path d="M230.72103,202c0,0 -1.9,-2.5 2.4,-5.2c4.5,-2.9 6.2,0.3 8,2.7c2,3.1 0,4.6 -2,6.4c-1.6,1.5 -3.1,2.7 -3.1,2.7c0,0 -3.1,-2.1 -5.3,-6.6z" id="tummy" fill="#ffffff" stroke="none" stroke-linecap="butt" stroke-linejoin="miter"/></g><path d="M251.02103,198.8c-1.1,-0.7 -2.6,-1.9 -4.1,-3c-2.5,-1.8 -6.1,-5.8 -1.1,-7.6c4,-1.5 7.6,1.3 11.9,4.4c2.2,1.7 4.8,3.7 3.9,6.8c-1,3.5 -5.9,13.5 -11.8,10.2c-4.3,-2.9 -0.9,-6.4 1.3,-9.2c0.3,-0.5 0.2,-1.1 -0.1,-1.6z" data-paper-data="{&quot;origPos&quot;:null}" id="arm" fill="#ffab19" fill-rule="evenodd" stroke="#001026" stroke-width="2" stroke-linecap="round" stroke-linejoin="round"/><g data-paper-data="{&quot;origPos&quot;:null}" id="head" fill-rule="evenodd" stroke-width="2"><path d="M228.22103,141c2.3,-0.4 4.7,-0.6 7.5,-0.4c4.7,0.2 9.2,1.9 9.2,1.9l12.1,-7.9c0.4,-0.2 0.9,0.1 0.8,0.5l-2.1,17.9c-0.6,-0.8 10.6,12.8 3.5,24.2c-7.1,11.4 -22.2,16.5 -41,12.8c-18.8,-3.7 -23.2,-14.5 -22,-20.2c1.2,-5.7 8.3,-7.8 8.3,-7.8c0,0 0.1,-4.5 3.3,-10c1.9,-3.3 8.3,-8 8.3,-8l2.6,-10.7c0.1,-0.4 0.6,-0.5 0.9,-0.3z" data-paper-data="{&quot;origPos&quot;:null}" fill="#ffab19" stroke="#001026" stroke-linecap="butt" stroke-linejoin="miter"/><path d="M221.32103,167.3c8.4,0.6 19.9,-8.5 26.6,2.2c6.7,10.6 -4.8,25 -29,20c-18.6,-3.6 -23.4,-13.9 -22.2,-19.6c1.2,-5.7 8.1,-7.5 8.1,-7.5c8.5,-1.9 9.3,4.4 16.5,4.9z" id="face" fill="#ffffff" stroke="none" stroke-linecap="butt" stroke-linejoin="miter"/><path d="M226.62103,185.4c-10.5,0.6 -14.3,-6.9 -15.2,-9.6c-0.2,-0.5 0.2,-1 0.7,-0.9c1.5,0.3 4.7,0.6 10.1,0.3c6,-0.4 11.4,-2 13.3,-2.7c0.4,-0.1 0.8,0.2 0.8,0.6c0.3,4.9 -0.6,11.3 -9.7,12.3z" id="mouth" fill="#ffffff" stroke="#001026" stroke-linecap="round" stroke-linejoin="round"/><path d="M198.32103,167.4c0,0 -7.2,-0.1 -11.9,-3.9" id="whisker" fill="none" stroke="#001026" stroke-linecap="round" stroke-linejoin="round"/><path d="M197.92103,173.3c0,0 -3.9,1.9 -10.2,1.4" id="whisker" fill="none" stroke="#001026" stroke-linecap="round" stroke-linejoin="round"/><path d="M226.32103,166c0,1.6 -4.2,4.1 -6,3.9c-1.6,-0.1 -3.1,-2.9 -3,-4.3c0.1,-0.7 2.3,-0.9 4.4,-0.9c2,0 4.7,0.1 4.6,1.3z" id="nose" fill="#001026" stroke="#001026" stroke-linecap="round" stroke-linejoin="round"/><path d="M254.62103,169.1c3.5,-3.1 12.1,-5.9 12.1,-5.9" id="whisker" fill="none" stroke="#001026" stroke-linecap="round" stroke-linejoin="round"/><path d="M266.02103,173.2c0,0 -7.4,1.1 -11.7,-0.6" id="whisker" fill="none" stroke="#001026" stroke-linecap="round" stroke-linejoin="round"/><g id="eye"><path d="M220.32103,148.2c2.8,1.8 2.7,6.9 -0.2,11.4c-3,4.5 -7.6,6.6 -10.4,4.8c-2.8,-1.8 -2.7,-6.9 0.2,-11.4c2.9,-4.5 7.6,-6.7 10.4,-4.8z" id="pupil" fill="#ffffff" stroke="#001026" stroke-linecap="round" stroke-linejoin="round"/><path d="M210.32103,158.7c0,-1.1 0.8,-2 1.8,-2c1,0 1.8,0.9 1.8,2c0,1.1 -0.8,2 -1.8,2c-1,0 -1.8,-0.9 -1.8,-2" id="pupil" fill="#001026" stroke="none" stroke-linecap="butt" stroke-linejoin="miter"/></g><g id="eye"><path d="M245.52103,151.3c3.1,2.2 2.9,7.9 -0.2,12.3c-3,4.4 -7.4,5.8 -10.7,3.9c-2.7,-1.9 -2.9,-7.3 0.1,-11.7c3,-4.4 7.7,-6.8 10.8,-4.5z" fill="#ffffff" stroke="#001026" stroke-linecap="round" stroke-linejoin="round"/><path d="M235.32103,161.6c0,-1.1 0.8,-1.9 1.8,-2c1,0 1.8,0.9 1.8,2c0,1.1 -0.8,2 -1.8,2c-1,0 -1.8,-0.9 -1.8,-2" id="pupil" fill="#001026" stroke="none" stroke-linecap="butt" stroke-linejoin="miter"/></g></g><path d="M260.77172,153.18989c0,0 -21.71179,1.49795 -34.9617,0.44915c-13.6054,-1.07694 -20.49663,-3.29771 -33.80501,-6.32324c-6.8257,-1.55175 18.24463,-2.67851 18.24463,-2.67851c0,0 3.23908,-15.65346 12.68359,-20.07809c5.14388,-2.40984 8.83034,-2.58258 14.78113,-1.8821c29.50747,3.4734 23.05736,30.51279 23.05736,30.51279z" data-paper-data="{&quot;origPos&quot;:null,&quot;origRot&quot;:0}" fill="url(#color-1)" fill-rule="nonzero" stroke="#787400" stroke-width="2.5" stroke-linecap="round" stroke-linejoin="miter"/><path d="M211.82103,139l-3.5,2l-6,-1.5l3,-12.5l8,1.5l1.5,5z" data-paper-data="{&quot;origPos&quot;:null}" fill="#5a5a5a" fill-rule="nonzero" stroke="#000000" stroke-width="2" stroke-linecap="round" stroke-linejoin="miter"/><path d="M258.0874,140.15343c0,0 -14.75633,1.19244 -22.92103,0.35554c-8.8245,-0.90453 -20.61168,-4.81775 -20.61168,-4.81775" data-paper-data="{&quot;origPos&quot;:null,&quot;origRot&quot;:0}" fill="none" fill-rule="nonzero" stroke="#000000" stroke-width="3.5" stroke-linecap="round" stroke-linejoin="miter"/><path d="M210.82103,145.5c0,0 11.07318,2.91563 18.09527,3.82171c11.12513,1.4355 30.40473,2.67829 30.40473,2.67829c0,0 -16.96959,1.65303 -28.99127,0.84032c-26.07553,-1.7628 -36.00873,-6.34032 -36.00873,-6.34032z" data-paper-data="{&quot;origPos&quot;:null}" fill="#d5ce00" fill-rule="nonzero" stroke="#d5ce00" stroke-width="0" stroke-linecap="round" stroke-linejoin="miter"/></g></g></svg>