<svg version="1.1" xmlns="http://www.w3.org/2000/svg" xmlns:xlink="http://www.w3.org/1999/xlink" width="21.17272" height="18.34273" viewBox="0,0,21.17272,18.34273"><g transform="translate(-241.35001,-189.43129)"><g data-paper-data="{&quot;isPaintingLayer&quot;:true}" fill-rule="nonzero" stroke-miterlimit="10" stroke-dasharray="" stroke-dashoffset="0" style="mix-blend-mode: normal"><path d="M255.95456,196.00812c0,-3.84349 -4.0856,-4.20291 -1.58391,-5.35614c0.60289,-0.27792 1.25571,-0.43827 1.94755,-0.46204c5.29202,-0.18182 5.45454,2.50298 5.45454,8.0909c0,7.67882 -4.75585,6.50039 -6.72728,6.36364c-4.49638,-0.31191 0.90909,-3.86664 0.90909,-8.63637z" data-paper-data="{&quot;index&quot;:null}" fill="#177fff" stroke="#004ede" stroke-width="1.5" stroke-linecap="butt" stroke-linejoin="miter"/><path d="M259.86364,199.9172c-0.41638,0 -2.45454,-0.36364 -2.45454,-0.36364l-0.36364,-1.36363c0,0 2.54684,0.36363 3,0.36363c0.29404,0 1.18182,-0.36363 1.18182,-0.36363v1.27273c0,0 -0.9624,0.45454 -1.36364,0.45454z" data-paper-data="{&quot;index&quot;:null}" fill="#0059ff" stroke="none" stroke-width="0" stroke-linecap="butt" stroke-linejoin="miter"/><path d="M254.9136,206.62147l-8.25,-11.125l6.875,-2.5l3.5,9.375c0,0 0.17706,2.14588 -0.175,2.85c-0.35623,0.71245 -1.95,1.4 -1.95,1.4z" data-paper-data="{&quot;index&quot;:null}" fill="#faa51f" stroke="none" stroke-width="0" stroke-linecap="butt" stroke-linejoin="miter"/><g data-paper-data="{&quot;index&quot;:null}" stroke="#8e5322" stroke-width="1.4" stroke-linecap="round" stroke-linejoin="round"><g data-paper-data="{&quot;index&quot;:null}"><path d="M253.74715,193.01699c3.52324,5.31591 4.70738,11.51222 1.70287,13.19767" fill="#faa51f"/><path d="M249.35002,199.71466" fill="#faa51f"/><path d="M246.25002,197.91466" fill="none"/><path d="M249.35002,199.71466l-2.7,-4.1" fill="#faa51f"/><path d="M249.35002,199.71466l1.2,-0.3" fill="none"/></g><path d="M255.35002,206.31466c-8.5,1.9 -13.1,0.1 -13.3,-3.9c-0.1,-1.7 2.9,-4.8 8.5,-3" data-paper-data="{&quot;index&quot;:null}" fill="#faa51f"/></g><path d="M253.20599,196.87322c-1.87197,0.90606 -6.13927,1.06531 -6.13927,1.06531l-1.0081,-1.59443c0,0 3.44044,-1.58043 5.6803,-2.34424c1.85915,-0.63399 6.83074,-0.28579 6.83074,-0.28579l0.55355,2.77624c0,0 -4.24825,-0.42489 -5.91722,0.38291z" data-paper-data="{&quot;index&quot;:null}" fill="#177fff" stroke="#004ede" stroke-width="1.5" stroke-linecap="butt" stroke-linejoin="miter"/></g></g></svg>