<svg version="1.1" xmlns="http://www.w3.org/2000/svg" xmlns:xlink="http://www.w3.org/1999/xlink" width="26.10037" height="19.59673" viewBox="0,0,26.10037,19.59673"><g transform="translate(-237.65444,-187.62332)"><g data-paper-data="{&quot;isPaintingLayer&quot;:true}" fill-rule="nonzero" stroke-miterlimit="10" stroke-dasharray="" stroke-dashoffset="0" style="mix-blend-mode: normal"><path d="M252.03299,194.79534c-1.53432,-3.91538 -1.22309,-4.31612 -0.37093,-4.67799c6.51835,-2.76801 8.29743,-2.59249 10.52813,3.09996c3.06539,7.82246 -3.3282,8.94309 -5.83811,9.76595c-5.72453,1.87673 -4.31909,-8.18792 -4.31909,-8.18792z" data-paper-data="{&quot;index&quot;:null}" fill="#f57700" stroke="#b55700" stroke-width="1.5" stroke-linecap="butt" stroke-linejoin="miter"/><path d="M261.99746,194.67692c0,0 -0.69421,0.86622 -1.06779,1.01261c-0.38768,0.15192 -2.44682,0.48347 -2.44682,0.48347l-0.94412,-1.41259c0,0 2.53275,-0.51716 2.95467,-0.6825c0.27377,-0.10728 1.05526,-0.88887 1.05526,-0.88887l0.4488,1.48787z" data-paper-data="{&quot;index&quot;:null}" fill="#3c3c3c" stroke="none" stroke-width="0" stroke-linecap="butt" stroke-linejoin="miter"/><path d="" fill="#ff8484" stroke="none" stroke-width="0" stroke-linecap="butt" stroke-linejoin="miter"/><path d="" fill="#ce0046" stroke="none" stroke-width="0" stroke-linecap="butt" stroke-linejoin="miter"/><path d="M237.65446,206.39746" data-paper-data="{&quot;index&quot;:null}" fill="#faa51f" stroke="#8e5322" stroke-width="1.4" stroke-linecap="round" stroke-linejoin="round"/><path d="M237.65445,206.39745" data-paper-data="{&quot;index&quot;:null}" fill="#faa51f" stroke="#8e5322" stroke-width="1.4" stroke-linecap="round" stroke-linejoin="round"/><path d="M254.18094,204.18966l-9.125,-8.5l6.125,-3.875l5.125,8.125c0,0 0.17706,2.14588 -0.175,2.85c-0.35623,0.71245 -1.95,1.4 -1.95,1.4z" data-paper-data="{&quot;index&quot;:null}" fill="#faa51f" stroke="none" stroke-width="0" stroke-linecap="butt" stroke-linejoin="miter"/><g data-paper-data="{&quot;index&quot;:null}" stroke="#8e5322" stroke-width="1.4" stroke-linecap="round" stroke-linejoin="round"><path d="M251.19698,191.56774c4.6131,4.0771 7.27614,9.43158 4.9284,11.85045" fill="#faa51f"/><path d="M248.42538,198.81819" fill="#faa51f"/><path d="M244.92538,198.01819" fill="none"/><path d="M244.72538,195.61819l3.7,3.2" fill="#faa51f"/><path d="M248.42538,198.81819l1.1,-0.6" fill="none"/></g><path d="M256.12538,203.51819c-7.7,4.2 -12.6,3.8 -13.9,0c-0.6,-1.6 1.4,-5.5 7.3,-5.3" data-paper-data="{&quot;index&quot;:null}" fill="#faa51f" stroke="#8e5322" stroke-width="1.4" stroke-linecap="round" stroke-linejoin="round"/><path d="M241.25001,204.81467" data-paper-data="{&quot;index&quot;:null}" fill="#faa51f" stroke="#8e5322" stroke-width="1.4" stroke-linecap="round" stroke-linejoin="round"/><path d="M241.25,204.81467" data-paper-data="{&quot;index&quot;:null}" fill="#faa51f" stroke="#8e5322" stroke-width="1.4" stroke-linecap="round" stroke-linejoin="round"/><path d="" fill="#ff8484" stroke="none" stroke-width="0" stroke-linecap="butt" stroke-linejoin="miter"/><path d="" fill="#ce0046" stroke="none" stroke-width="0" stroke-linecap="butt" stroke-linejoin="miter"/><path d="M257.41096,192.27936c0,0 -4.11041,1.15439 -5.3696,2.51544c-1.41234,1.5266 -5.32737,3.23182 -5.32737,3.23182l-1.52034,-1.11671c0,0 2.62664,-2.72675 4.43341,-4.25513c1.49967,-1.2686 6.25558,-2.75832 6.25558,-2.75832l1.52832,2.38289z" data-paper-data="{&quot;index&quot;:null}" fill="#f57700" stroke="#b55700" stroke-width="1.5" stroke-linecap="butt" stroke-linejoin="miter"/><path d="" fill="#ff8484" stroke="none" stroke-width="0" stroke-linecap="butt" stroke-linejoin="miter"/><path d="" fill="#ce0046" stroke="none" stroke-width="0" stroke-linecap="butt" stroke-linejoin="miter"/><path d="M237.65445,206.39746" data-paper-data="{&quot;index&quot;:null}" fill="#faa51f" stroke="#8e5322" stroke-width="1.4" stroke-linecap="round" stroke-linejoin="round"/><path d="M237.65444,206.39745" data-paper-data="{&quot;index&quot;:null}" fill="#faa51f" stroke="#8e5322" stroke-width="1.4" stroke-linecap="round" stroke-linejoin="round"/><path d="M241.25,204.81467" data-paper-data="{&quot;index&quot;:null}" fill="#faa51f" stroke="#8e5322" stroke-width="1.4" stroke-linecap="round" stroke-linejoin="round"/><path d="M241.24999,204.81467" data-paper-data="{&quot;index&quot;:null}" fill="#faa51f" stroke="#8e5322" stroke-width="1.4" stroke-linecap="round" stroke-linejoin="round"/></g></g></svg>