<svg version="1.1" xmlns="http://www.w3.org/2000/svg" xmlns:xlink="http://www.w3.org/1999/xlink" width="318.29666" height="132.96176" viewBox="0,0,318.29666,132.96176"><g transform="translate(-89.07822,-98.35273)"><g data-paper-data="{&quot;isPaintingLayer&quot;:true}" fill-rule="nonzero" stroke-linejoin="miter" stroke-miterlimit="10" stroke-dasharray="" stroke-dashoffset="0" style="mix-blend-mode: normal"><text transform="translate(89.36728,122.63479) scale(0.28815,0.28815)" font-size="40" xml:space="preserve" fill="#ffffff" fill-rule="nonzero" stroke="#ffffff" stroke-width="0" stroke-linecap="butt" stroke-linejoin="miter" stroke-miterlimit="10" stroke-dasharray="" stroke-dashoffset="0" font-family="Pixel" font-weight="normal" text-anchor="start" style="mix-blend-mode: normal"><tspan x="0" dy="0">Movement:</tspan></text><text transform="translate(381.73443,107.7403) scale(0.17374,0.17374)" font-size="40" xml:space="preserve" fill="#ffffff" fill-rule="nonzero" stroke="none" stroke-width="1" stroke-linecap="butt" stroke-linejoin="miter" stroke-miterlimit="10" stroke-dasharray="" stroke-dashoffset="0" font-family="Sans Serif" font-weight="normal" text-anchor="start" style="mix-blend-mode: normal"><tspan x="0" dy="0">W</tspan></text><g fill="none" stroke="#ffffff"><path d="M310.90159,117.2934l-3.57221,3.49366l3.57221,3.43014" stroke-width="2" stroke-linecap="round"/><path d="M303.08122,125.26399c0,-1.45767 0,-6.28333 0,-8.93757c0,-1.07099 0.74651,-1.78845 1.85417,-1.78845c2.68809,0 7.50316,0 8.93757,0c0.79368,0 1.65702,0.73235 1.65702,1.82131c0,2.65083 0,7.41481 0,8.87185c0,0.83291 -0.64536,1.75559 -1.62416,1.75559c-2.57581,0 -7.46082,0 -8.97043,0c-0.87152,0 -1.85417,-0.90283 -1.85417,-1.72273z" stroke-width="1.5" stroke-linecap="butt"/></g><path d="M328.23204,118.98869l-3.49922,3.56677l-3.42458,-3.57755" data-paper-data="{&quot;index&quot;:null}" fill="none" stroke="#ffffff" stroke-width="2" stroke-linecap="round"/><path d="M320.53309,114.53796c1.50961,0 6.39461,0 8.97043,0c0.97881,0 1.62416,0.92269 1.62416,1.75559c0,1.45704 0,6.22103 0,8.87186c0,1.08896 -0.86334,1.82131 -1.65702,1.82131c-1.43441,0 -6.24948,0 -8.93757,0c-1.10766,0 -1.85418,-0.71746 -1.85418,-1.78846c0,-2.65424 0,-7.4799 0,-8.93757c0,-0.81991 0.98266,-1.72274 1.85418,-1.72274z" data-paper-data="{&quot;index&quot;:null}" fill="none" stroke="#ffffff" stroke-width="1.5" stroke-linecap="butt"/><path d="M318.67891,109.82877c0,-1.45767 0,-6.28334 0,-8.93758c0,-1.07099 0.74651,-1.78845 1.85418,-1.78845c2.68809,0 7.50316,0 8.93757,0c0.79368,0 1.65702,0.73235 1.65702,1.82131c0,2.65083 0,7.41482 0,8.87186c0,0.83291 -0.64535,1.75559 -1.62416,1.75559c-2.57581,0 -7.46081,0 -8.97043,0c-0.87152,0 -1.85418,-0.90283 -1.85418,-1.72273z" fill="none" stroke="#ffffff" stroke-width="1.5" stroke-linecap="butt"/><g data-paper-data="{&quot;index&quot;:null}" fill="none" stroke="#ffffff"><path d="M338.95916,117.2934l3.57221,3.49366l-3.57221,3.43014" stroke-width="2" stroke-linecap="round"/><path d="M344.92536,126.98673c-1.50961,0 -6.39462,0 -8.97043,0c-0.97881,0 -1.62416,-0.92269 -1.62416,-1.7556c0,-1.45704 0,-6.22103 0,-8.87186c0,-1.08896 0.86334,-1.82131 1.65702,-1.82131c1.43441,0 6.24949,0 8.93757,0c1.10766,0 1.85417,0.71746 1.85417,1.78845c0,2.65424 0,7.47991 0,8.93758c0,0.81991 -0.98266,1.72274 -1.85417,1.72274z" stroke-width="1.5" stroke-linecap="butt"/></g><path d="M328.44867,106.77583l-3.49921,-3.56677l-3.42458,3.57755" fill="none" stroke="#ffffff" stroke-width="2" stroke-linecap="round"/><path d="M362.92656,125.26399c0,-1.45767 0,-6.28334 0,-8.93758c0,-1.07099 0.74651,-1.78845 1.85417,-1.78845c2.68809,0 7.50316,0 8.93757,0c0.79368,0 1.65702,0.73235 1.65702,1.82131c0,2.65083 0,7.41482 0,8.87186c0,0.83291 -0.64535,1.7556 -1.62415,1.7556c-2.57581,0 -7.46082,0 -8.97043,0c-0.87152,0 -1.85417,-0.90283 -1.85417,-1.72273z" fill="none" stroke="#ffffff" stroke-width="1.5" stroke-linecap="butt"/><path d="M380.37843,114.53796c1.50961,0 6.39462,0 8.97043,0c0.97881,0 1.62415,0.92269 1.62415,1.75559c0,1.45704 0,6.22103 0,8.87186c0,1.08896 -0.86334,1.82131 -1.65702,1.82131c-1.43441,0 -6.24948,0 -8.93757,0c-1.10766,0 -1.85417,-0.71746 -1.85417,-1.78846c0,-2.65424 0,-7.4799 0,-8.93757c0,-0.81991 0.98266,-1.72274 1.85417,-1.72274z" data-paper-data="{&quot;index&quot;:null}" fill="none" stroke="#ffffff" stroke-width="1.5" stroke-linecap="butt"/><path d="M378.52426,109.82877c0,-1.45767 0,-6.28333 0,-8.93757c0,-1.07099 0.74651,-1.78845 1.85417,-1.78845c2.68809,0 7.50316,0 8.93757,0c0.79368,0 1.65702,0.73235 1.65702,1.82131c0,2.65083 0,7.41481 0,8.87186c0,0.83291 -0.64535,1.75559 -1.62415,1.75559c-2.57581,0 -7.46082,0 -8.97043,0c-0.87152,0 -1.85417,-0.90283 -1.85417,-1.72273z" fill="none" stroke="#ffffff" stroke-width="1.5" stroke-linecap="butt"/><path d="M404.7707,126.98673c-1.50961,0 -6.39461,0 -8.97043,0c-0.97881,0 -1.62416,-0.92269 -1.62416,-1.7556c0,-1.45704 0,-6.22103 0,-8.87186c0,-1.08896 0.86334,-1.82131 1.65702,-1.82131c1.43441,0 6.24948,0 8.93757,0c1.10766,0 1.85417,0.71746 1.85417,1.78845c0,2.65424 0,7.47991 0,8.93758c0,0.81991 -0.98266,1.72274 -1.85417,1.72274z" fill="none" stroke="#ffffff" stroke-width="1.5" stroke-linecap="butt"/><text transform="translate(350.69097,125.74107) scale(0.18675,0.18675)" font-size="40" xml:space="preserve" fill="#ffffff" fill-rule="nonzero" stroke="none" stroke-width="1" stroke-linecap="butt" stroke-linejoin="miter" stroke-miterlimit="10" stroke-dasharray="" stroke-dashoffset="0" font-family="Pixel" font-weight="normal" text-anchor="start" style="mix-blend-mode: normal"><tspan x="0" dy="0">or</tspan></text><text transform="translate(383.04971,123.39215) scale(0.17374,0.17374)" font-size="40" xml:space="preserve" fill="#ffffff" fill-rule="nonzero" stroke="none" stroke-width="1" stroke-linecap="butt" stroke-linejoin="miter" stroke-miterlimit="10" stroke-dasharray="" stroke-dashoffset="0" font-family="Sans Serif" font-weight="normal" text-anchor="start" style="mix-blend-mode: normal"><tspan x="0" dy="0">S</tspan></text><text transform="translate(367.00326,123.1291) scale(0.17374,0.17374)" font-size="40" xml:space="preserve" data-paper-data="{&quot;index&quot;:null}" fill="#ffffff" fill-rule="nonzero" stroke="none" stroke-width="1" stroke-linecap="butt" stroke-linejoin="miter" stroke-miterlimit="10" stroke-dasharray="" stroke-dashoffset="0" font-family="Sans Serif" font-weight="normal" text-anchor="start" style="mix-blend-mode: normal"><tspan x="0" dy="0">A</tspan></text><text transform="translate(397.64934,122.99757) scale(0.17374,0.17374)" font-size="40" xml:space="preserve" fill="#ffffff" fill-rule="nonzero" stroke="none" stroke-width="1" stroke-linecap="butt" stroke-linejoin="miter" stroke-miterlimit="10" stroke-dasharray="" stroke-dashoffset="0" font-family="Sans Serif" font-weight="normal" text-anchor="start" style="mix-blend-mode: normal"><tspan x="0" dy="0">D</tspan></text><text transform="translate(284.92685,126.66177) scale(0.18675,0.18675)" font-size="40" xml:space="preserve" fill="#ffffff" fill-rule="nonzero" stroke="none" stroke-width="1" stroke-linecap="butt" stroke-linejoin="miter" stroke-miterlimit="10" stroke-dasharray="" stroke-dashoffset="0" font-family="Pixel" font-weight="normal" text-anchor="start" style="mix-blend-mode: normal"><tspan x="0" dy="0">and</tspan></text><g fill="none" stroke="#ffffff" stroke-width="1.5" stroke-linecap="butt"><path d="M228.51567,125.43936c0,-1.45767 0,-6.28333 0,-8.93757c0,-1.07099 0.74651,-1.78845 1.85417,-1.78845c2.68809,0 47.78368,0 49.21809,0c0.79368,0 1.65702,0.73235 1.65702,1.82131c0,2.65083 0,7.41481 0,8.87185c0,0.83291 -0.64535,1.75559 -1.62415,1.75559c-2.57581,0 -47.74133,0 -49.25095,0c-0.87152,0 -1.85417,-0.90283 -1.85417,-1.72273z"/><path d="M243.61143,123.56345v-0.46035h21.17604v0.46035z"/></g><text transform="translate(89.36728,158.92389) scale(0.28906,0.28906)" font-size="40" xml:space="preserve" fill="#ffffff" fill-rule="nonzero" stroke="#ffffff" stroke-width="0" stroke-linecap="butt" stroke-linejoin="miter" stroke-miterlimit="10" stroke-dasharray="" stroke-dashoffset="0" font-family="Pixel" font-weight="normal" text-anchor="start" style="mix-blend-mode: normal"><tspan x="0" dy="0">Select item:</tspan></text><path d="M315.22656,159.76399c0,-1.45766 0,-6.28334 0,-8.93758c0,-1.071 0.74651,-1.78845 1.85417,-1.78845c2.68809,0 7.50316,0 8.93757,0c0.79368,0 1.65702,0.73235 1.65702,1.82131c0,2.65083 0,7.41482 0,8.87186c0,0.83291 -0.64535,1.75559 -1.62416,1.75559c-2.57581,0 -7.46081,0 -8.97043,0c-0.87152,0 -1.85417,-0.90283 -1.85417,-1.72273z" fill="none" stroke="#ffffff" stroke-width="1.5" stroke-linecap="butt"/><path d="M332.67843,149.03796c1.50961,0 6.39462,0 8.97043,0c0.97881,0 1.62415,0.92269 1.62415,1.75559c0,1.45704 0,6.22103 0,8.87186c0,1.08896 -0.86334,1.82131 -1.65702,1.82131c-1.43441,0 -6.24948,0 -8.93757,0c-1.10766,0 -1.85417,-0.71746 -1.85417,-1.78845c0,-2.65424 0,-7.47991 0,-8.93757c0,-0.81991 0.98266,-1.72274 1.85417,-1.72274z" data-paper-data="{&quot;index&quot;:null}" fill="none" stroke="#ffffff" stroke-width="1.5" stroke-linecap="butt"/><path d="M357.0707,161.48673c-1.50961,0 -6.39461,0 -8.97043,0c-0.97881,0 -1.62416,-0.92269 -1.62416,-1.75559c0,-1.45704 0,-6.22103 0,-8.87186c0,-1.08896 0.86334,-1.82131 1.65702,-1.82131c1.43441,0 6.24948,0 8.93757,0c1.10766,0 1.85417,0.71746 1.85417,1.78845c0,2.65424 0,7.47991 0,8.93758c0,0.81991 -0.98266,1.72274 -1.85417,1.72274z" fill="none" stroke="#ffffff" stroke-width="1.5" stroke-linecap="butt"/><text transform="translate(335.14971,157.69215) scale(0.17374,0.17374)" font-size="40" xml:space="preserve" fill="#ffffff" fill-rule="nonzero" stroke="none" stroke-width="1" stroke-linecap="butt" stroke-linejoin="miter" stroke-miterlimit="10" stroke-dasharray="" stroke-dashoffset="0" font-family="Sans Serif" font-weight="normal" text-anchor="start" style="mix-blend-mode: normal"><tspan x="0" dy="0">2</tspan></text><text transform="translate(319.70326,157.8291) scale(0.17374,0.17374)" font-size="40" xml:space="preserve" data-paper-data="{&quot;index&quot;:null}" fill="#ffffff" fill-rule="nonzero" stroke="none" stroke-width="1" stroke-linecap="butt" stroke-linejoin="miter" stroke-miterlimit="10" stroke-dasharray="" stroke-dashoffset="0" font-family="Sans Serif" font-weight="normal" text-anchor="start" style="mix-blend-mode: normal"><tspan x="0" dy="0">1</tspan></text><text transform="translate(350.54934,157.69757) scale(0.17374,0.17374)" font-size="40" xml:space="preserve" fill="#ffffff" fill-rule="nonzero" stroke="none" stroke-width="1" stroke-linecap="butt" stroke-linejoin="miter" stroke-miterlimit="10" stroke-dasharray="" stroke-dashoffset="0" font-family="Sans Serif" font-weight="normal" text-anchor="start" style="mix-blend-mode: normal"><tspan x="0" dy="0">3</tspan></text><path d="M362.22656,159.76399c0,-1.45766 0,-6.28334 0,-8.93758c0,-1.071 0.74651,-1.78845 1.85417,-1.78845c2.68809,0 7.50316,0 8.93757,0c0.79368,0 1.65702,0.73235 1.65702,1.82131c0,2.65083 0,7.41482 0,8.87186c0,0.83291 -0.64535,1.75559 -1.62416,1.75559c-2.57581,0 -7.46081,0 -8.97043,0c-0.87152,0 -1.85417,-0.90283 -1.85417,-1.72273z" fill="none" stroke="#ffffff" stroke-width="1.5" stroke-linecap="butt"/><path d="M379.67843,149.03796c1.50961,0 6.39462,0 8.97043,0c0.97881,0 1.62415,0.92269 1.62415,1.75559c0,1.45704 0,6.22103 0,8.87186c0,1.08896 -0.86334,1.82131 -1.65702,1.82131c-1.43441,0 -6.24948,0 -8.93757,0c-1.10766,0 -1.85417,-0.71746 -1.85417,-1.78845c0,-2.65424 0,-7.47991 0,-8.93757c0,-0.81991 0.98266,-1.72274 1.85417,-1.72274z" data-paper-data="{&quot;index&quot;:null}" fill="none" stroke="#ffffff" stroke-width="1.5" stroke-linecap="butt"/><path d="M404.0707,161.48673c-1.50961,0 -6.39461,0 -8.97043,0c-0.97881,0 -1.62416,-0.92269 -1.62416,-1.75559c0,-1.45704 0,-6.22103 0,-8.87186c0,-1.08896 0.86334,-1.82131 1.65702,-1.82131c1.43441,0 6.24948,0 8.93757,0c1.10766,0 1.85417,0.71746 1.85417,1.78845c0,2.65424 0,7.47991 0,8.93758c0,0.81991 -0.98266,1.72274 -1.85417,1.72274z" fill="none" stroke="#ffffff" stroke-width="1.5" stroke-linecap="butt"/><text transform="translate(382.34971,157.69215) scale(0.17374,0.17374)" font-size="40" xml:space="preserve" fill="#ffffff" fill-rule="nonzero" stroke="none" stroke-width="1" stroke-linecap="butt" stroke-linejoin="miter" stroke-miterlimit="10" stroke-dasharray="" stroke-dashoffset="0" font-family="Sans Serif" font-weight="normal" text-anchor="start" style="mix-blend-mode: normal"><tspan x="0" dy="0">5</tspan></text><text transform="translate(366.70326,157.8291) scale(0.17374,0.17374)" font-size="40" xml:space="preserve" data-paper-data="{&quot;index&quot;:null}" fill="#ffffff" fill-rule="nonzero" stroke="none" stroke-width="1" stroke-linecap="butt" stroke-linejoin="miter" stroke-miterlimit="10" stroke-dasharray="" stroke-dashoffset="0" font-family="Sans Serif" font-weight="normal" text-anchor="start" style="mix-blend-mode: normal"><tspan x="0" dy="0">4</tspan></text><text transform="translate(397.34934,157.69757) scale(0.17374,0.17374)" font-size="40" xml:space="preserve" fill="#ffffff" fill-rule="nonzero" stroke="none" stroke-width="1" stroke-linecap="butt" stroke-linejoin="miter" stroke-miterlimit="10" stroke-dasharray="" stroke-dashoffset="0" font-family="Sans Serif" font-weight="normal" text-anchor="start" style="mix-blend-mode: normal"><tspan x="0" dy="0">6</tspan></text><text transform="translate(89.36728,192.9239) scale(0.28906,0.28906)" font-size="40" xml:space="preserve" fill="#ffffff" fill-rule="nonzero" stroke="#ffffff" stroke-width="0" stroke-linecap="butt" stroke-linejoin="miter" stroke-miterlimit="10" stroke-dasharray="" stroke-dashoffset="0" font-family="Pixel" font-weight="normal" text-anchor="start" style="mix-blend-mode: normal"><tspan x="0" dy="0">Use item:</tspan></text><text transform="translate(355.27469,194.25767) scale(0.29137,0.29137)" font-size="40" xml:space="preserve" data-paper-data="{&quot;index&quot;:null}" fill="#ffffff" fill-rule="nonzero" stroke="none" stroke-width="1" stroke-linecap="butt" stroke-linejoin="miter" stroke-miterlimit="10" stroke-dasharray="" stroke-dashoffset="0" font-family="Sans Serif" font-weight="normal" text-anchor="start" style="mix-blend-mode: normal"><tspan x="0" dy="0">Left-click</tspan></text><text transform="translate(89.36728,228.4239) scale(0.28906,0.28906)" font-size="40" xml:space="preserve" fill="#ffffff" fill-rule="nonzero" stroke="#ffffff" stroke-width="0" stroke-linecap="butt" stroke-linejoin="miter" stroke-miterlimit="10" stroke-dasharray="" stroke-dashoffset="0" font-family="Pixel" font-weight="normal" text-anchor="start" style="mix-blend-mode: normal"><tspan x="0" dy="0">Inventory:</tspan></text><path d="M401.5707,229.98673c-1.50961,0 -6.39461,0 -8.97043,0c-0.97881,0 -1.62416,-0.92269 -1.62416,-1.75559c0,-1.45704 0,-6.22103 0,-8.87186c0,-1.08896 0.86334,-1.82131 1.65702,-1.82131c1.43441,0 6.24948,0 8.93757,0c1.10766,0 1.85417,0.71746 1.85417,1.78845c0,2.65424 0,7.47991 0,8.93758c0,0.81991 -0.98266,1.72274 -1.85417,1.72274z" fill="none" stroke="#ffffff" stroke-width="1.5" stroke-linecap="butt"/><text transform="translate(394.94025,226.72032) scale(0.20722,0.20722)" font-size="40" xml:space="preserve" fill="#ffffff" fill-rule="nonzero" stroke="none" stroke-width="1" stroke-linecap="butt" stroke-linejoin="miter" stroke-miterlimit="10" stroke-dasharray="" stroke-dashoffset="0" font-family="Sans Serif" font-weight="normal" text-anchor="start" style="mix-blend-mode: normal"><tspan x="0" dy="0">E</tspan></text></g></g></svg>