<svg version="1.1" xmlns="http://www.w3.org/2000/svg" xmlns:xlink="http://www.w3.org/1999/xlink" width="54.19099" height="43.53258" viewBox="0,0,54.19099,43.53258"><g transform="translate(-213.50115,-149.3587)"><g data-paper-data="{&quot;isPaintingLayer&quot;:true}" fill-rule="nonzero" stroke-width="1" stroke-miterlimit="10" stroke-dasharray="" stroke-dashoffset="0" style="mix-blend-mode: normal"><path d="M243.14056,159.37563l3.67137,-0.97914l2.93621,3.75433c0,0 4.0967,3.03949 5.35214,5.15391c2.04835,3.50202 2.11442,6.34327 2.11442,6.34327c0,0 4.55923,1.38759 5.35214,5.02176c0.79291,3.63417 -2.04835,10.57212 -14.07414,12.95085c-12.02579,2.37873 -21.67285,-0.85898 -26.23208,-8.19339c-4.49315,-7.26834 2.64303,-15.99034 2.24657,-15.46173l0.09789,-7.59235l6.774,0.9187c0,0 2.84126,-1.12329 5.88074,-1.25544c1.12329,-0.06608 3.17164,0.06607 4.16277,0.13215z" data-paper-data="{&quot;index&quot;:null}" fill="#ab7f49" stroke="none" stroke-linecap="butt" stroke-linejoin="miter"/><path d="M256.9504,173.97838c0,0 4.361,1.05721 5.15391,4.69138c0.99114,3.63417 -2.24657,10.50605 -13.61161,12.5544c-2.57695,0.46253 -4.88961,0.92506 -8.52377,0.92506c-5.61644,0.06608 -11.76148,-3.43594 -11.29895,-10.77035c0.2643,-4.22885 5.61644,-3.89847 5.61644,-3.89847l4.69138,-1.18936c0,0 4.69138,1.05721 7.46656,0.46253c2.77518,-0.59468 2.77518,-2.77518 2.77518,-2.77518l5.81467,-1.71797l1.58582,1.32151z" data-paper-data="{&quot;index&quot;:null}" fill="#ffffff" stroke="none" stroke-linecap="butt" stroke-linejoin="miter"/><path d="M267.19214,174.50699c0,0 -1.18936,1.05721 -2.90733,1.6519c-1.45367,0.5286 -4.361,0.99114 -4.361,0.99114" data-paper-data="{&quot;index&quot;:null}" fill="none" stroke="#785020" stroke-linecap="round" stroke-linejoin="round"/><path d="M266.79569,181.90748c0,0 -1.18936,0.13215 -2.97341,-0.06608c-1.85012,-0.13215 -3.56809,-0.85898 -3.56809,-0.85898" data-paper-data="{&quot;index&quot;:null}" fill="none" stroke="#785020" stroke-linecap="round" stroke-linejoin="round"/><path d="M229.85933,160.30069l3.43594,2.37873" data-paper-data="{&quot;index&quot;:null}" fill="none" stroke="#785020" stroke-linecap="round" stroke-linejoin="round"/><path d="M243.14056,159.37563l3.12832,-0.74642l3.47926,3.52159c0,0 4.0967,3.03949 5.35214,5.15391c2.04835,3.50202 2.11442,6.34327 2.11442,6.34327c0,0 4.55923,1.38759 5.35214,5.02176c0.79291,3.63417 -2.04835,10.57212 -14.07414,12.95085c-12.02579,2.37873 -21.67285,-0.85898 -26.23208,-8.19339c-4.49315,-7.26834 2.64303,-15.99034 2.24657,-15.46173l-0.52273,-6.66142l7.39461,-0.01223c0,0 2.84126,-1.12329 5.88074,-1.25544c1.12329,-0.06608 3.17164,0.06607 4.16277,0.13215z" data-paper-data="{&quot;index&quot;:null}" fill="none" stroke="#785020" stroke-linecap="round" stroke-linejoin="round"/><path d="M221.86417,180.45381c0,0 -2.31265,0.33038 -3.50202,0.39645c-1.18936,0.06608 -3.83239,-0.19823 -3.83239,-0.19823" data-paper-data="{&quot;index&quot;:null}" fill="none" stroke="#785020" stroke-linecap="round" stroke-linejoin="round"/><path d="M214.00115,174.30876c0,0 1.45367,0.2643 4.0967,1.45367c2.37873,1.05721 3.89847,2.1805 3.89847,2.1805" data-paper-data="{&quot;index&quot;:null}" fill="none" stroke="#785020" stroke-linecap="round" stroke-linejoin="round"/><path d="M253.64661,167.3708c1.85012,2.84126 1.9162,6.14504 0.13215,7.26833c-1.78405,1.18936 -4.75746,-0.19822 -6.60758,-3.10556c-1.85012,-2.84126 -1.9162,-6.14505 -0.13215,-7.26834c1.78405,-1.12329 4.75746,0.26431 6.60758,3.10556z" data-paper-data="{&quot;index&quot;:null}" fill="#ffffff" stroke="#785020" stroke-linecap="round" stroke-linejoin="round"/><path d="M253.56599,169.68112c0.24868,0.82894 -0.16579,1.65789 -0.99473,1.90657c-0.74605,0.24868 -1.57499,-0.24868 -1.82367,-1.16052c-0.24868,-0.82894 0.16579,-1.65789 0.99473,-1.90657c0.82894,-0.16579 1.57499,0.33158 1.82367,1.16052" data-paper-data="{&quot;index&quot;:null}" fill="#414142" stroke="none" stroke-linecap="butt" stroke-linejoin="miter"/><path d="M238.31703,169.41915c1.85012,2.84126 1.65189,6.2772 -0.46253,7.66479c-2.11442,1.38759 -5.35214,0.19823 -7.20226,-2.70911c-1.85012,-2.84126 -1.65189,-6.2772 0.46253,-7.66479c2.11442,-1.32152 5.35214,-0.13215 7.20226,2.70911z" data-paper-data="{&quot;index&quot;:null}" fill="#ffffff" stroke="#785020" stroke-linecap="round" stroke-linejoin="round"/><path d="M245.58536,175.96065c1.12329,-0.13215 2.64303,-0.99113 2.84126,0.26431c0,0.5286 -1.05721,2.7091 -2.24657,2.77518c-1.32152,0.06608 -3.63417,-1.58582 -3.56809,-2.57695c0.06608,-0.99114 1.98227,-0.33038 2.97341,-0.46253z" data-paper-data="{&quot;index&quot;:null}" fill="#5f4b43" stroke="#785020" stroke-linecap="round" stroke-linejoin="round"/><path d="M244.79246,186.92923c-3.56809,0.72683 -5.21999,-0.79291 -5.21999,-0.79291" data-paper-data="{&quot;index&quot;:null}" fill="#ffffff" stroke="#785020" stroke-linecap="round" stroke-linejoin="round"/><path d="M238.07289,171.97032c0.02357,0.86512 -0.593,1.55706 -1.45812,1.58062c-0.78511,0.04522 -1.45538,-0.65137 -1.45731,-1.59651c-0.02357,-0.86512 0.593,-1.55706 1.45812,-1.58062c0.84347,0.05644 1.43374,0.73139 1.45731,1.59651" data-paper-data="{&quot;index&quot;:null}" fill="#414142" stroke="none" stroke-linecap="butt" stroke-linejoin="miter"/><path d="M249.01932,156.78439c0,0 -0.10568,1.16609 0.29729,0.97754c4.3539,-2.03723 17.89684,3.10207 -8.63098,8.25398c-30.12495,5.45154 -18.0543,-1.21081 -18.0543,-1.21081" data-paper-data="{&quot;index&quot;:null}" fill="#ffde00" stroke="#d09000" stroke-linecap="round" stroke-linejoin="miter"/><path d="M222.08272,165.89689c0,0 -2.79442,-11.65598 10.39697,-15.27609c13.82954,-3.79524 19.03427,7.81876 19.03427,7.81876" data-paper-data="{&quot;index&quot;:null}" fill="#ffde00" stroke="#d09000" stroke-linecap="round" stroke-linejoin="miter"/><path d="M249.87732,155.47547c0,0 -4.78699,3.09252 -13.47151,5.37361c-9.20613,2.4181 -14.47616,1.9773 -14.47616,1.9773" data-paper-data="{&quot;index&quot;:null}" fill="none" stroke="#000000" stroke-linecap="round" stroke-linejoin="miter"/><path d="M248.05189,154.91162l1.34466,-3.55871c0,0 2.31705,-0.80748 4.65086,2.04102c3.30557,5.95237 0.08561,5.68117 0.22319,5.68968c0.44154,0.02733 -4.49428,-1.24976 -4.49428,-1.24976z" data-paper-data="{&quot;index&quot;:null}" fill="#000000" stroke="#000000" stroke-linecap="round" stroke-linejoin="miter"/><path d="M250.11783,150.54286c1.22314,-0.4727 2.74482,0.00378 4.19276,2.75303c1.44793,2.74925 1.63017,5.36114 0.40702,5.83385c-1.22314,0.4727 -3.38846,-1.37281 -4.8364,-4.12206c-1.44793,-2.74925 -0.98652,-3.99211 0.23662,-4.46482z" data-paper-data="{&quot;index&quot;:null}" fill="#ffffff" stroke="#000000" stroke-linecap="butt" stroke-linejoin="miter"/></g></g></svg>