<svg version="1.1" xmlns="http://www.w3.org/2000/svg" xmlns:xlink="http://www.w3.org/1999/xlink" width="23.5477" height="17.48444" viewBox="0,0,23.5477,17.48444"><g transform="translate(-241.32141,-190.28958)"><g data-paper-data="{&quot;isPaintingLayer&quot;:true}" fill-rule="nonzero" stroke-miterlimit="10" stroke-dasharray="" stroke-dashoffset="0" style="mix-blend-mode: normal"><path d="M254.08636,195.55661c0,-4.20528 0.43598,-4.46484 1.36143,-4.49085c7.07893,-0.19894 8.67133,0.61359 8.67133,6.72751c0,8.40164 -6.36171,7.11228 -8.99882,6.96266c-6.01464,-0.34127 -1.03394,-9.19932 -1.03394,-9.19932z" data-paper-data="{&quot;index&quot;:null}" fill="#ff7070" stroke="#ce0046" stroke-width="1.5" stroke-linecap="butt" stroke-linejoin="miter"/><path d="M261.835,200.1672c-0.41638,0 -2.45454,-0.44259 -2.45454,-0.44259l-0.36364,-1.65968c0,0 2.54684,0.44258 3,0.44258c0.29404,0 1.30682,-0.44258 1.30682,-0.44258l-0.125,1.54905c0,0 -0.9624,0.55322 -1.36364,0.55322z" data-paper-data="{&quot;index&quot;:null}" fill="#f5417d" stroke="none" stroke-width="0" stroke-linecap="butt" stroke-linejoin="miter"/><path d="M254.88499,206.62147l-8.25,-11.125l6.875,-2.5l3.5,9.375c0,0 0.17706,2.14588 -0.175,2.85c-0.35623,0.71245 -1.95,1.4 -1.95,1.4z" data-paper-data="{&quot;index&quot;:null}" fill="#faa51f" stroke="none" stroke-width="0" stroke-linecap="butt" stroke-linejoin="miter"/><g data-paper-data="{&quot;index&quot;:null}" stroke="#8e5322" stroke-width="1.4" stroke-linecap="round" stroke-linejoin="round"><g data-paper-data="{&quot;index&quot;:null}"><path d="M253.71853,193.01699c3.52324,5.31591 4.70738,11.51222 1.70287,13.19767" fill="#faa51f"/><path d="M249.3214,199.71466" fill="#faa51f"/><path d="M246.22139,197.91466" fill="none"/><path d="M249.32139,199.71466l-2.7,-4.1" fill="#faa51f"/><path d="M249.32139,199.71466l1.2,-0.3" fill="none"/></g><path d="M255.32141,206.31466c-8.5,1.9 -13.1,0.1 -13.3,-3.9c-0.1,-1.7 2.9,-4.8 8.5,-3" data-paper-data="{&quot;index&quot;:null}" fill="#faa51f"/></g><path d="M253.67736,196.62322c-1.87197,0.90606 -6.13927,1.06531 -6.13927,1.06531l-1.0081,-1.59443c0,0 3.44044,-1.58043 5.6803,-2.34424c1.85915,-0.63399 6.83074,-0.28579 6.83074,-0.28579l0.55355,2.77624c0,0 -4.24825,-0.42489 -5.91722,0.38291z" data-paper-data="{&quot;index&quot;:null}" fill="#ff7070" stroke="#ce0046" stroke-width="1.5" stroke-linecap="butt" stroke-linejoin="miter"/><path d="" fill="#ff8484" stroke="none" stroke-width="0" stroke-linecap="butt" stroke-linejoin="miter"/><path d="" fill="#ce0046" stroke="none" stroke-width="0" stroke-linecap="butt" stroke-linejoin="miter"/></g></g></svg>