<svg version="1.1" xmlns="http://www.w3.org/2000/svg" xmlns:xlink="http://www.w3.org/1999/xlink" width="26.44323" height="20.11944" viewBox="0,0,26.44323,20.11944"><g transform="translate(-237.65444,-187.10063)"><g data-paper-data="{&quot;isPaintingLayer&quot;:true}" fill-rule="nonzero" stroke-miterlimit="10" stroke-dasharray="" stroke-dashoffset="0" style="mix-blend-mode: normal"><path d="" fill="#ff8484" stroke="none" stroke-width="0" stroke-linecap="butt" stroke-linejoin="miter"/><path d="" fill="#ce0046" stroke="none" stroke-width="0" stroke-linecap="butt" stroke-linejoin="miter"/><path d="" fill="#ff8484" stroke="none" stroke-width="0" stroke-linecap="butt" stroke-linejoin="miter"/><path d="" fill="#ce0046" stroke="none" stroke-width="0" stroke-linecap="butt" stroke-linejoin="miter"/><path d="" fill="#ff8484" stroke="none" stroke-width="0" stroke-linecap="butt" stroke-linejoin="miter"/><path d="" fill="#ce0046" stroke="none" stroke-width="0" stroke-linecap="butt" stroke-linejoin="miter"/><path d="M257.28596,202.52836c-5.51431,2.42585 -5.09671,-7.72787 -5.09671,-7.72787c-1.90871,-3.74717 -1.63803,-4.17634 -0.8252,-4.61956c6.21747,-3.39027 8.00518,-3.38901 10.78018,2.05887c3.81335,7.48638 -2.44054,9.22495 -4.85828,10.28856z" data-paper-data="{&quot;index&quot;:null}" fill="#555555" stroke="#252525" stroke-width="1.5" stroke-linecap="butt" stroke-linejoin="miter"/><path d="M262.00757,194.27994c0,0 -0.60646,0.92976 -0.96399,1.11188c-0.37102,0.18899 -2.38803,0.7197 -2.38803,0.7197l-1.07733,-1.31383c0,0 2.47027,-0.7616 2.87407,-0.96728c0.26201,-0.13346 0.96357,-0.9875 0.96357,-0.9875l0.5917,1.43704z" data-paper-data="{&quot;index&quot;:null}" fill="#e00000" stroke="none" stroke-width="0" stroke-linecap="butt" stroke-linejoin="miter"/><path d="M254.21293,204.18966l-9.125,-8.5l6.125,-3.875l5.125,8.125c0,0 0.17706,2.14588 -0.175,2.85c-0.35623,0.71245 -1.95,1.4 -1.95,1.4z" data-paper-data="{&quot;index&quot;:null}" fill="#faa51f" stroke="none" stroke-width="0" stroke-linecap="butt" stroke-linejoin="miter"/><g data-paper-data="{&quot;index&quot;:null}" stroke="#8e5322" stroke-width="1.4" stroke-linecap="round" stroke-linejoin="round"><path d="M251.22897,191.56774c4.6131,4.0771 7.27614,9.43158 4.9284,11.85045" fill="#faa51f"/><path d="M248.45737,198.81819" fill="#faa51f"/><path d="M244.95737,198.01819" fill="none"/><path d="M244.75737,195.61819l3.7,3.2" fill="#faa51f"/><path d="M249.55737,198.21819l-1.1,0.6" fill="none"/></g><path d="M256.15737,203.51819c-7.7,4.2 -12.6,3.8 -13.9,0c-0.6,-1.6 1.4,-5.5 7.3,-5.3" data-paper-data="{&quot;index&quot;:null}" fill="#faa51f" stroke="#8e5322" stroke-width="1.4" stroke-linecap="round" stroke-linejoin="round"/><path d="M257.75428,192.44973c0,0 -4.12296,1.10877 -5.39715,2.45578c-1.42918,1.51085 -5.36286,3.17258 -5.36286,3.17258l-1.50787,-1.13349c0,0 2.6567,-2.69748 4.4803,-4.20574c1.51364,-1.25191 6.28577,-2.68882 6.28577,-2.68882l1.50182,2.39968z" data-paper-data="{&quot;index&quot;:null}" fill="#555555" stroke="#252525" stroke-width="1.5" stroke-linecap="butt" stroke-linejoin="miter"/><path d="" fill="#ff8484" stroke="none" stroke-width="0" stroke-linecap="butt" stroke-linejoin="miter"/><path d="" fill="#ce0046" stroke="none" stroke-width="0" stroke-linecap="butt" stroke-linejoin="miter"/><path d="M237.65446,206.39747" data-paper-data="{&quot;index&quot;:null}" fill="#faa51f" stroke="#8e5322" stroke-width="1.4" stroke-linecap="round" stroke-linejoin="round"/><path d="M237.65445,206.39746" data-paper-data="{&quot;index&quot;:null}" fill="#faa51f" stroke="#8e5322" stroke-width="1.4" stroke-linecap="round" stroke-linejoin="round"/><path d="M241.25001,204.81468" data-paper-data="{&quot;index&quot;:null}" fill="#faa51f" stroke="#8e5322" stroke-width="1.4" stroke-linecap="round" stroke-linejoin="round"/><path d="M241.25,204.81468" data-paper-data="{&quot;index&quot;:null}" fill="#faa51f" stroke="#8e5322" stroke-width="1.4" stroke-linecap="round" stroke-linejoin="round"/><path d="" fill="#ff8484" stroke="none" stroke-width="0" stroke-linecap="butt" stroke-linejoin="miter"/><path d="" fill="#ce0046" stroke="none" stroke-width="0" stroke-linecap="butt" stroke-linejoin="miter"/><path d="" fill="#ff8484" stroke="none" stroke-width="0" stroke-linecap="butt" stroke-linejoin="miter"/><path d="" fill="#ce0046" stroke="none" stroke-width="0" stroke-linecap="butt" stroke-linejoin="miter"/><path d="M237.65445,206.39747" data-paper-data="{&quot;index&quot;:null}" fill="#faa51f" stroke="#8e5322" stroke-width="1.4" stroke-linecap="round" stroke-linejoin="round"/><path d="M237.65444,206.39746" data-paper-data="{&quot;index&quot;:null}" fill="#faa51f" stroke="#8e5322" stroke-width="1.4" stroke-linecap="round" stroke-linejoin="round"/><path d="M241.25,204.81468" data-paper-data="{&quot;index&quot;:null}" fill="#faa51f" stroke="#8e5322" stroke-width="1.4" stroke-linecap="round" stroke-linejoin="round"/><path d="M241.24999,204.81468" data-paper-data="{&quot;index&quot;:null}" fill="#faa51f" stroke="#8e5322" stroke-width="1.4" stroke-linecap="round" stroke-linejoin="round"/></g></g></svg>