<svg version="1.1" xmlns="http://www.w3.org/2000/svg" xmlns:xlink="http://www.w3.org/1999/xlink" width="90.13846" height="92.67853" viewBox="0,0,90.13846,92.67853"><g transform="translate(-205.09766,-134.6)"><g data-paper-data="{&quot;isPaintingLayer&quot;:true}" fill-rule="nonzero" stroke-miterlimit="10" stroke-dasharray="" stroke-dashoffset="0" style="mix-blend-mode: normal"><g data-paper-data="{&quot;index&quot;:null}"><path d="M271.79766,206.6c2.5,0 5.5,-0.3 8.3,-2.2c6.3,-4 9.5,-11.9 13,-9.1c3.5,2.8 1,16.1 -11.8,18c-4.4,0.7 -8.3,0 -11.3,-0.6c-0.8,-0.1 -7.6,-2.1 -9.3,-6c-1.7,-3.9 0.1,-4.4 1,-4.8c0.9,-0.2 6.5,4.8 10.1,4.7z" fill="#faa51f" stroke="none" stroke-width="1" stroke-linecap="butt" stroke-linejoin="miter"/><path d="M292.99766,195.2c1.8,1 2.2,6.1 0.6,9.4c-1.7,3.3 -4,5.1 -5.4,6.3c-1.8,0.8 1.2,-2.8 -0.5,-5c-1.8,-2.2 -6,-2.3 -6,-2.3c0,0 3.9,-3.7 6,-5.9c1.8,-2 3.3,-3.3 5.3,-2.5z" fill="#ffffff" stroke="none" stroke-width="1" stroke-linecap="butt" stroke-linejoin="miter"/><path d="M271.79766,206.6c2.5,0 5.5,-0.3 8.3,-2.2c6.3,-4 9.5,-11.9 13,-9.1c3.5,2.8 1,16.1 -11.8,18c-4.4,0.7 -8.3,0 -11.3,-0.6c-0.8,-0.1 -7.6,-2.1 -9.3,-6c-1.7,-3.9 0.1,-4.4 1,-4.8c0.9,-0.2 6.5,4.8 10.1,4.7z" fill="none" stroke="#8e5322" stroke-width="1.4" stroke-linecap="round" stroke-linejoin="round"/></g><g data-paper-data="{&quot;index&quot;:null}" fill="#faa51f" stroke="#8e5322" stroke-width="1.4" stroke-linecap="round" stroke-linejoin="round"><path d="M257.79766,212.7c0,0 -11.3,6 -15.2,12.3c-1.1,1.7 -1.9,1.9 -3.8,1.2c-2.1,-0.8 -9.2,-6.6 -8,-8.3c4.4,-6 7,1.9 9.7,-0.8c6.3,-6.2 9.6,-12.5 9.6,-12.5"/><path d="M237.79766,217.1c0,0 1.1,0.7 2.1,1.9"/></g><path d="M259.89766,204.6" data-paper-data="{&quot;index&quot;:null}" fill="#faa51f" stroke="#8e5322" stroke-width="1.4" stroke-linecap="round" stroke-linejoin="round"/><path d="M255.29766,188.7c6.5,-1.9 10.9,-1.3 12.8,5.1c1.9,6.4 5.5,14.7 -5.9,18.1c-11.4,3.3 -12.5,-6.6 -14.4,-13c-1.9,-6.4 1.2,-8.3 7.5,-10.2z" data-paper-data="{&quot;index&quot;:null}" fill="#faa51f" stroke="#8e5322" stroke-width="1.4" stroke-linecap="round" stroke-linejoin="round"/><path d="M254.99766,194.8c3.6,-1.1 6,-0.6 7.2,3.5c1.2,4.1 3.2,9.4 -2.9,11.2c-6.1,1.8 -7,-4.5 -8.2,-8.5c-1.2,-4 0.4,-5.1 3.9,-6.2z" data-paper-data="{&quot;index&quot;:null}" fill="#ffffff" stroke="none" stroke-width="1" stroke-linecap="butt" stroke-linejoin="miter"/><g data-paper-data="{&quot;index&quot;:null}" fill="#faa51f" stroke="#8e5322" stroke-width="1.4" stroke-linecap="round" stroke-linejoin="round"><path d="M268.49766,204.4c0,0 7,4.7 8.4,5.2c1.1,-1.8 2.4,-2.2 4.3,-1.3c2,1 8.3,5.3 6.9,7.4c-4.2,6.4 -7.1,-1.4 -9.9,1.3c-2,1.1 -10.2,-5.3 -18.8,-5.1"/><path d="M280.09766,214.4c0,0 -0.6,1.5 -1.7,2.5"/></g><g data-paper-data="{&quot;index&quot;:null}" stroke="#8e5322" stroke-width="1.4" stroke-linecap="round" stroke-linejoin="round"><path d="M254.89766,189.8l7.2,-3.6c8,3.3 14.6,12.5 11.3,15.9" fill="#faa51f"/><path d="M265.69766,197.5" fill="#faa51f"/><path d="M262.19766,196.7" fill="none"/><path d="M261.99766,194.3l3.7,3.2" fill="#faa51f"/><path d="M266.79766,196.9l-1.1,0.6" fill="none"/></g><g data-paper-data="{&quot;index&quot;:null}" stroke="#8e5322" stroke-width="1.4" stroke-linecap="round" stroke-linejoin="round"><path d="M244.29766,209.5c-6.1,-2.3 -3.5,-12.2 0.9,-16.4l4.2,-0.5" fill="#faa51f"/><path d="M247.79766,202.8" fill="#faa51f"/><path d="M249.79766,200.6" fill="none"/><path d="M247.79766,202.8v-3.9" fill="#faa51f"/><path d="M247.79766,202.8h-1.1" fill="none"/></g><g data-paper-data="{&quot;index&quot;:null}"><g><path d="M241.89766,145.2c1.5,-0.3 4.5,-0.9 6.2,-1c4.6,-0.4 9.1,0.8 9.1,0.8l11.5,-9.7l0.1,18.4c-0.7,-0.7 11.6,11.1 6.2,22.8c-5.6,11.9 -19.4,18.6 -37.9,17.2c-18.5,-1.3 -24.1,-11.2 -23.5,-16.8c0.5,-5.6 7.1,-8.5 7.1,-8.5c0,0 -0.4,-4.3 2,-9.9c1.5,-3.4 7.1,-8.7 7.1,-8.7l1.4,-11.5l8,6.1z" fill="#faa51f" stroke="none" stroke-width="1" stroke-linecap="butt" stroke-linejoin="miter"/><path d="M221.49766,168.1l2.1,-2.3l9.1,1.5c0,0 0.4,3.3 4.7,3.7c4.3,0.4 11.1,-2.1 11.1,-2.1l7.3,0.9c0,0 8,-1.5 9.2,4.8c2,11 -6.6,17.4 -15,18.3c-5.5,0.7 -9,0.4 -13,0.2c-17.5,-1 -23.6,-10.7 -22.8,-16.3c0.5,-5.6 6.9,-8 6.9,-8z" fill="#ffffff" stroke="none" stroke-width="1" stroke-linecap="butt" stroke-linejoin="miter"/><path d="M217.19766,174.1c0,0 -4.5,-0.2 -6.7,-0.7c-2.7,-0.6 -4.7,-1.9 -4.7,-1.9" fill="none" stroke="#8e5322" stroke-width="1.4" stroke-linecap="round" stroke-linejoin="round"/><path d="M217.39766,179.9c0,0 -2.4,1.4 -5.2,2c-2.6,0.6 -4.5,0.6 -4.5,0.6" fill="none" stroke="#8e5322" stroke-width="1.4" stroke-linecap="round" stroke-linejoin="round"/><path d="M254.49766,147.4l4.7,-4.2" fill="none" stroke="#8e5322" stroke-width="1.4" stroke-linecap="round" stroke-linejoin="round"/><path d="M241.89766,145.2c1.5,-0.3 4.5,-0.9 6.2,-1c4.6,-0.4 9.1,0.8 9.1,0.8l11.5,-9.7l0.1,18.4c-0.7,-0.7 11.6,11.1 6.2,22.8c-5.6,11.9 -19.4,18.6 -37.9,17.2c-18.5,-1.3 -24.1,-11.2 -23.5,-16.8c0.5,-5.6 7.1,-8.5 7.1,-8.5c0,0 -0.4,-4.3 2,-9.9c1.5,-3.4 7.1,-8.7 7.1,-8.7l1.4,-11.5l8,6.1z" fill="none" stroke="#8e5322" stroke-width="1.4" stroke-linecap="round" stroke-linejoin="round"/><path d="M285.99766,171c0,0 -3.9,0.9 -5.7,1c-1.8,0.1 -5.3,0.1 -5.3,0.1" fill="none" stroke="#8e5322" stroke-width="1.4" stroke-linecap="round" stroke-linejoin="round"/><path d="M274.29766,168.3c0,0 2.1,-2 5.5,-4c3.7,-2.3 5.9,-2.9 5.9,-2.9" fill="none" stroke="#8e5322" stroke-width="1.4" stroke-linecap="round" stroke-linejoin="round"/></g><g><path d="M234.19766,152.3c2.8,1.3 3.4,6.3 1.1,10.9c-2.3,4.7 -6.5,7.4 -9.4,5.9c-2.8,-1.3 -3.4,-6.3 -1.1,-10.9c2.3,-4.6 6.5,-7.2 9.4,-5.9z" fill="#ffffff" stroke="#8e5322" stroke-width="1.4" stroke-linecap="round" stroke-linejoin="round"/><path d="M225.39766,161.8c0.1,-1 1,-1.7 2,-1.7c1.1,0.1 1.7,1.1 1.5,2.1c-0.2,1.2 -1.1,1.9 -2,1.7c-1.1,-0.1 -1.7,-1.1 -1.5,-2.1" fill="#414142" stroke="none" stroke-width="1" stroke-linecap="butt" stroke-linejoin="miter"/></g><g><path d="M258.49766,153.1c3.4,1.7 4.4,6.8 2.1,11.4c-2.2,4.7 -6.9,7.1 -10.3,5.4c-3.4,-1.7 -4.4,-6.8 -2.1,-11.4c2.3,-4.6 6.9,-7 10.3,-5.4z" fill="#ffffff" stroke="#8e5322" stroke-width="1.4" stroke-linecap="round" stroke-linejoin="round"/><path d="M248.99766,162.3c-0.1,-1.1 0.6,-2 1.5,-2.1c0.9,-0.1 1.8,0.7 1.9,1.7c0.1,1.1 -0.5,2 -1.5,2.1c-0.9,0.1 -1.8,-0.7 -1.9,-1.7" fill="#414142" stroke="none" stroke-width="1" stroke-linecap="butt" stroke-linejoin="miter"/></g><path d="M243.09766,169.9c0.3,1.4 -2.9,4.4 -4.9,4.5c-1.8,0.1 -3.8,-3 -3.9,-3.8c0,-1.9 2.5,-0.9 4.2,-0.9c1.5,0 4.3,-1.2 4.6,0.2z" fill="#5f4b43" stroke="#8e5322" stroke-width="1.4" stroke-linecap="round" stroke-linejoin="round"/><path d="M249.39766,183.8c0,0 -2.2,2.6 -7.7,2.2" fill="#ffffff" stroke="#8e5322" stroke-width="1.4" stroke-linecap="round" stroke-linejoin="round"/></g><path d="M273.39766,202.2c-7.7,4.2 -12.6,3.8 -13.9,0c-0.6,-1.6 1.4,-5.5 7.3,-5.3" data-paper-data="{&quot;index&quot;:null}" fill="#faa51f" stroke="#8e5322" stroke-width="1.4" stroke-linecap="round" stroke-linejoin="round"/><path d="M244.89766,203.6c2.7,-2.2 4.8,-0.5 6.2,1.4c2.1,2.6 -0.6,7.2 -6.8,4.5" data-paper-data="{&quot;index&quot;:null}" fill="#faa51f" stroke="#8e5322" stroke-width="1.4" stroke-linecap="round" stroke-linejoin="round"/></g></g></svg>