<svg version="1.1" xmlns="http://www.w3.org/2000/svg" xmlns:xlink="http://www.w3.org/1999/xlink" width="81.9" height="96.44083" viewBox="0,0,81.9,96.44083"><g transform="translate(-199.15819,-134.21464)"><g data-paper-data="{&quot;isPaintingLayer&quot;:true}" fill-rule="nonzero" stroke-miterlimit="10" stroke-dasharray="" stroke-dashoffset="0" style="mix-blend-mode: normal"><g data-paper-data="{&quot;index&quot;:null}"><path d="M254.05819,204.71464c2.3,-1 4.9,-2.5 6.8,-5.3c4.2,-6.2 4,-14.7 8.3,-13.5c4.3,1.2 7.3,14.4 -3.7,21.2c-3.8,2.4 -7.6,3.3 -10.6,3.9c-0.8,0.2 -7.8,1.1 -10.9,-1.8c-3.1,-2.9 -1.7,-4.1 -1,-4.8c0.7,-0.6 7.9,1.8 11.1,0.3z" fill="#faa51f" stroke="none" stroke-width="1" stroke-linecap="butt" stroke-linejoin="miter"/><path d="M268.95819,185.81464c2.1,0.2 4.4,4.7 4.3,8.4c-0.2,3.7 -1.6,6.3 -2.5,7.9c-1.3,1.4 0,-3.1 -2.5,-4.4c-2.5,-1.3 -6.4,0.3 -6.4,0.3c0,0 2.1,-5 3.2,-7.8c0.9,-2.6 1.7,-4.4 3.9,-4.4z" fill="#ffffff" stroke="none" stroke-width="1" stroke-linecap="butt" stroke-linejoin="miter"/><path d="M254.05819,204.71464c2.3,-1 4.9,-2.5 6.8,-5.3c4.2,-6.2 4,-14.7 8.3,-13.5c4.3,1.2 7.3,14.4 -3.7,21.2c-3.8,2.4 -7.6,3.3 -10.6,3.9c-0.8,0.2 -7.8,1.1 -10.9,-1.8c-3.1,-2.9 -1.7,-4.1 -1,-4.8c0.7,-0.6 7.9,1.8 11.1,0.3z" fill="none" stroke="#8e5322" stroke-width="1.4" stroke-linecap="round" stroke-linejoin="round"/></g><g data-paper-data="{&quot;index&quot;:null}" fill="#faa51f" stroke="#8e5322" stroke-width="1.4" stroke-linecap="round" stroke-linejoin="round"><path d="M239.85819,210.11464c0,0 -3.7,8.4 -2.6,15.7c0.3,2 -0.2,2.7 -2.1,3.4c-2.1,0.8 -11.3,1 -11.5,-1.1c-0.5,-7.4 6.6,-3.1 6.9,-6.9c0.8,-8.8 -0.9,-14.3 -0.9,-14.3"/><path d="M228.55819,223.01464c0,0 1.3,-0.2 2.8,0.1"/></g><path d="M238.85819,204.81464" data-paper-data="{&quot;index&quot;:null}" fill="#faa51f" stroke="#8e5322" stroke-width="1.4" stroke-linecap="round" stroke-linejoin="round"/><path d="M239.05819,188.31464c6.7,0 10.8,1.8 10.8,8.5c0,6.7 1.1,15.7 -10.8,15.7c-11.9,0 -10.2,-9.8 -10.2,-16.5c0,-6.7 3.5,-7.7 10.2,-7.7z" data-paper-data="{&quot;index&quot;:null}" fill="#faa51f" stroke="#8e5322" stroke-width="1.4" stroke-linecap="round" stroke-linejoin="round"/><path d="M236.95819,194.11464c3.7,0 5.9,1.2 5.9,5.4c0,4.2 0.5,9.9 -5.9,9.9c-6.4,0 -5.5,-6.3 -5.5,-10.5c0,-4.2 1.8,-4.8 5.5,-4.8z" data-paper-data="{&quot;index&quot;:null}" fill="#ffffff" stroke="none" stroke-width="1" stroke-linecap="butt" stroke-linejoin="miter"/><g data-paper-data="{&quot;index&quot;:null}" fill="#faa51f" stroke="#8e5322" stroke-width="1.4" stroke-linecap="round" stroke-linejoin="round"><path d="M249.05819,206.91464c0,0 -2.6,5.5 -1.3,14.2c0.6,3.8 6.2,-0.9 5.8,6.7c-0.1,2.5 -7.7,2.3 -9.9,1.9c-2.1,-0.4 -2.9,-1.5 -2.7,-3.6c0.3,-4.2 -1.2,-13.3 -1.2,-13.3"/><path d="M247.15819,223.11464c1.4,-0.4 3,-0.2 3,-0.2"/></g><g data-paper-data="{&quot;index&quot;:null}" stroke="#8e5322" stroke-width="1.4" stroke-linecap="round" stroke-linejoin="round"><path d="M241.25819,189.21464l7.9,-1.4c6.8,5.4 10.5,16.1 6.4,18.4" fill="#faa51f"/><path d="M249.45819,199.71464" fill="#faa51f"/><path d="M246.35819,197.91464" fill="none"/><path d="M249.45819,199.71464l-2.7,-4.1" fill="#faa51f"/><path d="M250.65819,199.41464l-1.2,0.3" fill="none"/></g><g data-paper-data="{&quot;index&quot;:null}" stroke="#8e5322" stroke-width="1.4" stroke-linecap="round" stroke-linejoin="round"><path d="M222.55819,205.21464c-5.2,-3.9 0.1,-12.7 5.5,-15.5l4.2,0.7" fill="#faa51f"/><path d="M227.75819,199.71464" fill="#faa51f"/><path d="M230.35819,198.21464" fill="none"/><path d="M228.85819,196.01464l-1.1,3.7" fill="#faa51f"/><path d="M226.65819,199.41464l1.1,0.3" fill="none"/></g><g data-paper-data="{&quot;index&quot;:null}"><path d="M238.85819,143.11464c1.5,-0.1 4.6,-0.3 6.3,-0.2c4.6,0.2 8.9,1.9 8.9,1.9l12.6,-8.2l-2.2,18.3c-0.6,-0.8 10.2,12.4 3.4,23.4c-6.9,11.1 -21.5,16 -39.7,12.4c-18.2,-3.6 -22.5,-14.1 -21.3,-19.6c1.2,-5.5 8.1,-7.6 8.1,-7.6c0,0 0.1,-4.3 3.2,-9.6c1.9,-3.2 8.1,-7.8 8.1,-7.8l2.8,-11.2l7.2,7z" fill="#faa51f" stroke="none" stroke-width="1" stroke-linecap="butt" stroke-linejoin="miter"/><path d="M215.85819,163.41464l2.4,-2l8.8,2.6c0,0 0,3.3 4.2,4.2c4.2,0.9 11.3,-0.7 11.3,-0.7l7.1,1.8c0,0 8.1,-0.5 8.5,5.9c0.7,11.1 -8.6,16.4 -17.1,16.3c-5.5,0 -9,-0.7 -12.9,-1.4c-17.2,-3.1 -22.1,-13.5 -20.6,-19c1.2,-5.5 7.8,-7.1 7.8,-7.1z" fill="#ffffff" stroke="none" stroke-width="1" stroke-linecap="butt" stroke-linejoin="miter"/><path d="M210.85819,168.81464c0,0 -4.4,-0.7 -6.6,-1.5c-2.6,-0.9 -4.4,-2.5 -4.4,-2.5" fill="none" stroke="#8e5322" stroke-width="1.4" stroke-linecap="round" stroke-linejoin="round"/><path d="M210.35819,174.61464c0,0 -2.6,1.1 -5.4,1.3c-2.7,0.3 -4.5,0.1 -4.5,0.1" fill="none" stroke="#8e5322" stroke-width="1.4" stroke-linecap="round" stroke-linejoin="round"/><path d="M256.35819,143.31464l-5.2,3.6" fill="none" stroke="#8e5322" stroke-width="1.4" stroke-linecap="round" stroke-linejoin="round"/><path d="M238.85819,143.11464c1.5,-0.1 4.6,-0.3 6.3,-0.2c4.6,0.2 8.9,1.9 8.9,1.9l12.6,-8.2l-2.2,18.3c-0.6,-0.8 10.2,12.4 3.4,23.4c-6.9,11.1 -21.5,16 -39.7,12.4c-18.2,-3.6 -22.5,-14.1 -21.3,-19.6c1.2,-5.5 8.1,-7.6 8.1,-7.6c0,0 0.1,-4.3 3.2,-9.6c1.9,-3.2 8.1,-7.8 8.1,-7.8l2.8,-11.2l7.2,7z" fill="none" stroke="#8e5322" stroke-width="1.4" stroke-linecap="round" stroke-linejoin="round"/><path d="M279.55819,174.11464c0,0 -4,0.4 -5.8,0.3c-1.8,-0.1 -5.3,-0.6 -5.3,-0.6" fill="none" stroke="#8e5322" stroke-width="1.4" stroke-linecap="round" stroke-linejoin="round"/><path d="M268.25819,170.01464c0,0 2.3,-1.7 5.9,-3.3c4,-1.8 6.2,-2.2 6.2,-2.2" fill="none" stroke="#8e5322" stroke-width="1.4" stroke-linecap="round" stroke-linejoin="round"/></g><g data-paper-data="{&quot;index&quot;:null}"><path d="M230.35819,149.31464c2.7,1.7 2.6,6.7 -0.2,11c-2.8,4.4 -7.3,6.5 -10,4.7c-2.7,-1.7 -2.6,-6.7 0.2,-11c2.8,-4.3 7.3,-6.4 10,-4.7z" fill="#ffffff" stroke="#8e5322" stroke-width="1.4" stroke-linecap="round" stroke-linejoin="round"/><path d="M220.45819,157.61464c0.3,-1 1.2,-1.6 2.2,-1.4c1,0.3 1.5,1.3 1.2,2.3c-0.3,1.1 -1.3,1.7 -2.2,1.4c-1,-0.3 -1.5,-1.3 -1.2,-2.3" fill="#414142" stroke="none" stroke-width="1" stroke-linecap="butt" stroke-linejoin="miter"/></g><g data-paper-data="{&quot;index&quot;:null}"><path d="M254.45819,153.01464c3.2,2.1 3.5,7.3 0.7,11.6c-2.8,4.4 -7.7,6.2 -10.9,4.1c-3.2,-2.1 -3.5,-7.3 -0.7,-11.6c2.8,-4.3 7.7,-6.1 10.9,-4.1z" fill="#ffffff" stroke="#8e5322" stroke-width="1.4" stroke-linecap="round" stroke-linejoin="round"/><path d="M243.85819,161.01464c0,-1.1 0.8,-1.9 1.7,-1.9c0.9,0 1.7,0.9 1.7,1.9c0,1.1 -0.7,1.9 -1.7,1.9c-0.9,0 -1.7,-0.9 -1.7,-1.9" fill="#414142" stroke="none" stroke-width="1" stroke-linecap="butt" stroke-linejoin="miter"/></g><path d="M237.05819,167.71464c0.1,1.5 -3.4,4 -5.4,3.9c-1.8,-0.1 -3.4,-3.4 -3.4,-4.2c0.3,-1.9 2.6,-0.6 4.3,-0.4c1.5,0.2 4.4,-0.8 4.5,0.7z" data-paper-data="{&quot;index&quot;:null}" fill="#5f4b43" stroke="#8e5322" stroke-width="1.4" stroke-linecap="round" stroke-linejoin="round"/><path d="M241.65819,182.41464c0,0 -2.5,2.3 -7.9,1.2" data-paper-data="{&quot;index&quot;:null}" fill="#ffffff" stroke="#8e5322" stroke-width="1.4" stroke-linecap="round" stroke-linejoin="round"/><path d="M255.45819,206.31464c-8.5,1.9 -13.1,0.1 -13.3,-3.9c-0.1,-1.7 2.9,-4.8 8.5,-3" data-paper-data="{&quot;index&quot;:null}" fill="#faa51f" stroke="#8e5322" stroke-width="1.4" stroke-linecap="round" stroke-linejoin="round"/><path d="M225.82752,199.54833c3.3498,0.98939 3.01645,3.71498 2.28842,5.97772c-1.00151,3.20889 -6.30348,3.45198 -7.51316,-3.18629" data-paper-data="{&quot;index&quot;:null,&quot;origRot&quot;:0}" fill="#faa51f" stroke="#8e5322" stroke-width="1.4" stroke-linecap="round" stroke-linejoin="round"/></g></g></svg>