<svg version="1.1" xmlns="http://www.w3.org/2000/svg" xmlns:xlink="http://www.w3.org/1999/xlink" width="51.90539" height="59.65196" viewBox="0,0,51.90539,59.65196"><g transform="translate(-213.78957,-150.1973)"><g data-paper-data="{&quot;isPaintingLayer&quot;:true}" fill-rule="nonzero" stroke-linejoin="miter" stroke-miterlimit="10" stroke-dasharray="" stroke-dashoffset="0" style="mix-blend-mode: normal"><g><path d="M253.68114,154.07374c0,0 4.96614,-5.64844 7.68708,-2.94323c3.10206,3.08413 2.43792,14.06823 2.43792,14.06823c0,0 5.81152,15.89032 -2.95317,31.14282c-3.60267,6.26945 -7.85373,9.35398 -15.05331,11.83586c-8.93394,3.07977 -17.95379,0.96168 -17.95379,0.96168c0,0 -1.22534,0.07269 -1.47385,-0.5428c-0.19982,-0.4949 0.27084,-0.66773 0.27084,-0.66773l8.88393,-4.73214c0,0 -12.21805,-0.02173 -17.97423,-9.43809c-7.15347,-11.70215 -1.90969,-28.25834 -1.90969,-28.25834c0,0 -0.3232,-12.24688 2.68903,-14.74773c2.77734,-2.30584 7.59669,3.31916 7.59669,3.31916c0,0 6.04432,-2.62405 14.00255,-2.62386c9.29113,0.00023 13.75001,2.62617 13.75001,2.62617z" fill="#6937ba" stroke="none" stroke-width="0" stroke-linecap="round"/><path d="M253.55904,165.71363c3.50741,5.5832 2.80559,9.76837 2.70308,12.47722c-0.19186,5.06989 -0.78703,8.58082 -3.75915,11.97153c-3.5668,4.06915 -9.50898,3.90121 -12.96811,3.75574c-4.36158,-0.18341 -8.32946,-0.25656 -12.45712,-3.72476c-3.22949,-2.71353 -3.94384,-8.85449 -3.81561,-12.72978c0.11013,-3.32813 0.46388,-9.96763 3.72624,-12.82117c3.96513,-3.47801 9.53761,-3.92715 12.81921,-3.9061c3.64435,0.02338 11.1001,0.75679 13.75146,4.97732z" fill="#ffffff" stroke="none" stroke-width="0" stroke-linecap="round"/><path d="M233.82038,181.59841v-8.07692" fill="none" stroke="#6937ba" stroke-width="7" stroke-linecap="round"/><path d="M245.82038,173.52149v8.07692" fill="none" stroke="#6937ba" stroke-width="7" stroke-linecap="round"/><path d="M234.12577,174.10229c0,-1.83387 1.567,-3.32052 3.5,-3.32052c1.933,0 3.5,1.48665 3.5,3.32052c0,1.83387 -1.567,3.32051 -3.5,3.32051c-1.933,0 -3.5,-1.48665 -3.5,-3.32051z" fill="#ffffff" stroke="none" stroke-width="0.5" stroke-linecap="butt"/><path d="M246.03486,174.18853c0,-1.83387 1.567,-3.32051 3.5,-3.32051c1.933,0 3.5,1.48664 3.5,3.32051c0,1.83387 -1.567,3.32052 -3.5,3.32052c-1.933,0 -3.5,-1.48665 -3.5,-3.32052z" fill="#ffffff" stroke="none" stroke-width="0.5" stroke-linecap="butt"/><path d="M235.27489,203.29249c0,0 4.06598,0.25083 6.18615,0.10524c2.62525,-0.18027 8.33588,-1.18135 8.37635,-1.10524c0.03668,0.06899 -5.51853,2.2359 -8.56331,2.74513c-2.92997,0.49002 -9.37419,0.25487 -9.37419,0.25487z" fill="#4d2c94" stroke="none" stroke-width="0" stroke-linecap="round"/></g></g></g></svg>