<svg version="1.1" xmlns="http://www.w3.org/2000/svg" xmlns:xlink="http://www.w3.org/1999/xlink" width="20.08159" height="26.77008" viewBox="0,0,20.08159,26.77008"><defs><linearGradient x1="230.74862" y1="198.37124" x2="230.74862" y2="223.68906" gradientUnits="userSpaceOnUse" id="color-1"><stop offset="0" stop-color="#a9c2c4"/><stop offset="1" stop-color="#8eb6be"/></linearGradient></defs><g transform="translate(-221.16841,-197.66897)"><g data-paper-data="{&quot;isPaintingLayer&quot;:true}" fill-rule="nonzero" stroke-miterlimit="10" stroke-dasharray="" stroke-dashoffset="0" style="mix-blend-mode: normal"><path d="M241.25,204.81464" fill="#faa51f" stroke="#8e5322" stroke-width="1.4" stroke-linecap="round" stroke-linejoin="round"/><g stroke="#768e9b" stroke-width="1.5" stroke-linejoin="miter"><path d="M222.16195,212.964c1.70936,-8.36882 4.31416,-14.1704 6.70418,-14.54503c3.28487,-0.51489 -0.47477,3.2786 1.81931,4.54321c1.2332,0.6798 -0.70405,2.13352 0.85361,1.33268c2.68072,-1.37824 -0.48205,-6.53705 2.15975,-5.24765c2.31209,1.12848 8.83481,19.21018 4.33152,23.0769c-3.79012,3.25437 -18.1464,1.99278 -15.86837,-9.16011z" fill="url(#color-1)" stroke-linecap="butt"/><path d="M229.45235,205.55135l1.14115,-0.74901l-1.03248,2.1222" fill="none" stroke-linecap="round"/></g><path d="M224.21684,213.35034c0,0 0.11626,-1.53084 1.22253,-5.45697c0.59802,-2.12236 2.43471,-5.78915 2.43471,-5.78915" fill="none" stroke="#d4e6e2" stroke-width="1.5" stroke-linecap="round" stroke-linejoin="miter"/><path d="M236.50001,208.09091c0,0 2.17516,6.12033 1.54344,11.0733c-0.40651,3.18715 -4.27072,3.01761 -4.27072,3.01761" fill="none" stroke="#83a8af" stroke-width="1.5" stroke-linecap="round" stroke-linejoin="miter"/></g></g></svg>