<svg version="1.1" xmlns="http://www.w3.org/2000/svg" xmlns:xlink="http://www.w3.org/1999/xlink" width="22.97723" height="20.11825" viewBox="0,0,22.97723,20.11825"><g transform="translate(-238.93186,-187.46543)"><g data-paper-data="{&quot;isPaintingLayer&quot;:true}" fill-rule="nonzero" stroke-miterlimit="10" stroke-dasharray="" stroke-dashoffset="0" style="mix-blend-mode: normal"><g><path d="M253.23024,194.20285c-2.25742,-2.70746 -1.81757,1.07696 -0.49988,-1.20574c0.31757,-0.55011 -3.1651,-2.68311 -2.62734,-3.10647c4.11343,-3.23837 5.81992,-1.44265 9.10191,2.49364c4.51004,5.40918 0.02526,7.37423 -1.62721,8.43658c-3.76893,2.42296 -1.54605,-3.25806 -4.34748,-6.618z" data-paper-data="{&quot;index&quot;:null}" fill="#177fff" stroke="#004ede" stroke-width="1.5" stroke-linecap="butt" stroke-linejoin="miter"/><path d="M259.61241,193.73017c0,0 -0.50053,0.88583 -0.8205,1.12165c-0.33205,0.24472 -2.171,1.18645 -2.171,1.18645l-1.0909,-0.74685c0,0 2.2446,-1.2407 2.60599,-1.50705c0.23449,-0.17282 0.72889,-0.95075 0.72889,-0.95075l0.74751,0.89655z" data-paper-data="{&quot;index&quot;:null}" fill="#0059ff" stroke="none" stroke-width="0" stroke-linecap="butt" stroke-linejoin="miter"/><path d="M242.52741,206.76108" data-paper-data="{&quot;index&quot;:null}" fill="#faa51f" stroke="#8e5322" stroke-width="1.4" stroke-linecap="round" stroke-linejoin="round"/><path d="M242.52742,206.76107" data-paper-data="{&quot;index&quot;:null}" fill="#faa51f" stroke="#8e5322" stroke-width="1.4" stroke-linecap="round" stroke-linejoin="round"/><path d="M254.09169,204.55328l-9.125,-8.5l6.125,-3.875l5.125,8.125c0,0 0.17706,2.14588 -0.175,2.85c-0.35623,0.71245 -1.95,1.4 -1.95,1.4z" data-paper-data="{&quot;index&quot;:null}" fill="#faa51f" stroke="none" stroke-width="0" stroke-linecap="butt" stroke-linejoin="miter"/><g data-paper-data="{&quot;index&quot;:null}" stroke="#8e5322" stroke-width="1.4" stroke-linecap="round" stroke-linejoin="round"><path d="M251.10773,191.93136c4.6131,4.0771 7.27614,9.43158 4.9284,11.85045" fill="#faa51f"/><path d="M248.33613,199.18181" fill="#faa51f"/><path d="M244.83613,198.38181" fill="none"/><path d="M248.33613,199.18181l-3.7,-3.2" fill="#faa51f"/><path d="M249.43613,198.58181l-1.1,0.6" fill="none"/></g><path d="M256.03613,203.88181c-7.7,4.2 -12.6,3.8 -13.9,0c-0.6,-1.6 1.4,-5.5 7.3,-5.3" data-paper-data="{&quot;index&quot;:null}" fill="#faa51f" stroke="#8e5322" stroke-width="1.4" stroke-linecap="round" stroke-linejoin="round"/><path d="M250.71444,195.66934c-1.24221,1.39818 -4.7314,2.02123 -4.7314,2.02123l-1.06018,-0.73125c0,0 2.47092,-2.19137 3.58208,-3.17038c1.32541,-1.1678 5.57456,-2.59337 5.57456,-2.59337l1.4173,2.11483c0,0 -3.67485,1.1124 -4.78235,2.35894z" data-paper-data="{&quot;index&quot;:null}" fill="#177fff" stroke="#004ede" stroke-width="1.5" stroke-linecap="butt" stroke-linejoin="miter"/><path d="M238.93186,205.17829" data-paper-data="{&quot;index&quot;:null}" fill="#faa51f" stroke="#8e5322" stroke-width="1.4" stroke-linecap="round" stroke-linejoin="round"/><path d="M238.93187,205.17829" data-paper-data="{&quot;index&quot;:null}" fill="#faa51f" stroke="#8e5322" stroke-width="1.4" stroke-linecap="round" stroke-linejoin="round"/></g><path d="M242.51586,206.57926" data-paper-data="{&quot;index&quot;:null}" fill="#faa51f" stroke="#8e5322" stroke-width="1.4" stroke-linecap="round" stroke-linejoin="round"/><path d="M242.51587,206.57926" data-paper-data="{&quot;index&quot;:null}" fill="#faa51f" stroke="#8e5322" stroke-width="1.4" stroke-linecap="round" stroke-linejoin="round"/></g></g></svg>