<svg version="1.1" xmlns="http://www.w3.org/2000/svg" xmlns:xlink="http://www.w3.org/1999/xlink" width="22.64222" height="20.11943" viewBox="0,0,22.64222,20.11943"><g transform="translate(-216.20545,-187.10062)"><g data-paper-data="{&quot;isPaintingLayer&quot;:true}" fill-rule="nonzero" stroke-miterlimit="10" stroke-dasharray="" stroke-dashoffset="0" style="mix-blend-mode: normal"><path d="" fill="#ff8484" stroke="none" stroke-width="0" stroke-linecap="butt" stroke-linejoin="miter"/><path d="" fill="#ce0046" stroke="none" stroke-width="0" stroke-linecap="butt" stroke-linejoin="miter"/><path d="" fill="#ff8484" stroke="none" stroke-width="0" stroke-linecap="butt" stroke-linejoin="miter"/><path d="" fill="#ce0046" stroke="none" stroke-width="0" stroke-linecap="butt" stroke-linejoin="miter"/><path d="" fill="#ff8484" stroke="none" stroke-width="0" stroke-linecap="butt" stroke-linejoin="miter"/><path d="" fill="#ce0046" stroke="none" stroke-width="0" stroke-linecap="butt" stroke-linejoin="miter"/><path d="M223.01716,202.52836c-2.41774,-1.06361 -8.67163,-2.80218 -4.85828,-10.28856c2.775,-5.44788 4.56271,-5.44914 10.78018,-2.05887c0.81283,0.44322 1.08351,0.87239 -0.8252,4.61956c0,0 0.4176,10.15372 -5.09671,7.72787z" fill="#555555" stroke="#252525" stroke-width="1.5" stroke-linecap="butt" stroke-linejoin="miter"/><path d="M218.29555,194.27995l0.5917,-1.43704c0,0 0.70156,0.85404 0.96357,0.9875c0.4038,0.20568 2.87407,0.96728 2.87407,0.96728l-1.07733,1.31383c0,0 -2.01701,-0.53071 -2.38803,-0.7197c-0.35753,-0.18212 -0.96399,-1.11188 -0.96399,-1.11188z" fill="#e00000" stroke="none" stroke-width="0" stroke-linecap="butt" stroke-linejoin="miter"/><path d="M224.14018,202.78966c-0.35206,-0.70412 -0.175,-2.85 -0.175,-2.85l5.125,-8.125l6.125,3.875l-9.125,8.5c0,0 -1.59377,-0.68755 -1.95,-1.4z" data-paper-data="{&quot;index&quot;:null}" fill="#faa51f" stroke="none" stroke-width="0" stroke-linecap="butt" stroke-linejoin="miter"/><g data-paper-data="{&quot;index&quot;:null}" stroke="#8e5322" stroke-width="1.4" stroke-linecap="round" stroke-linejoin="round"><path d="M224.14574,203.41819c-2.34774,-2.41887 0.3153,-7.77335 4.9284,-11.85045" fill="#faa51f"/><path d="M231.84574,198.81819" fill="#faa51f"/><path d="M235.34574,198.01819" fill="none"/><path d="M231.84574,198.81819l3.7,-3.2" fill="#faa51f"/><path d="M231.84574,198.81819l-1.1,-0.6" fill="none"/></g><path d="M230.74574,198.21819c5.9,-0.2 7.9,3.7 7.3,5.3c-1.3,3.8 -6.2,4.2 -13.9,0" data-paper-data="{&quot;index&quot;:null}" fill="#faa51f" stroke="#8e5322" stroke-width="1.4" stroke-linecap="round" stroke-linejoin="round"/><path d="M222.54882,192.44972l1.50182,-2.39968c0,0 4.77213,1.43691 6.28577,2.68882c1.8236,1.50826 4.4803,4.20574 4.4803,4.20574l-1.50787,1.13349c0,0 -3.93368,-1.66173 -5.36286,-3.17258c-1.27419,-1.34701 -5.39715,-2.45578 -5.39715,-2.45578z" fill="#555555" stroke="#252525" stroke-width="1.5" stroke-linecap="butt" stroke-linejoin="miter"/></g></g></svg>