<svg version="1.1" xmlns="http://www.w3.org/2000/svg" xmlns:xlink="http://www.w3.org/1999/xlink" width="81.89997" height="97.99283" viewBox="0,0,81.89997,97.99283"><defs><linearGradient x1="240.97651" y1="207.28292" x2="240.97651" y2="224.96215" gradientUnits="userSpaceOnUse" id="color-1"><stop offset="0" stop-color="#1c2e52"/><stop offset="1" stop-color="#000a1d"/></linearGradient><linearGradient x1="240.41036" y1="190.24178" x2="240.41036" y2="212.03984" gradientUnits="userSpaceOnUse" id="color-2"><stop offset="0" stop-color="#5e1b00"/><stop offset="1" stop-color="#3b1f1f"/></linearGradient><linearGradient x1="254.85004" y1="148.72493" x2="254.85004" y2="165.65892" gradientUnits="userSpaceOnUse" id="color-3"><stop offset="0" stop-color="#ffa9a9"/><stop offset="1" stop-color="#ff3131"/></linearGradient><linearGradient x1="230.75004" y1="152.19971" x2="230.75004" y2="169.58996" gradientUnits="userSpaceOnUse" id="color-4"><stop offset="0" stop-color="#ffa9a9"/><stop offset="1" stop-color="#ff4242"/></linearGradient></defs><g transform="translate(-199.21671,-134.04797)"><g data-paper-data="{&quot;isPaintingLayer&quot;:true}" fill-rule="nonzero" stroke-miterlimit="10" stroke-dasharray="" stroke-dashoffset="0" style="mix-blend-mode: normal"><g data-paper-data="{&quot;index&quot;:null}" fill="#3d773c" stroke="#1e5700" stroke-width="1.4" stroke-linecap="round" stroke-linejoin="round"><path d="M244.08282,209.36099c0,0 1.33718,4.89831 1.78602,7.75185c0.24658,1.56753 -0.79069,3.22725 -0.55839,5.32991c0.45409,3.82018 4.60703,-0.11717 3.91641,7.46195c-0.19563,2.49434 -7.41098,1.08365 -9.59405,0.59973c-2.08314,-0.48008 -1.39687,-1.91742 -1.11664,-4.00822c0.19502,-1.77222 0.94687,-5.95853 0.88198,-7.53499c-0.05521,-1.34121 -3.57471,-4.70093 -3.57471,-4.70093"/><path d="M242.95567,223.65485c1.41429,-0.34612 3.00546,-0.08501 3.00546,-0.08501"/></g><path d="M237.15004,204.41464c0.7,0.7 2.1,1.9 -1,4.8c-3.1,2.9 -10.1,2 -10.9,1.8c-3,-0.6 -6.8,-1.5 -10.6,-3.9c-11,-6.8 -8,-20 -3.7,-21.2c4.3,-1.2 4.1,7.3 8.3,13.5c1.9,2.8 4.5,4.3 6.8,5.3c3.2,1.5 10.4,-0.9 11.1,-0.3z" data-paper-data="{&quot;index&quot;:null}" fill="#3d773c" stroke="#1e5700" stroke-width="1" stroke-linecap="butt" stroke-linejoin="miter"/><path d="M237.31671,204.24797c0.7,0.7 2.1,1.9 -1,4.8c-3.1,2.9 -10.1,2 -10.9,1.8c-3,-0.6 -6.8,-1.5 -10.6,-3.9c-11,-6.8 -8,-20 -3.7,-21.2c4.3,-1.2 4.1,7.3 8.3,13.5c1.9,2.8 4.5,4.3 6.8,5.3c3.2,1.5 10.4,-0.9 11.1,-0.3z" data-paper-data="{&quot;index&quot;:null}" fill="#3d773c" stroke="#1e5700" stroke-width="1.4" stroke-linecap="round" stroke-linejoin="round"/><path d="M241.25004,204.81464" data-paper-data="{&quot;index&quot;:null}" fill="#3d773c" stroke="#1e5700" stroke-width="1.4" stroke-linecap="round" stroke-linejoin="round"/><path d="M249.47614,195.84797c0,6.7 1.42055,16.5 -8.5233,16.5c-9.94385,0 -9.02467,-9 -9.02467,-15.7c0,-6.7 3.42603,-8.5 9.02467,-8.5c5.59864,0 8.5233,1 8.5233,7.7z" data-paper-data="{&quot;index&quot;:null}" fill="#3d773c" stroke="#1e5700" stroke-width="1.4" stroke-linecap="round" stroke-linejoin="round"/><g data-paper-data="{&quot;index&quot;:null}" fill="#3d773c" stroke="#1e5700" stroke-width="1.4" stroke-linecap="round" stroke-linejoin="round"><path d="M244.58716,210.20832c0,0 -1.15162,5.50241 -2.03592,7.2653c-0.9432,1.88026 -1.56677,4.604 -1.80692,5.14847c-0.72504,2.79638 3.05714,2.60531 3.41963,5.11876c0.11582,0.80306 -0.58958,1.50451 -1.28884,3.1587c-1.56422,1.50496 -8.62913,-1.87559 -9.75704,-2.81879c-1.56748,-1.2818 -1.81163,-2.10665 -0.8753,-3.89921c1.39273,-2.66196 2.42159,-6.69195 2.95882,-8.89197c0.38048,-1.55814 0.21178,-6.67061 0.21178,-6.67061"/><path d="M238.06999,222.71379c1.51577,0.20599 2.67929,0.81934 2.67929,0.81934"/></g><g data-paper-data="{&quot;index&quot;:null}" fill="#3d773c" stroke="#1e5700" stroke-width="1.4" stroke-linecap="round" stroke-linejoin="round"><path d="M230.65004,199.54797"/><path d="M233.75004,197.74797"/><path d="M233.35004,195.44797l-2.7,4.1"/></g><path d="M249.46808,197.54946l0.92308,2.84616" data-paper-data="{&quot;index&quot;:null}" fill="none" stroke="#270800" stroke-width="1.4" stroke-linecap="round" stroke-linejoin="miter"/><path d="M250.42867,191.83049c6.28076,-2.46618 16.00944,-2.5489 16.81291,0.65026c1.03434,4.41601 -15.26914,5.85008 -17.49357,6.18267" data-paper-data="{&quot;index&quot;:null,&quot;origRot&quot;:0}" fill="#3d773c" stroke="#1e5700" stroke-width="1.4" stroke-linecap="round" stroke-linejoin="round"/><path d="M241.55847,209.6181c3.60502,-0.24107 6.77781,-0.88849 6.34281,2.02004c-0.16646,1.11298 -1.16667,4.34775 -1.38101,6.19399c-0.21435,1.84624 -0.0917,4.77527 -0.13675,5.29577c-0.09742,1.12571 -1.37858,0.34619 -3.28526,0.79236c-1.35538,0.31716 -3.17519,-0.79332 -3.22772,-1.45686c-0.01429,-0.18045 0.76182,-1.50616 1.2347,-2.97118c0.50411,-1.56178 0.70664,-3.26754 0.67802,-3.43346c-0.02554,-0.14803 0.32064,1.75884 -0.16873,3.51414c-0.44926,1.61141 -1.73497,3.07854 -1.80691,3.06734c-1.08464,-0.1688 -3.09779,0.17315 -4.73927,-0.19643c-1.05586,-0.23773 -1.45028,-1.01644 -1.56655,-1.59627c-0.27677,-1.38022 0.35994,-2.34099 1.47384,-4.73314c0.46522,-0.99908 -0.29472,-3.07565 -0.42292,-4.96894c0,0 2.25384,-1.20959 7.00574,-1.52737z" data-paper-data="{&quot;index&quot;:null}" fill="url(#color-1)" stroke="#02050a" stroke-width="1.4" stroke-linecap="butt" stroke-linejoin="miter"/><path d="M233.48477,210.3187c-1.22155,-1.67972 -3.01474,-7.95681 -3.06843,-9.20758c-0.08341,-1.94288 -1.6872,2.22791 -2.96403,-3.73339c-0.41799,-0.68022 1.83486,-6.91617 1.83486,-6.91617l21.59553,-0.21978c0,0 4.27427,-1.19702 4.19361,1.96085c-0.01343,0.52595 0.12497,4.69778 -1.3332,6.22097c-1.20154,1.2551 -2.70858,1.17208 -2.9067,1.67803c-1.15973,2.96159 -0.88658,7.43106 -2.46674,10.21706c-1.28834,2.22001 -12.29289,2.36849 -14.88491,0z" data-paper-data="{&quot;index&quot;:null}" fill="url(#color-2)" stroke="#270800" stroke-width="1.4" stroke-linecap="butt" stroke-linejoin="miter"/><path d="M234.8104,192.68287c5.67214,1.39925 17.28092,0.43266 16.27419,4.23281c-1.02819,4.08277 -10.3982,5.52408 -18.77355,3.58213" data-paper-data="{&quot;index&quot;:null}" fill="#3d773c" stroke="#1e5700" stroke-width="1.4" stroke-linecap="round" stroke-linejoin="round"/><path d="M231.84603,190.71231c0,0 1.55679,0.93171 2.29564,2.19064c0.73885,1.25893 0.62679,1.43528 0.44628,2.48134c-0.18032,1.04495 -0.79165,4.33139 -2.54464,5.29965c-0.39315,0.21715 -2.86951,0.04881 -2.86951,0.04881" data-paper-data="{&quot;index&quot;:null}" fill="#561c08" stroke="#270800" stroke-width="1.4" stroke-linecap="round" stroke-linejoin="miter"/><g><path d="M243.85004,141.91464l7.2,-7l2.8,11.2c0,0 6.2,4.6 8.1,7.8c3.1,5.3 3.2,9.6 3.2,9.6c0,0 6.9,2.1 8.1,7.6c1.2,5.5 -3.1,16 -21.3,19.6c-18.2,3.6 -32.8,-1.3 -39.7,-12.4c-6.8,-11 4,-24.2 3.4,-23.4l-2.2,-18.3l12.6,8.2c0,0 4.3,-1.7 8.9,-1.9c1.7,-0.1 4.8,0.1 6.3,0.2z" data-paper-data="{&quot;index&quot;:null}" fill="#3d773c" stroke="none" stroke-width="1" stroke-linecap="butt" stroke-linejoin="miter"/><path d="M280.41668,164.64797c0,0 -1.8,1.6 -4.4,2.5c-2.2,0.8 -6.6,1.5 -6.6,1.5" data-paper-data="{&quot;index&quot;:null}" fill="none" stroke="#1e5700" stroke-width="1.4" stroke-linecap="round" stroke-linejoin="round"/><path d="M279.81671,175.84797c0,0 -1.8,0.2 -4.5,-0.1c-2.8,-0.2 -5.4,-1.3 -5.4,-1.3" data-paper-data="{&quot;index&quot;:null}" fill="none" stroke="#1e5700" stroke-width="1.4" stroke-linecap="round" stroke-linejoin="round"/><path d="M229.11671,146.74797l-5.2,-3.6" data-paper-data="{&quot;index&quot;:null}" fill="none" stroke="#1e5700" stroke-width="1.4" stroke-linecap="round" stroke-linejoin="round"/><path d="M211.8167,173.64797c0,0 -3.5,0.5 -5.3,0.6c-1.8,0.1 -5.8,-0.3 -5.8,-0.3" data-paper-data="{&quot;index&quot;:null}" fill="none" stroke="#1e5700" stroke-width="1.4" stroke-linecap="round" stroke-linejoin="round"/><path d="M199.91671,164.34797c0,0 2.2,0.4 6.2,2.2c3.6,1.6 5.9,3.3 5.9,3.3" data-paper-data="{&quot;index&quot;:null}" fill="none" stroke="#1e5700" stroke-width="1.4" stroke-linecap="round" stroke-linejoin="round"/><path d="M264.75004,164.01464c0,0 6.6,1.6 7.8,7.1c1.5,5.5 -3.4,15.9 -20.6,19c-3.9,0.7 -7.4,1.4 -12.9,1.4c-8.5,0.1 -17.8,-5.2 -17.1,-16.3c0.4,-6.4 8.5,-5.9 8.5,-5.9l7.1,-1.8c0,0 7.1,1.6 11.3,0.7c4.2,-0.9 4.2,-4.2 4.2,-4.2l8.8,-2.6l2.4,2z" data-paper-data="{&quot;index&quot;:null}" fill="#5a9758" stroke="none" stroke-width="1.5" stroke-linecap="butt" stroke-linejoin="miter"/><path d="M259.75004,154.01464c2.8,4.3 2.9,9.3 0.2,11c-2.7,1.8 -7.2,-0.3 -10,-4.7c-2.8,-4.3 -2.9,-9.3 -0.2,-11c2.7,-1.7 7.2,0.4 10,4.7z" data-paper-data="{&quot;index&quot;:null}" fill="url(#color-3)" stroke="#8a1f1f" stroke-width="1.4" stroke-linecap="round" stroke-linejoin="round"/><path d="M259.65003,157.61464c0.3,1 -0.2,2 -1.2,2.3c-0.9,0.3 -1.9,-0.3 -2.2,-1.4c-0.3,-1 0.2,-2 1.2,-2.3c1,-0.2 1.9,0.4 2.2,1.4" data-paper-data="{&quot;index&quot;:null}" fill="#ff0000" stroke="#d20000" stroke-width="1" stroke-linecap="butt" stroke-linejoin="miter"/><path d="M236.55004,157.11464c2.8,4.3 2.5,9.5 -0.7,11.6c-3.2,2.1 -8.1,0.3 -10.9,-4.1c-2.8,-4.3 -2.5,-9.5 0.7,-11.6c3.2,-2 8.1,-0.2 10.9,4.1z" data-paper-data="{&quot;index&quot;:null}" fill="url(#color-4)" stroke="#8f1111" stroke-width="1.4" stroke-linecap="round" stroke-linejoin="round"/><path d="M236.25004,161.01464c0,1 -0.8,1.9 -1.7,1.9c-1,0 -1.7,-0.8 -1.7,-1.9c0,-1 0.8,-1.9 1.7,-1.9c0.9,0 1.7,0.8 1.7,1.9" data-paper-data="{&quot;index&quot;:null}" fill="#ff0000" stroke="#d80000" stroke-width="1" stroke-linecap="butt" stroke-linejoin="miter"/><path d="M247.55004,167.01464c1.7,-0.2 4,-1.5 4.3,0.4c0,0.8 -1.6,4.1 -3.4,4.2c-2,0.1 -5.5,-2.4 -5.4,-3.9c0.1,-1.5 3,-0.5 4.5,-0.7z" data-paper-data="{&quot;index&quot;:null}" fill="#5e1b00" stroke="#270800" stroke-width="1.4" stroke-linecap="round" stroke-linejoin="round"/><path d="M241.78338,183.03672c0,0 3.73734,-1.88333 9.65,0.13333" data-paper-data="{&quot;index&quot;:null}" fill="none" stroke="#1e5700" stroke-width="1.4" stroke-linecap="round" stroke-linejoin="round"/><path d="M244.01671,141.74797l7.2,-7l2.8,11.2c0,0 6.2,4.6 8.1,7.8c3.1,5.3 3.2,9.6 3.2,9.6c0,0 6.9,2.1 8.1,7.6c1.2,5.5 -3.1,16 -21.3,19.6c-18.2,3.6 -32.8,-1.3 -39.7,-12.4c-6.8,-11 4,-24.2 3.4,-23.4l-2.2,-18.3l12.6,8.2c0,0 4.3,-1.7 8.9,-1.9c1.7,-0.1 4.8,0.1 6.3,0.2z" data-paper-data="{&quot;index&quot;:null}" fill="none" stroke="#1e5700" stroke-width="1.4" stroke-linecap="round" stroke-linejoin="round"/></g></g></g></svg>