<svg version="1.1" xmlns="http://www.w3.org/2000/svg" xmlns:xlink="http://www.w3.org/1999/xlink" width="31.2198" height="20.42921" viewBox="0,0,31.2198,20.42921"><g transform="translate(-222.13621,-192.31697)"><g data-paper-data="{&quot;isPaintingLayer&quot;:true}" fill-rule="nonzero" stroke-miterlimit="10" stroke-dasharray="" stroke-dashoffset="0" style="mix-blend-mode: normal"><path d="M223.13641,205.22146c-0.35206,-0.70412 -0.175,-2.85 -0.175,-2.85l3.5,-9.375l6.875,2.5l-8.25,11.125c0,0 -1.59377,-0.68755 -1.95,-1.4z" data-paper-data="{&quot;index&quot;:null}" fill="#faa51f" stroke="none" stroke-width="0" stroke-linecap="butt" stroke-linejoin="miter"/><path d="M241.25,204.81465" data-paper-data="{&quot;index&quot;:null}" fill="#faa51f" stroke="#8e5322" stroke-width="1.4" stroke-linecap="round" stroke-linejoin="round"/><path d="M241.24999,204.81465" data-paper-data="{&quot;index&quot;:null}" fill="#faa51f" stroke="#8e5322" stroke-width="1.4" stroke-linecap="round" stroke-linejoin="round"/><g data-paper-data="{&quot;index&quot;:null}" stroke-linejoin="miter"><g><path d="M229.80748,205.51914c-1.30368,-0.44544 -1.50768,-1.61177 -1.53956,-1.95421c-0.00568,-0.06098 -0.0059,-0.09584 -0.0059,-0.09584l6,-0.35144v2.40148c0,0 -2.9187,0.52476 -4.45455,0z" fill="#474d55" stroke="#222931" stroke-width="1.5" stroke-linecap="butt"/><path d="M234.47415,210.45098c-1.77395,-1.36419 0,-9.11111 0,-9.11111h15.11111c0,0 2.03741,7.0456 0,9.11111c-1.84061,1.866 -12.19072,2.24583 -15.11111,0z" fill="#474d55" stroke="#222931" stroke-width="1.5" stroke-linecap="butt"/><path d="M235.19431,204.66517l0.29167,-2.04167h9.91667" fill="none" stroke="#69727d" stroke-width="1" stroke-linecap="round"/><path d="M249.44431,206.79016c0,0 0.31218,2.64118 -1.21082,3.15397c-4.06295,1.36798 -9.53918,0.59603 -9.53918,0.59603" fill="none" stroke="#363d45" stroke-width="1" stroke-linecap="round"/><path d="M252.60601,204.73988c-0.32497,0.76186 -1.46298,0.99771 -1.79961,1.05161c-0.05995,0.0096 -0.09448,0.01343 -0.09448,0.01343l-0.88508,-3.25087l2.38073,-0.25544c0,0 0.7813,1.54375 0.39845,2.44128z" data-paper-data="{&quot;index&quot;:null}" fill="#474d55" stroke="#222931" stroke-width="1.5" stroke-linecap="butt"/></g><g><g fill="none" stroke-linecap="round"><path d="M249.52765,206.23666l-14.79167,-0.0528" stroke="#191c20" stroke-width="0.875"/><g stroke="#32363b" stroke-width="0.5"><g><g><path d="M234.41677,205.78053l0.03982,0.37606"/><path d="M234.82535,206.24447l0.03982,0.37606"/><path d="M235.13838,205.80587l0.03982,0.37606"/><path d="M235.58678,206.64587l-0.03982,-0.37606"/><path d="M235.89566,205.79082l0.03982,0.37606"/><path d="M236.30424,206.25477l0.03982,0.37606"/><path d="M236.61727,205.81616l0.03982,0.37606"/><path d="M237.06567,206.65616l-0.03982,-0.37606"/></g><g><path d="M237.37073,206.14234l-0.03982,-0.37606"/><path d="M237.77932,206.60629l-0.03982,-0.37606"/><path d="M238.09235,206.16768l-0.03982,-0.37606"/><path d="M238.50093,206.63162l-0.03982,-0.37606"/><path d="M238.8098,205.77658l0.03982,0.37606"/><path d="M239.25821,206.61658l-0.03982,-0.37606"/><path d="M239.57123,206.17797l-0.03982,-0.37606"/><path d="M239.97982,206.64192l-0.03982,-0.37606"/></g><g><path d="M240.26754,206.12931l-0.03982,-0.37606"/><path d="M240.67612,206.59325l-0.03982,-0.37606"/><path d="M240.94933,205.77858l0.03982,0.37606"/><path d="M241.39773,206.61859l-0.03982,-0.37606"/><path d="M241.7066,205.76354l0.03982,0.37606"/><path d="M242.11519,206.22748l0.03982,0.37606"/><path d="M242.42822,205.78888l0.03982,0.37606"/><path d="M242.8368,206.25282l0.03982,0.37606"/></g><g><path d="M243.18168,206.11506l-0.03982,-0.37606"/><path d="M243.59027,206.579l-0.03982,-0.37606"/><path d="M243.86347,205.76433l0.03982,0.37606"/><path d="M244.27206,206.22828l0.03982,0.37606"/><path d="M244.66057,206.12535l-0.03982,-0.37606"/><path d="M245.06915,206.5893l-0.03982,-0.37606"/><path d="M245.38218,206.15069l-0.03982,-0.37606"/><path d="M245.79077,206.61463l-0.03982,-0.37606"/></g></g><g><g><path d="M245.98173,205.80571l0.03982,0.37606"/><path d="M246.43013,206.64572l-0.03982,-0.37606"/><path d="M246.74316,206.20711l-0.03982,-0.37606"/><path d="M247.11192,206.29499l0.03982,0.37606"/><path d="M247.46061,205.81601l0.03982,0.37606"/><path d="M247.90902,206.65601l-0.03982,-0.37606"/><path d="M248.22204,206.2174l-0.03982,-0.37606"/><path d="M248.63063,206.68134l-0.03982,-0.37606"/></g><g><path d="M248.93569,206.16752l-0.03982,-0.37606"/><path d="M249.30446,206.25541l0.03982,0.37606"/><path d="M249.6573,206.19286l-0.03982,-0.37606"/><path d=""/><path d=""/><path d=""/><path d=""/><path d=""/></g><g><path d=""/><path d=""/><path d=""/><path d=""/><path d=""/><path d=""/><path d=""/><path d=""/></g><g><path d=""/><path d=""/><path d=""/><path d=""/><path d=""/><path d=""/><path d=""/><path d=""/></g></g></g></g><path d="M233.4361,208.28572l1.10975,-2.22738l0.65668,0.02734l-0.31808,2.72738z" fill="#b0b0b0" stroke="#646464" stroke-width="0.25" stroke-linecap="butt"/></g></g><g data-paper-data="{&quot;index&quot;:null}" stroke="#8e5322" stroke-width="1.4" stroke-linecap="round" stroke-linejoin="round"><g data-paper-data="{&quot;index&quot;:null}"><path d="M224.54999,206.21465c-3.00451,-1.68545 -1.82037,-7.88176 1.70287,-13.19767" fill="#faa51f"/><path d="M230.64999,199.71465" fill="#faa51f"/><path d="M233.74999,197.91465" fill="none"/><path d="M230.64999,199.71465l2.7,-4.1" fill="#faa51f"/><path d="M230.64999,199.71465l-1.2,-0.3" fill="none"/></g><path d="M229.44999,199.41465c5.6,-1.8 8.6,1.3 8.5,3c-0.2,4 -4.8,5.8 -13.3,3.9" data-paper-data="{&quot;index&quot;:null}" fill="#faa51f"/></g></g></g></svg>