<svg version="1.1" xmlns="http://www.w3.org/2000/svg" xmlns:xlink="http://www.w3.org/1999/xlink" width="31.15967" height="20.42921" viewBox="0,0,31.15967,20.42921"><g transform="translate(-226.70412,-192.31697)"><g data-paper-data="{&quot;isPaintingLayer&quot;:true}" fill-rule="nonzero" stroke-miterlimit="10" stroke-dasharray="" stroke-dashoffset="0" style="mix-blend-mode: normal"><path d="M254.91359,206.62146l-8.25,-11.125l6.875,-2.5l3.5,9.375c0,0 0.17706,2.14588 -0.175,2.85c-0.35623,0.71245 -1.95,1.4 -1.95,1.4z" fill="#faa51f" stroke="none" stroke-width="0" stroke-linecap="butt" stroke-linejoin="miter"/><path d="M238.75,204.81465" data-paper-data="{&quot;index&quot;:null}" fill="#faa51f" stroke="#8e5322" stroke-width="1.4" stroke-linecap="round" stroke-linejoin="round"/><path d="M238.75001,204.81465" data-paper-data="{&quot;index&quot;:null}" fill="#faa51f" stroke="#8e5322" stroke-width="1.4" stroke-linecap="round" stroke-linejoin="round"/><g data-paper-data="{&quot;index&quot;:null}" stroke-linejoin="miter"><g><path d="M250.19253,205.51913c-1.53585,0.52476 -4.45455,0 -4.45455,0v-2.40148l6,0.35144c0,0 -0.00022,0.03486 -0.0059,0.09584c-0.03188,0.34244 -0.23588,1.50877 -1.53956,1.95421z" fill="#474d55" stroke="#222931" stroke-width="1.5" stroke-linecap="butt"/><path d="M230.41474,210.45098c-2.03741,-2.06551 0,-9.11111 0,-9.11111h15.11111c0,0 1.77395,7.74692 0,9.11111c-2.92039,2.24583 -13.2705,1.866 -15.11111,0z" fill="#474d55" stroke="#222931" stroke-width="1.5" stroke-linecap="butt"/><path d="M234.59735,202.6235h9.91667l0.29167,2.04167" fill="none" stroke="#69727d" stroke-width="1" stroke-linecap="round"/><path d="M241.30569,210.54016c0,0 -5.47623,0.77195 -9.53918,-0.59603c-1.523,-0.51279 -1.21082,-3.15397 -1.21082,-3.15397" fill="none" stroke="#363d45" stroke-width="1" stroke-linecap="round"/><path d="M227.39398,204.73989c-0.38285,-0.89753 0.39845,-2.44128 0.39845,-2.44128l2.38073,0.25544l-0.88508,3.25087c0,0 -0.03453,-0.00383 -0.09448,-0.01343c-0.33663,-0.0539 -1.47464,-0.28975 -1.79961,-1.05161z" data-paper-data="{&quot;index&quot;:null}" fill="#474d55" stroke="#222931" stroke-width="1.5" stroke-linecap="butt"/></g><g><g fill="none" stroke-linecap="round"><path d="M230.47235,206.23666l14.79167,-0.0528" stroke="#191c20" stroke-width="0.875"/><g stroke="#32363b" stroke-width="0.5"><g><g><path d="M245.58323,205.78053l-0.03982,0.37606"/><path d="M245.17465,206.24447l-0.03982,0.37606"/><path d="M244.8218,206.18193l0.03982,-0.37606"/><path d="M244.41322,206.64587l0.03982,-0.37606"/><path d="M244.06452,206.16688l0.03982,-0.37606"/><path d="M243.69576,206.25477l-0.03982,0.37606"/><path d="M243.38273,205.81616l-0.03982,0.37606"/><path d="M242.97415,206.2801l-0.03982,0.37606"/></g><g><path d="M242.62927,206.14234l0.03982,-0.37606"/><path d="M242.22068,206.60629l0.03982,-0.37606"/><path d="M241.90765,206.16768l0.03982,-0.37606"/><path d="M241.49907,206.63162l0.03982,-0.37606"/><path d="M241.1902,205.77658l-0.03982,0.37606"/><path d="M240.78161,206.24052l-0.03982,0.37606"/><path d="M240.42877,206.17797l0.03982,-0.37606"/><path d="M240.02018,206.64192l0.03982,-0.37606"/></g><g><path d="M239.73246,206.12931l0.03982,-0.37606"/><path d="M239.32388,206.59325l0.03982,-0.37606"/><path d="M239.05067,205.77858l-0.03982,0.37606"/><path d="M238.64209,206.24253l-0.03982,0.37606"/><path d="M238.2934,205.76354l-0.03982,0.37606"/><path d="M237.84499,206.60354l0.03982,-0.37606"/><path d="M237.57178,205.78888l-0.03982,0.37606"/><path d="M237.1632,206.25282l-0.03982,0.37606"/></g><g><path d="M236.81832,206.11506l0.03982,-0.37606"/><path d="M236.40973,206.579l0.03982,-0.37606"/><path d="M236.13653,205.76433l-0.03982,0.37606"/><path d="M235.72794,206.22828l-0.03982,0.37606"/><path d="M235.33943,206.12535l0.03982,-0.37606"/><path d="M234.97067,206.21324l-0.03982,0.37606"/><path d="M234.65764,205.77463l-0.03982,0.37606"/><path d="M234.20923,206.61463l0.03982,-0.37606"/></g></g><g><g><path d="M233.97845,206.18177l0.03982,-0.37606"/><path d="M233.60969,206.26966l-0.03982,0.37606"/><path d="M233.25684,206.20711l0.03982,-0.37606"/><path d="M232.88808,206.29499l-0.03982,0.37606"/><path d="M232.53939,205.81601l-0.03982,0.37606"/><path d="M232.09098,206.65601l0.03982,-0.37606"/><path d="M231.77796,206.2174l0.03982,-0.37606"/><path d="M231.36937,206.68134l0.03982,-0.37606"/></g><g><path d="M231.06431,206.16752l0.03982,-0.37606"/><path d="M230.65572,206.63147l0.03982,-0.37606"/><path d="M230.3427,206.19286l0.03982,-0.37606"/><path d=""/><path d=""/><path d=""/><path d=""/><path d=""/></g><g><path d=""/><path d=""/><path d=""/><path d=""/><path d=""/><path d=""/><path d=""/><path d=""/></g><g><path d=""/><path d=""/><path d=""/><path d=""/><path d=""/><path d=""/><path d=""/><path d=""/></g></g></g></g><path d="M245.11555,208.81306l-0.31808,-2.72738l0.65668,-0.02734l1.10975,2.22738z" fill="#b0b0b0" stroke="#646464" stroke-width="0.25" stroke-linecap="butt"/></g></g><g stroke="#8e5322" stroke-width="1.4" stroke-linecap="round" stroke-linejoin="round"><g data-paper-data="{&quot;index&quot;:null}"><path d="M253.74714,193.01698c3.52324,5.31591 4.70738,11.51222 1.70287,13.19767" fill="#faa51f"/><path d="M249.35001,199.71465" fill="#faa51f"/><path d="M246.25001,197.91465" fill="none"/><path d="M249.35001,199.71465l-2.7,-4.1" fill="#faa51f"/><path d="M249.35001,199.71465l1.2,-0.3" fill="none"/></g><path d="M255.35001,206.31465c-8.5,1.9 -13.1,0.1 -13.3,-3.9c-0.1,-1.7 2.9,-4.8 8.5,-3" data-paper-data="{&quot;index&quot;:null}" fill="#faa51f"/></g></g></g></svg>