<svg version="1.1" xmlns="http://www.w3.org/2000/svg" xmlns:xlink="http://www.w3.org/1999/xlink" width="22.97723" height="20.11825" viewBox="0,0,22.97723,20.11825"><g transform="translate(-218.27277,-187.1018)"><g data-paper-data="{&quot;isPaintingLayer&quot;:true}" fill-rule="nonzero" stroke-miterlimit="10" stroke-dasharray="" stroke-dashoffset="0" style="mix-blend-mode: normal"><path d="M226.95162,193.83922c-2.80143,3.35994 -0.57855,9.04096 -4.34747,6.61801c-1.65248,-1.06234 -6.13726,-3.02739 -1.62722,-8.43658c3.28198,-3.93629 4.98847,-5.73202 9.1019,-2.49364c0.53776,0.42336 -2.94491,2.55637 -2.62735,3.10647c1.31769,2.2827 1.75754,-1.50172 -0.49988,1.20574z" fill="#177fff" stroke="#004ede" stroke-width="1.5" stroke-linecap="butt" stroke-linejoin="miter"/><path d="M220.56945,193.36653l0.74752,-0.89654c0,0 0.4944,0.77793 0.72889,0.95075c0.36139,0.26634 2.60598,1.50704 2.60598,1.50704l-1.0909,0.74686c0,0 -1.83895,-0.94174 -2.17101,-1.18645c-0.31997,-0.23582 -0.8205,-1.12165 -0.8205,-1.12165z" fill="#0059ff" stroke="none" stroke-width="0" stroke-linecap="butt" stroke-linejoin="miter"/><path d="M237.65445,206.39745" data-paper-data="{&quot;index&quot;:null}" fill="#faa51f" stroke="#8e5322" stroke-width="1.4" stroke-linecap="round" stroke-linejoin="round"/><path d="M237.65444,206.39744" data-paper-data="{&quot;index&quot;:null}" fill="#faa51f" stroke="#8e5322" stroke-width="1.4" stroke-linecap="round" stroke-linejoin="round"/><path d="M224.14017,202.78965c-0.35206,-0.70412 -0.175,-2.85 -0.175,-2.85l5.125,-8.125l6.125,3.875l-9.125,8.5c0,0 -1.59377,-0.68755 -1.95,-1.4z" data-paper-data="{&quot;index&quot;:null}" fill="#faa51f" stroke="none" stroke-width="0" stroke-linecap="butt" stroke-linejoin="miter"/><g data-paper-data="{&quot;index&quot;:null}" stroke="#8e5322" stroke-width="1.4" stroke-linecap="round" stroke-linejoin="round"><path d="M224.14573,203.41818c-2.34774,-2.41887 0.3153,-7.77335 4.9284,-11.85045" fill="#faa51f"/><path d="M231.84573,198.81818" fill="#faa51f"/><path d="M235.34573,198.01818" fill="none"/><path d="M231.84573,198.81818l3.7,-3.2" fill="#faa51f"/><path d="M230.74573,198.21818l1.1,0.6" fill="none"/></g><path d="M230.74573,198.21818c5.9,-0.2 7.9,3.7 7.3,5.3c-1.3,3.8 -6.2,4.2 -13.9,0" data-paper-data="{&quot;index&quot;:null}" fill="#faa51f" stroke="#8e5322" stroke-width="1.4" stroke-linecap="round" stroke-linejoin="round"/><path d="M224.68506,192.94676l1.4173,-2.11482c0,0 4.24915,1.42557 5.57456,2.59337c1.11115,0.97901 3.58208,3.17038 3.58208,3.17038l-1.06018,0.73125c0,0 -3.48919,-0.62305 -4.7314,-2.02123c-1.10751,-1.24655 -4.78235,-2.35895 -4.78235,-2.35895z" fill="#177fff" stroke="#004ede" stroke-width="1.5" stroke-linecap="butt" stroke-linejoin="miter"/><path d="M241.25,204.81466" data-paper-data="{&quot;index&quot;:null}" fill="#faa51f" stroke="#8e5322" stroke-width="1.4" stroke-linecap="round" stroke-linejoin="round"/><path d="M241.24999,204.81466" data-paper-data="{&quot;index&quot;:null}" fill="#faa51f" stroke="#8e5322" stroke-width="1.4" stroke-linecap="round" stroke-linejoin="round"/></g></g></svg>