<svg version="1.1" xmlns="http://www.w3.org/2000/svg" xmlns:xlink="http://www.w3.org/1999/xlink" width="90.13845" height="92.67853" viewBox="0,0,90.13845,92.67853"><g transform="translate(-187.09766,-134.6)"><g data-paper-data="{&quot;isPaintingLayer&quot;:true}" fill-rule="nonzero" stroke-miterlimit="10" stroke-dasharray="" stroke-dashoffset="0" style="mix-blend-mode: normal"><g data-paper-data="{&quot;index&quot;:null}" fill="#faa51f" stroke="#8e5322" stroke-width="1.4" stroke-linecap="round" stroke-linejoin="round"><path d="M250.49765,204.4c0,0 7,4.7 8.4,5.2c1.1,-1.8 2.4,-2.2 4.3,-1.3c2,1 8.3,5.3 6.9,7.4c-4.2,6.4 -7.1,-1.4 -9.9,1.3c-2,1.1 -10.2,-5.3 -18.8,-5.1"/><path d="M262.09765,214.4c0,0 -0.6,1.5 -1.7,2.5"/></g><g data-paper-data="{&quot;index&quot;:null}"><path d="M253.79765,206.6c2.5,0 5.5,-0.3 8.3,-2.2c6.3,-4 9.5,-11.9 13,-9.1c3.5,2.8 1,16.1 -11.8,18c-4.4,0.7 -8.3,0 -11.3,-0.6c-0.8,-0.1 -7.6,-2.1 -9.3,-6c-1.7,-3.9 0.1,-4.4 1,-4.8c0.9,-0.2 6.5,4.8 10.1,4.7z" fill="#faa51f" stroke="none" stroke-width="1" stroke-linecap="butt" stroke-linejoin="miter"/><path d="M274.99765,195.2c1.8,1 2.2,6.1 0.6,9.4c-1.7,3.3 -4,5.1 -5.4,6.3c-1.8,0.8 1.2,-2.8 -0.5,-5c-1.8,-2.2 -6,-2.3 -6,-2.3c0,0 3.9,-3.7 6,-5.9c1.8,-2 3.3,-3.3 5.3,-2.5z" fill="#ffffff" stroke="none" stroke-width="1" stroke-linecap="butt" stroke-linejoin="miter"/><path d="M253.79765,206.6c2.5,0 5.5,-0.3 8.3,-2.2c6.3,-4 9.5,-11.9 13,-9.1c3.5,2.8 1,16.1 -11.8,18c-4.4,0.7 -8.3,0 -11.3,-0.6c-0.8,-0.1 -7.6,-2.1 -9.3,-6c-1.7,-3.9 0.1,-4.4 1,-4.8c0.9,-0.2 6.5,4.8 10.1,4.7z" fill="none" stroke="#8e5322" stroke-width="1.4" stroke-linecap="round" stroke-linejoin="round"/></g><path d="M241.89765,204.6" data-paper-data="{&quot;index&quot;:null}" fill="#faa51f" stroke="#8e5322" stroke-width="1.4" stroke-linecap="round" stroke-linejoin="round"/><path d="M237.29765,188.7c6.5,-1.9 10.9,-1.3 12.8,5.1c1.9,6.4 5.5,14.8 -5.9,18.1c-11.4,3.3 -12.5,-6.6 -14.4,-13c-1.9,-6.4 1.2,-8.3 7.5,-10.2z" data-paper-data="{&quot;index&quot;:null}" fill="#faa51f" stroke="#8e5322" stroke-width="1.4" stroke-linecap="round" stroke-linejoin="round"/><path d="M233.39835,200.9672c0,0 -4.13875,5.12193 -5.88479,5.90199c-1.99947,0.64818 -11.41407,2.89811 -11.52727,-0.33558c-0.17003,-4.63553 8.48267,-6.49071 9.47733,-7.06676c1.19271,-0.69076 4.4862,-7.50128 4.4862,-7.50128" data-paper-data="{&quot;index&quot;:null}" fill="#faa51f" stroke="#8e5322" stroke-width="1.4" stroke-linecap="round" stroke-linejoin="miter"/><path d="M231.69765,195.5c3.6,-1.1 6,-0.5 7.2,3.5c1.2,4.1 1.6,4.3 -4.5,6.1c-6.2,1.8 -5.4,0.6 -6.6,-3.4c-1.2,-4 0.4,-5.1 3.9,-6.2z" data-paper-data="{&quot;index&quot;:null}" fill="#ffffff" stroke="none" stroke-width="1" stroke-linecap="butt" stroke-linejoin="miter"/><g data-paper-data="{&quot;index&quot;:null}" stroke="#8e5322" stroke-width="1.4" stroke-linecap="round" stroke-linejoin="round"><path d="M236.89765,189.8l7.2,-3.6c8,3.3 14.6,12.5 11.3,15.9" fill="#faa51f"/><path d="M247.69765,197.5" fill="#faa51f"/><path d="M244.19765,196.7" fill="none"/><path d="M247.69765,197.5l-3.7,-3.2" fill="#faa51f"/><path d="M247.69765,197.5l1.1,-0.6" fill="none"/></g><g data-paper-data="{&quot;index&quot;:null}" stroke="#8e5322" stroke-width="1.4" stroke-linecap="round" stroke-linejoin="round"><path d="M229.79765,202.8" fill="#faa51f"/><path d="M231.79765,200.6" fill="none"/><path d="M228.91902,204.34958l1.98547,2.43505" fill="none"/></g><g data-paper-data="{&quot;index&quot;:null}"><g><path d="M223.89765,145.2c1.5,-0.3 4.5,-0.9 6.2,-1c4.6,-0.4 9.1,0.8 9.1,0.8l11.5,-9.7l0.1,18.4c-0.7,-0.7 11.6,11.1 6.2,22.8c-5.6,11.9 -19.4,18.6 -38,17.2c-18.5,-1.3 -24.1,-11.2 -23.5,-16.8c0.5,-5.6 7.1,-8.5 7.1,-8.5c0,0 -0.4,-4.3 2,-9.9c1.5,-3.4 7.1,-8.7 7.1,-8.7l1.4,-11.5l8,6.1z" fill="#faa51f" stroke="none" stroke-width="1" stroke-linecap="butt" stroke-linejoin="miter"/><path d="M203.49765,168.1l2.1,-2.3l9.1,1.5c0,0 0.4,3.3 4.7,3.7c4.3,0.4 11.1,-2.1 11.1,-2.1l7.3,0.9c0,0 8,-1.5 9.2,4.8c2,10.9 -6.5,17.3 -15,18.3c-5.5,0.7 -9,0.4 -13,0.2c-17.5,-1 -23.6,-10.7 -22.8,-16.3c0.5,-5.6 6.9,-8 6.9,-8z" fill="#ffffff" stroke="none" stroke-width="1" stroke-linecap="butt" stroke-linejoin="miter"/><path d="M199.19766,174.1c0,0 -4.5,-0.2 -6.7,-0.7c-2.7,-0.6 -4.7,-1.9 -4.7,-1.9" fill="none" stroke="#8e5322" stroke-width="1.4" stroke-linecap="round" stroke-linejoin="round"/><path d="M199.39765,179.9c0,0 -2.4,1.4 -5.2,2c-2.6,0.6 -4.5,0.6 -4.5,0.6" fill="none" stroke="#8e5322" stroke-width="1.4" stroke-linecap="round" stroke-linejoin="round"/><path d="M236.49765,147.4l4.7,-4.2" fill="none" stroke="#8e5322" stroke-width="1.4" stroke-linecap="round" stroke-linejoin="round"/><path d="M223.89765,145.2c1.5,-0.3 4.5,-0.9 6.2,-1c4.6,-0.4 9.1,0.8 9.1,0.8l11.5,-9.7l0.1,18.4c-0.7,-0.7 11.6,11.1 6.2,22.8c-5.6,11.9 -19.4,18.6 -38,17.2c-18.5,-1.3 -24.1,-11.2 -23.5,-16.8c0.5,-5.6 7.1,-8.5 7.1,-8.5c0,0 -0.4,-4.3 2,-9.9c1.5,-3.4 7.1,-8.7 7.1,-8.7l1.4,-11.5l8,6.1z" fill="none" stroke="#8e5322" stroke-width="1.4" stroke-linecap="round" stroke-linejoin="round"/><path d="M267.99765,171c0,0 -3.9,0.9 -5.7,1c-1.8,0.1 -5.3,0.1 -5.3,0.1" fill="none" stroke="#8e5322" stroke-width="1.4" stroke-linecap="round" stroke-linejoin="round"/><path d="M256.29765,168.3c0,0 2.1,-2 5.5,-4c3.7,-2.3 5.9,-2.9 5.9,-2.9" fill="none" stroke="#8e5322" stroke-width="1.4" stroke-linecap="round" stroke-linejoin="round"/></g><g><path d="M216.19766,152.3c2.8,1.3 3.4,6.3 1.1,10.9c-2.3,4.7 -6.5,7.4 -9.4,5.9c-2.8,-1.3 -3.4,-6.3 -1.1,-10.9c2.3,-4.6 6.5,-7.2 9.4,-5.9z" fill="#ffffff" stroke="#8e5322" stroke-width="1.4" stroke-linecap="round" stroke-linejoin="round"/><path d="M207.39765,161.8c0.1,-1 1,-1.7 2,-1.7c1.1,0.1 1.7,1.1 1.5,2.1c-0.2,1.2 -1.1,1.9 -2,1.7c-1.1,-0.1 -1.7,-1.1 -1.5,-2.1" fill="#414142" stroke="none" stroke-width="1" stroke-linecap="butt" stroke-linejoin="miter"/></g><g><path d="M240.49765,153.1c3.4,1.7 4.4,6.8 2.1,11.4c-2.2,4.7 -6.9,7.1 -10.3,5.4c-3.4,-1.7 -4.4,-6.8 -2.1,-11.4c2.3,-4.6 6.9,-7 10.3,-5.4z" fill="#ffffff" stroke="#8e5322" stroke-width="1.4" stroke-linecap="round" stroke-linejoin="round"/><path d="M230.99765,162.3c-0.1,-1.1 0.6,-2 1.5,-2.1c0.9,-0.1 1.8,0.7 1.9,1.7c0.1,1.1 -0.5,2 -1.5,2.1c-0.9,0.1 -1.8,-0.7 -1.9,-1.7" fill="#414142" stroke="none" stroke-width="1" stroke-linecap="butt" stroke-linejoin="miter"/></g><path d="M225.09765,169.9c0.3,1.4 -2.9,4.4 -4.9,4.5c-1.8,0.1 -3.8,-3 -3.9,-3.8c0,-1.9 2.5,-0.9 4.2,-0.9c1.5,0 4.3,-1.4 4.6,0.2z" fill="#5f4b43" stroke="#8e5322" stroke-width="1.4" stroke-linecap="round" stroke-linejoin="round"/><path d="M231.39765,183.8c0,0 -2.2,2.6 -7.7,2.2" fill="#ffffff" stroke="#8e5322" stroke-width="1.4" stroke-linecap="round" stroke-linejoin="round"/></g><path d="M255.39765,202.2c-7.7,4.2 -12.6,3.8 -13.9,0c-0.6,-1.6 1.4,-5.5 7.3,-5.3" data-paper-data="{&quot;index&quot;:null}" fill="#faa51f" stroke="#8e5322" stroke-width="1.4" stroke-linecap="round" stroke-linejoin="round"/><g data-paper-data="{&quot;index&quot;:null}" fill="#faa51f" stroke="#8e5322" stroke-width="1.4" stroke-linecap="round" stroke-linejoin="round"><path d="M239.79765,212.7c0,0 -11.3,6 -15.2,12.3c-1.1,1.7 -1.9,1.9 -3.8,1.2c-2.1,-0.8 -9.2,-6.6 -8,-8.3c4.4,-6 7,1.9 9.7,-0.8c6.3,-6.2 9.6,-12.5 9.6,-12.5"/><path d="M219.79765,217.1c0,0 1.1,0.7 2.1,1.9"/></g></g></g></svg>