<svg version="1.1" xmlns="http://www.w3.org/2000/svg" xmlns:xlink="http://www.w3.org/1999/xlink" width="81.89998" height="97.91399" viewBox="0,0,81.89998,97.91399"><defs><linearGradient x1="239.35689" y1="207.28292" x2="239.35689" y2="224.96215" gradientUnits="userSpaceOnUse" id="color-1"><stop offset="0" stop-color="#1c2e52"/><stop offset="1" stop-color="#000a1d"/></linearGradient><linearGradient x1="240.2637" y1="190.24178" x2="240.2637" y2="212.03984" gradientUnits="userSpaceOnUse" id="color-2"><stop offset="0" stop-color="#5e1b00"/><stop offset="1" stop-color="#3b1f1f"/></linearGradient><linearGradient x1="225.48336" y1="148.72493" x2="225.48336" y2="165.65892" gradientUnits="userSpaceOnUse" id="color-3"><stop offset="0" stop-color="#ffa9a9"/><stop offset="1" stop-color="#ff3131"/></linearGradient><linearGradient x1="249.58336" y1="152.19971" x2="249.58336" y2="169.58996" gradientUnits="userSpaceOnUse" id="color-4"><stop offset="0" stop-color="#ffa9a9"/><stop offset="1" stop-color="#ff4242"/></linearGradient></defs><g transform="translate(-199.2167,-134.04797)"><g data-paper-data="{&quot;isPaintingLayer&quot;:true}" fill-rule="nonzero" stroke-miterlimit="10" stroke-dasharray="" stroke-dashoffset="0" style="mix-blend-mode: normal"><path d="M254.28335,204.71464c2.3,-1 4.9,-2.5 6.8,-5.3c4.2,-6.2 4,-14.7 8.3,-13.5c4.3,1.2 7.3,14.4 -3.7,21.2c-3.8,2.4 -7.6,3.3 -10.6,3.9c-0.8,0.2 -7.8,1.1 -10.9,-1.8c-3.1,-2.9 -1.7,-4.1 -1,-4.8c0.7,-0.6 7.9,1.8 11.1,0.3z" data-paper-data="{&quot;index&quot;:null}" fill="#3d773c" stroke="#1e5700" stroke-width="1" stroke-linecap="butt" stroke-linejoin="miter"/><path d="M254.11668,204.54797c2.3,-1 4.9,-2.5 6.8,-5.3c4.2,-6.2 4,-14.7 8.3,-13.5c4.3,1.2 7.3,14.4 -3.7,21.2c-3.8,2.4 -7.6,3.3 -10.6,3.9c-0.8,0.2 -7.8,1.1 -10.9,-1.8c-3.1,-2.9 -1.7,-4.1 -1,-4.8c0.7,-0.6 7.9,1.8 11.1,0.3z" data-paper-data="{&quot;index&quot;:null}" fill="#3d773c" stroke="#1e5700" stroke-width="1.4" stroke-linecap="round" stroke-linejoin="round"/><path d="M239.08336,204.81464" data-paper-data="{&quot;index&quot;:null}" fill="#3d773c" stroke="#1e5700" stroke-width="1.4" stroke-linecap="round" stroke-linejoin="round"/><path d="M239.36704,188.14797c5.93239,0 9.56265,1.8 9.56265,8.5c0,6.7 0.97397,15.7 -9.56265,15.7c-10.53662,0 -9.03139,-9.8 -9.03139,-16.5c0,-6.7 3.09901,-7.7 9.03139,-7.7z" data-paper-data="{&quot;index&quot;:null}" fill="#3d773c" stroke="#1e5700" stroke-width="1.4" stroke-linecap="round" stroke-linejoin="round"/><g data-paper-data="{&quot;index&quot;:null}" fill="#3d773c" stroke="#1e5700" stroke-width="1.4" stroke-linecap="round" stroke-linejoin="round"><path d="M246.64296,210.4949c0,0 -0.0215,4.61708 0.72233,5.73448c0.8743,1.31341 3.94365,4.25785 5.14328,5.57681c1.45587,1.52658 2.85603,2.28582 1.45314,3.89886c-1.48146,1.67489 -6.48887,7.05794 -8.11354,5.15519c-5.01442,-5.72499 0.6598,-4.98144 -1.21875,-8.33868c-1.04822,-1.83749 -2.86305,-2.57028 -3.58514,-3.98327c-1.31449,-2.57219 -2.7974,-7.30564 -2.7974,-7.30564"/><path d="M245.31469,223.67686c0,0 1.13365,-1.14667 2.4812,-1.69814"/></g><g data-paper-data="{&quot;index&quot;:null}" fill="#3d773c" stroke="#1e5700" stroke-width="1.4" stroke-linecap="round" stroke-linejoin="round"><path d="M240.23382,211.50347c0,0 -1.39232,4.87937 -1.60942,6.46854c-0.30653,2.24383 0.33338,6.43413 0.6535,9.42131c0.21415,2.01101 -0.31535,2.68897 -2.24356,3.30703c-2.13231,0.70941 -11.33244,0.51557 -11.4424,-1.59106c-0.18291,-7.41461 5.88533,-2.49926 6.34765,-6.28295c-0.02387,-0.59459 -0.45335,-3.37527 -0.64173,-5.47038c-0.17662,-1.96434 1.61633,-7.48798 1.61633,-7.48798"/><path d="M230.70566,224.22362c0,0 1.30736,-0.14419 2.79315,0.21972"/></g><g data-paper-data="{&quot;index&quot;:null}" fill="#3d773c" stroke="#1e5700" stroke-width="1.4" stroke-linecap="round" stroke-linejoin="round"><path d="M249.68336,199.54797"/><path d="M246.58336,197.74797"/><path d="M246.98336,195.44797l2.7,4.1"/></g><path d="M229.94224,200.39562l0.92308,-2.84616" data-paper-data="{&quot;index&quot;:null}" fill="none" stroke="#270800" stroke-width="1.4" stroke-linecap="round" stroke-linejoin="miter"/><path d="M230.16476,198.87374c-2.22443,-0.33259 -18.52791,-1.76666 -17.49357,-6.18267c0.80347,-3.19916 10.53215,-3.11644 16.81291,-0.65026" data-paper-data="{&quot;index&quot;:null,&quot;origRot&quot;:0}" fill="#3d773c" stroke="#1e5700" stroke-width="1.4" stroke-linecap="round" stroke-linejoin="round"/><path d="M247.98672,216.4299c1.1139,2.39215 3.22283,2.93228 2.94606,4.3125c-0.29703,1.48127 -3.36676,2.46177 -5.14907,2.73914c-0.71486,0.11126 -3.40103,-2.1401 -4.62988,-4.16109c-0.88735,-1.45937 -1.19722,-4.29545 -1.65726,-4.10293c-0.26579,0.11123 -1.04346,2.09943 -1.04382,4.15391c-0.00036,2.05448 0.56741,4.50686 0.53789,4.87968c-0.05253,0.66354 -1.76718,0.61728 -3.12256,0.30012c-1.90668,-0.44617 -4.0291,-0.50792 -4.12652,-1.63363c-0.04505,-0.5205 -0.44819,-4.18564 -0.66254,-6.2422c-0.22012,-2.11199 1.30925,-4.13459 1.14279,-5.24757c-0.435,-2.90853 2.84294,-3.20754 6.44796,-2.96647c4.7519,0.31778 9.17559,0.56705 9.00376,3.10475c-0.1282,1.8933 -0.15203,3.86471 0.31319,4.86379z" data-paper-data="{&quot;index&quot;:null}" fill="url(#color-1)" stroke="#02050a" stroke-width="1.4" stroke-linecap="butt" stroke-linejoin="miter"/><path d="M247.39982,210.31869c-2.67081,2.36849 -14.00986,2.22001 -15.33735,0c-1.62819,-2.786 -1.34674,-7.25547 -2.54172,-10.21706c-0.20415,-0.50595 -1.75701,-0.42293 -2.99506,-1.67803c-1.50249,-1.52319 -1.35988,-5.69502 -1.37372,-6.22097c-0.08311,-3.15787 4.32108,-1.96085 4.32108,-1.96085l22.25195,0.21978c0,0 2.32132,6.23595 1.89063,6.91617c-1.31565,5.9613 -2.96819,1.79051 -3.05413,3.73339c-0.05533,1.25077 -1.90302,7.52786 -3.1617,9.20758z" data-paper-data="{&quot;index&quot;:null}" fill="url(#color-2)" stroke="#270800" stroke-width="1.4" stroke-linecap="butt" stroke-linejoin="miter"/><path d="M248.02236,200.60297c-8.37535,1.94195 -17.74536,0.50064 -18.77355,-3.58213c-1.00673,-3.80015 10.60205,-2.83356 16.27419,-4.23281" data-paper-data="{&quot;index&quot;:null}" fill="#3d773c" stroke="#1e5700" stroke-width="1.4" stroke-linecap="round" stroke-linejoin="round"/><path d="M251.36992,200.62759c0,0 -2.47636,0.16834 -2.86951,-0.04881c-1.75299,-0.96826 -2.36432,-4.2547 -2.54464,-5.29965c-0.18051,-1.04606 -0.29257,-1.22241 0.44628,-2.48134c0.73885,-1.25893 2.29564,-2.19064 2.29564,-2.19064" data-paper-data="{&quot;index&quot;:null}" fill="#561c08" stroke="#270800" stroke-width="1.4" stroke-linecap="round" stroke-linejoin="miter"/><g data-paper-data="{&quot;index&quot;:null}"><path d="M239.08335,143.11464c1.5,-0.1 4.6,-0.3 6.3,-0.2c4.6,0.2 8.9,1.9 8.9,1.9l12.6,-8.2l-2.2,18.3c-0.6,-0.8 10.2,12.4 3.4,23.4c-6.9,11.1 -21.5,16 -39.7,12.4c-18.2,-3.6 -22.5,-14.1 -21.3,-19.6c1.2,-5.5 8.1,-7.6 8.1,-7.6c0,0 0.1,-4.3 3.2,-9.6c1.9,-3.2 8.1,-7.8 8.1,-7.8l2.8,-11.2l7.2,7z" data-paper-data="{&quot;index&quot;:null}" fill="#3d773c" stroke="none" stroke-width="1" stroke-linecap="butt" stroke-linejoin="miter"/><path d="M210.9167,168.64797c0,0 -4.4,-0.7 -6.6,-1.5c-2.6,-0.9 -4.4,-2.5 -4.4,-2.5" data-paper-data="{&quot;index&quot;:null}" fill="none" stroke="#1e5700" stroke-width="1.4" stroke-linecap="round" stroke-linejoin="round"/><path d="M210.41668,174.44797c0,0 -2.6,1.1 -5.4,1.3c-2.7,0.3 -4.5,0.1 -4.5,0.1" data-paper-data="{&quot;index&quot;:null}" fill="none" stroke="#1e5700" stroke-width="1.4" stroke-linecap="round" stroke-linejoin="round"/><path d="M251.21669,146.74797l5.2,-3.6" data-paper-data="{&quot;index&quot;:null}" fill="none" stroke="#1e5700" stroke-width="1.4" stroke-linecap="round" stroke-linejoin="round"/><path d="M279.6167,173.94797c0,0 -4,0.4 -5.8,0.3c-1.8,-0.1 -5.3,-0.6 -5.3,-0.6" data-paper-data="{&quot;index&quot;:null}" fill="none" stroke="#1e5700" stroke-width="1.4" stroke-linecap="round" stroke-linejoin="round"/><path d="M268.31669,169.84797c0,0 2.3,-1.7 5.9,-3.3c4,-1.8 6.2,-2.2 6.2,-2.2" data-paper-data="{&quot;index&quot;:null}" fill="none" stroke="#1e5700" stroke-width="1.4" stroke-linecap="round" stroke-linejoin="round"/><path d="M216.08336,163.41464l2.4,-2l8.8,2.6c0,0 0,3.3 4.2,4.2c4.2,0.9 11.3,-0.7 11.3,-0.7l7.1,1.8c0,0 8.1,-0.5 8.5,5.9c0.7,11.1 -8.6,16.4 -17.1,16.3c-5.5,0 -9,-0.7 -12.9,-1.4c-17.2,-3.1 -22.1,-13.5 -20.6,-19c1.2,-5.5 7.8,-7.1 7.8,-7.1z" data-paper-data="{&quot;index&quot;:null}" fill="#5a9758" stroke="none" stroke-width="1.5" stroke-linecap="butt" stroke-linejoin="miter"/><path d="M230.58336,149.31464c2.7,1.7 2.6,6.7 -0.2,11c-2.8,4.4 -7.3,6.5 -10,4.7c-2.7,-1.7 -2.6,-6.7 0.2,-11c2.8,-4.3 7.3,-6.4 10,-4.7z" data-paper-data="{&quot;index&quot;:null}" fill="url(#color-3)" stroke="#8a1f1f" stroke-width="1.4" stroke-linecap="round" stroke-linejoin="round"/><path d="M220.68336,157.61464c0.3,-1 1.2,-1.6 2.2,-1.4c1,0.3 1.5,1.3 1.2,2.3c-0.3,1.1 -1.3,1.7 -2.2,1.4c-1,-0.3 -1.5,-1.3 -1.2,-2.3" data-paper-data="{&quot;index&quot;:null}" fill="#ff0000" stroke="#d20000" stroke-width="1" stroke-linecap="butt" stroke-linejoin="miter"/><path d="M254.68336,153.01464c3.2,2.1 3.5,7.3 0.7,11.6c-2.8,4.4 -7.7,6.2 -10.9,4.1c-3.2,-2.1 -3.5,-7.3 -0.7,-11.6c2.8,-4.3 7.7,-6.1 10.9,-4.1z" data-paper-data="{&quot;index&quot;:null}" fill="url(#color-4)" stroke="#8f1111" stroke-width="1.4" stroke-linecap="round" stroke-linejoin="round"/><path d="M244.08336,161.01464c0,-1.1 0.8,-1.9 1.7,-1.9c0.9,0 1.7,0.9 1.7,1.9c0,1.1 -0.7,1.9 -1.7,1.9c-0.9,0 -1.7,-0.9 -1.7,-1.9" data-paper-data="{&quot;index&quot;:null}" fill="#ff0000" stroke="#d80000" stroke-width="1" stroke-linecap="butt" stroke-linejoin="miter"/><path d="M237.28336,167.71464c0.1,1.5 -3.4,4 -5.4,3.9c-1.8,-0.1 -3.4,-3.4 -3.4,-4.2c0.3,-1.9 2.6,-0.6 4.3,-0.4c1.5,0.2 4.4,-0.8 4.5,0.7z" data-paper-data="{&quot;index&quot;:null}" fill="#5e1b00" stroke="#270800" stroke-width="1.4" stroke-linecap="round" stroke-linejoin="round"/><path d="M228.90002,183.17005c5.91266,-2.01666 9.65,-0.13333 9.65,-0.13333" data-paper-data="{&quot;index&quot;:null}" fill="none" stroke="#1e5700" stroke-width="1.4" stroke-linecap="round" stroke-linejoin="round"/><path d="M238.91668,142.94797c1.5,-0.1 4.6,-0.3 6.3,-0.2c4.6,0.2 8.9,1.9 8.9,1.9l12.6,-8.2l-2.2,18.3c-0.6,-0.8 10.2,12.4 3.4,23.4c-6.9,11.1 -21.5,16 -39.7,12.4c-18.2,-3.6 -22.5,-14.1 -21.3,-19.6c1.2,-5.5 8.1,-7.6 8.1,-7.6c0,0 0.1,-4.3 3.2,-9.6c1.9,-3.2 8.1,-7.8 8.1,-7.8l2.8,-11.2l7.2,7z" data-paper-data="{&quot;index&quot;:null}" fill="none" stroke="#1e5700" stroke-width="1.4" stroke-linecap="round" stroke-linejoin="round"/></g></g></g></svg>