<svg version="1.1" xmlns="http://www.w3.org/2000/svg" xmlns:xlink="http://www.w3.org/1999/xlink" width="48.53931" height="39.49961" viewBox="0,0,48.53931,39.49961"><defs><linearGradient x1="244.69856" y1="135.44768" x2="244.69856" y2="156.14366" gradientUnits="userSpaceOnUse" id="color-1"><stop offset="0" stop-color="#cf7b3f"/><stop offset="1" stop-color="#bc622d"/></linearGradient><linearGradient x1="264.44368" y1="149.41796" x2="264.44368" y2="173.9473" gradientUnits="userSpaceOnUse" id="color-2"><stop offset="0" stop-color="#cf7b3f"/><stop offset="1" stop-color="#c4652e"/></linearGradient></defs><g transform="translate(-222.45953,-134.94769)"><g data-paper-data="{&quot;isPaintingLayer&quot;:true}" fill-rule="nonzero" stroke="#a75215" stroke-width="1" stroke-linecap="butt" stroke-linejoin="miter" stroke-miterlimit="10" stroke-dasharray="" stroke-dashoffset="0" style="mix-blend-mode: normal"><path d="M258.81091,154.55302c-6.52142,-9.06889 -10.69498,-6.85193 -18.43283,-7.23078c-4.73631,-0.23189 -8.61878,-0.24856 -11.45826,-0.17995c-4.64325,0.11219 -4.1827,1.26763 -5.58179,-0.4226c-2.16531,-2.6159 4.99401,-11.90154 20.59832,-11.23819c29.4179,2.71277 21.54402,19.77312 21.54402,19.77312c0,0 -4.43349,2.40781 -6.66946,-0.7016z" data-paper-data="{&quot;index&quot;:null}" fill="url(#color-1)"/><path d="M265.11153,170.30426c-2.71729,-2.14462 -4.80182,-1.82857 -5.07098,-5.92115c-0.3396,-5.16354 -0.96261,-8.07874 -1.36043,-8.83689c-1.93781,-3.69303 6.41674,-6.12826 6.41674,-6.12826c0,0 7.08141,12.8216 5.02863,22.92471c-0.75449,3.71335 -2.29668,0.10621 -5.01396,-2.03841z" data-paper-data="{&quot;index&quot;:null}" fill="url(#color-2)"/><path d="M248.73479,147.34566c0,0 0.85109,-4.36158 1.16251,-6.23985c0.32661,-1.96992 4.39264,-3.26227 4.39264,-3.26227l3.7531,1.50525c0,0 -3.83511,1.00784 -4.04398,2.71374c-0.24028,1.96244 -1.45561,6.3856 -1.45561,6.3856z" data-paper-data="{&quot;index&quot;:null}" fill="#b06835"/><path d="M231.09278,147.10671c0,0 1.053,-6.23358 1.75406,-8.22979c0.66166,-1.88401 3.30729,-2.05489 3.30729,-2.05489l1.42475,-0.75698c0,0 -0.54619,1.90628 -1.30274,3.87895c-0.75656,1.97267 -1.81725,6.98194 -1.81725,6.98194z" data-paper-data="{&quot;index&quot;:null}" fill="#b06835"/></g></g></svg>