<svg version="1.1" xmlns="http://www.w3.org/2000/svg" xmlns:xlink="http://www.w3.org/1999/xlink" width="24.7337" height="19.59673" viewBox="0,0,24.7337,19.59673"><g transform="translate(-216.51629,-187.62332)"><g data-paper-data="{&quot;isPaintingLayer&quot;:true}" fill-rule="nonzero" stroke-miterlimit="10" stroke-dasharray="" stroke-dashoffset="0" style="mix-blend-mode: normal"><path d="M223.91903,202.98325c-2.50991,-0.82286 -8.9035,-1.94349 -5.83811,-9.76595c2.2307,-5.69245 4.00978,-5.86797 10.52813,-3.09996c0.85216,0.36187 1.16339,0.76261 -0.37093,4.67799c0,0 1.40544,10.06465 -4.31909,8.18792z" fill="#f57700" stroke="#b55700" stroke-width="1.5" stroke-linecap="butt" stroke-linejoin="miter"/><path d="M218.27364,194.6769l0.4488,-1.48787c0,0 0.78149,0.78159 1.05526,0.88887c0.42192,0.16534 2.95467,0.6825 2.95467,0.6825l-0.94412,1.41259c0,0 -2.05914,-0.33155 -2.44682,-0.48347c-0.37358,-0.14639 -1.06779,-1.01261 -1.06779,-1.01261z" fill="#3c3c3c" stroke="none" stroke-width="0" stroke-linecap="butt" stroke-linejoin="miter"/><path d="" fill="#ff8484" stroke="none" stroke-width="0" stroke-linecap="butt" stroke-linejoin="miter"/><path d="" fill="#ce0046" stroke="none" stroke-width="0" stroke-linecap="butt" stroke-linejoin="miter"/><path d="M237.65445,206.39745" data-paper-data="{&quot;index&quot;:null}" fill="#faa51f" stroke="#8e5322" stroke-width="1.4" stroke-linecap="round" stroke-linejoin="round"/><path d="M237.65444,206.39744" data-paper-data="{&quot;index&quot;:null}" fill="#faa51f" stroke="#8e5322" stroke-width="1.4" stroke-linecap="round" stroke-linejoin="round"/><path d="M224.14017,202.78965c-0.35206,-0.70412 -0.175,-2.85 -0.175,-2.85l5.125,-8.125l6.125,3.875l-9.125,8.5c0,0 -1.59377,-0.68755 -1.95,-1.4z" data-paper-data="{&quot;index&quot;:null}" fill="#faa51f" stroke="none" stroke-width="0" stroke-linecap="butt" stroke-linejoin="miter"/><g data-paper-data="{&quot;index&quot;:null}" stroke="#8e5322" stroke-width="1.4" stroke-linecap="round" stroke-linejoin="round"><path d="M224.14573,203.41818c-2.34774,-2.41887 0.3153,-7.77335 4.9284,-11.85045" fill="#faa51f"/><path d="M231.84573,198.81818" fill="#faa51f"/><path d="M235.34573,198.01818" fill="none"/><path d="M231.84573,198.81818l3.7,-3.2" fill="#faa51f"/><path d="M231.84573,198.81818l-1.1,-0.6" fill="none"/></g><path d="M230.74573,198.21818c5.9,-0.2 7.9,3.7 7.3,5.3c-1.3,3.8 -6.2,4.2 -13.9,0" data-paper-data="{&quot;index&quot;:null}" fill="#faa51f" stroke="#8e5322" stroke-width="1.4" stroke-linecap="round" stroke-linejoin="round"/><path d="M241.25,204.81466" data-paper-data="{&quot;index&quot;:null}" fill="#faa51f" stroke="#8e5322" stroke-width="1.4" stroke-linecap="round" stroke-linejoin="round"/><path d="M241.24999,204.81466" data-paper-data="{&quot;index&quot;:null}" fill="#faa51f" stroke="#8e5322" stroke-width="1.4" stroke-linecap="round" stroke-linejoin="round"/><path d="" fill="#ff8484" stroke="none" stroke-width="0" stroke-linecap="butt" stroke-linejoin="miter"/><path d="" fill="#ce0046" stroke="none" stroke-width="0" stroke-linecap="butt" stroke-linejoin="miter"/><path d="M222.86015,192.27934l1.52832,-2.38289c0,0 4.75591,1.48972 6.25558,2.75832c1.80677,1.52838 4.43341,4.25513 4.43341,4.25513l-1.52034,1.11671c0,0 -3.91503,-1.70522 -5.32737,-3.23182c-1.25919,-1.36105 -5.3696,-2.51544 -5.3696,-2.51544z" fill="#f57700" stroke="#b55700" stroke-width="1.5" stroke-linecap="butt" stroke-linejoin="miter"/></g></g></svg>