<svg version="1.1" xmlns="http://www.w3.org/2000/svg" xmlns:xlink="http://www.w3.org/1999/xlink" width="20.08159" height="26.76104" viewBox="0,0,20.08159,26.76104"><defs><linearGradient x1="249.25138" y1="198.37124" x2="249.25138" y2="223.68906" gradientUnits="userSpaceOnUse" id="color-1"><stop offset="0" stop-color="#a9c2c4"/><stop offset="1" stop-color="#8eb6be"/></linearGradient></defs><g transform="translate(-238.75,-197.67801)"><g data-paper-data="{&quot;isPaintingLayer&quot;:true}" fill-rule="nonzero" stroke-miterlimit="10" stroke-dasharray="" stroke-dashoffset="0" style="mix-blend-mode: normal"><path d="M238.75,204.81464" data-paper-data="{&quot;index&quot;:null}" fill="#faa51f" stroke="#8e5322" stroke-width="1.4" stroke-linecap="round" stroke-linejoin="round"/><path d="M238.75,204.81464" data-paper-data="{&quot;index&quot;:null}" fill="#faa51f" stroke="#8e5322" stroke-width="1.4" stroke-linecap="round" stroke-linejoin="round"/><g data-paper-data="{&quot;index&quot;:null}" stroke="#768e9b" stroke-width="1.5" stroke-linejoin="miter"><path d="M241.96968,222.12411c-4.50329,-3.86672 2.01943,-21.94842 4.33152,-23.0769c2.6418,-1.2894 -0.52097,3.86941 2.15975,5.24765c1.55766,0.80084 -0.37959,-0.65288 0.85361,-1.33268c2.29408,-1.26461 -1.46556,-5.0581 1.81931,-4.54321c2.39002,0.37463 4.99482,6.17621 6.70418,14.54503c2.27803,11.15289 -12.07825,12.41448 -15.86837,9.16011z" fill="url(#color-1)" stroke-linecap="butt"/><path d="M250.43898,206.92454l-1.03248,-2.1222l1.14115,0.74901" fill="none" stroke-linecap="round"/></g><path d="M252.12592,202.10422c0,0 1.83669,3.66679 2.43471,5.78915c1.10627,3.92613 1.22253,5.45697 1.22253,5.45697" data-paper-data="{&quot;index&quot;:null}" fill="none" stroke="#d4e6e2" stroke-width="1.5" stroke-linecap="round" stroke-linejoin="miter"/><path d="M246.22727,222.18182c0,0 -3.86421,0.16954 -4.27072,-3.01761c-0.63172,-4.95297 1.54344,-11.0733 1.54344,-11.0733" data-paper-data="{&quot;index&quot;:null}" fill="none" stroke="#83a8af" stroke-width="1.5" stroke-linecap="round" stroke-linejoin="miter"/></g></g></svg>