<svg version="1.1" xmlns="http://www.w3.org/2000/svg" xmlns:xlink="http://www.w3.org/1999/xlink" width="23.55012" height="17.48444" viewBox="0,0,23.55012,17.48444"><g transform="translate(-215.10231,-190.28958)"><g data-paper-data="{&quot;isPaintingLayer&quot;:true}" fill-rule="nonzero" stroke-miterlimit="10" stroke-dasharray="" stroke-dashoffset="0" style="mix-blend-mode: normal"><path d="M224.85114,204.75593c-2.63711,0.14962 -8.99882,1.43898 -8.99882,-6.96266c0,-6.11392 1.5924,-6.92645 8.67133,-6.72751c0.92545,0.02601 1.36143,0.28557 1.36143,4.49085c0,0 4.9807,8.85805 -1.03394,9.19932z" fill="#ff7070" stroke="#ce0046" stroke-width="1.5" stroke-linecap="butt" stroke-linejoin="miter"/><path d="M216.77279,199.61398l-0.125,-1.54905c0,0 1.01278,0.44258 1.30682,0.44258c0.45316,0 3,-0.44258 3,-0.44258l-0.36364,1.65968c0,0 -2.03816,0.44259 -2.45454,0.44259c-0.40124,0 -1.36364,-0.55322 -1.36364,-0.55322z" fill="#f5417d" stroke="none" stroke-width="0" stroke-linecap="butt" stroke-linejoin="miter"/><path d="M223.13644,205.22147c-0.35206,-0.70412 -0.175,-2.85 -0.175,-2.85l3.5,-9.375l6.875,2.5l-8.25,11.125c0,0 -1.59377,-0.68755 -1.95,-1.4z" data-paper-data="{&quot;index&quot;:null}" fill="#faa51f" stroke="none" stroke-width="0" stroke-linecap="butt" stroke-linejoin="miter"/><g data-paper-data="{&quot;index&quot;:null}" stroke="#8e5322" stroke-width="1.4" stroke-linecap="round" stroke-linejoin="round"><g data-paper-data="{&quot;index&quot;:null}"><path d="M224.55003,206.21466c-3.00451,-1.68545 -1.82037,-7.88176 1.70287,-13.19767" fill="#faa51f"/><path d="M230.65004,199.71466" fill="#faa51f"/><path d="M233.75005,197.91466" fill="none"/><path d="M233.35005,195.61466l-2.7,4.1" fill="#faa51f"/><path d="M229.45005,199.41466l1.2,0.3" fill="none"/></g><path d="M229.45002,199.41466c5.6,-1.8 8.6,1.3 8.5,3c-0.2,4 -4.8,5.8 -13.3,3.9" data-paper-data="{&quot;index&quot;:null}" fill="#faa51f"/></g><path d="M220.37685,196.24031l0.55355,-2.77624c0,0 4.97159,-0.3482 6.83074,0.28579c2.23986,0.76381 5.6803,2.34424 5.6803,2.34424l-1.0081,1.59443c0,0 -4.2673,-0.15925 -6.13927,-1.06531c-1.66897,-0.8078 -5.91722,-0.38291 -5.91722,-0.38291z" fill="#ff7070" stroke="#ce0046" stroke-width="1.5" stroke-linecap="butt" stroke-linejoin="miter"/><path d="" fill="#ff8484" stroke="none" stroke-width="0" stroke-linecap="butt" stroke-linejoin="miter"/><path d="" fill="#ce0046" stroke="none" stroke-width="0" stroke-linecap="butt" stroke-linejoin="miter"/></g></g></svg>