<svg version="1.1" xmlns="http://www.w3.org/2000/svg" xmlns:xlink="http://www.w3.org/1999/xlink" width="48.65177" height="32.81612" viewBox="0,0,48.65177,32.81612"><defs><linearGradient x1="240.2" y1="145.39999" x2="240.2" y2="158" gradientUnits="userSpaceOnUse" id="color-1"><stop offset="0" stop-color="#fff700"/><stop offset="1" stop-color="#af9800"/></linearGradient><linearGradient x1="240.2" y1="145.39999" x2="240.2" y2="158" gradientUnits="userSpaceOnUse" id="color-2"><stop offset="0" stop-color="#b2ac00"/><stop offset="1" stop-color="#af9800"/></linearGradient><linearGradient x1="232.25349" y1="133.9559" x2="232.25349" y2="179.10272" gradientUnits="userSpaceOnUse" id="color-3"><stop offset="0" stop-color="#fff700"/><stop offset="1" stop-color="#af9800"/></linearGradient><linearGradient x1="230.33097" y1="135.25559" x2="230.33097" y2="166.869" gradientUnits="userSpaceOnUse" id="color-4"><stop offset="0" stop-color="#b2ac00"/><stop offset="1" stop-color="#af9800"/></linearGradient><linearGradient x1="212.48572" y1="160.59803" x2="212.48572" y2="162.09803" gradientUnits="userSpaceOnUse" id="color-5"><stop offset="0" stop-color="#868100"/><stop offset="1" stop-color="#af9800"/></linearGradient><linearGradient x1="213.6787" y1="158.15368" x2="213.6787" y2="159.65368" gradientUnits="userSpaceOnUse" id="color-6"><stop offset="0" stop-color="#868100"/><stop offset="1" stop-color="#af9800"/></linearGradient><linearGradient x1="215.06312" y1="155.44511" x2="215.06312" y2="156.94511" gradientUnits="userSpaceOnUse" id="color-7"><stop offset="0" stop-color="#868100"/><stop offset="1" stop-color="#af9800"/></linearGradient><linearGradient x1="237.54432" y1="144.2588" x2="237.54432" y2="145.7588" gradientUnits="userSpaceOnUse" id="color-8"><stop offset="0" stop-color="#868100"/><stop offset="1" stop-color="#af9800"/></linearGradient><linearGradient x1="239.9373" y1="143.97164" x2="239.9373" y2="145.47164" gradientUnits="userSpaceOnUse" id="color-9"><stop offset="0" stop-color="#868100"/><stop offset="1" stop-color="#af9800"/></linearGradient><linearGradient x1="242.80888" y1="143.7802" x2="242.80888" y2="145.2802" gradientUnits="userSpaceOnUse" id="color-10"><stop offset="0" stop-color="#868100"/><stop offset="1" stop-color="#af9800"/></linearGradient><linearGradient x1="245.68046" y1="143.58876" x2="245.68046" y2="145.08876" gradientUnits="userSpaceOnUse" id="color-11"><stop offset="0" stop-color="#868100"/><stop offset="1" stop-color="#af9800"/></linearGradient><linearGradient x1="234.57702" y1="144.35452" x2="234.57702" y2="145.85452" gradientUnits="userSpaceOnUse" id="color-12"><stop offset="0" stop-color="#868100"/><stop offset="1" stop-color="#af9800"/></linearGradient><linearGradient x1="231.514" y1="144.92882" x2="231.514" y2="146.42882" gradientUnits="userSpaceOnUse" id="color-13"><stop offset="0" stop-color="#868100"/><stop offset="1" stop-color="#af9800"/></linearGradient><linearGradient x1="228.06811" y1="145.40742" x2="228.06811" y2="146.90742" gradientUnits="userSpaceOnUse" id="color-14"><stop offset="0" stop-color="#868100"/><stop offset="1" stop-color="#af9800"/></linearGradient><linearGradient x1="224.71793" y1="146.17317" x2="224.71793" y2="147.67317" gradientUnits="userSpaceOnUse" id="color-15"><stop offset="0" stop-color="#868100"/><stop offset="1" stop-color="#af9800"/></linearGradient><linearGradient x1="221.55919" y1="147.80041" x2="221.55919" y2="149.30041" gradientUnits="userSpaceOnUse" id="color-16"><stop offset="0" stop-color="#868100"/><stop offset="1" stop-color="#af9800"/></linearGradient><linearGradient x1="218.78333" y1="150.09768" x2="218.78333" y2="151.59768" gradientUnits="userSpaceOnUse" id="color-17"><stop offset="0" stop-color="#868100"/><stop offset="1" stop-color="#af9800"/></linearGradient><linearGradient x1="216.77323" y1="152.58638" x2="216.77323" y2="154.08638" gradientUnits="userSpaceOnUse" id="color-18"><stop offset="0" stop-color="#868100"/><stop offset="1" stop-color="#af9800"/></linearGradient><linearGradient x1="248.8392" y1="143.58876" x2="248.8392" y2="145.08876" gradientUnits="userSpaceOnUse" id="color-19"><stop offset="0" stop-color="#868100"/><stop offset="1" stop-color="#af9800"/></linearGradient><linearGradient x1="251.51934" y1="143.68448" x2="251.51934" y2="145.18448" gradientUnits="userSpaceOnUse" id="color-20"><stop offset="0" stop-color="#868100"/><stop offset="1" stop-color="#af9800"/></linearGradient><linearGradient x1="211.08572" y1="163.39802" x2="211.08572" y2="164.89802" gradientUnits="userSpaceOnUse" id="color-21"><stop offset="0" stop-color="#868100"/><stop offset="1" stop-color="#af9800"/></linearGradient></defs><g transform="translate(-206.00509,-134.80289)"><g data-paper-data="{&quot;isPaintingLayer&quot;:true}" fill-rule="nonzero" stroke-linecap="butt" stroke-linejoin="miter" stroke-miterlimit="10" stroke-dasharray="" stroke-dashoffset="0" style="mix-blend-mode: normal"><path d="M240.70001,158c0,0 -1.75984,-5.74314 -2.81388,-7.77853c-0.8198,-1.58306 -2.98612,-3.42147 -2.98612,-3.42147l9,-1.4c0,0 0.01764,2.48888 0.25619,4.36747c0.28609,2.25299 1.34381,8.23253 1.34381,8.23253z" fill="url(#color-1)" stroke="url(#color-2)" stroke-width="1.5"/><path d="M233.03705,147.27718c-4.44786,0.52883 -10.27343,1.65266 -14.19623,6.74371c-3.61243,4.68825 -5.37852,13.42451 -8.19148,12.81812c-2.89657,-0.62441 -4.93755,-7.11526 -3.32676,-15.4744c0.89122,-4.62498 -0.19403,-11.31485 2.94642,-14.31188c0.78164,-0.74595 2.17476,5.55749 3.95273,5.61976c1.64247,0.05752 3.67201,-6.13476 4.47926,-6.52127c1.66209,-0.7958 3.42699,4.88874 5.32695,4.59161c1.75323,-0.27418 3.763,-5.48886 5.5713,-5.48723c0.50147,0.00045 3.82278,5.14764 4.81691,5.11176c1.48299,-0.05352 3.83701,-4.80897 5.08315,-4.81448c2.00868,-0.00888 4.94132,5.04715 5.90957,5.11091c1.41286,0.09304 5.48952,-5.72617 7.20766,-4.05881c1.26135,1.22407 0.26841,6.16414 1.20926,8.10195c1.00271,2.06521 -7.37373,0.97525 -20.78874,2.57023z" fill="url(#color-3)" stroke="url(#color-4)" stroke-width="1.5"/><path d="M211.73572,161.34803c0,-0.41421 0.33579,-0.75 0.75,-0.75c0.41421,0 0.75,0.33579 0.75,0.75c0,0.41421 -0.33579,0.75 -0.75,0.75c-0.41421,0 -0.75,-0.33579 -0.75,-0.75z" fill="url(#color-5)" stroke="none" stroke-width="0.5"/><path d="M212.9287,158.90368c0,-0.41421 0.33579,-0.75 0.75,-0.75c0.41421,0 0.75,0.33579 0.75,0.75c0,0.41421 -0.33579,0.75 -0.75,0.75c-0.41421,0 -0.75,-0.33579 -0.75,-0.75z" fill="url(#color-6)" stroke="none" stroke-width="0.5"/><path d="M214.31312,156.19511c0,-0.41421 0.33579,-0.75 0.75,-0.75c0.41421,0 0.75,0.33579 0.75,0.75c0,0.41421 -0.33579,0.75 -0.75,0.75c-0.41421,0 -0.75,-0.33579 -0.75,-0.75z" fill="url(#color-7)" stroke="none" stroke-width="0.5"/><path d="M236.79432,145.0088c0,-0.41421 0.33579,-0.75 0.75,-0.75c0.41421,0 0.75,0.33579 0.75,0.75c0,0.41421 -0.33579,0.75 -0.75,0.75c-0.41421,0 -0.75,-0.33579 -0.75,-0.75z" fill="url(#color-8)" stroke="none" stroke-width="0.5"/><path d="M239.1873,144.72164c0,-0.41421 0.33579,-0.75 0.75,-0.75c0.41421,0 0.75,0.33579 0.75,0.75c0,0.41421 -0.33579,0.75 -0.75,0.75c-0.41421,0 -0.75,-0.33579 -0.75,-0.75z" fill="url(#color-9)" stroke="none" stroke-width="0.5"/><path d="M242.05888,144.5302c0,-0.41421 0.33579,-0.75 0.75,-0.75c0.41421,0 0.75,0.33579 0.75,0.75c0,0.41421 -0.33579,0.75 -0.75,0.75c-0.41421,0 -0.75,-0.33579 -0.75,-0.75z" fill="url(#color-10)" stroke="none" stroke-width="0.5"/><path d="M244.93046,144.33876c0,-0.41421 0.33579,-0.75 0.75,-0.75c0.41421,0 0.75,0.33579 0.75,0.75c0,0.41421 -0.33579,0.75 -0.75,0.75c-0.41421,0 -0.75,-0.33579 -0.75,-0.75z" fill="url(#color-11)" stroke="none" stroke-width="0.5"/><path d="M233.82702,145.10452c0,-0.41421 0.33579,-0.75 0.75,-0.75c0.41421,0 0.75,0.33579 0.75,0.75c0,0.41421 -0.33579,0.75 -0.75,0.75c-0.41421,0 -0.75,-0.33579 -0.75,-0.75z" fill="url(#color-12)" stroke="none" stroke-width="0.5"/><path d="M230.764,145.67882c0,-0.41421 0.33579,-0.75 0.75,-0.75c0.41421,0 0.75,0.33579 0.75,0.75c0,0.41421 -0.33579,0.75 -0.75,0.75c-0.41421,0 -0.75,-0.33579 -0.75,-0.75z" fill="url(#color-13)" stroke="none" stroke-width="0.5"/><path d="M227.31811,146.15742c0,-0.41421 0.33579,-0.75 0.75,-0.75c0.41421,0 0.75,0.33579 0.75,0.75c0,0.41421 -0.33579,0.75 -0.75,0.75c-0.41421,0 -0.75,-0.33579 -0.75,-0.75z" fill="url(#color-14)" stroke="none" stroke-width="0.5"/><path d="M223.96793,146.92317c0,-0.41421 0.33579,-0.75 0.75,-0.75c0.41421,0 0.75,0.33579 0.75,0.75c0,0.41421 -0.33579,0.75 -0.75,0.75c-0.41421,0 -0.75,-0.33579 -0.75,-0.75z" fill="url(#color-15)" stroke="none" stroke-width="0.5"/><path d="M220.80919,148.55041c0,-0.41421 0.33579,-0.75 0.75,-0.75c0.41421,0 0.75,0.33579 0.75,0.75c0,0.41421 -0.33579,0.75 -0.75,0.75c-0.41421,0 -0.75,-0.33579 -0.75,-0.75z" fill="url(#color-16)" stroke="none" stroke-width="0.5"/><path d="M218.03333,150.84768c0,-0.41421 0.33579,-0.75 0.75,-0.75c0.41421,0 0.75,0.33579 0.75,0.75c0,0.41421 -0.33579,0.75 -0.75,0.75c-0.41421,0 -0.75,-0.33579 -0.75,-0.75z" fill="url(#color-17)" stroke="none" stroke-width="0.5"/><path d="M216.02323,153.33638c0,-0.41421 0.33579,-0.75 0.75,-0.75c0.41421,0 0.75,0.33579 0.75,0.75c0,0.41421 -0.33579,0.75 -0.75,0.75c-0.41421,0 -0.75,-0.33579 -0.75,-0.75z" fill="url(#color-18)" stroke="none" stroke-width="0.5"/><path d="M248.0892,144.33876c0,-0.41421 0.33579,-0.75 0.75,-0.75c0.41421,0 0.75,0.33579 0.75,0.75c0,0.41421 -0.33579,0.75 -0.75,0.75c-0.41421,0 -0.75,-0.33579 -0.75,-0.75z" fill="url(#color-19)" stroke="none" stroke-width="0.5"/><path d="M250.76934,144.43448c0,-0.41421 0.33579,-0.75 0.75,-0.75c0.41421,0 0.75,0.33579 0.75,0.75c0,0.41421 -0.33579,0.75 -0.75,0.75c-0.41421,0 -0.75,-0.33579 -0.75,-0.75z" fill="url(#color-20)" stroke="none" stroke-width="0.5"/><path d="M210.33572,164.14802c0,-0.41421 0.33579,-0.75 0.75,-0.75c0.41421,0 0.75,0.33579 0.75,0.75c0,0.41421 -0.33579,0.75 -0.75,0.75c-0.41421,0 -0.75,-0.33579 -0.75,-0.75z" fill="url(#color-21)" stroke="none" stroke-width="0.5"/></g></g></svg>