<svg version="1.1" xmlns="http://www.w3.org/2000/svg" xmlns:xlink="http://www.w3.org/1999/xlink" width="81.89997" height="98.83302" viewBox="0,0,81.89997,98.83302"><defs><linearGradient x1="238.93625" y1="207.28292" x2="238.93625" y2="224.96215" gradientUnits="userSpaceOnUse" id="color-1"><stop offset="0" stop-color="#1c2e52"/><stop offset="1" stop-color="#000a1d"/></linearGradient><linearGradient x1="239.66863" y1="190.24178" x2="239.66863" y2="212.03984" gradientUnits="userSpaceOnUse" id="color-2"><stop offset="0" stop-color="#5e1b00"/><stop offset="1" stop-color="#3b1f1f"/></linearGradient><linearGradient x1="225.48335" y1="148.72493" x2="225.48335" y2="165.65892" gradientUnits="userSpaceOnUse" id="color-3"><stop offset="0" stop-color="#ffa9a9"/><stop offset="1" stop-color="#ff3131"/></linearGradient><linearGradient x1="249.58335" y1="152.19971" x2="249.58335" y2="169.58996" gradientUnits="userSpaceOnUse" id="color-4"><stop offset="0" stop-color="#ffa9a9"/><stop offset="1" stop-color="#ff4242"/></linearGradient></defs><g transform="translate(-199.21671,-134.04797)"><g data-paper-data="{&quot;isPaintingLayer&quot;:true}" fill-rule="nonzero" stroke-miterlimit="10" stroke-dasharray="" stroke-dashoffset="0" style="mix-blend-mode: normal"><path d="M254.28335,204.71464c2.3,-1 4.9,-2.5 6.8,-5.3c4.2,-6.2 4,-14.7 8.3,-13.5c4.3,1.2 7.3,14.4 -3.7,21.2c-3.8,2.4 -7.6,3.3 -10.6,3.9c-0.8,0.2 -7.8,1.1 -10.9,-1.8c-3.1,-2.9 -1.7,-4.1 -1,-4.8c0.7,-0.6 7.9,1.8 11.1,0.3z" data-paper-data="{&quot;index&quot;:null}" fill="#3d773c" stroke="#1e5700" stroke-width="1" stroke-linecap="butt" stroke-linejoin="miter"/><path d="M254.11668,204.54797c2.3,-1 4.9,-2.5 6.8,-5.3c4.2,-6.2 4,-14.7 8.3,-13.5c4.3,1.2 7.3,14.4 -3.7,21.2c-3.8,2.4 -7.6,3.3 -10.6,3.9c-0.8,0.2 -7.8,1.1 -10.9,-1.8c-3.1,-2.9 -1.7,-4.1 -1,-4.8c0.7,-0.6 7.9,1.8 11.1,0.3z" data-paper-data="{&quot;index&quot;:null}" fill="#3d773c" stroke="#1e5700" stroke-width="1.4" stroke-linecap="round" stroke-linejoin="round"/><path d="M239.08335,204.81464" data-paper-data="{&quot;index&quot;:null}" fill="#3d773c" stroke="#1e5700" stroke-width="1.4" stroke-linecap="round" stroke-linejoin="round"/><path d="M239.13253,188.14797c5.23151,0 8.43289,1.8 8.43289,8.5c0,6.7 0.85891,15.7 -8.43289,15.7c-9.2918,0 -7.9644,-9.8 -7.9644,-16.5c0,-6.7 2.73288,-7.7 7.9644,-7.7z" data-paper-data="{&quot;index&quot;:null}" fill="#3d773c" stroke="#1e5700" stroke-width="1.4" stroke-linecap="round" stroke-linejoin="round"/><g data-paper-data="{&quot;index&quot;:null}" fill="#3d773c" stroke="#1e5700" stroke-width="1.4" stroke-linecap="round" stroke-linejoin="round"><path d="M244.04599,210.11634c0,0 -0.64179,4.82314 0.15466,5.90367c0.93616,1.27006 4.14289,4.06424 5.40427,5.32428c1.52726,1.45516 2.96215,2.14653 1.63806,3.82485c-1.39961,1.74386 -6.14368,7.36038 -7.85754,5.53756c-5.28265,-5.47846 0.42065,-5.00731 -1.61641,-8.2708c-1.13496,-1.78522 -2.98278,-2.43032 -3.77166,-3.80714c-1.43609,-2.50634 -3.4593,-7.1634 -3.4593,-7.1634"/><path d="M242.50878,223.55707c0,0 1.07748,-1.1996 2.39709,-1.81493"/></g><g data-paper-data="{&quot;index&quot;:null}" fill="#3d773c" stroke="#1e5700" stroke-width="1.4" stroke-linecap="round" stroke-linejoin="round"><path d="M243.11065,210.01065c0,0 -2.01653,6.50191 -2.0014,8.10576c0.02137,2.26456 1.22384,6.3178 1.95058,9.227c0.48794,1.9587 0.07546,2.70627 -1.68671,3.59738c-1.94505,1.01108 -10.7946,2.15325 -11.19607,0.08482c-1.21732,-7.30974 5.29243,-3.32618 5.20407,-7.13692c-0.10645,-0.58485 -0.90904,-3.27387 -1.3841,-5.31953c-0.44539,-1.91797 -0.86934,-9.64122 -0.86934,-9.64122"/><path d="M235.4458,225.34496c0,0 1.23341,-0.33223 2.70932,-0.18759"/></g><g data-paper-data="{&quot;index&quot;:null}" fill="#3d773c" stroke="#1e5700" stroke-width="1.4" stroke-linecap="round" stroke-linejoin="round"><path d="M249.68335,199.54797"/><path d="M246.58335,197.74797"/><path d="M246.98335,195.44797l2.7,4.1"/></g><path d="M230.86531,197.54946l-0.92308,2.84616" data-paper-data="{&quot;index&quot;:null}" fill="none" stroke="#270800" stroke-width="1.4" stroke-linecap="round" stroke-linejoin="miter"/><path d="M245.57035,210.72483c-0.1282,1.89329 0.05829,3.96986 0.52351,4.96894c1.1139,2.39215 1.64545,2.93229 1.36868,4.31251c-0.29703,1.48126 -2.84097,2.56692 -4.62328,2.84429c-0.1503,0.0234 -0.6098,-2.45985 -1.58028,-4.05593c-0.88735,-1.45937 0.16984,-1.98196 -0.2902,-1.78944c-0.26579,0.11123 -0.37185,0.304 0.4284,2.1559c0.31512,1.94932 1.30352,3.35012 1.274,3.72294c-0.05253,0.66354 -3.34456,1.66886 -4.69994,1.3517c-1.90668,-0.44617 -3.08268,0.22819 -3.1801,-0.89752c-0.04505,-0.5205 -1.1843,-3.65985 -1.39865,-5.50609c-0.21434,-1.84624 -1.21455,-5.08101 -1.38101,-6.19399c-0.435,-2.90853 2.73779,-2.26111 6.34281,-2.02004c4.7519,0.31778 7.21606,1.10673 7.21606,1.10673z" data-paper-data="{&quot;index&quot;:null}" fill="url(#color-1)" stroke="#02050a" stroke-width="1.4" stroke-linecap="butt" stroke-linejoin="miter"/><path d="M231.32149,198.97889c-2.22443,-0.33259 -18.52791,-1.76666 -17.49357,-6.18267c0.80347,-3.19916 10.53215,-3.11644 16.81291,-0.65026" data-paper-data="{&quot;index&quot;:null,&quot;origRot&quot;:0}" fill="#3d773c" stroke="#1e5700" stroke-width="1.4" stroke-linecap="round" stroke-linejoin="round"/><path d="M246.22583,210.31869c-2.45414,2.36849 -12.87333,2.22001 -14.09313,0c-1.4961,-2.786 -1.23748,-7.25547 -2.33552,-10.21706c-0.18758,-0.50595 -1.61447,-0.42293 -2.75209,-1.67803c-1.38061,-1.52319 -1.24957,-5.69502 -1.26228,-6.22097c-0.07637,-3.15787 3.97054,-1.96085 3.97054,-1.96085l20.4468,0.21978c0,0 2.13301,6.23595 1.73726,6.91617c-1.20892,5.9613 -2.7274,1.79051 -2.80637,3.73339c-0.05084,1.25077 -2.90521,9.20757 -2.90521,9.20757z" data-paper-data="{&quot;index&quot;:null}" fill="url(#color-2)" stroke="#270800" stroke-width="1.4" stroke-linecap="butt" stroke-linejoin="miter"/><path d="M247.3914,200.60297c-8.37535,1.94195 -17.74536,0.50064 -18.77355,-3.58213c-1.00673,-3.80015 10.60205,-2.83356 16.27419,-4.23281" data-paper-data="{&quot;index&quot;:null}" fill="#3d773c" stroke="#1e5700" stroke-width="1.4" stroke-linecap="round" stroke-linejoin="round"/><path d="M250.73896,200.62759c0,0 -2.47636,0.16834 -2.86951,-0.04881c-1.75299,-0.96826 -2.36432,-4.2547 -2.54464,-5.29965c-0.18051,-1.04606 -0.29257,-1.22241 0.44628,-2.48134c0.73885,-1.25893 2.29564,-2.19064 2.29564,-2.19064" data-paper-data="{&quot;index&quot;:null}" fill="#561c08" stroke="#270800" stroke-width="1.4" stroke-linecap="round" stroke-linejoin="miter"/><g data-paper-data="{&quot;index&quot;:null}"><path d="M239.08334,143.11464c1.5,-0.1 4.6,-0.3 6.3,-0.2c4.6,0.2 8.9,1.9 8.9,1.9l12.6,-8.2l-2.2,18.3c-0.6,-0.8 10.2,12.4 3.4,23.4c-6.9,11.1 -21.5,16 -39.7,12.4c-18.2,-3.6 -22.5,-14.1 -21.3,-19.6c1.2,-5.5 8.1,-7.6 8.1,-7.6c0,0 0.1,-4.3 3.2,-9.6c1.9,-3.2 8.1,-7.8 8.1,-7.8l2.8,-11.2l7.2,7z" data-paper-data="{&quot;index&quot;:null}" fill="#3d773c" stroke="none" stroke-width="1" stroke-linecap="butt" stroke-linejoin="miter"/><path d="M210.91671,168.64797c0,0 -4.4,-0.7 -6.6,-1.5c-2.6,-0.9 -4.4,-2.5 -4.4,-2.5" data-paper-data="{&quot;index&quot;:null}" fill="none" stroke="#1e5700" stroke-width="1.4" stroke-linecap="round" stroke-linejoin="round"/><path d="M210.41668,174.44797c0,0 -2.6,1.1 -5.4,1.3c-2.7,0.3 -4.5,0.1 -4.5,0.1" data-paper-data="{&quot;index&quot;:null}" fill="none" stroke="#1e5700" stroke-width="1.4" stroke-linecap="round" stroke-linejoin="round"/><path d="M256.41668,143.14797l-5.2,3.6" data-paper-data="{&quot;index&quot;:null}" fill="none" stroke="#1e5700" stroke-width="1.4" stroke-linecap="round" stroke-linejoin="round"/><path d="M279.61669,173.94797c0,0 -4,0.4 -5.8,0.3c-1.8,-0.1 -5.3,-0.6 -5.3,-0.6" data-paper-data="{&quot;index&quot;:null}" fill="none" stroke="#1e5700" stroke-width="1.4" stroke-linecap="round" stroke-linejoin="round"/><path d="M268.31668,169.84797c0,0 2.3,-1.7 5.9,-3.3c4,-1.8 6.2,-2.2 6.2,-2.2" data-paper-data="{&quot;index&quot;:null}" fill="none" stroke="#1e5700" stroke-width="1.4" stroke-linecap="round" stroke-linejoin="round"/><path d="M216.08335,163.41464l2.4,-2l8.8,2.6c0,0 0,3.3 4.2,4.2c4.2,0.9 11.3,-0.7 11.3,-0.7l7.1,1.8c0,0 8.1,-0.5 8.5,5.9c0.7,11.1 -8.6,16.4 -17.1,16.3c-5.5,0 -9,-0.7 -12.9,-1.4c-17.2,-3.1 -22.1,-13.5 -20.6,-19c1.2,-5.5 7.8,-7.1 7.8,-7.1z" data-paper-data="{&quot;index&quot;:null}" fill="#5a9758" stroke="none" stroke-width="1.5" stroke-linecap="butt" stroke-linejoin="miter"/><path d="M230.58335,149.31464c2.7,1.7 2.6,6.7 -0.2,11c-2.8,4.4 -7.3,6.5 -10,4.7c-2.7,-1.7 -2.6,-6.7 0.2,-11c2.8,-4.3 7.3,-6.4 10,-4.7z" data-paper-data="{&quot;index&quot;:null}" fill="url(#color-3)" stroke="#8a1f1f" stroke-width="1.4" stroke-linecap="round" stroke-linejoin="round"/><path d="M220.68336,157.61464c0.3,-1 1.2,-1.6 2.2,-1.4c1,0.3 1.5,1.3 1.2,2.3c-0.3,1.1 -1.3,1.7 -2.2,1.4c-1,-0.3 -1.5,-1.3 -1.2,-2.3" data-paper-data="{&quot;index&quot;:null}" fill="#ff0000" stroke="#d20000" stroke-width="1" stroke-linecap="butt" stroke-linejoin="miter"/><path d="M254.68335,153.01464c3.2,2.1 3.5,7.3 0.7,11.6c-2.8,4.4 -7.7,6.2 -10.9,4.1c-3.2,-2.1 -3.5,-7.3 -0.7,-11.6c2.8,-4.3 7.7,-6.1 10.9,-4.1z" data-paper-data="{&quot;index&quot;:null}" fill="url(#color-4)" stroke="#8f1111" stroke-width="1.4" stroke-linecap="round" stroke-linejoin="round"/><path d="M244.08335,161.01464c0,-1.1 0.8,-1.9 1.7,-1.9c0.9,0 1.7,0.9 1.7,1.9c0,1.1 -0.7,1.9 -1.7,1.9c-0.9,0 -1.7,-0.9 -1.7,-1.9" data-paper-data="{&quot;index&quot;:null}" fill="#ff0000" stroke="#d80000" stroke-width="1" stroke-linecap="butt" stroke-linejoin="miter"/><path d="M237.28335,167.71464c0.1,1.5 -3.4,4 -5.4,3.9c-1.8,-0.1 -3.4,-3.4 -3.4,-4.2c0.3,-1.9 2.6,-0.6 4.3,-0.4c1.5,0.2 4.4,-0.8 4.5,0.7z" data-paper-data="{&quot;index&quot;:null}" fill="#5e1b00" stroke="#270800" stroke-width="1.4" stroke-linecap="round" stroke-linejoin="round"/><path d="M228.90001,183.17005c5.91266,-2.01666 9.65,-0.13333 9.65,-0.13333" data-paper-data="{&quot;index&quot;:null}" fill="none" stroke="#1e5700" stroke-width="1.4" stroke-linecap="round" stroke-linejoin="round"/><path d="M238.91667,142.94797c1.5,-0.1 4.6,-0.3 6.3,-0.2c4.6,0.2 8.9,1.9 8.9,1.9l12.6,-8.2l-2.2,18.3c-0.6,-0.8 10.2,12.4 3.4,23.4c-6.9,11.1 -21.5,16 -39.7,12.4c-18.2,-3.6 -22.5,-14.1 -21.3,-19.6c1.2,-5.5 8.1,-7.6 8.1,-7.6c0,0 0.1,-4.3 3.2,-9.6c1.9,-3.2 8.1,-7.8 8.1,-7.8l2.8,-11.2l7.2,7z" data-paper-data="{&quot;index&quot;:null}" fill="none" stroke="#1e5700" stroke-width="1.4" stroke-linecap="round" stroke-linejoin="round"/></g></g></g></svg>