<svg version="1.1" xmlns="http://www.w3.org/2000/svg" xmlns:xlink="http://www.w3.org/1999/xlink" width="212.83323" height="22.10816" viewBox="0,0,212.83323,22.10816"><g transform="translate(-125.51561,-166.34495)"><g data-paper-data="{&quot;isPaintingLayer&quot;:true}" fill-rule="nonzero" stroke-linejoin="miter" stroke-miterlimit="10" stroke-dasharray="" stroke-dashoffset="0" style="mix-blend-mode: normal"><text transform="translate(143.27684,183.90144) scale(0.32512,0.32512)" font-size="40" xml:space="preserve" fill="#ffffff" fill-rule="nonzero" stroke="#000000" stroke-width="8" stroke-linecap="butt" stroke-linejoin="miter" stroke-miterlimit="10" stroke-dasharray="" stroke-dashoffset="0" font-family="Pixel" font-weight="normal" text-anchor="start" style="mix-blend-mode: normal"><tspan x="0" dy="0">Not enough inventory space</tspan></text><text transform="translate(143.27676,183.90145) scale(0.32512,0.32512)" font-size="40" xml:space="preserve" fill="#ffffff" fill-rule="nonzero" stroke="#000000" stroke-width="0" stroke-linecap="butt" stroke-linejoin="miter" stroke-miterlimit="10" stroke-dasharray="" stroke-dashoffset="0" font-family="Pixel" font-weight="normal" text-anchor="start" style="mix-blend-mode: normal"><tspan x="0" dy="0">Not enough inventory space</tspan></text><g><path d="M133.14031,176.51023v4.30247" fill="none" stroke="#000000" stroke-width="2.5" stroke-linecap="round"/><path d="M139.51809,184.25468c-0.29567,0.37677 -12.19453,0.33739 -12.50248,0c-0.38588,-0.42277 5.63317,-11.25223 6.14705,-11.25223c0.46327,0 6.71454,10.79462 6.35543,11.25223z" data-paper-data="{&quot;index&quot;:null}" fill="none" stroke="#000000" stroke-width="3" stroke-linecap="round"/><path d="M139.51809,184.25468c-0.29567,0.37677 -12.19453,0.33739 -12.50248,0c-0.38588,-0.42277 5.63317,-11.25223 6.14705,-11.25223c0.46327,0 6.71454,10.79462 6.35543,11.25223z" data-paper-data="{&quot;index&quot;:null}" fill="none" stroke="#ffffff" stroke-width="1" stroke-linecap="round"/><path d="M132.39238,182.48307c0,-0.41307 0.33486,-0.74793 0.74793,-0.74793c0.41307,0 0.74793,0.33486 0.74793,0.74793c0,0.41307 -0.33486,0.74793 -0.74793,0.74793c-0.41307,0 -0.74793,-0.33486 -0.74793,-0.74793z" fill="#000000" stroke="#000000" stroke-width="1" stroke-linecap="butt"/><path d="M133.14031,176.51022v4.30248" fill="none" stroke="#ffffff" stroke-width="1" stroke-linecap="round"/><path d="M132.68737,182.55431c0,-0.24784 0.20092,-0.44876 0.44876,-0.44876c0.24784,0 0.44876,0.20092 0.44876,0.44876c0,0.24784 -0.20092,0.44876 -0.44876,0.44876c-0.24784,0 -0.44876,-0.20092 -0.44876,-0.44876z" fill="#ffffff" stroke="none" stroke-width="0.5" stroke-linecap="butt"/></g></g></g></svg>