<svg version="1.1" xmlns="http://www.w3.org/2000/svg" xmlns:xlink="http://www.w3.org/1999/xlink" width="89.75856" height="96.1" viewBox="0,0,89.75856,96.1"><g transform="translate(-205.04144,-135.2)"><g data-paper-data="{&quot;isPaintingLayer&quot;:true}" fill-rule="nonzero" stroke-miterlimit="10" stroke-dasharray="" stroke-dashoffset="0" style="mix-blend-mode: normal"><g fill="#faa51f" stroke="#8e5322" stroke-width="1.4" stroke-linecap="round" stroke-linejoin="round"><path d="M240.9,212c-8.6,0.7 -16.1,7.9 -18.2,7c-2.9,-2.4 -5.1,5.6 -9.9,-0.3c-1.6,-1.9 4.2,-6.8 6.1,-8c1.8,-1.1 3.2,-0.8 4.4,0.9c1.3,-0.7 7.8,-6.1 7.8,-6.1"/><path d="M222.6,218.9c-1.2,-0.9 -1.9,-2.3 -1.9,-2.3"/></g><g><path d="M238.3,202.6c0.9,0.5 2.6,1.1 0.7,4.9c-1.9,3.8 -8.8,5.3 -9.6,5.4c-3,0.5 -6.9,1 -11.3,0c-12.6,-2.7 -14.3,-16.1 -10.7,-18.7c3.6,-2.6 6.3,5.4 12.4,9.8c2.7,2 5.7,2.5 8.2,2.7c3.5,0.3 9.5,-4.4 10.3,-4.1z" fill="#faa51f" stroke="none" stroke-width="1" stroke-linecap="butt" stroke-linejoin="miter"/><path d="M212.7,196.9c2,2.2 5.7,6.2 5.7,6.2c0,0 -4.2,-0.2 -6.1,1.9c-1.9,2.1 0.9,5.9 -0.8,5c-1.4,-1.2 -3.6,-3.2 -5.1,-6.6c-1.3,-3.5 -0.7,-8.5 1.2,-9.4c2,-0.8 3.4,0.7 5.1,2.9z" fill="#ffffff" stroke="none" stroke-width="1" stroke-linecap="butt" stroke-linejoin="miter"/><path d="M238.3,202.6c0.9,0.5 2.6,1.1 0.7,4.9c-1.9,3.8 -8.8,5.3 -9.6,5.4c-3,0.5 -6.9,1 -11.3,0c-12.6,-2.7 -14.3,-16.1 -10.7,-18.7c3.6,-2.6 6.3,5.4 12.4,9.8c2.7,2 5.7,2.5 8.2,2.7c3.5,0.3 9.5,-4.4 10.3,-4.1z" fill="none" stroke="#8e5322" stroke-width="1.4" stroke-linecap="round" stroke-linejoin="round"/></g><path d="M240,205.2" fill="#faa51f" stroke="#8e5322" stroke-width="1.4" stroke-linecap="round" stroke-linejoin="round"/><path d="M252.1,199.6c-1.9,6.4 -3,16.3 -14.4,13c-11.4,-3.3 -7.8,-11.7 -5.9,-18.1c1.9,-6.4 6.3,-7 12.8,-5.1c6.3,1.8 9.4,3.7 7.5,10.2z" fill="#faa51f" stroke="#8e5322" stroke-width="1.4" stroke-linecap="round" stroke-linejoin="round"/><g stroke="#8e5322" stroke-width="1.4" stroke-linecap="round" stroke-linejoin="round"><path d="M226.5,202.7c-3.3,-3.4 3.3,-12.6 11.3,-15.9l7.2,3.6" fill="#faa51f"/><path d="M234.2,198.1" fill="#faa51f"/><path d="M237.7,197.3" fill="none"/><path d="M234.2,198.1l3.7,-3.2" fill="#faa51f"/><path d="M233.1,197.5l1.1,0.6" fill="none"/></g><path d="M252.44783,191.96557c0,0 3.29349,6.81052 4.4862,7.50128c0.99466,0.57605 9.64736,2.43123 9.47733,7.06676c-0.1132,3.23369 -9.5278,0.98376 -11.52727,0.33558c-1.74604,-0.78006 -5.88479,-5.90199 -5.88479,-5.90199" fill="#faa51f" stroke="#8e5322" stroke-width="1.4" stroke-linecap="round" stroke-linejoin="miter"/><path d="M253.8,202.8c-1.2,4 0.1,7 -5.7,4.2c-5.4,-2.5 -6.6,-2.8 -5.5,-6.9c1.2,-4 3.6,-4.6 7.2,-3.5c3.6,1.1 5.1,2.2 4,6.2z" fill="#ffffff" stroke="none" stroke-width="1" stroke-linecap="butt" stroke-linejoin="miter"/><g stroke="#8e5322" stroke-width="1.4" stroke-linecap="round" stroke-linejoin="round"><path d="M252.1,203.4" fill="#faa51f"/><path d="M250.1,201.2" fill="none"/></g><g><g><path d="M260.7,145l8,-6.1l1.4,11.5c0,0 5.6,5.3 7.1,8.7c2.4,5.6 2,9.9 2,9.9c0,0 6.6,2.9 7.1,8.5c0.6,5.6 -5,15.5 -23.5,16.8c-18.5,1.4 -32.3,-5.3 -37.9,-17.2c-5.4,-11.7 6.9,-23.5 6.2,-22.8l0.1,-18.4l11.5,9.7c0,0 4.5,-1.2 9.1,-0.8c1.7,0.1 4.7,0.7 6.2,1z" fill="#faa51f" stroke="none" stroke-width="1" stroke-linecap="butt" stroke-linejoin="miter"/><path d="M278.8,169.5c0,0 6.4,2.4 6.9,8c0.8,5.6 -5.3,15.3 -22.8,16.3c-4,0.2 -7.5,0.5 -13,-0.2c-8.5,-1 -17,-7.4 -15,-18.3c1.2,-6.3 9.2,-4.8 9.2,-4.8l7.3,-0.9c0,0 6.8,2.5 11.1,2.1c4.3,-0.4 4.7,-3.7 4.7,-3.7l9.1,-1.6l2.1,2.3z" fill="#ffffff" stroke="none" stroke-width="1" stroke-linecap="butt" stroke-linejoin="miter"/><path d="M294.1,172.1c0,0 -2,1.3 -4.7,1.9c-2.2,0.5 -6.7,0.7 -6.7,0.7" fill="none" stroke="#8e5322" stroke-width="1.4" stroke-linecap="round" stroke-linejoin="round"/><path d="M292.2,183.1c0,0 -1.9,0 -4.5,-0.6c-2.8,-0.6 -5.2,-2 -5.2,-2" fill="none" stroke="#8e5322" stroke-width="1.4" stroke-linecap="round" stroke-linejoin="round"/><path d="M240.7,143.8l4.7,4.2" fill="none" stroke="#8e5322" stroke-width="1.4" stroke-linecap="round" stroke-linejoin="round"/><path d="M260.7,145l8,-6.1l1.4,11.5c0,0 5.6,5.3 7.1,8.7c2.4,5.6 2,9.9 2,9.9c0,0 6.6,2.9 7.1,8.5c0.6,5.6 -5,15.5 -23.5,16.8c-18.5,1.4 -32.3,-5.3 -37.9,-17.2c-5.4,-11.7 6.9,-23.5 6.2,-22.8l0.1,-18.4l11.5,9.7c0,0 4.5,-1.2 9.1,-0.8c1.7,0.1 4.7,0.7 6.2,1z" fill="none" stroke="#8e5322" stroke-width="1.4" stroke-linecap="round" stroke-linejoin="round"/><path d="M224.9,172.7c0,0 -3.5,0 -5.3,-0.1c-1.8,-0.1 -5.7,-1 -5.7,-1" fill="none" stroke="#8e5322" stroke-width="1.4" stroke-linecap="round" stroke-linejoin="round"/><path d="M214.2,162c0,0 2.2,0.6 5.9,2.9c3.4,2 5.5,4 5.5,4" fill="none" stroke="#8e5322" stroke-width="1.4" stroke-linecap="round" stroke-linejoin="round"/></g><g><path d="M275.1,158.9c2.3,4.6 1.7,9.6 -1.1,10.9c-2.9,1.5 -7.1,-1.2 -9.4,-5.9c-2.3,-4.6 -1.7,-9.6 1.1,-10.9c2.9,-1.4 7.1,1.2 9.4,5.9z" fill="#ffffff" stroke="#8e5322" stroke-width="1.4" stroke-linecap="round" stroke-linejoin="round"/><path d="M274.5,162.4c0.2,1 -0.4,2 -1.5,2.1c-0.9,0.2 -1.8,-0.5 -2,-1.7c-0.2,-1 0.4,-2 1.5,-2.1c1,0 1.9,0.7 2,1.7" fill="#414142" stroke="none" stroke-width="1" stroke-linecap="butt" stroke-linejoin="miter"/></g><g><path d="M251.7,159.1c2.3,4.6 1.3,9.7 -2.1,11.4c-3.4,1.7 -8.1,-0.7 -10.3,-5.4c-2.3,-4.6 -1.3,-9.7 2.1,-11.4c3.4,-1.6 8,0.8 10.3,5.4z" fill="#ffffff" stroke="#8e5322" stroke-width="1.4" stroke-linecap="round" stroke-linejoin="round"/><path d="M250.9,162.9c-0.1,1 -1,1.8 -1.9,1.7c-1,-0.1 -1.6,-1 -1.5,-2.1c0.1,-1 1,-1.8 1.9,-1.7c0.9,0.1 1.6,1 1.5,2.1" fill="#414142" stroke="none" stroke-width="1" stroke-linecap="butt" stroke-linejoin="miter"/></g><path d="M261.4,170.3c1.7,0 4.2,-1 4.2,0.9c-0.1,0.8 -2.1,3.9 -3.9,3.8c-2,-0.1 -5.2,-3.1 -4.9,-4.5c0.3,-1.6 3.1,-0.2 4.6,-0.2z" fill="#5f4b43" stroke="#8e5322" stroke-width="1.4" stroke-linecap="round" stroke-linejoin="round"/><path d="M258.2,186.6c-5.5,0.4 -7.7,-2.2 -7.7,-2.2" fill="#ffffff" stroke="#8e5322" stroke-width="1.4" stroke-linecap="round" stroke-linejoin="round"/></g><path d="M233.1,197.5c5.9,-0.2 7.9,3.7 7.3,5.3c-1.3,3.8 -6.2,4.2 -13.9,0" fill="#faa51f" stroke="#8e5322" stroke-width="1.4" stroke-linecap="round" stroke-linejoin="round"/><g fill="#faa51f" stroke="#8e5322" stroke-width="1.4" stroke-linecap="round" stroke-linejoin="round"><path d="M249.3,206.8c0,0 1.5,6.9 6,14.6c1.9,3.3 6.5,-3.6 9.2,3.3c0.7,2 -7.7,5.7 -9.9,5.9c-2,0.2 -2.8,-0.2 -3.3,-2.2c-2.1,-7.1 -11.4,-15.8 -11.4,-15.8"/><path d="M255.3,223.5c1.2,-0.9 2.5,-1.3 2.5,-1.3"/></g><path d="M253.61415,203.02231c0,0 -0.61468,3.7773 -1.334,4.4209c-0.68052,0.60889 -1.76515,2.44152 -1.76515,2.44152" fill="none" stroke="#8e5322" stroke-width="1.4" stroke-linecap="round" stroke-linejoin="miter"/></g></g></svg>