<svg version="1.1" xmlns="http://www.w3.org/2000/svg" xmlns:xlink="http://www.w3.org/1999/xlink" width="25.07655" height="19.39253" viewBox="0,0,25.07655,19.39253"><g transform="translate(-237.65444,-188.16086)"><g data-paper-data="{&quot;isPaintingLayer&quot;:true}" fill-rule="nonzero" stroke-miterlimit="10" stroke-dasharray="" stroke-dashoffset="0" style="mix-blend-mode: normal"><g data-paper-data="{&quot;index&quot;:null}"><g stroke-linecap="butt" stroke-linejoin="miter"><path d="M250.86371,194.96151c-1.81886,-3.79159 -0.97186,-3.99623 -0.1487,-4.41996c6.29651,-3.24113 8.1546,-1.18295 10.16189,2.09725c3.63386,7.57514 -2.65969,9.16417 -5.10209,10.16986c-5.57057,2.29373 -4.9111,-7.84715 -4.9111,-7.84715z" fill="#ff7070" stroke="#ce0046" stroke-width="1.5"/><path d="M259.76867,195.67668c-0.37542,0.1801 -2.4045,0.66259 -2.4045,0.66259l-1.04571,-1.33913c0,0 2.48771,-0.70251 2.8963,-0.89851c0.26512,-0.12718 0.98684,-0.96427 0.98684,-0.96427l0.55729,1.45073c0,0 -0.62845,0.91504 -0.99022,1.08859z" fill="#f5417d" stroke="none" stroke-width="0"/></g><path d="M254.1189,204.52299l-9.125,-8.5l6.125,-3.875l5.125,8.125c0,0 0.17706,2.14588 -0.175,2.85c-0.35623,0.71245 -1.95,1.4 -1.95,1.4z" data-paper-data="{&quot;index&quot;:null}" fill="#faa51f" stroke="none" stroke-width="0" stroke-linecap="butt" stroke-linejoin="miter"/><g data-paper-data="{&quot;index&quot;:null}" stroke="#8e5322" stroke-width="1.4" stroke-linecap="round" stroke-linejoin="round"><path d="M251.13494,191.90107c4.6131,4.0771 7.27614,9.43158 4.9284,11.85045" fill="#faa51f"/><path d="M248.36334,199.15152" fill="#faa51f"/><path d="M244.86334,198.35152" fill="none"/><path d="M244.66334,195.95152l3.7,3.2" fill="#faa51f"/><path d="M249.46334,198.55152l-1.1,0.6" fill="none"/></g><path d="M256.06334,203.85152c-7.7,4.2 -12.6,3.8 -13.9,0c-0.6,-1.6 1.4,-5.5 7.3,-5.3" data-paper-data="{&quot;index&quot;:null}" fill="#faa51f" stroke="#8e5322" stroke-width="1.4" stroke-linecap="round" stroke-linejoin="round"/><path d="M255.20071,193.24738c0,0 -3.50562,1.1087 -4.32139,2.34416c-0.91499,1.38574 -4.19532,2.56976 -4.19532,2.56976l-0.92585,-1.01621c0,0 1.29957,-2.15529 2.52509,-3.59353c1.01722,-1.19379 5.23798,-1.81696 5.23798,-1.81696l1.67949,1.51277z" fill="#ff7070" stroke="#ce0046" stroke-width="1.5" stroke-linecap="butt" stroke-linejoin="miter"/></g><path d="" fill="#ff8484" stroke="none" stroke-width="0" stroke-linecap="butt" stroke-linejoin="miter"/><path d="" fill="#ce0046" stroke="none" stroke-width="0" stroke-linecap="butt" stroke-linejoin="miter"/><path d="M237.65445,206.39745" data-paper-data="{&quot;index&quot;:null}" fill="#faa51f" stroke="#8e5322" stroke-width="1.4" stroke-linecap="round" stroke-linejoin="round"/><path d="M237.65444,206.39744" data-paper-data="{&quot;index&quot;:null}" fill="#faa51f" stroke="#8e5322" stroke-width="1.4" stroke-linecap="round" stroke-linejoin="round"/><path d="M241.25,204.81466" data-paper-data="{&quot;index&quot;:null}" fill="#faa51f" stroke="#8e5322" stroke-width="1.4" stroke-linecap="round" stroke-linejoin="round"/><path d="M241.24999,204.81466" data-paper-data="{&quot;index&quot;:null}" fill="#faa51f" stroke="#8e5322" stroke-width="1.4" stroke-linecap="round" stroke-linejoin="round"/></g></g></svg>