<svg version="1.1" xmlns="http://www.w3.org/2000/svg" xmlns:xlink="http://www.w3.org/1999/xlink" width="23.77192" height="19.39253" viewBox="0,0,23.77192,19.39253"><g transform="translate(-217.47808,-187.82752)"><g data-paper-data="{&quot;isPaintingLayer&quot;:true}" fill-rule="nonzero" stroke-miterlimit="10" stroke-dasharray="" stroke-dashoffset="0" style="mix-blend-mode: normal"><g stroke-linecap="butt" stroke-linejoin="miter"><path d="M224.43426,202.47532c-2.4424,-1.00569 -8.73595,-2.59472 -5.10209,-10.16986c2.00729,-3.2802 3.86538,-5.33838 10.16189,-2.09725c0.82316,0.42373 1.67016,0.62837 -0.1487,4.41996c0,0 0.65947,10.14088 -4.9111,7.84715z" fill="#ff7070" stroke="#ce0046" stroke-width="1.5"/><path d="M219.45018,194.25475l0.55729,-1.45073c0,0 0.72172,0.83709 0.98684,0.96427c0.40859,0.196 2.8963,0.89851 2.8963,0.89851l-1.04571,1.33913c0,0 -2.02908,-0.48249 -2.4045,-0.66259c-0.36177,-0.17355 -0.99022,-1.08859 -0.99022,-1.08859z" fill="#f5417d" stroke="none" stroke-width="0"/></g><path d="" fill="#ff8484" stroke="none" stroke-width="0" stroke-linecap="butt" stroke-linejoin="miter"/><path d="" fill="#ce0046" stroke="none" stroke-width="0" stroke-linecap="butt" stroke-linejoin="miter"/><path d="M237.65445,206.39745" data-paper-data="{&quot;index&quot;:null}" fill="#faa51f" stroke="#8e5322" stroke-width="1.4" stroke-linecap="round" stroke-linejoin="round"/><path d="M237.65444,206.39744" data-paper-data="{&quot;index&quot;:null}" fill="#faa51f" stroke="#8e5322" stroke-width="1.4" stroke-linecap="round" stroke-linejoin="round"/><path d="M224.14017,202.78965c-0.35206,-0.70412 -0.175,-2.85 -0.175,-2.85l5.125,-8.125l6.125,3.875l-9.125,8.5c0,0 -1.59377,-0.68755 -1.95,-1.4z" data-paper-data="{&quot;index&quot;:null}" fill="#faa51f" stroke="none" stroke-width="0" stroke-linecap="butt" stroke-linejoin="miter"/><g data-paper-data="{&quot;index&quot;:null}" stroke="#8e5322" stroke-width="1.4" stroke-linecap="round" stroke-linejoin="round"><path d="M224.14573,203.41818c-2.34774,-2.41887 0.3153,-7.77335 4.9284,-11.85045" fill="#faa51f"/><path d="M231.84573,198.81818" fill="#faa51f"/><path d="M235.34573,198.01818" fill="none"/><path d="M231.84573,198.81818l3.7,-3.2" fill="#faa51f"/><path d="M231.84573,198.81818l-1.1,-0.6" fill="none"/></g><path d="M230.74573,198.21818c5.9,-0.2 7.9,3.7 7.3,5.3c-1.3,3.8 -6.2,4.2 -13.9,0" data-paper-data="{&quot;index&quot;:null}" fill="#faa51f" stroke="#8e5322" stroke-width="1.4" stroke-linecap="round" stroke-linejoin="round"/><path d="M241.25,204.81466" data-paper-data="{&quot;index&quot;:null}" fill="#faa51f" stroke="#8e5322" stroke-width="1.4" stroke-linecap="round" stroke-linejoin="round"/><path d="M241.24999,204.81466" data-paper-data="{&quot;index&quot;:null}" fill="#faa51f" stroke="#8e5322" stroke-width="1.4" stroke-linecap="round" stroke-linejoin="round"/><path d="M225.00836,192.91403l1.67949,-1.51277c0,0 4.22076,0.62317 5.23798,1.81696c1.22552,1.43824 2.52509,3.59353 2.52509,3.59353l-0.92585,1.01621c0,0 -3.28033,-1.18402 -4.19532,-2.56976c-0.81577,-1.23546 -4.32139,-2.34416 -4.32139,-2.34416z" fill="#ff7070" stroke="#ce0046" stroke-width="1.5" stroke-linecap="butt" stroke-linejoin="miter"/></g></g></svg>