<svg version="1.1" xmlns="http://www.w3.org/2000/svg" xmlns:xlink="http://www.w3.org/1999/xlink" width="89.0696" height="94.1" viewBox="0,0,89.0696,94.1"><g transform="translate(-203.67228,-138.1)"><g data-paper-data="{&quot;isPaintingLayer&quot;:true}" fill-rule="nonzero" stroke-miterlimit="10" stroke-dasharray="" stroke-dashoffset="0" style="mix-blend-mode: normal"><g data-paper-data="{&quot;index&quot;:null}" fill="#faa51f" stroke="#8e5322" stroke-width="1.4" stroke-linecap="round" stroke-linejoin="round"><path d="M267.97228,210.6c0,0 -3.3,4.3 -3.5,5.7c3.9,-0.3 3.3,-3.4 5.1,0.9c0.8,2 2.7,6.5 0.5,7.7c-7.2,3.6 -2,-4.2 -12.2,-2.7c-2.9,0.2 -8.2,-0.8 -2.7,-8.8"/><path d="M260.07228,222.2c1.1,-0.3 3,-0.3 4.4,-0.4"/><path d="M265.17228,214.8c-1,0.9 -2.5,2.8 -3,3"/></g><g data-paper-data="{&quot;index&quot;:null}"><path d="M271.47228,212.5c2.4,-0.6 5.2,-1.7 7.5,-4.2c5.1,-5.5 6.2,-13.9 10.3,-12.1c4.1,1.8 5,15.3 -6.9,20.4c-4.1,1.8 -8,2.1 -11.1,2.2c-0.8,0.1 -7.9,-0.1 -10.5,-3.4c-2.6,-3.3 -1.1,-4.3 -0.3,-4.9c0.9,-0.5 7.6,3 11,2z" fill="#faa51f" stroke="none" stroke-width="1" stroke-linecap="butt" stroke-linejoin="miter"/><path d="M289.07228,196.1c2,0.5 3.6,5.3 3,9c-0.8,3.6 -2.5,6 -3.7,7.4c-1.5,1.2 0.5,-3.1 -1.8,-4.7c-2.3,-1.7 -6.4,-0.7 -6.4,-0.7c0,0 2.8,-4.6 4.4,-7.2c1.3,-2.5 2.4,-4.2 4.5,-3.8z" fill="#ffffff" stroke="none" stroke-width="1" stroke-linecap="butt" stroke-linejoin="miter"/><path d="M271.47228,212.5c2.4,-0.6 5.2,-1.7 7.5,-4.2c5.1,-5.5 6.2,-13.9 10.3,-12.1c4.1,1.8 5,15.3 -6.9,20.4c-4.1,1.8 -8,2.1 -11.1,2.2c-0.8,0.1 -7.9,-0.1 -10.5,-3.4c-2.6,-3.3 -1.1,-4.3 -0.3,-4.9c0.9,-0.5 7.6,3 11,2z" fill="none" stroke="#8e5322" stroke-width="1.4" stroke-linecap="round" stroke-linejoin="round"/></g><path d="M258.27228,209.1" data-paper-data="{&quot;index&quot;:null}" fill="#faa51f" stroke="#8e5322" stroke-width="1.4" stroke-linecap="round" stroke-linejoin="round"/><path d="M253.77228,193.3c6.5,-1.9 10.9,-1.3 12.8,5.1c1.9,6.4 5.5,14.8 -5.9,18.1c-11.4,3.3 -12.5,-6.6 -14.4,-13c-1.9,-6.5 1.2,-8.4 7.5,-10.2z" data-paper-data="{&quot;index&quot;:null}" fill="#faa51f" stroke="#8e5322" stroke-width="1.4" stroke-linecap="round" stroke-linejoin="round"/><g data-paper-data="{&quot;index&quot;:null}" fill="#faa51f" stroke="#8e5322" stroke-width="1.4" stroke-linecap="round" stroke-linejoin="round"><path d="M263.27228,213.2c0,0 -3.3,4.3 -4.4,6.5c0.5,2.4 9.1,5.8 9.5,8.4c0.3,2 -0.2,2.7 -2.1,3.4c-2.1,0.8 -11.3,1 -11.5,-1.1c-0.4,-4.5 2.8,-4.9 3.6,-5.2c0,0 -3.7,-1.6 -7.4,-4.1c-0.8,-2.7 1.2,-7.5 1.2,-7.5"/><path d="M258.07228,225.4c0,0 0.7,-0.3 2.2,0"/></g><path d="M250.07228,199.4c3.6,-1.1 6,-0.5 7.2,3.5c1.2,4 0.7,8.3 -3.9,11.1c-3.1,1.8 -6,-4.5 -7.2,-8.5c-1.2,-4.1 0.3,-5 3.9,-6.1z" data-paper-data="{&quot;index&quot;:null}" fill="#ffffff" stroke="none" stroke-width="1" stroke-linecap="butt" stroke-linejoin="miter"/><g data-paper-data="{&quot;index&quot;:null}" stroke="#8e5322" stroke-width="1.4" stroke-linecap="round" stroke-linejoin="round"><path d="M253.37228,194.3l7.2,-3.6c8,3.3 14.6,12.5 11.3,15.9" fill="#faa51f"/><path d="M264.17228,202.1" fill="#faa51f"/><path d="M260.67228,201.2" fill="none"/><path d="M260.47228,198.9l3.7,3.2" fill="#faa51f"/><path d="M265.27228,201.5l-1.1,0.6" fill="none"/></g><g data-paper-data="{&quot;index&quot;:null}" stroke="#8e5322" stroke-width="1.4" stroke-linecap="round" stroke-linejoin="round"><path d="M242.77228,214.1c-6.1,-2.3 -3.5,-12.2 0.9,-16.4l4.2,-0.5" fill="#faa51f"/><path d="M246.27228,207.3" fill="#faa51f"/><path d="M248.27228,205.2" fill="none"/><path d="M246.27228,203.4v3.9" fill="#faa51f"/><path d="M245.17228,207.3h1.1" fill="none"/></g><path d="M271.87228,206.7c-7.7,4.2 -12.6,3.8 -13.9,0c-0.6,-1.6 1.4,-5.5 7.3,-5.3" data-paper-data="{&quot;index&quot;:null}" fill="#faa51f" stroke="#8e5322" stroke-width="1.4" stroke-linecap="round" stroke-linejoin="round"/><path d="M243.37228,208.2c2.7,-2.2 4.8,-0.5 6.2,1.4c2.1,2.6 -0.6,7.2 -6.8,4.5" data-paper-data="{&quot;index&quot;:null}" fill="#faa51f" stroke="#8e5322" stroke-width="1.4" stroke-linecap="round" stroke-linejoin="round"/><g data-paper-data="{&quot;index&quot;:null}"><g><path d="M240.27228,148.7c1.5,-0.3 4.5,-0.9 6.2,-1c4.6,-0.4 9.1,0.8 9.1,0.8l11.5,-9.7l0.1,18.4c-0.7,-0.7 11.6,11.1 6.2,22.8c-5.5,12 -19.4,18.6 -37.9,17.2c-18.5,-1.3 -24.1,-11.2 -23.5,-16.8c0.5,-5.6 7.1,-8.5 7.1,-8.5c0,0 -0.4,-4.3 2,-9.9c1.5,-3.4 7.1,-8.7 7.1,-8.7l1.4,-11.5l8,6.1z" fill="#faa51f" stroke="none" stroke-width="1" stroke-linecap="butt" stroke-linejoin="miter"/><path d="M219.97228,171.7l2.1,-2.3l9.1,1.5c0,0 0.4,3.3 4.7,3.7c4.3,0.4 11.1,-2.1 11.1,-2.1l7.3,0.9c0,0 8,-1.5 9.2,4.8c2.1,10.9 -6.5,17.3 -15,18.3c-5.5,0.7 -9,0.4 -13,0.2c-17.5,-1 -23.6,-10.7 -22.8,-16.3c0.5,-5.6 6.9,-8 6.9,-8z" fill="#ffffff" stroke="none" stroke-width="1" stroke-linecap="butt" stroke-linejoin="miter"/><path d="M215.67228,177.6c0,0 -4.4,-0.4 -6.7,-1c-2.7,-0.7 -4.6,-2.2 -4.6,-2.2" fill="none" stroke="#8e5322" stroke-width="1.4" stroke-linecap="round" stroke-linejoin="round"/><path d="M215.87228,183.4c0,0 -2.5,1.4 -5.2,1.9c-2.7,0.6 -4.5,0.6 -4.5,0.6" fill="none" stroke="#8e5322" stroke-width="1.4" stroke-linecap="round" stroke-linejoin="round"/><path d="M257.67228,146.8l-4.7,4.2" fill="none" stroke="#8e5322" stroke-width="1.4" stroke-linecap="round" stroke-linejoin="round"/><path d="M240.27228,148.7c1.5,-0.3 4.5,-0.9 6.2,-1c4.6,-0.4 9.1,0.8 9.1,0.8l11.5,-9.7l0.1,18.4c-0.7,-0.7 11.6,11.1 6.2,22.8c-5.5,12 -19.4,18.6 -37.9,17.2c-18.5,-1.3 -24.1,-11.2 -23.5,-16.8c0.5,-5.6 7.1,-8.5 7.1,-8.5c0,0 -0.4,-4.3 2,-9.9c1.5,-3.4 7.1,-8.7 7.1,-8.7l1.4,-11.5l8,6.1z" fill="none" stroke="#8e5322" stroke-width="1.4" stroke-linecap="round" stroke-linejoin="round"/><path d="M284.37228,173.9c0,0 -3.9,1.1 -5.7,1.3c-1.8,0.2 -5.3,0.4 -5.3,0.4" fill="none" stroke="#8e5322" stroke-width="1.4" stroke-linecap="round" stroke-linejoin="round"/><path d="M272.77228,171.8c0,0 1.9,-2.1 5.2,-4.4c3.6,-2.5 5.6,-3.3 5.6,-3.3" fill="none" stroke="#8e5322" stroke-width="1.4" stroke-linecap="round" stroke-linejoin="round"/></g><g><path d="M232.67228,155.9c2.8,1.3 3.4,6.3 1.1,10.9c-2.3,4.7 -6.5,7.4 -9.4,5.9c-2.8,-1.3 -3.4,-6.3 -1.1,-10.9c2.3,-4.6 6.5,-7.3 9.4,-5.9z" fill="#ffffff" stroke="#8e5322" stroke-width="1.4" stroke-linecap="round" stroke-linejoin="round"/><path d="M223.77228,165.3c0.2,-1 1,-1.7 2,-1.7c1.1,0.1 1.7,1.1 1.5,2.1c-0.2,1.2 -1.1,1.9 -2,1.7c-1.1,-0.1 -1.7,-1.1 -1.5,-2.1" fill="#414142" stroke="none" stroke-width="1" stroke-linecap="butt" stroke-linejoin="miter"/></g><g><path d="M256.97228,156.6c3.4,1.7 4.4,6.8 2.1,11.4c-2.2,4.7 -6.9,7.1 -10.3,5.4c-3.4,-1.7 -4.4,-6.8 -2.1,-11.4c2.3,-4.6 6.9,-7 10.3,-5.4z" fill="#ffffff" stroke="#8e5322" stroke-width="1.4" stroke-linecap="round" stroke-linejoin="round"/><path d="M247.47228,165.9c-0.1,-1.1 0.5,-2 1.5,-2.1c0.9,-0.1 1.8,0.7 1.9,1.7c0.1,1.1 -0.5,2 -1.5,2.1c-0.9,0.1 -1.8,-0.7 -1.9,-1.7" fill="#414142" stroke="none" stroke-width="1" stroke-linecap="butt" stroke-linejoin="miter"/></g><path d="M241.57228,173.4c0.3,1.4 -2.9,4.4 -4.9,4.5c-1.8,0.1 -3.8,-3 -3.9,-3.8c0,-1.9 2.5,-0.9 4.2,-0.9c1.5,0 4.3,-1.2 4.6,0.2z" fill="#5f4b43" stroke="#8e5322" stroke-width="1.4" stroke-linecap="round" stroke-linejoin="round"/><path d="M247.87228,187.4c0,0 -2.2,2.6 -7.7,2.2" fill="#ffffff" stroke="#8e5322" stroke-width="1.4" stroke-linecap="round" stroke-linejoin="round"/></g></g></g></svg>