<svg version="1.1" xmlns="http://www.w3.org/2000/svg" xmlns:xlink="http://www.w3.org/1999/xlink" width="48.65177" height="35.1134" viewBox="0,0,48.65177,35.1134"><defs><linearGradient x1="240.20001" y1="145.275" x2="240.20001" y2="157.875" gradientUnits="userSpaceOnUse" id="color-1"><stop offset="0" stop-color="#00ff14"/><stop offset="1" stop-color="#00db1c"/></linearGradient><linearGradient x1="240.20001" y1="145.275" x2="240.20001" y2="157.875" gradientUnits="userSpaceOnUse" id="color-2"><stop offset="0" stop-color="#00a808"/><stop offset="1" stop-color="#009e07"/></linearGradient><linearGradient x1="232.25349" y1="133.9559" x2="232.25349" y2="179.10272" gradientUnits="userSpaceOnUse" id="color-3"><stop offset="0" stop-color="#00ff20"/><stop offset="1" stop-color="#00db11"/></linearGradient><linearGradient x1="230.33097" y1="135.25559" x2="230.33097" y2="166.869" gradientUnits="userSpaceOnUse" id="color-4"><stop offset="0" stop-color="#00c719"/><stop offset="1" stop-color="#00960e"/></linearGradient><linearGradient x1="231.0223" y1="137.24512" x2="231.0223" y2="162.32629" gradientUnits="userSpaceOnUse" id="color-5"><stop offset="0" stop-color="#00eb07"/><stop offset="1" stop-color="#00bf12"/></linearGradient><linearGradient x1="211.875" y1="151.20129" x2="211.875" y2="160.20129" gradientUnits="userSpaceOnUse" id="color-6"><stop offset="0" stop-color="#00d61b"/><stop offset="1" stop-color="#00c71c"/></linearGradient></defs><g transform="translate(-206.00509,-132.5056)"><g data-paper-data="{&quot;isPaintingLayer&quot;:true}" fill-rule="nonzero" stroke-linejoin="miter" stroke-miterlimit="10" stroke-dasharray="" stroke-dashoffset="0" style="mix-blend-mode: normal"><path d="M240.70001,157.875c0,0 -1.75984,-5.74314 -2.81388,-7.77853c-0.8198,-1.58306 -2.98612,-3.42147 -2.98612,-3.42147l9,-1.4c0,0 0.01764,2.48888 0.25619,4.36747c0.28609,2.25299 1.34381,8.23253 1.34381,8.23253z" fill="url(#color-1)" stroke="url(#color-2)" stroke-width="1.5" stroke-linecap="butt"/><path d="M233.03705,147.27718c-4.44786,0.52883 -10.27343,1.65266 -14.19623,6.74371c-3.61243,4.68825 -5.37852,13.42451 -8.19148,12.81812c-2.89657,-0.62441 -4.93755,-7.11526 -3.32676,-15.4744c0.89122,-4.62498 6.21852,-17.08472 19.77666,-18.10901c9.15803,-0.69187 23.79915,1.68202 25.51729,3.34938c1.26135,1.22407 0.26841,6.16414 1.20926,8.10195c1.00271,2.06521 -7.37373,0.97525 -20.78874,2.57023z" fill="url(#color-3)" stroke="url(#color-4)" stroke-width="1.5" stroke-linecap="butt"/><path d="M210.54706,156.3455c1.06167,-6.21582 3.60954,-12.90829 10.44305,-17.05917c8.55223,-5.19488 31.4974,0.53996 31.4974,0.53996" fill="none" stroke="url(#color-5)" stroke-width="1" stroke-linecap="round"/><path d="M214.84539,159.62234c0,0 -4.18653,-2.34688 -5.4411,-4.47516c-1.03714,-1.75943 -1.24311,-5.34721 -1.24311,-5.34721" fill="none" stroke="url(#color-6)" stroke-width="1" stroke-linecap="round"/><path d="M253.00211,138.45334l0.15789,2.26316" fill="none" stroke="#00c118" stroke-width="1" stroke-linecap="round"/><path d="M215.11842,160.2807l0.39474,-0.78947" fill="none" stroke="#00a010" stroke-width="1" stroke-linecap="round"/><path d="M207.5,151.91228l0.78947,-3" fill="none" stroke="#00af14" stroke-width="1" stroke-linecap="round"/><path d="M210.03606,149.11913c0,0 1.18026,-6.00887 6.33372,-9.61541c5.76874,-4.03713 11.29128,-4.13459 11.29128,-4.13459" fill="none" stroke="#ffffff" stroke-width="1" stroke-linecap="round"/><g fill="#00b506" stroke="none" stroke-width="0.5" stroke-linecap="butt"><path d="M211.73572,161.47303c0,-0.41421 0.33579,-0.75 0.75,-0.75c0.41421,0 0.75,0.33579 0.75,0.75c0,0.41421 -0.33579,0.75 -0.75,0.75c-0.41421,0 -0.75,-0.33579 -0.75,-0.75z"/><path d="M214.31312,156.19511c0,-0.41421 0.33579,-0.75 0.75,-0.75c0.41421,0 0.75,0.33579 0.75,0.75c0,0.41421 -0.33579,0.75 -0.75,0.75c-0.41421,0 -0.75,-0.33579 -0.75,-0.75z"/><path d="M236.79432,145.0088c0,-0.41421 0.33579,-0.75 0.75,-0.75c0.41421,0 0.75,0.33579 0.75,0.75c0,0.41421 -0.33579,0.75 -0.75,0.75c-0.41421,0 -0.75,-0.33579 -0.75,-0.75z"/><path d="M239.1873,144.72164c0,-0.41421 0.33579,-0.75 0.75,-0.75c0.41421,0 0.75,0.33579 0.75,0.75c0,0.41421 -0.33579,0.75 -0.75,0.75c-0.41421,0 -0.75,-0.33579 -0.75,-0.75z"/><path d="M242.05888,144.5302c0,-0.41421 0.33579,-0.75 0.75,-0.75c0.41421,0 0.75,0.33579 0.75,0.75c0,0.41421 -0.33579,0.75 -0.75,0.75c-0.41421,0 -0.75,-0.33579 -0.75,-0.75z"/><path d="M244.93046,144.33876c0,-0.41421 0.33579,-0.75 0.75,-0.75c0.41421,0 0.75,0.33579 0.75,0.75c0,0.41421 -0.33579,0.75 -0.75,0.75c-0.41421,0 -0.75,-0.33579 -0.75,-0.75z"/><path d="M233.82702,145.10452c0,-0.41421 0.33579,-0.75 0.75,-0.75c0.41421,0 0.75,0.33579 0.75,0.75c0,0.41421 -0.33579,0.75 -0.75,0.75c-0.41421,0 -0.75,-0.33579 -0.75,-0.75z"/><path d="M230.764,145.67882c0,-0.41421 0.33579,-0.75 0.75,-0.75c0.41421,0 0.75,0.33579 0.75,0.75c0,0.41421 -0.33579,0.75 -0.75,0.75c-0.41421,0 -0.75,-0.33579 -0.75,-0.75z"/><path d="M227.31811,146.15742c0,-0.41421 0.33579,-0.75 0.75,-0.75c0.41421,0 0.75,0.33579 0.75,0.75c0,0.41421 -0.33579,0.75 -0.75,0.75c-0.41421,0 -0.75,-0.33579 -0.75,-0.75z"/><path d="M223.96793,146.92317c0,-0.41421 0.33579,-0.75 0.75,-0.75c0.41421,0 0.75,0.33579 0.75,0.75c0,0.41421 -0.33579,0.75 -0.75,0.75c-0.41421,0 -0.75,-0.33579 -0.75,-0.75z"/><path d="M220.80919,148.55041c0,-0.41421 0.33579,-0.75 0.75,-0.75c0.41421,0 0.75,0.33579 0.75,0.75c0,0.41421 -0.33579,0.75 -0.75,0.75c-0.41421,0 -0.75,-0.33579 -0.75,-0.75z"/><path d="M218.03333,150.84768c0,-0.41421 0.33579,-0.75 0.75,-0.75c0.41421,0 0.75,0.33579 0.75,0.75c0,0.41421 -0.33579,0.75 -0.75,0.75c-0.41421,0 -0.75,-0.33579 -0.75,-0.75z"/><path d="M216.02323,153.33638c0,-0.41421 0.33579,-0.75 0.75,-0.75c0.41421,0 0.75,0.33579 0.75,0.75c0,0.41421 -0.33579,0.75 -0.75,0.75c-0.41421,0 -0.75,-0.33579 -0.75,-0.75z"/><path d="M248.0892,144.33876c0,-0.41421 0.33579,-0.75 0.75,-0.75c0.41421,0 0.75,0.33579 0.75,0.75c0,0.41421 -0.33579,0.75 -0.75,0.75c-0.41421,0 -0.75,-0.33579 -0.75,-0.75z"/><path d="M250.76934,144.43448c0,-0.41421 0.33579,-0.75 0.75,-0.75c0.41421,0 0.75,0.33579 0.75,0.75c0,0.41421 -0.33579,0.75 -0.75,0.75c-0.41421,0 -0.75,-0.33579 -0.75,-0.75z"/><path d="M210.33572,164.14802c0,-0.41421 0.33579,-0.75 0.75,-0.75c0.41421,0 0.75,0.33579 0.75,0.75c0,0.41421 -0.33579,0.75 -0.75,0.75c-0.41421,0 -0.75,-0.33579 -0.75,-0.75z"/><path d="M210.0625,159.57629c0,-0.41422 0.33578,-0.75 0.75,-0.75c0.41422,0 0.75,0.33578 0.75,0.75c0,0.41422 -0.33578,0.75 -0.75,0.75c-0.41422,0 -0.75,-0.33578 -0.75,-0.75z"/><path d="M208.1875,157.45129c0,-0.41422 0.33578,-0.75 0.75,-0.75c0.41422,0 0.75,0.33578 0.75,0.75c0,0.41422 -0.33578,0.75 -0.75,0.75c-0.41422,0 -0.75,-0.33578 -0.75,-0.75z"/></g></g></g></svg>