<svg version="1.1" xmlns="http://www.w3.org/2000/svg" xmlns:xlink="http://www.w3.org/1999/xlink" width="81.89997" height="97.59722" viewBox="0,0,81.89997,97.59722"><defs><linearGradient x1="240.97651" y1="207.38808" x2="240.97651" y2="225.06731" gradientUnits="userSpaceOnUse" id="color-1"><stop offset="0" stop-color="#1c2e52"/><stop offset="1" stop-color="#000a1d"/></linearGradient><linearGradient x1="240.19816" y1="190.24178" x2="240.19816" y2="212.03984" gradientUnits="userSpaceOnUse" id="color-2"><stop offset="0" stop-color="#5e1b00"/><stop offset="1" stop-color="#3b1f1f"/></linearGradient><linearGradient x1="254.85004" y1="148.72493" x2="254.85004" y2="165.65892" gradientUnits="userSpaceOnUse" id="color-3"><stop offset="0" stop-color="#ffa9a9"/><stop offset="1" stop-color="#ff3131"/></linearGradient><linearGradient x1="230.75004" y1="152.19971" x2="230.75004" y2="169.58996" gradientUnits="userSpaceOnUse" id="color-4"><stop offset="0" stop-color="#ffa9a9"/><stop offset="1" stop-color="#ff4242"/></linearGradient></defs><g transform="translate(-199.21671,-134.04797)"><g data-paper-data="{&quot;isPaintingLayer&quot;:true}" fill-rule="nonzero" stroke-miterlimit="10" stroke-dasharray="" stroke-dashoffset="0" style="mix-blend-mode: normal"><path d="M237.15004,204.41464c0.7,0.7 2.1,1.9 -1,4.8c-3.1,2.9 -10.1,2 -10.9,1.8c-3,-0.6 -6.8,-1.5 -10.6,-3.9c-11,-6.8 -8,-20 -3.7,-21.2c4.3,-1.2 4.1,7.3 8.3,13.5c1.9,2.8 4.5,4.3 6.8,5.3c3.2,1.5 10.4,-0.9 11.1,-0.3z" data-paper-data="{&quot;index&quot;:null}" fill="#3d773c" stroke="#1e5700" stroke-width="1" stroke-linecap="butt" stroke-linejoin="miter"/><path d="M237.31671,204.24797c0.7,0.7 2.1,1.9 -1,4.8c-3.1,2.9 -10.1,2 -10.9,1.8c-3,-0.6 -6.8,-1.5 -10.6,-3.9c-11,-6.8 -8,-20 -3.7,-21.2c4.3,-1.2 4.1,7.3 8.3,13.5c1.9,2.8 4.5,4.3 6.8,5.3c3.2,1.5 10.4,-0.9 11.1,-0.3z" data-paper-data="{&quot;index&quot;:null}" fill="#3d773c" stroke="#1e5700" stroke-width="1.4" stroke-linecap="round" stroke-linejoin="round"/><path d="M241.25004,204.81464" data-paper-data="{&quot;index&quot;:null}" fill="#3d773c" stroke="#1e5700" stroke-width="1.4" stroke-linecap="round" stroke-linejoin="round"/><path d="M251.25004,195.84797c0,6.7 1.7,16.5 -10.2,16.5c-11.9,0 -10.8,-9 -10.8,-15.7c0,-6.7 4.1,-8.5 10.8,-8.5c6.7,0 10.2,1 10.2,7.7z" data-paper-data="{&quot;index&quot;:null}" fill="#3d773c" stroke="#1e5700" stroke-width="1.4" stroke-linecap="round" stroke-linejoin="round"/><g data-paper-data="{&quot;index&quot;:null}" fill="#3d773c" stroke="#1e5700" stroke-width="1.4" stroke-linecap="round" stroke-linejoin="round"><path d="M247.63659,208.47646c0,0 0.98557,4.47205 1.9088,7.20915c0.50716,1.50357 -0.23563,3.31433 0.34765,5.34779c1.09127,3.68905 4.52143,-0.89174 5.1177,6.69538c0.22745,2.49164 -7.12244,2.31686 -9.35583,2.20768c-2.13426,-0.12223 -1.69997,-1.65464 -1.77603,-3.76278c-0.10639,-1.77974 -0.07063,-6.03289 -0.40022,-7.57588c-0.28041,-1.31272 -4.23124,-5.46793 -4.23124,-5.46793"/><path d="M247.29329,222.92085c1.33575,-0.57947 2.94817,-0.59019 2.94817,-0.59019"/></g><g data-paper-data="{&quot;index&quot;:null}" fill="#3d773c" stroke="#1e5700" stroke-width="1.4" stroke-linecap="round" stroke-linejoin="round"><path d="M241.77387,209.84229c0,0 -1.10292,5.51238 -1.9716,7.28302c-0.92653,1.88853 -1.526,4.61767 -1.76132,5.16425c-0.92402,3.69814 6.50246,1.28329 3.67513,8.14012c-0.32109,0.72175 -3.42769,0.85455 -5.1636,0.51551c-2.89966,-0.56633 -5.00295,-2.23758 -6.08922,-3.12975c-1.57875,-1.26789 -1.83019,-2.09055 -0.90975,-3.89132c1.36914,-2.67417 2.36232,-6.7131 2.88008,-8.91779c0.36669,-1.56145 0.56706,-6.54427 0.56706,-6.54427"/><path d="M236.00589,223.24055c1.51753,0.19258 2.68643,0.79562 2.68643,0.79562"/></g><g data-paper-data="{&quot;index&quot;:null}" fill="#3d773c" stroke="#1e5700" stroke-width="1.4" stroke-linecap="round" stroke-linejoin="round"><path d="M230.65004,199.54797"/><path d="M233.75004,197.74797"/><path d="M233.35004,195.44797l-2.7,4.1"/></g><path d="M249.46808,197.54946l0.92308,2.84616" data-paper-data="{&quot;index&quot;:null}" fill="none" stroke="#270800" stroke-width="1.4" stroke-linecap="round" stroke-linejoin="miter"/><path d="M251.69057,191.83049c6.28076,-2.46618 16.00944,-2.5489 16.81291,0.65026c1.03434,4.41601 -15.26914,5.85008 -17.49357,6.18267" data-paper-data="{&quot;index&quot;:null,&quot;origRot&quot;:0}" fill="#3d773c" stroke="#1e5700" stroke-width="1.4" stroke-linecap="round" stroke-linejoin="round"/><path d="M232.65987,211.67127c-0.17183,-2.5377 4.25186,-2.78697 9.00376,-3.10475c3.60502,-0.24107 7.51391,-0.67817 7.07891,2.23036c-0.16646,1.11298 1.78354,3.45106 1.56342,5.56305c-0.21435,2.05656 0.32894,5.09075 0.28389,5.61125c-0.09742,1.12571 -1.69405,1.92357 -3.60073,2.36974c-1.35538,0.31716 -3.38551,0.6789 -3.43804,0.01536c-0.02952,-0.37282 -1.67008,-2.8252 -1.67044,-4.87968c-0.00036,-2.05448 -0.77803,-4.04268 -1.04382,-4.15391c-0.46004,-0.19252 0.07136,2.32808 -0.81599,3.78745c-1.22885,2.02099 -1.70669,3.95687 -2.94734,4.37141c-1.78231,-0.27737 -6.00878,-0.62692 -6.30581,-2.10819c-0.27677,-0.64411 0.04446,-2.65646 1.15836,-5.04861c0.46522,-0.99908 0.86202,-2.76017 0.73382,-4.65347z" data-paper-data="{&quot;index&quot;:null}" fill="url(#color-1)" stroke="#02050a" stroke-width="1.4" stroke-linecap="butt" stroke-linejoin="miter"/><path d="M232.3779,210.3187c-1.37936,-1.67972 -3.40419,-7.95681 -3.46482,-9.20758c-0.09418,-1.94288 -1.90515,2.22791 -3.34694,-3.73339c-0.47198,-0.68022 2.07189,-6.91617 2.07189,-6.91617l24.38532,-0.21978c0,0 4.82644,-1.19702 4.73536,1.96085c-0.01516,0.52595 0.14112,4.69778 -1.50543,6.22097c-1.35675,1.2551 -3.05849,1.17208 -3.2822,1.67803c-1.30955,2.96159 -1.00111,7.43106 -2.7854,10.21706c-1.45476,2.22001 -13.88092,2.36849 -16.80779,0z" data-paper-data="{&quot;index&quot;:null}" fill="url(#color-2)" stroke="#270800" stroke-width="1.4" stroke-linecap="butt" stroke-linejoin="miter"/><path d="M233.12787,192.78803c5.67214,1.39925 17.28092,0.43266 16.27419,4.23281c-1.02819,4.08277 -10.3982,5.52408 -18.77355,3.58213" data-paper-data="{&quot;index&quot;:null}" fill="#3d773c" stroke="#1e5700" stroke-width="1.4" stroke-linecap="round" stroke-linejoin="round"/><path d="M229.95318,190.60715c0,0 1.55679,0.93171 2.29564,2.19064c0.73885,1.25893 0.62679,1.43528 0.44628,2.48134c-0.18032,1.04495 -0.79165,4.33139 -2.54464,5.29965c-0.39315,0.21715 -2.86951,0.04881 -2.86951,0.04881" data-paper-data="{&quot;index&quot;:null}" fill="#561c08" stroke="#270800" stroke-width="1.4" stroke-linecap="round" stroke-linejoin="miter"/><g><path d="M243.85004,141.91464l7.2,-7l2.8,11.2c0,0 6.2,4.6 8.1,7.8c3.1,5.3 3.2,9.6 3.2,9.6c0,0 6.9,2.1 8.1,7.6c1.2,5.5 -3.1,16 -21.3,19.6c-18.2,3.6 -32.8,-1.3 -39.7,-12.4c-6.8,-11 4,-24.2 3.4,-23.4l-2.2,-18.3l12.6,8.2c0,0 4.3,-1.7 8.9,-1.9c1.7,-0.1 4.8,0.1 6.3,0.2z" data-paper-data="{&quot;index&quot;:null}" fill="#3d773c" stroke="none" stroke-width="1" stroke-linecap="butt" stroke-linejoin="miter"/><path d="M280.41668,164.64797c0,0 -1.8,1.6 -4.4,2.5c-2.2,0.8 -6.6,1.5 -6.6,1.5" data-paper-data="{&quot;index&quot;:null}" fill="none" stroke="#1e5700" stroke-width="1.4" stroke-linecap="round" stroke-linejoin="round"/><path d="M279.81671,175.84797c0,0 -1.8,0.2 -4.5,-0.1c-2.8,-0.2 -5.4,-1.3 -5.4,-1.3" data-paper-data="{&quot;index&quot;:null}" fill="none" stroke="#1e5700" stroke-width="1.4" stroke-linecap="round" stroke-linejoin="round"/><path d="M229.11671,146.74797l-5.2,-3.6" data-paper-data="{&quot;index&quot;:null}" fill="none" stroke="#1e5700" stroke-width="1.4" stroke-linecap="round" stroke-linejoin="round"/><path d="M211.8167,173.64797c0,0 -3.5,0.5 -5.3,0.6c-1.8,0.1 -5.8,-0.3 -5.8,-0.3" data-paper-data="{&quot;index&quot;:null}" fill="none" stroke="#1e5700" stroke-width="1.4" stroke-linecap="round" stroke-linejoin="round"/><path d="M199.91671,164.34797c0,0 2.2,0.4 6.2,2.2c3.6,1.6 5.9,3.3 5.9,3.3" data-paper-data="{&quot;index&quot;:null}" fill="none" stroke="#1e5700" stroke-width="1.4" stroke-linecap="round" stroke-linejoin="round"/><path d="M264.75004,164.01464c0,0 6.6,1.6 7.8,7.1c1.5,5.5 -3.4,15.9 -20.6,19c-3.9,0.7 -7.4,1.4 -12.9,1.4c-8.5,0.1 -17.8,-5.2 -17.1,-16.3c0.4,-6.4 8.5,-5.9 8.5,-5.9l7.1,-1.8c0,0 7.1,1.6 11.3,0.7c4.2,-0.9 4.2,-4.2 4.2,-4.2l8.8,-2.6l2.4,2z" data-paper-data="{&quot;index&quot;:null}" fill="#5a9758" stroke="none" stroke-width="1.5" stroke-linecap="butt" stroke-linejoin="miter"/><path d="M259.75004,154.01464c2.8,4.3 2.9,9.3 0.2,11c-2.7,1.8 -7.2,-0.3 -10,-4.7c-2.8,-4.3 -2.9,-9.3 -0.2,-11c2.7,-1.7 7.2,0.4 10,4.7z" data-paper-data="{&quot;index&quot;:null}" fill="url(#color-3)" stroke="#8a1f1f" stroke-width="1.4" stroke-linecap="round" stroke-linejoin="round"/><path d="M259.65003,157.61464c0.3,1 -0.2,2 -1.2,2.3c-0.9,0.3 -1.9,-0.3 -2.2,-1.4c-0.3,-1 0.2,-2 1.2,-2.3c1,-0.2 1.9,0.4 2.2,1.4" data-paper-data="{&quot;index&quot;:null}" fill="#ff0000" stroke="#d20000" stroke-width="1" stroke-linecap="butt" stroke-linejoin="miter"/><path d="M236.55004,157.11464c2.8,4.3 2.5,9.5 -0.7,11.6c-3.2,2.1 -8.1,0.3 -10.9,-4.1c-2.8,-4.3 -2.5,-9.5 0.7,-11.6c3.2,-2 8.1,-0.2 10.9,4.1z" data-paper-data="{&quot;index&quot;:null}" fill="url(#color-4)" stroke="#8f1111" stroke-width="1.4" stroke-linecap="round" stroke-linejoin="round"/><path d="M236.25004,161.01464c0,1 -0.8,1.9 -1.7,1.9c-1,0 -1.7,-0.8 -1.7,-1.9c0,-1 0.8,-1.9 1.7,-1.9c0.9,0 1.7,0.8 1.7,1.9" data-paper-data="{&quot;index&quot;:null}" fill="#ff0000" stroke="#d80000" stroke-width="1" stroke-linecap="butt" stroke-linejoin="miter"/><path d="M247.55004,167.01464c1.7,-0.2 4,-1.5 4.3,0.4c0,0.8 -1.6,4.1 -3.4,4.2c-2,0.1 -5.5,-2.4 -5.4,-3.9c0.1,-1.5 3,-0.5 4.5,-0.7z" data-paper-data="{&quot;index&quot;:null}" fill="#5e1b00" stroke="#270800" stroke-width="1.4" stroke-linecap="round" stroke-linejoin="round"/><path d="M241.78338,183.03672c0,0 3.73734,-1.88333 9.65,0.13333" data-paper-data="{&quot;index&quot;:null}" fill="none" stroke="#1e5700" stroke-width="1.4" stroke-linecap="round" stroke-linejoin="round"/><path d="M244.01671,141.74797l7.2,-7l2.8,11.2c0,0 6.2,4.6 8.1,7.8c3.1,5.3 3.2,9.6 3.2,9.6c0,0 6.9,2.1 8.1,7.6c1.2,5.5 -3.1,16 -21.3,19.6c-18.2,3.6 -32.8,-1.3 -39.7,-12.4c-6.8,-11 4,-24.2 3.4,-23.4l-2.2,-18.3l12.6,8.2c0,0 4.3,-1.7 8.9,-1.9c1.7,-0.1 4.8,0.1 6.3,0.2z" data-paper-data="{&quot;index&quot;:null}" fill="none" stroke="#1e5700" stroke-width="1.4" stroke-linecap="round" stroke-linejoin="round"/></g></g></g></svg>