<svg version="1.1" xmlns="http://www.w3.org/2000/svg" xmlns:xlink="http://www.w3.org/1999/xlink" width="50.01333" height="44.78862" viewBox="0,0,50.01333,44.78862"><defs><linearGradient x1="238.7" y1="145.4" x2="238.7" y2="159" gradientUnits="userSpaceOnUse" id="color-1"><stop offset="0" stop-color="#d7d7d7"/><stop offset="1" stop-color="#9d9d9d"/></linearGradient><linearGradient x1="232.25348" y1="133.9559" x2="232.25348" y2="179.10272" gradientUnits="userSpaceOnUse" id="color-2"><stop offset="0" stop-color="#d7d7d7"/><stop offset="1" stop-color="#9d9d9d"/></linearGradient><linearGradient x1="213.39772" y1="155.90704" x2="220.82887" y2="179.77706" gradientUnits="userSpaceOnUse" id="color-3"><stop offset="0" stop-color="#d7d7d7"/><stop offset="1" stop-color="#9d9d9d"/></linearGradient></defs><g transform="translate(-204.56245,-134.50558)"><g data-paper-data="{&quot;isPaintingLayer&quot;:true}" fill-rule="nonzero" stroke-linejoin="miter" stroke-miterlimit="10" stroke-dasharray="" stroke-dashoffset="0" style="mix-blend-mode: normal"><path d="M240.7,158c0,0 -1.75984,-5.74314 -2.81388,-7.77853c-0.8198,-1.58306 -2.98612,-3.42147 -2.98612,-3.42147l9,-1.4c0,0 0.01764,2.48888 0.25619,4.36747c0.28609,2.25299 1.34381,8.23253 1.34381,8.23253z" fill="url(#color-1)" stroke="#7b8083" stroke-width="1.5" stroke-linecap="butt"/><path d="M233.03704,147.27718c-4.44786,0.52883 -10.27343,1.65266 -14.19623,6.74371c-3.61243,4.68825 -5.37852,13.42451 -8.19148,12.81812c-2.89657,-0.62441 -4.93755,-7.11526 -3.32676,-15.4744c2.05887,-10.68447 11.80618,-16.11841 22.27666,-16.10901c11.10471,0.00997 19.64026,0.00532 24.22655,9.45134c1.00271,2.06521 -7.37373,0.97525 -20.78874,2.57023z" fill="url(#color-2)" stroke="#7b8083" stroke-width="1.5" stroke-linecap="butt"/><path d="M207.38293,175.41308c-1.96822,-3.86071 -1.2365,-12.03623 0.19051,-17.69285c0.33199,-1.31597 2.62161,-2.59108 4.39382,-3.34876c2.66208,-1.13812 5.54911,1.99734 5.54911,1.99734c0,0 -3.03526,5.1062 -2.90343,9.31789c0.12543,4.00678 4.78734,11.18361 4.78734,11.18361c0,0 -11.47936,-0.40194 -12.01736,-1.45724z" fill="url(#color-3)" stroke="#7b8083" stroke-width="1.5" stroke-linecap="butt"/><path d="M209.03571,157.54803c0,-0.41421 0.33579,-0.75 0.75,-0.75c0.41421,0 0.75,0.33579 0.75,0.75c0,0.41421 -0.33579,0.75 -0.75,0.75c-0.41421,0 -0.75,-0.33579 -0.75,-0.75z" fill="#9b9b9b" stroke="none" stroke-width="0.5" stroke-linecap="butt"/><path d="M211.42869,156.30368c0,-0.41421 0.33579,-0.75 0.75,-0.75c0.41421,0 0.75,0.33579 0.75,0.75c0,0.41421 -0.33579,0.75 -0.75,0.75c-0.41421,0 -0.75,-0.33579 -0.75,-0.75z" fill="#9b9b9b" stroke="none" stroke-width="0.5" stroke-linecap="butt"/><path d="M214.01311,156.49512c0,-0.41421 0.33579,-0.75 0.75,-0.75c0.41421,0 0.75,0.33579 0.75,0.75c0,0.41421 -0.33579,0.75 -0.75,0.75c-0.41421,0 -0.75,-0.33579 -0.75,-0.75z" fill="#9b9b9b" stroke="none" stroke-width="0.5" stroke-linecap="butt"/><path d="M236.79431,145.0088c0,-0.41421 0.33579,-0.75 0.75,-0.75c0.41421,0 0.75,0.33579 0.75,0.75c0,0.41421 -0.33579,0.75 -0.75,0.75c-0.41421,0 -0.75,-0.33579 -0.75,-0.75z" fill="#9b9b9b" stroke="none" stroke-width="0.5" stroke-linecap="butt"/><path d="M239.18729,144.72164c0,-0.41421 0.33579,-0.75 0.75,-0.75c0.41421,0 0.75,0.33579 0.75,0.75c0,0.41421 -0.33579,0.75 -0.75,0.75c-0.41421,0 -0.75,-0.33579 -0.75,-0.75z" fill="#9b9b9b" stroke="none" stroke-width="0.5" stroke-linecap="butt"/><path d="M242.05887,144.5302c0,-0.41421 0.33579,-0.75 0.75,-0.75c0.41421,0 0.75,0.33579 0.75,0.75c0,0.41421 -0.33579,0.75 -0.75,0.75c-0.41421,0 -0.75,-0.33579 -0.75,-0.75z" fill="#9b9b9b" stroke="none" stroke-width="0.5" stroke-linecap="butt"/><path d="M244.93045,144.33876c0,-0.41421 0.33579,-0.75 0.75,-0.75c0.41421,0 0.75,0.33579 0.75,0.75c0,0.41421 -0.33579,0.75 -0.75,0.75c-0.41421,0 -0.75,-0.33579 -0.75,-0.75z" fill="#9b9b9b" stroke="none" stroke-width="0.5" stroke-linecap="butt"/><path d="M233.82701,145.10452c0,-0.41421 0.33579,-0.75 0.75,-0.75c0.41421,0 0.75,0.33579 0.75,0.75c0,0.41421 -0.33579,0.75 -0.75,0.75c-0.41421,0 -0.75,-0.33579 -0.75,-0.75z" fill="#9b9b9b" stroke="none" stroke-width="0.5" stroke-linecap="butt"/><path d="M230.76399,145.67883c0,-0.41421 0.33579,-0.75 0.75,-0.75c0.41421,0 0.75,0.33579 0.75,0.75c0,0.41421 -0.33579,0.75 -0.75,0.75c-0.41421,0 -0.75,-0.33579 -0.75,-0.75z" fill="#9b9b9b" stroke="none" stroke-width="0.5" stroke-linecap="butt"/><path d="M227.3181,146.15743c0,-0.41421 0.33579,-0.75 0.75,-0.75c0.41421,0 0.75,0.33579 0.75,0.75c0,0.41421 -0.33579,0.75 -0.75,0.75c-0.41421,0 -0.75,-0.33579 -0.75,-0.75z" fill="#9b9b9b" stroke="none" stroke-width="0.5" stroke-linecap="butt"/><path d="M223.96792,146.92318c0,-0.41421 0.33579,-0.75 0.75,-0.75c0.41421,0 0.75,0.33579 0.75,0.75c0,0.41421 -0.33579,0.75 -0.75,0.75c-0.41421,0 -0.75,-0.33579 -0.75,-0.75z" fill="#9b9b9b" stroke="none" stroke-width="0.5" stroke-linecap="butt"/><path d="M220.80918,148.55041c0,-0.41421 0.33579,-0.75 0.75,-0.75c0.41421,0 0.75,0.33579 0.75,0.75c0,0.41421 -0.33579,0.75 -0.75,0.75c-0.41421,0 -0.75,-0.33579 -0.75,-0.75z" fill="#9b9b9b" stroke="none" stroke-width="0.5" stroke-linecap="butt"/><path d="M218.03332,150.84768c0,-0.41421 0.33579,-0.75 0.75,-0.75c0.41421,0 0.75,0.33579 0.75,0.75c0,0.41421 -0.33579,0.75 -0.75,0.75c-0.41421,0 -0.75,-0.33579 -0.75,-0.75z" fill="#9b9b9b" stroke="none" stroke-width="0.5" stroke-linecap="butt"/><path d="M216.02322,153.33638c0,-0.41421 0.33579,-0.75 0.75,-0.75c0.41421,0 0.75,0.33579 0.75,0.75c0,0.41421 -0.33579,0.75 -0.75,0.75c-0.41421,0 -0.75,-0.33579 -0.75,-0.75z" fill="#9b9b9b" stroke="none" stroke-width="0.5" stroke-linecap="butt"/><path d="M248.08919,144.33876c0,-0.41421 0.33579,-0.75 0.75,-0.75c0.41421,0 0.75,0.33579 0.75,0.75c0,0.41421 -0.33579,0.75 -0.75,0.75c-0.41421,0 -0.75,-0.33579 -0.75,-0.75z" fill="#9b9b9b" stroke="none" stroke-width="0.5" stroke-linecap="butt"/><path d="M250.76933,144.43448c0,-0.41421 0.33579,-0.75 0.75,-0.75c0.41421,0 0.75,0.33579 0.75,0.75c0,0.41421 -0.33579,0.75 -0.75,0.75c-0.41421,0 -0.75,-0.33579 -0.75,-0.75z" fill="#9b9b9b" stroke="none" stroke-width="0.5" stroke-linecap="butt"/><path d="M209.34375,150.96528c0,0 1.18026,-6.00886 6.33373,-9.61541c5.76875,-4.03713 11.29127,-4.13459 11.29127,-4.13459" fill="none" stroke="#ffffff" stroke-width="1" stroke-linecap="round"/></g></g></svg>