<svg version="1.1" xmlns="http://www.w3.org/2000/svg" xmlns:xlink="http://www.w3.org/1999/xlink" width="90.72853" height="95.08911" viewBox="0,0,90.72853,95.08911"><g transform="translate(-185.87146,-136.6)"><g data-paper-data="{&quot;isPaintingLayer&quot;:true}" fill-rule="nonzero" stroke-miterlimit="10" stroke-dasharray="" stroke-dashoffset="0" style="mix-blend-mode: normal"><g data-paper-data="{&quot;index&quot;:null}" fill="#faa51f" stroke="#8e5322" stroke-width="1.4" stroke-linecap="round" stroke-linejoin="round"><path d="M241.77146,213c0,0 -5.3,1 -6.4,1.8c3.1,2.4 4.7,-0.3 3.1,4.1c-0.7,2 -2.4,6.6 -4.8,6.1c-7.8,-2.2 1.3,-4.5 -7.2,-10.2c-2.3,-1.8 -5.5,-6.1 3.9,-8.3"/><path d="M228.07146,216.3c1,0.5 2.4,1.9 3.6,2.7"/><path d="M236.77146,214.2c-1.3,0 -3.7,0.4 -4.2,0.2"/></g><path d="M240.87146,205.6" data-paper-data="{&quot;index&quot;:null}" fill="#faa51f" stroke="#8e5322" stroke-width="1.4" stroke-linecap="round" stroke-linejoin="round"/><g data-paper-data="{&quot;index&quot;:null}"><path d="M252.97146,210.9c2.5,0 5.5,-0.2 8.4,-2c6.4,-3.9 9.8,-11.7 13.2,-8.8c3.4,2.9 0.6,16.1 -12.2,17.7c-4.5,0.6 -8.3,-0.2 -11.3,-0.9c-0.8,-0.2 -7.5,-2.2 -9.2,-6.2c-1.7,-4 0.2,-4.4 1.1,-4.8c1,-0.1 6.5,5.1 10,5z" fill="#faa51f" stroke="none" stroke-width="1" stroke-linecap="butt" stroke-linejoin="miter"/><path d="M274.37146,200c1.8,1.1 2,6.1 0.4,9.4c-1.7,3.3 -4.1,5.1 -5.6,6.1c-1.8,0.7 1.3,-2.8 -0.4,-5c-1.7,-2.2 -5.9,-2.4 -5.9,-2.4c0,0 4,-3.7 6.2,-5.8c1.9,-2 3.3,-3.3 5.3,-2.3z" fill="#ffffff" stroke="none" stroke-width="1" stroke-linecap="butt" stroke-linejoin="miter"/><path d="M252.97146,210.9c2.5,0 5.5,-0.2 8.4,-2c6.4,-3.9 9.8,-11.7 13.2,-8.8c3.4,2.9 0.6,16.1 -12.2,17.7c-4.5,0.6 -8.3,-0.2 -11.3,-0.9c-0.8,-0.2 -7.5,-2.2 -9.2,-6.2c-1.7,-4 0.2,-4.4 1.1,-4.8c1,-0.1 6.5,5.1 10,5z" fill="none" stroke="#8e5322" stroke-width="1.4" stroke-linecap="round" stroke-linejoin="round"/></g><path d="M236.37146,189.7c6.5,-1.9 10.9,-1.3 12.8,5.1c1.9,6.4 5.5,14.7 -5.9,18.1c-11.4,3.3 -12.5,-6.6 -14.4,-13c-1.9,-6.4 1.2,-8.3 7.5,-10.2z" data-paper-data="{&quot;index&quot;:null}" fill="#faa51f" stroke="#8e5322" stroke-width="1.4" stroke-linecap="round" stroke-linejoin="round"/><g data-paper-data="{&quot;index&quot;:null}" fill="#faa51f" stroke="#8e5322" stroke-width="1.4" stroke-linecap="round" stroke-linejoin="round"><path d="M249.87146,204.5c0,0 7.2,10.6 13.8,13.8c1.8,0.9 2.1,1.7 1.6,3.7c-0.5,2.2 -5.6,9.9 -7.4,8.9c-6.4,-3.8 1.2,-7.2 -1.8,-9.6c-6.8,-5.6 -13.4,-8.2 -13.4,-8.2"/><path d="M256.37146,224c0,0 0.6,-1.2 1.7,-2.3"/></g><path d="M229.92257,202.73815c0,0 -2.58917,3.35098 -4.33521,4.13104c-1.99947,0.64818 -11.41407,2.89811 -11.52727,-0.33558c-0.17003,-4.63553 8.48267,-6.49071 9.47733,-7.06676c1.19271,-0.69076 6.47852,-13.6996 6.47852,-13.6996" data-paper-data="{&quot;index&quot;:null}" fill="#faa51f" stroke="#8e5322" stroke-width="1.4" stroke-linecap="round" stroke-linejoin="miter"/><path d="M234.67146,196.3c3.6,-1.1 6,-0.6 7.2,3.5c1.2,4.1 3.2,9.4 -2.9,11.2c-6.1,1.8 -7.44274,-4.5 -8.64274,-8.5c-1.2,-4.1 0.84274,-5.1 4.34274,-6.2z" data-paper-data="{&quot;index&quot;:null}" fill="#ffffff" stroke="none" stroke-width="1" stroke-linecap="butt" stroke-linejoin="miter"/><g data-paper-data="{&quot;index&quot;:null}" stroke="#8e5322" stroke-width="1.4" stroke-linecap="round" stroke-linejoin="round"><path d="M235.97146,190.7l7.2,-3.6c8,3.3 14.6,12.5 11.3,15.9" fill="#faa51f"/><path d="M246.77146,198.5" fill="#faa51f"/><path d="M243.27146,197.7" fill="none"/><path d="M246.77146,198.5l-3.7,-3.2" fill="#faa51f"/><path d="M247.87146,197.9l-1.1,0.6" fill="none"/></g><g data-paper-data="{&quot;index&quot;:null}" stroke="#8e5322" stroke-width="1.4" stroke-linecap="round" stroke-linejoin="round"><path d="M228.87146,203.8" fill="#faa51f"/><path d="M230.87146,201.6" fill="none"/></g><path d="M254.69283,202.75726c-7.7,4.2 -12.6,3.8 -13.9,0c-0.6,-1.6 1.4,-5.5 7.3,-5.3" data-paper-data="{&quot;index&quot;:null}" fill="#faa51f" stroke="#8e5322" stroke-width="1.4" stroke-linecap="round" stroke-linejoin="round"/><g data-paper-data="{&quot;index&quot;:null}"><g><path d="M222.87146,147.2c1.5,-0.3 4.5,-0.9 6.2,-1c4.6,-0.4 9.1,0.8 9.1,0.8l11.5,-9.7l0.1,18.4c-0.7,-0.7 11.6,11.1 6.2,22.8c-5.5,11.9 -19.4,18.6 -37.9,17.2c-18.5,-1.3 -24.1,-11.2 -23.5,-16.8c0.5,-5.6 7.1,-8.5 7.1,-8.5c0,0 -0.4,-4.3 2,-9.9c1.5,-3.4 7.1,-8.7 7.1,-8.7l1.4,-11.5l8,6.1z" fill="#faa51f" stroke="none" stroke-width="1" stroke-linecap="butt" stroke-linejoin="miter"/><path d="M202.57146,170.1l2.1,-2.3l9.1,1.5c0,0 0.4,3.3 4.7,3.7c4.3,0.4 11.1,-2.1 11.1,-2.1l7.3,0.9c0,0 8,-1.5 9.2,4.8c2,11 -6.6,17.4 -15.1,18.3c-5.5,0.7 -9,0.4 -13,0.2c-17.5,-1 -23.6,-10.7 -22.8,-16.3c0.5,-5.6 6.9,-8 6.9,-8z" fill="#ffffff" stroke="none" stroke-width="1" stroke-linecap="butt" stroke-linejoin="miter"/><path d="M198.27146,176.1c0,0 -4.4,0.7 -6.7,0.6c-2.8,-0.1 -5,-1.1 -5,-1.1" fill="none" stroke="#8e5322" stroke-width="1.4" stroke-linecap="round" stroke-linejoin="round"/><path d="M198.47146,181.9c0,0 -2.2,1.8 -4.8,2.8c-2.5,1.1 -4.3,1.4 -4.3,1.4" fill="none" stroke="#8e5322" stroke-width="1.4" stroke-linecap="round" stroke-linejoin="round"/><path d="M235.57146,149.4l4.7,-4.2" fill="none" stroke="#8e5322" stroke-width="1.4" stroke-linecap="round" stroke-linejoin="round"/><path d="M222.87146,147.2c1.5,-0.3 4.5,-0.9 6.2,-1c4.6,-0.4 9.1,0.8 9.1,0.8l11.5,-9.7l0.1,18.4c-0.7,-0.7 11.6,11.1 6.2,22.8c-5.5,11.9 -19.4,18.6 -37.9,17.2c-18.5,-1.3 -24.1,-11.2 -23.5,-16.8c0.5,-5.6 7.1,-8.5 7.1,-8.5c0,0 -0.4,-4.3 2,-9.9c1.5,-3.4 7.1,-8.7 7.1,-8.7l1.4,-11.5l8,6.1z" fill="none" stroke="#8e5322" stroke-width="1.4" stroke-linecap="round" stroke-linejoin="round"/><path d="M267.07146,175.4c0,0 -4,0 -5.8,-0.3c-1.8,-0.3 -5.2,-1.1 -5.2,-1.1" fill="none" stroke="#8e5322" stroke-width="1.4" stroke-linecap="round" stroke-linejoin="round"/><path d="M255.37146,170.3c2.3,-1.5 2.3,-1.5 6.1,-2.9c4.1,-1.5 6.3,-1.8 6.3,-1.8" fill="none" stroke="#8e5322" stroke-width="1.4" stroke-linecap="round" stroke-linejoin="round"/></g><g><path d="M215.27146,154.3c2.8,1.3 3.4,6.3 1.1,10.9c-2.3,4.7 -6.5,7.4 -9.4,5.9c-2.8,-1.3 -3.4,-6.3 -1.1,-10.9c2.3,-4.6 6.5,-7.2 9.4,-5.9z" fill="#ffffff" stroke="#8e5322" stroke-width="1.4" stroke-linecap="round" stroke-linejoin="round"/><path d="M206.37146,163.8c0.2,-1 1,-1.7 2,-1.7c1.1,0.1 1.7,1.1 1.5,2.1c-0.2,1.2 -1.1,1.9 -2,1.7c-1.1,-0.1 -1.7,-1.1 -1.5,-2.1" fill="#414142" stroke="none" stroke-width="1" stroke-linecap="butt" stroke-linejoin="miter"/></g><g><path d="M239.57146,155.1c3.4,1.7 4.4,6.8 2.1,11.4c-2.2,4.7 -6.9,7.1 -10.3,5.4c-3.4,-1.7 -4.4,-6.8 -2.1,-11.4c2.3,-4.6 6.9,-7 10.3,-5.4z" fill="#ffffff" stroke="#8e5322" stroke-width="1.4" stroke-linecap="round" stroke-linejoin="round"/><path d="M230.07146,164.3c-0.2,-1.1 0.5,-2 1.5,-2.1c0.9,-0.1 1.8,0.7 1.9,1.7c0.1,1.1 -0.5,2 -1.5,2.1c-0.9,0.1 -1.8,-0.7 -1.9,-1.7" fill="#414142" stroke="none" stroke-width="1" stroke-linecap="butt" stroke-linejoin="miter"/></g><path d="M224.17146,171.8c0.3,1.4 -2.9,4.4 -4.9,4.5c-1.8,0.1 -3.8,-3 -3.9,-3.8c0,-1.9 2.5,-0.9 4.2,-0.9c1.5,0.1 4.3,-1.2 4.6,0.2z" fill="#5f4b43" stroke="#8e5322" stroke-width="1.4" stroke-linecap="round" stroke-linejoin="round"/><path d="M230.47146,185.8c0,0 -2.2,2.6 -7.7,2.2" fill="#ffffff" stroke="#8e5322" stroke-width="1.4" stroke-linecap="round" stroke-linejoin="round"/></g></g></g></svg>