<svg version="1.1" xmlns="http://www.w3.org/2000/svg" xmlns:xlink="http://www.w3.org/1999/xlink" width="81.89997" height="98.4138" viewBox="0,0,81.89997,98.4138"><defs><linearGradient x1="240.9765" y1="207.28292" x2="240.9765" y2="224.96215" gradientUnits="userSpaceOnUse" id="color-1"><stop offset="0" stop-color="#1c2e52"/><stop offset="1" stop-color="#000a1d"/></linearGradient><linearGradient x1="241.44494" y1="190.34694" x2="241.44494" y2="212.145" gradientUnits="userSpaceOnUse" id="color-2"><stop offset="0" stop-color="#5e1b00"/><stop offset="1" stop-color="#3b1f1f"/></linearGradient><linearGradient x1="254.85004" y1="148.72493" x2="254.85004" y2="165.65892" gradientUnits="userSpaceOnUse" id="color-3"><stop offset="0" stop-color="#ffa9a9"/><stop offset="1" stop-color="#ff3131"/></linearGradient><linearGradient x1="230.75004" y1="152.19971" x2="230.75004" y2="169.58996" gradientUnits="userSpaceOnUse" id="color-4"><stop offset="0" stop-color="#ffa9a9"/><stop offset="1" stop-color="#ff4242"/></linearGradient></defs><g transform="translate(-199.21671,-134.04797)"><g data-paper-data="{&quot;isPaintingLayer&quot;:true}" fill-rule="nonzero" stroke-miterlimit="10" stroke-dasharray="" stroke-dashoffset="0" style="mix-blend-mode: normal"><path d="M237.15004,204.41464c0.7,0.7 2.1,1.9 -1,4.8c-3.1,2.9 -10.1,2 -10.9,1.8c-3,-0.6 -6.8,-1.5 -10.6,-3.9c-11,-6.8 -8,-20 -3.7,-21.2c4.3,-1.2 4.1,7.3 8.3,13.5c1.9,2.8 4.5,4.3 6.8,5.3c3.2,1.5 10.4,-0.9 11.1,-0.3z" data-paper-data="{&quot;index&quot;:null}" fill="#3d773c" stroke="#1e5700" stroke-width="1" stroke-linecap="butt" stroke-linejoin="miter"/><path d="M237.31671,204.24797c0.7,0.7 2.1,1.9 -1,4.8c-3.1,2.9 -10.1,2 -10.9,1.8c-3,-0.6 -6.8,-1.5 -10.6,-3.9c-11,-6.8 -8,-20 -3.7,-21.2c4.3,-1.2 4.1,7.3 8.3,13.5c1.9,2.8 4.5,4.3 6.8,5.3c3.2,1.5 10.4,-0.9 11.1,-0.3z" data-paper-data="{&quot;index&quot;:null}" fill="#3d773c" stroke="#1e5700" stroke-width="1.4" stroke-linecap="round" stroke-linejoin="round"/><path d="M241.25004,204.81464" data-paper-data="{&quot;index&quot;:null}" fill="#3d773c" stroke="#1e5700" stroke-width="1.4" stroke-linecap="round" stroke-linejoin="round"/><path d="M249.1686,195.84797c0,6.7 1.25965,16.5 -7.55793,16.5c-8.81758,0 -8.00251,-9 -8.00251,-15.7c0,-6.7 3.03799,-8.5 8.00251,-8.5c4.96452,0 7.55793,1 7.55793,7.7z" data-paper-data="{&quot;index&quot;:null}" fill="#3d773c" stroke="#1e5700" stroke-width="1.4" stroke-linecap="round" stroke-linejoin="round"/><g data-paper-data="{&quot;index&quot;:null}" fill="#3d773c" stroke="#1e5700" stroke-width="1.4" stroke-linecap="round" stroke-linejoin="round"><path d="M246.80188,210.16268c0,0 -0.64529,5.03639 -1.32605,7.84364c-0.37395,1.54212 -1.96881,2.67659 -2.56132,4.70737c-1.04693,3.70188 4.29915,1.66006 0.75243,8.39361c-1.13801,2.22821 -7.2593,-1.8438 -9.08943,-3.12855c-1.73933,-1.24285 -0.55395,-2.3067 0.50731,-4.12981c0.86028,-1.56163 3.16133,-5.13874 3.70648,-6.61937c0.46379,-1.25967 1.02717,-7.39545 1.02717,-7.39545"/><path d="M239.46468,223.83817c1.43881,0.22322 2.8079,1.07504 2.8079,1.07504"/></g><g data-paper-data="{&quot;index&quot;:null}" fill="#3d773c" stroke="#1e5700" stroke-width="1.4" stroke-linecap="round" stroke-linejoin="round"><path d="M245.62832,208.40215c0,0 -0.42395,7.72325 -0.86934,9.64122c-0.47506,2.04566 -1.27765,4.73468 -1.3841,5.31953c-0.08836,3.81074 6.42139,-0.17282 5.20407,7.13692c-0.40147,2.06843 -9.25102,0.92626 -11.19607,-0.08482c-1.76217,-0.89111 -2.17465,-1.63868 -1.68671,-3.59738c0.72674,-2.9092 1.92921,-6.96244 1.95058,-9.227c0.01513,-1.60385 -0.10855,-7.89544 -0.10855,-7.89544"/><path d="M242.17827,225.15737c1.47591,-0.14464 2.70932,0.18759 2.70932,0.18759"/></g><g data-paper-data="{&quot;index&quot;:null}" fill="#3d773c" stroke="#1e5700" stroke-width="1.4" stroke-linecap="round" stroke-linejoin="round"><path d="M230.65004,199.54797"/><path d="M233.75004,197.74797"/><path d="M233.35004,195.44797l-2.7,4.1"/></g><path d="M249.46808,197.54946l0.92308,2.84616" data-paper-data="{&quot;index&quot;:null}" fill="none" stroke="#270800" stroke-width="1.4" stroke-linecap="round" stroke-linejoin="miter"/><path d="M241.55846,209.6181c3.60502,-0.24107 6.77781,-0.88849 6.34281,2.02004c-0.16646,1.11298 -1.16667,4.34775 -1.38101,6.19399c-0.21435,1.84624 -1.3536,4.98559 -1.39865,5.50609c-0.09742,1.12571 -1.27342,0.45135 -3.1801,0.89752c-1.35538,0.31716 -4.64741,-0.68816 -4.69994,-1.3517c-0.02952,-0.37282 0.95888,-1.77362 1.274,-3.72294c0.80025,-1.8519 0.69419,-2.04467 0.4284,-2.1559c-0.46004,-0.19252 0.59715,0.33007 -0.2902,1.78944c-0.97048,1.59608 -1.42998,4.07933 -1.58028,4.05593c-1.78231,-0.27737 -0.54055,-0.31144 -0.83758,-1.7927c-0.12916,-0.64409 0.30611,-1.04588 0.35947,-1.64651c0.061,-0.68647 -0.21584,-1.60048 0.37825,-2.87631c0.46522,-0.99908 -0.39987,-3.91692 -0.52807,-5.81021c0,0 0.36099,-0.78895 5.11289,-1.10673z" data-paper-data="{&quot;index&quot;:null}" fill="url(#color-1)" stroke="#02050a" stroke-width="1.4" stroke-linecap="butt" stroke-linejoin="miter"/><path d="M249.69256,192.14596c6.28076,-2.46618 16.00944,-2.5489 16.81291,0.65026c1.03434,4.41601 -15.26914,5.85008 -17.49357,6.18267" data-paper-data="{&quot;index&quot;:null,&quot;origRot&quot;:0}" fill="#3d773c" stroke="#1e5700" stroke-width="1.4" stroke-linecap="round" stroke-linejoin="round"/><path d="M232.51415,201.21628c-0.07453,-1.94288 -1.5077,2.22791 -2.6487,-3.73339c-0.37352,-0.68022 1.63966,-6.91617 1.63966,-6.91617l19.29806,-0.21978c0,0 3.81955,-1.19702 3.74747,1.96085c-0.012,0.52595 0.11168,4.69778 -1.19136,6.22097c-1.07371,1.2551 -2.42043,1.17208 -2.59747,1.67803c-1.03635,2.96159 -0.79226,7.43106 -2.20431,10.21706c-1.15127,2.22001 -10.86339,2.57881 -13.17966,0.21032c0,0 -2.8157,-8.16712 -2.86369,-9.41789z" data-paper-data="{&quot;index&quot;:null}" fill="url(#color-2)" stroke="#270800" stroke-width="1.4" stroke-linecap="butt" stroke-linejoin="miter"/><path d="M236.38777,192.47255c5.67214,1.39925 17.28092,0.43266 16.27419,4.23281c-1.02819,4.08277 -10.3982,5.52408 -18.77355,3.58213" data-paper-data="{&quot;index&quot;:null}" fill="#3d773c" stroke="#1e5700" stroke-width="1.4" stroke-linecap="round" stroke-linejoin="round"/><path d="M234.26467,190.92263c0,0 1.55679,0.93171 2.29564,2.19064c0.73885,1.25893 0.62679,1.43528 0.44628,2.48134c-0.18032,1.04495 -0.79165,4.33139 -2.54464,5.29965c-0.39315,0.21715 -2.86951,0.04881 -2.86951,0.04881" data-paper-data="{&quot;index&quot;:null}" fill="#561c08" stroke="#270800" stroke-width="1.4" stroke-linecap="round" stroke-linejoin="miter"/><g><path d="M243.85004,141.91464l7.2,-7l2.8,11.2c0,0 6.2,4.6 8.1,7.8c3.1,5.3 3.2,9.6 3.2,9.6c0,0 6.9,2.1 8.1,7.6c1.2,5.5 -3.1,16 -21.3,19.6c-18.2,3.6 -32.8,-1.3 -39.7,-12.4c-6.8,-11 4,-24.2 3.4,-23.4l-2.2,-18.3l12.6,8.2c0,0 4.3,-1.7 8.9,-1.9c1.7,-0.1 4.8,0.1 6.3,0.2z" data-paper-data="{&quot;index&quot;:null}" fill="#3d773c" stroke="none" stroke-width="1" stroke-linecap="butt" stroke-linejoin="miter"/><path d="M280.41668,164.64797c0,0 -1.8,1.6 -4.4,2.5c-2.2,0.8 -6.6,1.5 -6.6,1.5" data-paper-data="{&quot;index&quot;:null}" fill="none" stroke="#1e5700" stroke-width="1.4" stroke-linecap="round" stroke-linejoin="round"/><path d="M279.81671,175.84797c0,0 -1.8,0.2 -4.5,-0.1c-2.8,-0.2 -5.4,-1.3 -5.4,-1.3" data-paper-data="{&quot;index&quot;:null}" fill="none" stroke="#1e5700" stroke-width="1.4" stroke-linecap="round" stroke-linejoin="round"/><path d="M229.11671,146.74797l-5.2,-3.6" data-paper-data="{&quot;index&quot;:null}" fill="none" stroke="#1e5700" stroke-width="1.4" stroke-linecap="round" stroke-linejoin="round"/><path d="M211.8167,173.64797c0,0 -3.5,0.5 -5.3,0.6c-1.8,0.1 -5.8,-0.3 -5.8,-0.3" data-paper-data="{&quot;index&quot;:null}" fill="none" stroke="#1e5700" stroke-width="1.4" stroke-linecap="round" stroke-linejoin="round"/><path d="M199.91671,164.34797c0,0 2.2,0.4 6.2,2.2c3.6,1.6 5.9,3.3 5.9,3.3" data-paper-data="{&quot;index&quot;:null}" fill="none" stroke="#1e5700" stroke-width="1.4" stroke-linecap="round" stroke-linejoin="round"/><path d="M264.75004,164.01464c0,0 6.6,1.6 7.8,7.1c1.5,5.5 -3.4,15.9 -20.6,19c-3.9,0.7 -7.4,1.4 -12.9,1.4c-8.5,0.1 -17.8,-5.2 -17.1,-16.3c0.4,-6.4 8.5,-5.9 8.5,-5.9l7.1,-1.8c0,0 7.1,1.6 11.3,0.7c4.2,-0.9 4.2,-4.2 4.2,-4.2l8.8,-2.6l2.4,2z" data-paper-data="{&quot;index&quot;:null}" fill="#5a9758" stroke="none" stroke-width="1.5" stroke-linecap="butt" stroke-linejoin="miter"/><path d="M259.75004,154.01464c2.8,4.3 2.9,9.3 0.2,11c-2.7,1.8 -7.2,-0.3 -10,-4.7c-2.8,-4.3 -2.9,-9.3 -0.2,-11c2.7,-1.7 7.2,0.4 10,4.7z" data-paper-data="{&quot;index&quot;:null}" fill="url(#color-3)" stroke="#8a1f1f" stroke-width="1.4" stroke-linecap="round" stroke-linejoin="round"/><path d="M259.65003,157.61464c0.3,1 -0.2,2 -1.2,2.3c-0.9,0.3 -1.9,-0.3 -2.2,-1.4c-0.3,-1 0.2,-2 1.2,-2.3c1,-0.2 1.9,0.4 2.2,1.4" data-paper-data="{&quot;index&quot;:null}" fill="#ff0000" stroke="#d20000" stroke-width="1" stroke-linecap="butt" stroke-linejoin="miter"/><path d="M236.55004,157.11464c2.8,4.3 2.5,9.5 -0.7,11.6c-3.2,2.1 -8.1,0.3 -10.9,-4.1c-2.8,-4.3 -2.5,-9.5 0.7,-11.6c3.2,-2 8.1,-0.2 10.9,4.1z" data-paper-data="{&quot;index&quot;:null}" fill="url(#color-4)" stroke="#8f1111" stroke-width="1.4" stroke-linecap="round" stroke-linejoin="round"/><path d="M236.25004,161.01464c0,1 -0.8,1.9 -1.7,1.9c-1,0 -1.7,-0.8 -1.7,-1.9c0,-1 0.8,-1.9 1.7,-1.9c0.9,0 1.7,0.8 1.7,1.9" data-paper-data="{&quot;index&quot;:null}" fill="#ff0000" stroke="#d80000" stroke-width="1" stroke-linecap="butt" stroke-linejoin="miter"/><path d="M247.55004,167.01464c1.7,-0.2 4,-1.5 4.3,0.4c0,0.8 -1.6,4.1 -3.4,4.2c-2,0.1 -5.5,-2.4 -5.4,-3.9c0.1,-1.5 3,-0.5 4.5,-0.7z" data-paper-data="{&quot;index&quot;:null}" fill="#5e1b00" stroke="#270800" stroke-width="1.4" stroke-linecap="round" stroke-linejoin="round"/><path d="M241.78338,183.03672c0,0 3.73734,-1.88333 9.65,0.13333" data-paper-data="{&quot;index&quot;:null}" fill="none" stroke="#1e5700" stroke-width="1.4" stroke-linecap="round" stroke-linejoin="round"/><path d="M244.01671,141.74797l7.2,-7l2.8,11.2c0,0 6.2,4.6 8.1,7.8c3.1,5.3 3.2,9.6 3.2,9.6c0,0 6.9,2.1 8.1,7.6c1.2,5.5 -3.1,16 -21.3,19.6c-18.2,3.6 -32.8,-1.3 -39.7,-12.4c-6.8,-11 4,-24.2 3.4,-23.4l-2.2,-18.3l12.6,8.2c0,0 4.3,-1.7 8.9,-1.9c1.7,-0.1 4.8,0.1 6.3,0.2z" data-paper-data="{&quot;index&quot;:null}" fill="none" stroke="#1e5700" stroke-width="1.4" stroke-linecap="round" stroke-linejoin="round"/></g></g></g></svg>