<svg version="1.1" xmlns="http://www.w3.org/2000/svg" xmlns:xlink="http://www.w3.org/1999/xlink" width="48.65177" height="35.20659" viewBox="0,0,48.65177,35.20659"><defs><linearGradient x1="239.73468" y1="145.275" x2="239.73468" y2="157.875" gradientUnits="userSpaceOnUse" id="color-1"><stop offset="0" stop-color="#2900ff"/><stop offset="1" stop-color="#1e00b7"/></linearGradient><linearGradient x1="239.73468" y1="145.275" x2="239.73468" y2="157.875" gradientUnits="userSpaceOnUse" id="color-2"><stop offset="0" stop-color="#0005a8"/><stop offset="1" stop-color="#03009e"/></linearGradient><linearGradient x1="247.6812" y1="133.9559" x2="247.6812" y2="179.10272" gradientUnits="userSpaceOnUse" id="color-3"><stop offset="0" stop-color="#2900ff"/><stop offset="1" stop-color="#1e00b7"/></linearGradient><linearGradient x1="249.60372" y1="135.25559" x2="249.60372" y2="166.869" gradientUnits="userSpaceOnUse" id="color-4"><stop offset="0" stop-color="#0d00c7"/><stop offset="1" stop-color="#110096"/></linearGradient><linearGradient x1="248.91239" y1="137.24512" x2="248.91239" y2="162.32629" gradientUnits="userSpaceOnUse" id="color-5"><stop offset="0" stop-color="#0e00c1"/><stop offset="1" stop-color="#0f00a6"/></linearGradient><linearGradient x1="268.05969" y1="151.20129" x2="268.05969" y2="160.20129" gradientUnits="userSpaceOnUse" id="color-6"><stop offset="0" stop-color="#0f00b0"/><stop offset="1" stop-color="#1000a3"/></linearGradient></defs><g transform="translate(-225.27782,-132.38242)"><g data-paper-data="{&quot;isPaintingLayer&quot;:true}" fill-rule="nonzero" stroke-linejoin="miter" stroke-miterlimit="10" stroke-dasharray="" stroke-dashoffset="0" style="mix-blend-mode: normal"><path d="M234.43468,157.875c0,0 1.05772,-5.97954 1.34381,-8.23253c0.23855,-1.87859 0.25619,-4.36747 0.25619,-4.36747l9,1.4c0,0 -2.16632,1.83841 -2.98612,3.42147c-1.05404,2.03539 -2.81388,7.77853 -2.81388,7.77853z" data-paper-data="{&quot;index&quot;:null}" fill="url(#color-1)" stroke="url(#color-2)" stroke-width="1.5" stroke-linecap="butt"/><path d="M246.89764,147.27716c-13.41501,-1.59498 -21.79145,-0.50502 -20.78874,-2.57023c0.94085,-1.93781 -0.05209,-6.87788 1.20926,-8.10195c1.71814,-1.66736 16.35926,-4.04125 25.51729,-3.34938c13.55814,1.02429 18.88544,13.48403 19.77666,18.10901c1.61079,8.35914 -0.43019,14.84999 -3.32676,15.4744c-2.81296,0.60639 -4.57905,-8.12987 -8.19148,-12.81812c-3.9228,-5.09105 -9.74837,-6.21488 -14.19623,-6.74371z" data-paper-data="{&quot;index&quot;:null}" fill="url(#color-3)" stroke="url(#color-4)" stroke-width="1.5" stroke-linecap="butt"/><path d="M227.44718,139.82629c0,0 22.94517,-5.73484 31.4974,-0.53996c6.83351,4.15088 9.38138,10.84335 10.44305,17.05917" data-paper-data="{&quot;index&quot;:null}" fill="none" stroke="url(#color-5)" stroke-width="1" stroke-linecap="round"/><path d="M271.77351,149.79997c0,0 -0.20597,3.58778 -1.24311,5.34721c-1.25457,2.12828 -5.4411,4.47516 -5.4411,4.47516" data-paper-data="{&quot;index&quot;:null}" fill="none" stroke="url(#color-6)" stroke-width="1" stroke-linecap="round"/><path d="M226.93258,138.45334l-0.15789,2.26316" data-paper-data="{&quot;index&quot;:null}" fill="none" stroke="#0e00c1" stroke-width="1" stroke-linecap="round"/><path d="M264.81627,160.2807l-0.39474,-0.78947" data-paper-data="{&quot;index&quot;:null}" fill="none" stroke="#1000a3" stroke-width="1" stroke-linecap="round"/><path d="M272.43469,151.91228l-0.78947,-3" data-paper-data="{&quot;index&quot;:null}" fill="none" stroke="#0f00b1" stroke-width="1" stroke-linecap="round"/><path d="M252.27363,135.36913c0,0 5.52254,0.09746 11.29128,4.13459c5.15346,3.60654 6.33372,9.61541 6.33372,9.61541" data-paper-data="{&quot;index&quot;:null}" fill="none" stroke="#ffffff" stroke-width="1" stroke-linecap="round"/><g data-paper-data="{&quot;index&quot;:null}" fill="#0b0087" stroke="none" stroke-width="0.5" stroke-linecap="butt"><path d="M267.44897,162.22303c-0.41421,0 -0.75,-0.33579 -0.75,-0.75c0,-0.41421 0.33579,-0.75 0.75,-0.75c0.41421,0 0.75,0.33579 0.75,0.75c0,0.41421 -0.33579,0.75 -0.75,0.75z"/><path d="M264.87157,156.94511c-0.41421,0 -0.75,-0.33579 -0.75,-0.75c0,-0.41421 0.33579,-0.75 0.75,-0.75c0.41421,0 0.75,0.33579 0.75,0.75c0,0.41421 -0.33579,0.75 -0.75,0.75z"/><path d="M242.39037,145.7588c-0.41421,0 -0.75,-0.33579 -0.75,-0.75c0,-0.41421 0.33579,-0.75 0.75,-0.75c0.41421,0 0.75,0.33579 0.75,0.75c0,0.41421 -0.33579,0.75 -0.75,0.75z"/><path d="M239.99739,145.47164c-0.41421,0 -0.75,-0.33579 -0.75,-0.75c0,-0.41421 0.33579,-0.75 0.75,-0.75c0.41421,0 0.75,0.33579 0.75,0.75c0,0.41421 -0.33579,0.75 -0.75,0.75z"/><path d="M237.12581,145.2802c-0.41421,0 -0.75,-0.33579 -0.75,-0.75c0,-0.41421 0.33579,-0.75 0.75,-0.75c0.41421,0 0.75,0.33579 0.75,0.75c0,0.41421 -0.33579,0.75 -0.75,0.75z"/><path d="M234.25423,145.08876c-0.41421,0 -0.75,-0.33579 -0.75,-0.75c0,-0.41421 0.33579,-0.75 0.75,-0.75c0.41421,0 0.75,0.33579 0.75,0.75c0,0.41421 -0.33579,0.75 -0.75,0.75z"/><path d="M245.35767,145.85452c-0.41421,0 -0.75,-0.33579 -0.75,-0.75c0,-0.41421 0.33579,-0.75 0.75,-0.75c0.41421,0 0.75,0.33579 0.75,0.75c0,0.41421 -0.33579,0.75 -0.75,0.75z"/><path d="M248.42069,146.42882c-0.41421,0 -0.75,-0.33579 -0.75,-0.75c0,-0.41421 0.33579,-0.75 0.75,-0.75c0.41421,0 0.75,0.33579 0.75,0.75c0,0.41421 -0.33579,0.75 -0.75,0.75z"/><path d="M251.86658,146.90742c-0.41421,0 -0.75,-0.33579 -0.75,-0.75c0,-0.41421 0.33579,-0.75 0.75,-0.75c0.41421,0 0.75,0.33579 0.75,0.75c0,0.41421 -0.33579,0.75 -0.75,0.75z"/><path d="M255.21676,147.67317c-0.41421,0 -0.75,-0.33579 -0.75,-0.75c0,-0.41421 0.33579,-0.75 0.75,-0.75c0.41421,0 0.75,0.33579 0.75,0.75c0,0.41421 -0.33579,0.75 -0.75,0.75z"/><path d="M258.3755,149.30041c-0.41421,0 -0.75,-0.33579 -0.75,-0.75c0,-0.41421 0.33579,-0.75 0.75,-0.75c0.41421,0 0.75,0.33579 0.75,0.75c0,0.41421 -0.33579,0.75 -0.75,0.75z"/><path d="M261.15136,151.59768c-0.41421,0 -0.75,-0.33579 -0.75,-0.75c0,-0.41421 0.33579,-0.75 0.75,-0.75c0.41421,0 0.75,0.33579 0.75,0.75c0,0.41421 -0.33579,0.75 -0.75,0.75z"/><path d="M263.16146,154.08638c-0.41421,0 -0.75,-0.33579 -0.75,-0.75c0,-0.41421 0.33579,-0.75 0.75,-0.75c0.41421,0 0.75,0.33579 0.75,0.75c0,0.41421 -0.33579,0.75 -0.75,0.75z"/><path d="M231.09549,145.08876c-0.41421,0 -0.75,-0.33579 -0.75,-0.75c0,-0.41421 0.33579,-0.75 0.75,-0.75c0.41421,0 0.75,0.33579 0.75,0.75c0,0.41421 -0.33579,0.75 -0.75,0.75z"/><path d="M228.41535,145.18448c-0.41421,0 -0.75,-0.33579 -0.75,-0.75c0,-0.41421 0.33579,-0.75 0.75,-0.75c0.41421,0 0.75,0.33579 0.75,0.75c0,0.41421 -0.33579,0.75 -0.75,0.75z"/><path d="M268.84897,164.89802c-0.41421,0 -0.75,-0.33579 -0.75,-0.75c0,-0.41421 0.33579,-0.75 0.75,-0.75c0.41421,0 0.75,0.33579 0.75,0.75c0,0.41421 -0.33579,0.75 -0.75,0.75z"/><path d="M269.12219,160.32629c-0.41422,0 -0.75,-0.33578 -0.75,-0.75c0,-0.41422 0.33578,-0.75 0.75,-0.75c0.41422,0 0.75,0.33578 0.75,0.75c0,0.41422 -0.33578,0.75 -0.75,0.75z"/><path d="M270.99719,158.20129c-0.41422,0 -0.75,-0.33578 -0.75,-0.75c0,-0.41422 0.33578,-0.75 0.75,-0.75c0.41422,0 0.75,0.33578 0.75,0.75c0,0.41422 -0.33578,0.75 -0.75,0.75z"/></g></g></g></svg>