<svg version="1.1" xmlns="http://www.w3.org/2000/svg" xmlns:xlink="http://www.w3.org/1999/xlink" width="89.75856" height="96.14613" viewBox="0,0,89.75856,96.14613"><g transform="translate(-187.00668,-135.2)"><g data-paper-data="{&quot;isPaintingLayer&quot;:true}" fill-rule="nonzero" stroke-miterlimit="10" stroke-dasharray="" stroke-dashoffset="0" style="mix-blend-mode: normal"><g data-paper-data="{&quot;index&quot;:null}" fill="#faa51f" stroke="#8e5322" stroke-width="1.4" stroke-linecap="round" stroke-linejoin="round"><path d="M250.70668,205.5c0,0 6.5,5.4 7.8,6.1c1.2,-1.7 2.6,-2 4.4,-0.9c1.9,1.2 7.7,6.1 6.1,8c-4.8,5.9 -7,-2.1 -9.9,0.3c-2.1,0.9 -9.6,-6.3 -18.2,-7"/><path d="M261.10668,216.6c0,0 -0.7,1.4 -1.9,2.3"/></g><g data-paper-data="{&quot;index&quot;:null}"><path d="M253.80668,206.7c2.5,-0.2 5.5,-0.7 8.2,-2.7c6.1,-4.4 8.8,-12.4 12.4,-9.8c3.6,2.6 1.9,16 -10.7,18.7c-4.4,1 -8.3,0.5 -11.3,0c-0.8,-0.1 -7.7,-1.6 -9.6,-5.4c-1.9,-3.8 -0.2,-4.4 0.7,-4.9c0.8,-0.3 6.8,4.4 10.3,4.1z" fill="#faa51f" stroke="none" stroke-width="1" stroke-linecap="butt" stroke-linejoin="miter"/><path d="M274.20668,194c1.9,0.9 2.5,5.9 1.2,9.4c-1.5,3.4 -3.7,5.4 -5.1,6.6c-1.7,0.9 1.1,-2.9 -0.8,-5c-1.9,-2.1 -6.1,-1.9 -6.1,-1.9c0,0 3.7,-4 5.7,-6.2c1.7,-2.2 3.1,-3.7 5.1,-2.9z" fill="#ffffff" stroke="none" stroke-width="1" stroke-linecap="butt" stroke-linejoin="miter"/><path d="M253.80668,206.7c2.5,-0.2 5.5,-0.7 8.2,-2.7c6.1,-4.4 8.8,-12.4 12.4,-9.8c3.6,2.6 1.9,16 -10.7,18.7c-4.4,1 -8.3,0.5 -11.3,0c-0.8,-0.1 -7.7,-1.6 -9.6,-5.4c-1.9,-3.8 -0.2,-4.4 0.7,-4.9c0.8,-0.3 6.8,4.4 10.3,4.1z" fill="none" stroke="#8e5322" stroke-width="1.4" stroke-linecap="round" stroke-linejoin="round"/></g><path d="M241.80668,205.2" data-paper-data="{&quot;index&quot;:null}" fill="#faa51f" stroke="#8e5322" stroke-width="1.4" stroke-linecap="round" stroke-linejoin="round"/><path d="M237.20668,189.4c6.5,-1.9 10.9,-1.3 12.8,5.1c1.9,6.4 5.5,14.8 -5.9,18.1c-11.4,3.3 -12.5,-6.6 -14.4,-13c-1.9,-6.5 1.2,-8.4 7.5,-10.2z" data-paper-data="{&quot;index&quot;:null}" fill="#faa51f" stroke="#8e5322" stroke-width="1.4" stroke-linecap="round" stroke-linejoin="round"/><g data-paper-data="{&quot;index&quot;:null}" stroke="#8e5322" stroke-width="1.4" stroke-linecap="round" stroke-linejoin="round"><path d="M236.80668,190.4l7.2,-3.6c8,3.3 14.6,12.5 11.3,15.9" fill="#faa51f"/><path d="M247.60668,198.1" fill="#faa51f"/><path d="M244.10668,197.3" fill="none"/><path d="M243.90668,194.9l3.7,3.2" fill="#faa51f"/><path d="M248.70668,197.5l-1.1,0.6" fill="none"/></g><path d="M232.80738,200.9672c0,0 -4.13875,5.12193 -5.88479,5.90199c-1.99947,0.64818 -11.41407,2.89811 -11.52727,-0.33558c-0.17003,-4.63553 8.48267,-6.49071 9.47733,-7.06676c1.19271,-0.69076 4.4862,-7.50128 4.4862,-7.50128" data-paper-data="{&quot;index&quot;:null}" fill="#faa51f" stroke="#8e5322" stroke-width="1.4" stroke-linecap="round" stroke-linejoin="miter"/><path d="M232.00668,196.6c3.6,-1.1 6,-0.5 7.2,3.5c1.1,4.1 -0.1,4.4 -5.5,6.9c-5.8,2.8 -4.5,-0.2 -5.7,-4.2c-1.1,-4 0.4,-5.1 4,-6.2z" data-paper-data="{&quot;index&quot;:null}" fill="#ffffff" stroke="none" stroke-width="1" stroke-linecap="butt" stroke-linejoin="miter"/><g data-paper-data="{&quot;index&quot;:null}" stroke="#8e5322" stroke-width="1.4" stroke-linecap="round" stroke-linejoin="round"><path d="M229.70668,203.4" fill="#faa51f"/><path d="M231.70668,201.2" fill="none"/></g><g data-paper-data="{&quot;index&quot;:null}"><g><path d="M223.80668,145.8c1.5,-0.3 4.5,-0.9 6.2,-1c4.6,-0.4 9.1,0.8 9.1,0.8l11.5,-9.7l0.1,18.4c-0.7,-0.7 11.6,11.1 6.2,22.8c-5.6,11.9 -19.4,18.6 -37.9,17.2c-18.5,-1.3 -24.1,-11.2 -23.5,-16.8c0.5,-5.6 7.1,-8.5 7.1,-8.5c0,0 -0.4,-4.3 2,-9.9c1.5,-3.4 7.1,-8.7 7.1,-8.7l1.4,-11.5l8,6.1z" fill="#faa51f" stroke="none" stroke-width="1" stroke-linecap="butt" stroke-linejoin="miter"/><path d="M203.40668,168.7l2.1,-2.3l9.1,1.6c0,0 0.4,3.3 4.7,3.7c4.3,0.4 11.1,-2.1 11.1,-2.1l7.3,0.9c0,0 8,-1.5 9.2,4.8c2,10.9 -6.5,17.3 -15,18.3c-5.5,0.7 -9,0.4 -13,0.2c-17.5,-1 -23.6,-10.7 -22.8,-16.3c0.5,-5.6 6.9,-8 6.9,-8z" fill="#ffffff" stroke="none" stroke-width="1" stroke-linecap="butt" stroke-linejoin="miter"/><path d="M199.10668,174.7c0,0 -4.5,-0.2 -6.7,-0.7c-2.7,-0.6 -4.7,-1.9 -4.7,-1.9" fill="none" stroke="#8e5322" stroke-width="1.4" stroke-linecap="round" stroke-linejoin="round"/><path d="M199.30668,180.5c0,0 -2.4,1.4 -5.2,2c-2.6,0.6 -4.5,0.6 -4.5,0.6" fill="none" stroke="#8e5322" stroke-width="1.4" stroke-linecap="round" stroke-linejoin="round"/><path d="M241.10668,143.8l-4.7,4.2" fill="none" stroke="#8e5322" stroke-width="1.4" stroke-linecap="round" stroke-linejoin="round"/><path d="M223.80668,145.8c1.5,-0.3 4.5,-0.9 6.2,-1c4.6,-0.4 9.1,0.8 9.1,0.8l11.5,-9.7l0.1,18.4c-0.7,-0.7 11.6,11.1 6.2,22.8c-5.6,11.9 -19.4,18.6 -37.9,17.2c-18.5,-1.3 -24.1,-11.2 -23.5,-16.8c0.5,-5.6 7.1,-8.5 7.1,-8.5c0,0 -0.4,-4.3 2,-9.9c1.5,-3.4 7.1,-8.7 7.1,-8.7l1.4,-11.5l8,6.1z" fill="none" stroke="#8e5322" stroke-width="1.4" stroke-linecap="round" stroke-linejoin="round"/><path d="M267.90668,171.6c0,0 -3.9,0.9 -5.7,1c-1.8,0.1 -5.3,0.1 -5.3,0.1" fill="none" stroke="#8e5322" stroke-width="1.4" stroke-linecap="round" stroke-linejoin="round"/><path d="M256.20668,168.9c0,0 2.1,-2 5.5,-4c3.7,-2.3 5.9,-2.9 5.9,-2.9" fill="none" stroke="#8e5322" stroke-width="1.4" stroke-linecap="round" stroke-linejoin="round"/></g><g><path d="M216.10668,153c2.8,1.3 3.4,6.3 1.1,10.9c-2.3,4.7 -6.5,7.4 -9.4,5.9c-2.8,-1.3 -3.4,-6.3 -1.1,-10.9c2.3,-4.7 6.5,-7.3 9.4,-5.9z" fill="#ffffff" stroke="#8e5322" stroke-width="1.4" stroke-linecap="round" stroke-linejoin="round"/><path d="M207.30668,162.4c0.1,-1 1,-1.7 2,-1.7c1.1,0.1 1.7,1.1 1.5,2.1c-0.2,1.2 -1.1,1.9 -2,1.7c-1.1,-0.1 -1.7,-1.1 -1.5,-2.1" fill="#414142" stroke="none" stroke-width="1" stroke-linecap="butt" stroke-linejoin="miter"/></g><g><path d="M240.40668,153.7c3.4,1.7 4.4,6.8 2.1,11.4c-2.2,4.7 -6.9,7.1 -10.3,5.4c-3.4,-1.7 -4.4,-6.8 -2.1,-11.4c2.3,-4.6 6.9,-7 10.3,-5.4z" fill="#ffffff" stroke="#8e5322" stroke-width="1.4" stroke-linecap="round" stroke-linejoin="round"/><path d="M230.90668,162.9c-0.1,-1.1 0.6,-2 1.5,-2.1c0.9,-0.1 1.8,0.7 1.9,1.7c0.1,1.1 -0.5,2 -1.5,2.1c-0.9,0.1 -1.8,-0.7 -1.9,-1.7" fill="#414142" stroke="none" stroke-width="1" stroke-linecap="butt" stroke-linejoin="miter"/></g><path d="M225.00668,170.5c0.3,1.4 -2.9,4.4 -4.9,4.5c-1.8,0.1 -3.8,-3 -3.9,-3.8c0,-1.9 2.5,-0.9 4.2,-0.9c1.5,0 4.3,-1.4 4.6,0.2z" fill="#5f4b43" stroke="#8e5322" stroke-width="1.4" stroke-linecap="round" stroke-linejoin="round"/><path d="M231.30668,184.4c0,0 -2.2,2.6 -7.7,2.2" fill="#ffffff" stroke="#8e5322" stroke-width="1.4" stroke-linecap="round" stroke-linejoin="round"/></g><path d="M255.30668,202.8c-7.7,4.2 -12.6,3.8 -13.9,0c-0.6,-1.6 1.4,-5.5 7.3,-5.3" data-paper-data="{&quot;index&quot;:null}" fill="#faa51f" stroke="#8e5322" stroke-width="1.4" stroke-linecap="round" stroke-linejoin="round"/><g data-paper-data="{&quot;index&quot;:null}" fill="#faa51f" stroke="#8e5322" stroke-width="1.4" stroke-linecap="round" stroke-linejoin="round"><path d="M241.90668,212.6c0,0 -9.3,8.7 -11.4,15.8c-0.5,2 -1.3,2.4 -3.3,2.2c-2.2,-0.2 -10.6,-3.9 -9.9,-5.9c2.7,-6.9 7.3,0 9.2,-3.3c4.5,-7.7 6,-14.6 6,-14.6"/><path d="M224.00668,222.2c0,0 1.3,0.4 2.5,1.3"/></g><path d="M231.29168,209.88473c0,0 -1.08463,-1.83263 -1.76515,-2.44152c-0.71932,-0.6436 -1.334,-4.4209 -1.334,-4.4209" data-paper-data="{&quot;index&quot;:null}" fill="none" stroke="#8e5322" stroke-width="1.4" stroke-linecap="round" stroke-linejoin="miter"/></g></g></svg>