<svg version="1.1" xmlns="http://www.w3.org/2000/svg" xmlns:xlink="http://www.w3.org/1999/xlink" width="48.65177" height="35.20659" viewBox="0,0,48.65177,35.20659"><defs><linearGradient x1="239.79528" y1="145.275" x2="239.79528" y2="157.875" gradientUnits="userSpaceOnUse" id="color-1"><stop offset="0" stop-color="#009fff"/><stop offset="1" stop-color="#007ddc"/></linearGradient><linearGradient x1="239.79528" y1="145.275" x2="239.79528" y2="157.875" gradientUnits="userSpaceOnUse" id="color-2"><stop offset="0" stop-color="#0066a8"/><stop offset="1" stop-color="#005f9e"/></linearGradient><linearGradient x1="247.7418" y1="133.9559" x2="247.7418" y2="179.10272" gradientUnits="userSpaceOnUse" id="color-3"><stop offset="0" stop-color="#009fff"/><stop offset="1" stop-color="#007ddc"/></linearGradient><linearGradient x1="249.66432" y1="135.25559" x2="249.66432" y2="166.869" gradientUnits="userSpaceOnUse" id="color-4"><stop offset="0" stop-color="#007ac7"/><stop offset="1" stop-color="#005a96"/></linearGradient><linearGradient x1="267.50957" y1="160.72303" x2="267.50957" y2="162.22303" gradientUnits="userSpaceOnUse" id="color-5"><stop offset="0" stop-color="#0069ad"/><stop offset="1" stop-color="#007ddc"/></linearGradient><linearGradient x1="264.93217" y1="155.44511" x2="264.93217" y2="156.94511" gradientUnits="userSpaceOnUse" id="color-6"><stop offset="0" stop-color="#0069ad"/><stop offset="1" stop-color="#007ddc"/></linearGradient><linearGradient x1="242.45097" y1="144.2588" x2="242.45097" y2="145.7588" gradientUnits="userSpaceOnUse" id="color-7"><stop offset="0" stop-color="#0069ad"/><stop offset="1" stop-color="#007ddc"/></linearGradient><linearGradient x1="240.05799" y1="143.97164" x2="240.05799" y2="145.47164" gradientUnits="userSpaceOnUse" id="color-8"><stop offset="0" stop-color="#0069ad"/><stop offset="1" stop-color="#007ddc"/></linearGradient><linearGradient x1="237.18641" y1="143.7802" x2="237.18641" y2="145.2802" gradientUnits="userSpaceOnUse" id="color-9"><stop offset="0" stop-color="#0069ad"/><stop offset="1" stop-color="#007ddc"/></linearGradient><linearGradient x1="234.31483" y1="143.58876" x2="234.31483" y2="145.08876" gradientUnits="userSpaceOnUse" id="color-10"><stop offset="0" stop-color="#0069ad"/><stop offset="1" stop-color="#007ddc"/></linearGradient><linearGradient x1="245.41827" y1="144.35452" x2="245.41827" y2="145.85452" gradientUnits="userSpaceOnUse" id="color-11"><stop offset="0" stop-color="#0069ad"/><stop offset="1" stop-color="#007ddc"/></linearGradient><linearGradient x1="248.48129" y1="144.92882" x2="248.48129" y2="146.42882" gradientUnits="userSpaceOnUse" id="color-12"><stop offset="0" stop-color="#0069ad"/><stop offset="1" stop-color="#007ddc"/></linearGradient><linearGradient x1="251.92718" y1="145.40742" x2="251.92718" y2="146.90742" gradientUnits="userSpaceOnUse" id="color-13"><stop offset="0" stop-color="#0069ad"/><stop offset="1" stop-color="#007ddc"/></linearGradient><linearGradient x1="255.27736" y1="146.17317" x2="255.27736" y2="147.67317" gradientUnits="userSpaceOnUse" id="color-14"><stop offset="0" stop-color="#0069ad"/><stop offset="1" stop-color="#007ddc"/></linearGradient><linearGradient x1="258.4361" y1="147.80041" x2="258.4361" y2="149.30041" gradientUnits="userSpaceOnUse" id="color-15"><stop offset="0" stop-color="#0069ad"/><stop offset="1" stop-color="#007ddc"/></linearGradient><linearGradient x1="261.21196" y1="150.09768" x2="261.21196" y2="151.59768" gradientUnits="userSpaceOnUse" id="color-16"><stop offset="0" stop-color="#0069ad"/><stop offset="1" stop-color="#007ddc"/></linearGradient><linearGradient x1="263.22206" y1="152.58638" x2="263.22206" y2="154.08638" gradientUnits="userSpaceOnUse" id="color-17"><stop offset="0" stop-color="#0069ad"/><stop offset="1" stop-color="#007ddc"/></linearGradient><linearGradient x1="231.15609" y1="143.58876" x2="231.15609" y2="145.08876" gradientUnits="userSpaceOnUse" id="color-18"><stop offset="0" stop-color="#0069ad"/><stop offset="1" stop-color="#007ddc"/></linearGradient><linearGradient x1="228.47595" y1="143.68448" x2="228.47595" y2="145.18448" gradientUnits="userSpaceOnUse" id="color-19"><stop offset="0" stop-color="#0069ad"/><stop offset="1" stop-color="#007ddc"/></linearGradient><linearGradient x1="268.90957" y1="163.39802" x2="268.90957" y2="164.89802" gradientUnits="userSpaceOnUse" id="color-20"><stop offset="0" stop-color="#0069ad"/><stop offset="1" stop-color="#007ddc"/></linearGradient><linearGradient x1="248.97299" y1="137.24512" x2="248.97299" y2="162.32629" gradientUnits="userSpaceOnUse" id="color-21"><stop offset="0" stop-color="#0090ea"/><stop offset="1" stop-color="#0073bf"/></linearGradient><linearGradient x1="268.12028" y1="151.20129" x2="268.12028" y2="160.20129" gradientUnits="userSpaceOnUse" id="color-22"><stop offset="0" stop-color="#0083d7"/><stop offset="1" stop-color="#0078c7"/></linearGradient></defs><g transform="translate(-225.33842,-132.38241)"><g data-paper-data="{&quot;isPaintingLayer&quot;:true}" fill-rule="nonzero" stroke-linejoin="miter" stroke-miterlimit="10" stroke-dasharray="" stroke-dashoffset="0" style="mix-blend-mode: normal"><path d="M234.49528,157.875c0,0 1.05772,-5.97954 1.34381,-8.23253c0.23855,-1.87859 0.25619,-4.36747 0.25619,-4.36747l9,1.4c0,0 -2.16632,1.83841 -2.98612,3.42147c-1.05404,2.03539 -2.81388,7.77853 -2.81388,7.77853z" fill="url(#color-1)" stroke="url(#color-2)" stroke-width="1.5" stroke-linecap="butt"/><path d="M246.95824,147.27716c-13.41501,-1.59498 -21.79145,-0.50502 -20.78874,-2.57023c0.94085,-1.93781 -0.05209,-6.87788 1.20926,-8.10195c1.71814,-1.66736 16.35926,-4.04125 25.51729,-3.34938c13.55814,1.02429 18.88544,13.48403 19.77666,18.10901c1.61079,8.35914 -0.43019,14.84999 -3.32676,15.4744c-2.81296,0.60639 -4.57905,-8.12987 -8.19148,-12.81812c-3.9228,-5.09105 -9.74837,-6.21488 -14.19623,-6.74371z" fill="url(#color-3)" stroke="url(#color-4)" stroke-width="1.5" stroke-linecap="butt"/><path d="M267.50957,162.22303c-0.41421,0 -0.75,-0.33579 -0.75,-0.75c0,-0.41421 0.33579,-0.75 0.75,-0.75c0.41421,0 0.75,0.33579 0.75,0.75c0,0.41421 -0.33579,0.75 -0.75,0.75z" fill="url(#color-5)" stroke="none" stroke-width="0.5" stroke-linecap="butt"/><path d="M264.93217,156.94511c-0.41421,0 -0.75,-0.33579 -0.75,-0.75c0,-0.41421 0.33579,-0.75 0.75,-0.75c0.41421,0 0.75,0.33579 0.75,0.75c0,0.41421 -0.33579,0.75 -0.75,0.75z" fill="url(#color-6)" stroke="none" stroke-width="0.5" stroke-linecap="butt"/><path d="M242.45097,145.7588c-0.41421,0 -0.75,-0.33579 -0.75,-0.75c0,-0.41421 0.33579,-0.75 0.75,-0.75c0.41421,0 0.75,0.33579 0.75,0.75c0,0.41421 -0.33579,0.75 -0.75,0.75z" fill="url(#color-7)" stroke="none" stroke-width="0.5" stroke-linecap="butt"/><path d="M240.05799,145.47164c-0.41421,0 -0.75,-0.33579 -0.75,-0.75c0,-0.41421 0.33579,-0.75 0.75,-0.75c0.41421,0 0.75,0.33579 0.75,0.75c0,0.41421 -0.33579,0.75 -0.75,0.75z" fill="url(#color-8)" stroke="none" stroke-width="0.5" stroke-linecap="butt"/><path d="M237.18641,145.2802c-0.41421,0 -0.75,-0.33579 -0.75,-0.75c0,-0.41421 0.33579,-0.75 0.75,-0.75c0.41421,0 0.75,0.33579 0.75,0.75c0,0.41421 -0.33579,0.75 -0.75,0.75z" fill="url(#color-9)" stroke="none" stroke-width="0.5" stroke-linecap="butt"/><path d="M234.31483,145.08876c-0.41421,0 -0.75,-0.33579 -0.75,-0.75c0,-0.41421 0.33579,-0.75 0.75,-0.75c0.41421,0 0.75,0.33579 0.75,0.75c0,0.41421 -0.33579,0.75 -0.75,0.75z" fill="url(#color-10)" stroke="none" stroke-width="0.5" stroke-linecap="butt"/><path d="M245.41827,145.85452c-0.41421,0 -0.75,-0.33579 -0.75,-0.75c0,-0.41421 0.33579,-0.75 0.75,-0.75c0.41421,0 0.75,0.33579 0.75,0.75c0,0.41421 -0.33579,0.75 -0.75,0.75z" fill="url(#color-11)" stroke="none" stroke-width="0.5" stroke-linecap="butt"/><path d="M248.48129,146.42882c-0.41421,0 -0.75,-0.33579 -0.75,-0.75c0,-0.41421 0.33579,-0.75 0.75,-0.75c0.41421,0 0.75,0.33579 0.75,0.75c0,0.41421 -0.33579,0.75 -0.75,0.75z" fill="url(#color-12)" stroke="none" stroke-width="0.5" stroke-linecap="butt"/><path d="M251.92718,146.90742c-0.41421,0 -0.75,-0.33579 -0.75,-0.75c0,-0.41421 0.33579,-0.75 0.75,-0.75c0.41421,0 0.75,0.33579 0.75,0.75c0,0.41421 -0.33579,0.75 -0.75,0.75z" fill="url(#color-13)" stroke="none" stroke-width="0.5" stroke-linecap="butt"/><path d="M255.27736,147.67317c-0.41421,0 -0.75,-0.33579 -0.75,-0.75c0,-0.41421 0.33579,-0.75 0.75,-0.75c0.41421,0 0.75,0.33579 0.75,0.75c0,0.41421 -0.33579,0.75 -0.75,0.75z" fill="url(#color-14)" stroke="none" stroke-width="0.5" stroke-linecap="butt"/><path d="M258.4361,149.30041c-0.41421,0 -0.75,-0.33579 -0.75,-0.75c0,-0.41421 0.33579,-0.75 0.75,-0.75c0.41421,0 0.75,0.33579 0.75,0.75c0,0.41421 -0.33579,0.75 -0.75,0.75z" fill="url(#color-15)" stroke="none" stroke-width="0.5" stroke-linecap="butt"/><path d="M261.21196,151.59768c-0.41421,0 -0.75,-0.33579 -0.75,-0.75c0,-0.41421 0.33579,-0.75 0.75,-0.75c0.41421,0 0.75,0.33579 0.75,0.75c0,0.41421 -0.33579,0.75 -0.75,0.75z" fill="url(#color-16)" stroke="none" stroke-width="0.5" stroke-linecap="butt"/><path d="M263.22206,154.08638c-0.41421,0 -0.75,-0.33579 -0.75,-0.75c0,-0.41421 0.33579,-0.75 0.75,-0.75c0.41421,0 0.75,0.33579 0.75,0.75c0,0.41421 -0.33579,0.75 -0.75,0.75z" fill="url(#color-17)" stroke="none" stroke-width="0.5" stroke-linecap="butt"/><path d="M231.15609,145.08876c-0.41421,0 -0.75,-0.33579 -0.75,-0.75c0,-0.41421 0.33579,-0.75 0.75,-0.75c0.41421,0 0.75,0.33579 0.75,0.75c0,0.41421 -0.33579,0.75 -0.75,0.75z" fill="url(#color-18)" stroke="none" stroke-width="0.5" stroke-linecap="butt"/><path d="M228.47595,145.18448c-0.41421,0 -0.75,-0.33579 -0.75,-0.75c0,-0.41421 0.33579,-0.75 0.75,-0.75c0.41421,0 0.75,0.33579 0.75,0.75c0,0.41421 -0.33579,0.75 -0.75,0.75z" fill="url(#color-19)" stroke="none" stroke-width="0.5" stroke-linecap="butt"/><path d="M268.90957,164.89802c-0.41421,0 -0.75,-0.33579 -0.75,-0.75c0,-0.41421 0.33579,-0.75 0.75,-0.75c0.41421,0 0.75,0.33579 0.75,0.75c0,0.41421 -0.33579,0.75 -0.75,0.75z" fill="url(#color-20)" stroke="none" stroke-width="0.5" stroke-linecap="butt"/><path d="M227.50778,139.82629c0,0 22.94517,-5.73485 31.4974,-0.53996c6.83351,4.15088 9.38137,10.84335 10.44304,17.05917" fill="none" stroke="url(#color-21)" stroke-width="1" stroke-linecap="round"/><path d="M271.8341,149.79997c0,0 -0.20597,3.58778 -1.24311,5.34721c-1.25457,2.12828 -5.4411,4.47517 -5.4411,4.47517" fill="none" stroke="url(#color-22)" stroke-width="1" stroke-linecap="round"/><path d="M269.18278,160.32629c-0.41422,0 -0.75,-0.33578 -0.75,-0.75c0,-0.41422 0.33578,-0.75 0.75,-0.75c0.41422,0 0.75,0.33578 0.75,0.75c0,0.41422 -0.33578,0.75 -0.75,0.75z" fill="#006cb5" stroke="none" stroke-width="0.5" stroke-linecap="butt"/><path d="M271.05778,158.20129c-0.41422,0 -0.75,-0.33578 -0.75,-0.75c0,-0.41422 0.33578,-0.75 0.75,-0.75c0.41422,0 0.75,0.33578 0.75,0.75c0,0.41422 -0.33578,0.75 -0.75,0.75z" fill="#006cb5" stroke="none" stroke-width="0.5" stroke-linecap="butt"/><path d="M226.99317,138.45334l-0.15789,2.26316" fill="none" stroke="#0076c1" stroke-width="1" stroke-linecap="round"/><path d="M264.48212,159.49123l0.39474,0.78947" fill="none" stroke="#0061a0" stroke-width="1" stroke-linecap="round"/><path d="M272.49528,151.91228l-0.78947,-3" fill="none" stroke="#016db3" stroke-width="1" stroke-linecap="round"/><path d="M252.26683,135.21527c0,0 5.52253,0.09746 11.29127,4.13459c5.15347,3.60654 6.33373,9.61541 6.33373,9.61541" data-paper-data="{&quot;index&quot;:null}" fill="none" stroke="#ffffff" stroke-width="1" stroke-linecap="round"/></g></g></svg>