<svg version="1.1" xmlns="http://www.w3.org/2000/svg" xmlns:xlink="http://www.w3.org/1999/xlink" width="89.77442" height="94.1" viewBox="0,0,89.77442,94.1"><g transform="translate(-185.54057,-137.6)"><g data-paper-data="{&quot;isPaintingLayer&quot;:true}" fill-rule="nonzero" stroke-miterlimit="10" stroke-dasharray="" stroke-dashoffset="0" style="mix-blend-mode: normal"><g data-paper-data="{&quot;index&quot;:null}" fill="#faa51f" stroke="#8e5322" stroke-width="1.4" stroke-linecap="round" stroke-linejoin="round"><path d="M246.44057,214.3c0,0 -4.1,2.9 -6,3.2c2.7,-0.3 4.8,-1.2 4.6,3.5c-0.1,2.1 -0.3,7 -2.8,7.2c-8.1,0.2 -0.1,-4.6 -9.9,-7.6c-2.8,-1 -7.1,-4.1 1.3,-9.1"/><path d="M233.24057,220.7c1.1,0.4 2.7,1.4 4,2.1"/><path d="M241.44057,217.2c-1.3,0.2 -3.5,1 -4.1,0.9"/></g><g data-paper-data="{&quot;index&quot;:null}"><path d="M253.34057,212.7c2.5,-0.4 5.3,-1.3 7.8,-3.6c5.5,-5.1 7.3,-13.4 11.2,-11.2c3.9,2.2 3.8,15.7 -8.5,19.8c-4.3,1.5 -8.2,1.5 -11.2,1.3c-0.8,0 -7.8,-0.7 -10.2,-4.3c-2.3,-3.5 -0.7,-4.4 0.1,-4.9c0.9,-0.4 7.3,3.6 10.8,2.9z" fill="#faa51f" stroke="none" stroke-width="1" stroke-linecap="butt" stroke-linejoin="miter"/><path d="M272.14057,197.8c2,0.7 3.2,5.6 2.2,9.2c-1.1,3.6 -3,5.8 -4.3,7.1c-1.6,1.1 0.7,-3 -1.4,-4.9c-2.1,-1.8 -6.3,-1.2 -6.3,-1.2c0,0 3.2,-4.4 4.9,-6.8c1.6,-2.4 2.8,-4 4.9,-3.4z" fill="#ffffff" stroke="none" stroke-width="1" stroke-linecap="butt" stroke-linejoin="miter"/><path d="M253.34057,212.7c2.5,-0.4 5.3,-1.3 7.8,-3.6c5.5,-5.1 7.3,-13.4 11.2,-11.2c3.9,2.2 3.8,15.7 -8.5,19.8c-4.3,1.5 -8.2,1.5 -11.2,1.3c-0.8,0 -7.8,-0.7 -10.2,-4.3c-2.3,-3.5 -0.7,-4.4 0.1,-4.9c0.9,-0.4 7.3,3.6 10.8,2.9z" fill="none" stroke="#8e5322" stroke-width="1.4" stroke-linecap="round" stroke-linejoin="round"/></g><path d="M240.14057,208.6" data-paper-data="{&quot;index&quot;:null}" fill="#faa51f" stroke="#8e5322" stroke-width="1.4" stroke-linecap="round" stroke-linejoin="round"/><path d="M235.64057,192.8c6.5,-1.9 10.9,-1.3 12.8,5.1c1.9,6.4 5.5,14.8 -5.9,18.1c-11.4,3.3 -12.5,-6.6 -14.4,-13c-1.9,-6.5 1.2,-8.4 7.5,-10.2z" data-paper-data="{&quot;index&quot;:null}" fill="#faa51f" stroke="#8e5322" stroke-width="1.4" stroke-linecap="round" stroke-linejoin="round"/><path d="M228.61305,202.95952c0,0 -2.81053,3.12962 -4.55657,3.90968c-1.99947,0.64818 -11.41407,2.89811 -11.52727,-0.33558c-0.17003,-4.63553 8.48267,-6.49071 9.47733,-7.06676c1.19272,-0.69077 7.80673,-12.37139 7.80673,-12.37139" data-paper-data="{&quot;index&quot;:null}" fill="#faa51f" stroke="#8e5322" stroke-width="1.4" stroke-linecap="round" stroke-linejoin="miter"/><path d="M233.34057,198.9c3.6,-1.1 6,-0.5 7.2,3.5c1.2,4 1.8,6.3 -4.3,8.1c-6.1,1.8 -5.6,-1.5 -6.8,-5.5c-1.2,-4 0.3,-5 3.9,-6.1z" data-paper-data="{&quot;index&quot;:null}" fill="#ffffff" stroke="none" stroke-width="1" stroke-linecap="butt" stroke-linejoin="miter"/><g data-paper-data="{&quot;index&quot;:null}" stroke="#8e5322" stroke-width="1.4" stroke-linecap="round" stroke-linejoin="round"><path d="M235.24057,193.8l7.2,-3.6c8,3.3 14.6,12.5 11.3,15.9" fill="#faa51f"/><path d="M246.04057,201.6" fill="#faa51f"/><path d="M242.54057,200.7" fill="none"/><path d="M246.04057,201.6l-3.7,-3.2" fill="#faa51f"/><path d="M247.14057,201l-1.1,0.6" fill="none"/></g><g data-paper-data="{&quot;index&quot;:null}" stroke="#8e5322" stroke-width="1.4" stroke-linecap="round" stroke-linejoin="round"><path d="M228.14057,206.8" fill="#faa51f"/><path d="M230.14057,204.7" fill="none"/></g><path d="M253.74057,206.2c-7.7,4.2 -12.6,3.8 -13.9,0c-0.6,-1.6 1.4,-5.5 7.3,-5.3" data-paper-data="{&quot;index&quot;:null}" fill="#faa51f" stroke="#8e5322" stroke-width="1.4" stroke-linecap="round" stroke-linejoin="round"/><g data-paper-data="{&quot;index&quot;:null}"><g><path d="M222.14057,148.2c1.5,-0.3 4.5,-0.9 6.2,-1c4.6,-0.4 9.1,0.8 9.1,0.8l11.5,-9.7l0.1,18.4c-0.7,-0.7 11.6,11.1 6.2,22.8c-5.5,11.9 -19.4,18.5 -37.9,17.2c-18.5,-1.3 -24.1,-11.2 -23.5,-16.8c0.5,-5.6 7.1,-8.5 7.1,-8.5c0,0 -0.4,-4.3 2,-9.9c1.5,-3.4 7.1,-8.7 7.1,-8.7l1.4,-11.5l8,6.1z" fill="#faa51f" stroke="none" stroke-width="1" stroke-linecap="butt" stroke-linejoin="miter"/><path d="M201.84057,171.2l2.1,-2.3l9.1,1.5c0,0 0.4,3.3 4.7,3.7c4.2,0.3 11.1,-2.1 11.1,-2.1l7.3,0.9c0,0 8,-1.5 9.2,4.8c2,10.9 -6.6,17.3 -15.1,18.3c-5.5,0.7 -9,0.4 -13,0.2c-17.5,-1 -23.6,-10.7 -22.8,-16.3c0.5,-5.6 6.9,-8 6.9,-8z" fill="#ffffff" stroke="none" stroke-width="1" stroke-linecap="butt" stroke-linejoin="miter"/><path d="M197.54057,177.1c0,0 -4.4,-0.4 -6.7,-1c-2.7,-0.7 -4.6,-2.2 -4.6,-2.2" fill="none" stroke="#8e5322" stroke-width="1.4" stroke-linecap="round" stroke-linejoin="round"/><path d="M197.74057,182.9c0,0 -2.5,1.4 -5.2,1.9c-2.7,0.6 -4.5,0.6 -4.5,0.6" fill="none" stroke="#8e5322" stroke-width="1.4" stroke-linecap="round" stroke-linejoin="round"/><path d="M239.54057,146.3l-4.7,4.2" fill="none" stroke="#8e5322" stroke-width="1.4" stroke-linecap="round" stroke-linejoin="round"/><path d="M222.14057,148.2c1.5,-0.3 4.5,-0.9 6.2,-1c4.6,-0.4 9.1,0.8 9.1,0.8l11.5,-9.7l0.1,18.4c-0.7,-0.7 11.6,11.1 6.2,22.8c-5.5,11.9 -19.4,18.5 -37.9,17.2c-18.5,-1.3 -24.1,-11.2 -23.5,-16.8c0.5,-5.6 7.1,-8.5 7.1,-8.5c0,0 -0.4,-4.3 2,-9.9c1.5,-3.4 7.1,-8.7 7.1,-8.7l1.4,-11.5l8,6.1z" fill="none" stroke="#8e5322" stroke-width="1.4" stroke-linecap="round" stroke-linejoin="round"/><path d="M266.24057,173.4c0,0 -3.9,1.1 -5.7,1.3c-1.8,0.2 -5.3,0.4 -5.3,0.4" fill="none" stroke="#8e5322" stroke-width="1.4" stroke-linecap="round" stroke-linejoin="round"/><path d="M254.64057,171.3c0,0 1.9,-2.1 5.2,-4.4c3.6,-2.5 5.7,-3.3 5.7,-3.3" fill="none" stroke="#8e5322" stroke-width="1.4" stroke-linecap="round" stroke-linejoin="round"/></g><g><path d="M214.54057,155.4c2.8,1.3 3.4,6.3 1.1,10.9c-2.3,4.7 -6.5,7.4 -9.4,5.9c-2.8,-1.3 -3.4,-6.3 -1.1,-10.9c2.3,-4.6 6.5,-7.3 9.4,-5.9z" fill="#ffffff" stroke="#8e5322" stroke-width="1.4" stroke-linecap="round" stroke-linejoin="round"/><path d="M205.64057,164.8c0.2,-1 1,-1.7 2,-1.7c1.1,0.1 1.7,1.1 1.5,2.1c-0.2,1.2 -1.1,1.9 -2,1.7c-1.1,-0.1 -1.7,-1.1 -1.5,-2.1" fill="#414142" stroke="none" stroke-width="1" stroke-linecap="butt" stroke-linejoin="miter"/></g><g><path d="M238.84057,156.1c3.4,1.7 4.4,6.8 2.1,11.4c-2.2,4.7 -6.9,7.1 -10.3,5.4c-3.4,-1.7 -4.4,-6.8 -2.1,-11.4c2.3,-4.6 6.9,-7 10.3,-5.4z" fill="#ffffff" stroke="#8e5322" stroke-width="1.4" stroke-linecap="round" stroke-linejoin="round"/><path d="M229.34057,165.4c-0.1,-1.1 0.5,-2 1.5,-2.1c0.9,-0.1 1.8,0.7 1.9,1.7c0.1,1.1 -0.5,2 -1.5,2.1c-0.9,0.1 -1.8,-0.7 -1.9,-1.7" fill="#414142" stroke="none" stroke-width="1" stroke-linecap="butt" stroke-linejoin="miter"/></g><path d="M223.44057,172.9c0.3,1.4 -2.9,4.4 -4.9,4.5c-1.8,0.1 -3.8,-3 -3.9,-3.8c0,-1.9 2.5,-0.9 4.2,-0.9c1.5,0 4.3,-1.2 4.6,0.2z" fill="#5f4b43" stroke="#8e5322" stroke-width="1.4" stroke-linecap="round" stroke-linejoin="round"/><path d="M229.74057,186.9c0,0 -2.2,2.6 -7.7,2.2" fill="#ffffff" stroke="#8e5322" stroke-width="1.4" stroke-linecap="round" stroke-linejoin="round"/></g><g data-paper-data="{&quot;index&quot;:null}" fill="#faa51f" stroke="#8e5322" stroke-width="1.4" stroke-linecap="round" stroke-linejoin="round"><path d="M248.94057,211.4c0,0 0.5,5.3 1.2,7.8c2.7,1.8 9.1,5.8 9.5,8.4c0.3,2 -0.2,2.7 -2.1,3.4c-2.1,0.8 -11.3,1 -11.5,-1.1c-0.4,-4.5 2.8,-4.9 3.6,-5.2c0,0 -3.7,-1.6 -7.4,-4.1c-1.5,-2.2 -3.2,-6.7 -3.2,-6.7"/><path d="M249.44057,224.9c0,0 0.7,-0.3 2.2,0"/></g></g></g></svg>