<svg version="1.1" xmlns="http://www.w3.org/2000/svg" xmlns:xlink="http://www.w3.org/1999/xlink" width="48.53931" height="39.49961" viewBox="0,0,48.53931,39.49961"><defs><linearGradient x1="235.30147" y1="135.44768" x2="235.30147" y2="156.14366" gradientUnits="userSpaceOnUse" id="color-1"><stop offset="0" stop-color="#cf7b3f"/><stop offset="1" stop-color="#bc622d"/></linearGradient><linearGradient x1="215.55635" y1="149.41796" x2="215.55635" y2="173.9473" gradientUnits="userSpaceOnUse" id="color-2"><stop offset="0" stop-color="#cf7b3f"/><stop offset="1" stop-color="#c4652e"/></linearGradient></defs><g transform="translate(-209.00118,-134.94769)"><g data-paper-data="{&quot;isPaintingLayer&quot;:true}" fill-rule="nonzero" stroke="#a75215" stroke-width="1" stroke-linecap="butt" stroke-linejoin="miter" stroke-miterlimit="10" stroke-dasharray="" stroke-dashoffset="0" style="mix-blend-mode: normal"><path d="M214.51966,155.25462c0,0 -7.87388,-17.06035 21.54402,-19.77312c15.60431,-0.66335 22.76363,8.62229 20.59832,11.23819c-1.39909,1.69023 -0.93854,0.53479 -5.58179,0.4226c-2.83948,-0.06861 -6.72195,-0.05194 -11.45826,0.17995c-7.73785,0.37885 -11.91141,-1.83811 -18.43283,7.23078c-2.23597,3.10941 -6.66946,0.7016 -6.66946,0.7016z" fill="url(#color-1)"/><path d="M209.87454,172.34267c-2.05278,-10.10311 5.02863,-22.92471 5.02863,-22.92471c0,0 8.35455,2.43523 6.41674,6.12826c-0.39782,0.75815 -1.02083,3.67335 -1.36043,8.83689c-0.26916,4.09258 -2.35369,3.77653 -5.07098,5.92115c-2.71728,2.14462 -4.25947,5.75176 -5.01396,2.03841z" fill="url(#color-2)"/><path d="M227.45658,148.44813c0,0 -1.21533,-4.42316 -1.45561,-6.3856c-0.20887,-1.7059 -4.04398,-2.71374 -4.04398,-2.71374l3.7531,-1.50525c0,0 4.06603,1.29235 4.39264,3.26227c0.31142,1.87827 1.16251,6.23985 1.16251,6.23985z" fill="#b06835"/><path d="M245.54114,146.92594c0,0 -1.06069,-5.00927 -1.81725,-6.98194c-0.75655,-1.97267 -1.30274,-3.87895 -1.30274,-3.87895l1.42475,0.75698c0,0 2.64563,0.17088 3.30729,2.05489c0.70106,1.99621 1.75406,8.22979 1.75406,8.22979z" fill="#b06835"/></g></g></svg>