<svg version="1.1" xmlns="http://www.w3.org/2000/svg" xmlns:xlink="http://www.w3.org/1999/xlink" width="81.89997" height="97.59722" viewBox="0,0,81.89997,97.59722"><defs><linearGradient x1="239.35688" y1="207.38808" x2="239.35688" y2="225.06731" gradientUnits="userSpaceOnUse" id="color-1"><stop offset="0" stop-color="#1c2e52"/><stop offset="1" stop-color="#000a1d"/></linearGradient><linearGradient x1="240.13523" y1="190.24178" x2="240.13523" y2="212.03984" gradientUnits="userSpaceOnUse" id="color-2"><stop offset="0" stop-color="#5e1b00"/><stop offset="1" stop-color="#3b1f1f"/></linearGradient><linearGradient x1="225.48335" y1="148.72493" x2="225.48335" y2="165.65892" gradientUnits="userSpaceOnUse" id="color-3"><stop offset="0" stop-color="#ffa9a9"/><stop offset="1" stop-color="#ff3131"/></linearGradient><linearGradient x1="249.58335" y1="152.19971" x2="249.58335" y2="169.58996" gradientUnits="userSpaceOnUse" id="color-4"><stop offset="0" stop-color="#ffa9a9"/><stop offset="1" stop-color="#ff4242"/></linearGradient></defs><g transform="translate(-199.21671,-134.04797)"><g data-paper-data="{&quot;isPaintingLayer&quot;:true}" fill-rule="nonzero" stroke-miterlimit="10" stroke-dasharray="" stroke-dashoffset="0" style="mix-blend-mode: normal"><path d="M254.28335,204.71464c2.3,-1 4.9,-2.5 6.8,-5.3c4.2,-6.2 4,-14.7 8.3,-13.5c4.3,1.2 7.3,14.4 -3.7,21.2c-3.8,2.4 -7.6,3.3 -10.6,3.9c-0.8,0.2 -7.8,1.1 -10.9,-1.8c-3.1,-2.9 -1.7,-4.1 -1,-4.8c0.7,-0.6 7.9,1.8 11.1,0.3z" data-paper-data="{&quot;index&quot;:null}" fill="#3d773c" stroke="#1e5700" stroke-width="1" stroke-linecap="butt" stroke-linejoin="miter"/><path d="M254.11668,204.54797c2.3,-1 4.9,-2.5 6.8,-5.3c4.2,-6.2 4,-14.7 8.3,-13.5c4.3,1.2 7.3,14.4 -3.7,21.2c-3.8,2.4 -7.6,3.3 -10.6,3.9c-0.8,0.2 -7.8,1.1 -10.9,-1.8c-3.1,-2.9 -1.7,-4.1 -1,-4.8c0.7,-0.6 7.9,1.8 11.1,0.3z" data-paper-data="{&quot;index&quot;:null}" fill="#3d773c" stroke="#1e5700" stroke-width="1.4" stroke-linecap="round" stroke-linejoin="round"/><path d="M239.08335,204.81464" data-paper-data="{&quot;index&quot;:null}" fill="#3d773c" stroke="#1e5700" stroke-width="1.4" stroke-linecap="round" stroke-linejoin="round"/><path d="M239.28335,188.14797c6.7,0 10.8,1.8 10.8,8.5c0,6.7 1.1,15.7 -10.8,15.7c-11.9,0 -10.2,-9.8 -10.2,-16.5c0,-6.7 3.5,-7.7 10.2,-7.7z" data-paper-data="{&quot;index&quot;:null}" fill="#3d773c" stroke="#1e5700" stroke-width="1.4" stroke-linecap="round" stroke-linejoin="round"/><g data-paper-data="{&quot;index&quot;:null}" fill="#3d773c" stroke="#1e5700" stroke-width="1.4" stroke-linecap="round" stroke-linejoin="round"><path d="M241.08597,213.12987c0,0 -3.95083,4.15521 -4.23124,5.46793c-0.32959,1.54299 -0.29383,5.79614 -0.40022,7.57588c-0.07606,2.10814 0.35823,3.64055 -1.77603,3.76278c-2.23339,0.10918 -9.58328,0.28396 -9.35583,-2.20768c0.59627,-7.58712 4.02643,-3.00633 5.1177,-6.69538c0.58328,-2.03346 -0.15951,-3.84422 0.34765,-5.34779c0.92323,-2.7371 1.9088,-7.20915 1.9088,-7.20915"/><path d="M230.09193,222.33066c0,0 1.61242,0.01072 2.94817,0.59019"/></g><g data-paper-data="{&quot;index&quot;:null}" fill="#3d773c" stroke="#1e5700" stroke-width="1.4" stroke-linecap="round" stroke-linejoin="round"><path d="M247.33274,208.46206c0,0 0.20037,4.98282 0.56706,6.54427c0.51776,2.20469 1.51094,6.24362 2.88008,8.91779c0.92044,1.80077 0.669,2.62343 -0.90975,3.89132c-1.08627,0.89217 -3.18956,2.56342 -6.08922,3.12975c-1.73591,0.33904 -4.84251,0.20624 -5.1636,-0.51551c-2.82733,-6.85683 4.59915,-4.44198 3.67513,-8.14012c-0.23532,-0.54658 -0.83479,-3.27572 -1.76132,-5.16425c-0.86868,-1.77064 -1.9716,-7.28302 -1.9716,-7.28302"/><path d="M241.64107,224.03617c0,0 1.1689,-0.60304 2.68643,-0.79562"/></g><g data-paper-data="{&quot;index&quot;:null}" fill="#3d773c" stroke="#1e5700" stroke-width="1.4" stroke-linecap="round" stroke-linejoin="round"><path d="M249.68335,199.54797"/><path d="M246.58335,197.74797"/><path d="M246.98335,195.44797l2.7,4.1"/></g><path d="M230.86531,197.54946l-0.92308,2.84616" data-paper-data="{&quot;index&quot;:null}" fill="none" stroke="#270800" stroke-width="1.4" stroke-linecap="round" stroke-linejoin="miter"/><path d="M229.32348,198.66342c-2.22443,-0.33259 -18.52791,-1.76666 -17.49357,-6.18267c0.80347,-3.19916 10.53215,-3.11644 16.81291,-0.65026" data-paper-data="{&quot;index&quot;:null,&quot;origRot&quot;:0}" fill="#3d773c" stroke="#1e5700" stroke-width="1.4" stroke-linecap="round" stroke-linejoin="round"/><path d="M247.67353,211.67128c-0.1282,1.8933 0.2686,3.65439 0.73382,4.65347c1.1139,2.39215 1.43513,4.4045 1.15836,5.04861c-0.29703,1.48127 -4.5235,1.83082 -6.30581,2.10819c-1.24065,-0.41454 -1.71849,-2.35042 -2.94734,-4.37141c-0.88735,-1.45937 -0.35595,-3.97997 -0.81599,-3.78745c-0.26579,0.11123 -1.04346,2.09943 -1.04382,4.15391c-0.00036,2.05448 -1.64092,4.50686 -1.67044,4.87968c-0.05253,0.66354 -2.08266,0.3018 -3.43804,-0.01536c-1.90668,-0.44617 -3.50331,-1.24403 -3.60073,-2.36974c-0.04505,-0.5205 0.49824,-3.55469 0.28389,-5.61125c-0.22012,-2.11199 1.72988,-4.45007 1.56342,-5.56305c-0.435,-2.90853 3.47389,-2.47143 7.07891,-2.23036c4.7519,0.31778 9.17559,0.56705 9.00376,3.10475z" data-paper-data="{&quot;index&quot;:null}" fill="url(#color-1)" stroke="#02050a" stroke-width="1.4" stroke-linecap="butt" stroke-linejoin="miter"/><path d="M247.9555,210.31869c-2.92687,2.36849 -15.35303,2.22001 -16.80779,0c-1.78429,-2.786 -1.47585,-7.25547 -2.7854,-10.21706c-0.22371,-0.50595 -1.92545,-0.42293 -3.2822,-1.67803c-1.64655,-1.52319 -1.49027,-5.69502 -1.50543,-6.22097c-0.09108,-3.15787 4.73536,-1.96085 4.73536,-1.96085l24.38532,0.21978c0,0 2.54387,6.23595 2.07189,6.91617c-1.44179,5.9613 -3.25276,1.79051 -3.34694,3.73339c-0.06063,1.25077 -2.08546,7.52786 -3.46482,9.20758z" data-paper-data="{&quot;index&quot;:null}" fill="url(#color-2)" stroke="#270800" stroke-width="1.4" stroke-linecap="butt" stroke-linejoin="miter"/><path d="M249.70488,200.60297c-8.37535,1.94195 -17.74536,0.50064 -18.77355,-3.58213c-1.00673,-3.80015 10.60205,-2.83356 16.27419,-4.23281" data-paper-data="{&quot;index&quot;:null}" fill="#3d773c" stroke="#1e5700" stroke-width="1.4" stroke-linecap="round" stroke-linejoin="round"/><path d="M253.05244,200.62759c0,0 -2.47636,0.16834 -2.86951,-0.04881c-1.75299,-0.96826 -2.36432,-4.2547 -2.54464,-5.29965c-0.18051,-1.04606 -0.29257,-1.22241 0.44628,-2.48134c0.73885,-1.25893 2.29564,-2.19064 2.29564,-2.19064" data-paper-data="{&quot;index&quot;:null}" fill="#561c08" stroke="#270800" stroke-width="1.4" stroke-linecap="round" stroke-linejoin="miter"/><g data-paper-data="{&quot;index&quot;:null}"><path d="M239.08334,143.11464c1.5,-0.1 4.6,-0.3 6.3,-0.2c4.6,0.2 8.9,1.9 8.9,1.9l12.6,-8.2l-2.2,18.3c-0.6,-0.8 10.2,12.4 3.4,23.4c-6.9,11.1 -21.5,16 -39.7,12.4c-18.2,-3.6 -22.5,-14.1 -21.3,-19.6c1.2,-5.5 8.1,-7.6 8.1,-7.6c0,0 0.1,-4.3 3.2,-9.6c1.9,-3.2 8.1,-7.8 8.1,-7.8l2.8,-11.2l7.2,7z" data-paper-data="{&quot;index&quot;:null}" fill="#3d773c" stroke="none" stroke-width="1" stroke-linecap="butt" stroke-linejoin="miter"/><path d="M210.91671,168.64797c0,0 -4.4,-0.7 -6.6,-1.5c-2.6,-0.9 -4.4,-2.5 -4.4,-2.5" data-paper-data="{&quot;index&quot;:null}" fill="none" stroke="#1e5700" stroke-width="1.4" stroke-linecap="round" stroke-linejoin="round"/><path d="M210.41668,174.44797c0,0 -2.6,1.1 -5.4,1.3c-2.7,0.3 -4.5,0.1 -4.5,0.1" data-paper-data="{&quot;index&quot;:null}" fill="none" stroke="#1e5700" stroke-width="1.4" stroke-linecap="round" stroke-linejoin="round"/><path d="M251.21668,146.74797l5.2,-3.6" data-paper-data="{&quot;index&quot;:null}" fill="none" stroke="#1e5700" stroke-width="1.4" stroke-linecap="round" stroke-linejoin="round"/><path d="M279.61669,173.94797c0,0 -4,0.4 -5.8,0.3c-1.8,-0.1 -5.3,-0.6 -5.3,-0.6" data-paper-data="{&quot;index&quot;:null}" fill="none" stroke="#1e5700" stroke-width="1.4" stroke-linecap="round" stroke-linejoin="round"/><path d="M268.31667,169.84797c0,0 2.3,-1.7 5.9,-3.3c4,-1.8 6.2,-2.2 6.2,-2.2" data-paper-data="{&quot;index&quot;:null}" fill="none" stroke="#1e5700" stroke-width="1.4" stroke-linecap="round" stroke-linejoin="round"/><path d="M216.08335,163.41464l2.4,-2l8.8,2.6c0,0 0,3.3 4.2,4.2c4.2,0.9 11.3,-0.7 11.3,-0.7l7.1,1.8c0,0 8.1,-0.5 8.5,5.9c0.7,11.1 -8.6,16.4 -17.1,16.3c-5.5,0 -9,-0.7 -12.9,-1.4c-17.2,-3.1 -22.1,-13.5 -20.6,-19c1.2,-5.5 7.8,-7.1 7.8,-7.1z" data-paper-data="{&quot;index&quot;:null}" fill="#5a9758" stroke="none" stroke-width="1.5" stroke-linecap="butt" stroke-linejoin="miter"/><path d="M230.58335,149.31464c2.7,1.7 2.6,6.7 -0.2,11c-2.8,4.4 -7.3,6.5 -10,4.7c-2.7,-1.7 -2.6,-6.7 0.2,-11c2.8,-4.3 7.3,-6.4 10,-4.7z" data-paper-data="{&quot;index&quot;:null}" fill="url(#color-3)" stroke="#8a1f1f" stroke-width="1.4" stroke-linecap="round" stroke-linejoin="round"/><path d="M220.68336,157.61464c0.3,-1 1.2,-1.6 2.2,-1.4c1,0.3 1.5,1.3 1.2,2.3c-0.3,1.1 -1.3,1.7 -2.2,1.4c-1,-0.3 -1.5,-1.3 -1.2,-2.3" data-paper-data="{&quot;index&quot;:null}" fill="#ff0000" stroke="#d20000" stroke-width="1" stroke-linecap="butt" stroke-linejoin="miter"/><path d="M254.68335,153.01464c3.2,2.1 3.5,7.3 0.7,11.6c-2.8,4.4 -7.7,6.2 -10.9,4.1c-3.2,-2.1 -3.5,-7.3 -0.7,-11.6c2.8,-4.3 7.7,-6.1 10.9,-4.1z" data-paper-data="{&quot;index&quot;:null}" fill="url(#color-4)" stroke="#8f1111" stroke-width="1.4" stroke-linecap="round" stroke-linejoin="round"/><path d="M244.08335,161.01464c0,-1.1 0.8,-1.9 1.7,-1.9c0.9,0 1.7,0.9 1.7,1.9c0,1.1 -0.7,1.9 -1.7,1.9c-0.9,0 -1.7,-0.9 -1.7,-1.9" data-paper-data="{&quot;index&quot;:null}" fill="#ff0000" stroke="#d80000" stroke-width="1" stroke-linecap="butt" stroke-linejoin="miter"/><path d="M237.28335,167.71464c0.1,1.5 -3.4,4 -5.4,3.9c-1.8,-0.1 -3.4,-3.4 -3.4,-4.2c0.3,-1.9 2.6,-0.6 4.3,-0.4c1.5,0.2 4.4,-0.8 4.5,0.7z" data-paper-data="{&quot;index&quot;:null}" fill="#5e1b00" stroke="#270800" stroke-width="1.4" stroke-linecap="round" stroke-linejoin="round"/><path d="M228.90001,183.17005c5.91266,-2.01666 9.65,-0.13333 9.65,-0.13333" data-paper-data="{&quot;index&quot;:null}" fill="none" stroke="#1e5700" stroke-width="1.4" stroke-linecap="round" stroke-linejoin="round"/><path d="M238.91667,142.94797c1.5,-0.1 4.6,-0.3 6.3,-0.2c4.6,0.2 8.9,1.9 8.9,1.9l12.6,-8.2l-2.2,18.3c-0.6,-0.8 10.2,12.4 3.4,23.4c-6.9,11.1 -21.5,16 -39.7,12.4c-18.2,-3.6 -22.5,-14.1 -21.3,-19.6c1.2,-5.5 8.1,-7.6 8.1,-7.6c0,0 0.1,-4.3 3.2,-9.6c1.9,-3.2 8.1,-7.8 8.1,-7.8l2.8,-11.2l7.2,7z" data-paper-data="{&quot;index&quot;:null}" fill="none" stroke="#1e5700" stroke-width="1.4" stroke-linecap="round" stroke-linejoin="round"/></g></g></g></svg>