<svg version="1.1" xmlns="http://www.w3.org/2000/svg" xmlns:xlink="http://www.w3.org/1999/xlink" width="21.17514" height="18.34273" viewBox="0,0,21.17514,18.34273"><g transform="translate(-217.47727,-189.43129)"><g data-paper-data="{&quot;isPaintingLayer&quot;:true}" fill-rule="nonzero" stroke-miterlimit="10" stroke-dasharray="" stroke-dashoffset="0" style="mix-blend-mode: normal"><path d="M224.04547,196.00811c0,4.76973 5.40547,8.32446 0.90909,8.63637c-1.97143,0.13675 -6.72728,1.31518 -6.72728,-6.36364c0,-5.58792 0.16252,-8.27272 5.45454,-8.0909c0.69184,0.02377 1.34466,0.18412 1.94755,0.46204c2.50169,1.15323 -1.58391,1.51265 -1.58391,5.35614z" fill="#177fff" stroke="#004ede" stroke-width="1.5" stroke-linecap="butt" stroke-linejoin="miter"/><path d="M218.77274,199.46266v-1.27273c0,0 0.88778,0.36363 1.18182,0.36363c0.45316,0 3,-0.36363 3,-0.36363l-0.36364,1.36363c0,0 -2.03816,0.36364 -2.45454,0.36364c-0.40124,0 -1.36364,-0.45454 -1.36364,-0.45454z" fill="#0059ff" stroke="none" stroke-width="0" stroke-linecap="butt" stroke-linejoin="miter"/><path d="M223.13642,205.22147c-0.35206,-0.70412 -0.175,-2.85 -0.175,-2.85l3.5,-9.375l6.875,2.5l-8.25,11.125c0,0 -1.59377,-0.68755 -1.95,-1.4z" data-paper-data="{&quot;index&quot;:null}" fill="#faa51f" stroke="none" stroke-width="0" stroke-linecap="butt" stroke-linejoin="miter"/><g data-paper-data="{&quot;index&quot;:null}" stroke="#8e5322" stroke-width="1.4" stroke-linecap="round" stroke-linejoin="round"><g data-paper-data="{&quot;index&quot;:null}"><path d="M224.55,206.21466c-3.00451,-1.68545 -1.82037,-7.88176 1.70287,-13.19767" fill="#faa51f"/><path d="M230.65,199.71466" fill="#faa51f"/><path d="M233.75,197.91466" fill="none"/><path d="M230.65,199.71466l2.7,-4.1" fill="#faa51f"/><path d="M230.65,199.71466l-1.2,-0.3" fill="none"/></g><path d="M229.45,199.41466c5.6,-1.8 8.6,1.3 8.5,3c-0.2,4 -4.8,5.8 -13.3,3.9" data-paper-data="{&quot;index&quot;:null}" fill="#faa51f"/></g><path d="M220.87681,196.49031l0.55355,-2.77624c0,0 4.97159,-0.3482 6.83074,0.28579c2.23986,0.76381 5.6803,2.34424 5.6803,2.34424l-1.0081,1.59443c0,0 -4.2673,-0.15925 -6.13927,-1.06531c-1.66897,-0.8078 -5.91722,-0.38291 -5.91722,-0.38291z" fill="#177fff" stroke="#004ede" stroke-width="1.5" stroke-linecap="butt" stroke-linejoin="miter"/></g></g></svg>