<svg version="1.1" xmlns="http://www.w3.org/2000/svg" xmlns:xlink="http://www.w3.org/1999/xlink" width="50.09441" height="44.78862" viewBox="0,0,50.09441,44.78862"><defs><linearGradient x1="241.30003" y1="145.4" x2="241.30003" y2="159" gradientUnits="userSpaceOnUse" id="color-1"><stop offset="0" stop-color="#d7d7d7"/><stop offset="1" stop-color="#9d9d9d"/></linearGradient><linearGradient x1="247.74655" y1="133.9559" x2="247.74655" y2="179.10272" gradientUnits="userSpaceOnUse" id="color-2"><stop offset="0" stop-color="#d7d7d7"/><stop offset="1" stop-color="#9d9d9d"/></linearGradient><linearGradient x1="266.60231" y1="155.90704" x2="259.17116" y2="179.77706" gradientUnits="userSpaceOnUse" id="color-3"><stop offset="0" stop-color="#d7d7d7"/><stop offset="1" stop-color="#9d9d9d"/></linearGradient></defs><g transform="translate(-225.34317,-134.50558)"><g data-paper-data="{&quot;isPaintingLayer&quot;:true}" fill-rule="nonzero" stroke-linejoin="miter" stroke-miterlimit="10" stroke-dasharray="" stroke-dashoffset="0" style="mix-blend-mode: normal"><path d="M234.50003,158c0,0 1.05772,-5.97954 1.34381,-8.23253c0.23855,-1.87859 0.25619,-4.36747 0.25619,-4.36747l9,1.4c0,0 -2.16632,1.83841 -2.98612,3.42147c-1.05404,2.03539 -2.81388,7.77853 -2.81388,7.77853z" data-paper-data="{&quot;index&quot;:null}" fill="url(#color-1)" stroke="#7b8083" stroke-width="1.5" stroke-linecap="butt"/><path d="M246.96299,147.27717c-13.41501,-1.59498 -21.79145,-0.50502 -20.78874,-2.57023c4.58629,-9.44602 13.12184,-9.44137 24.22655,-9.45134c10.47048,-0.0094 20.21779,5.42454 22.27666,16.10901c1.61079,8.35914 -0.43019,14.84999 -3.32676,15.4744c-2.81296,0.60639 -4.57905,-8.12987 -8.19148,-12.81812c-3.9228,-5.09105 -9.74837,-6.21488 -14.19623,-6.74371z" data-paper-data="{&quot;index&quot;:null}" fill="url(#color-2)" stroke="#7b8083" stroke-width="1.5" stroke-linecap="butt"/><path d="M272.61711,175.41307c-0.538,1.0553 -12.01736,1.45724 -12.01736,1.45724c0,0 4.66191,-7.17683 4.78734,-11.18361c0.13183,-4.21169 -2.90343,-9.31789 -2.90343,-9.31789c0,0 2.88703,-3.13546 5.54911,-1.99734c1.77221,0.75768 4.06183,2.03279 4.39382,3.34876c1.42701,5.65662 2.15873,13.83214 0.19051,17.69285z" data-paper-data="{&quot;index&quot;:null}" fill="url(#color-3)" stroke="#7b8083" stroke-width="1.5" stroke-linecap="butt"/><path d="M270.21432,158.29803c-0.41421,0 -0.75,-0.33579 -0.75,-0.75c0,-0.41421 0.33579,-0.75 0.75,-0.75c0.41421,0 0.75,0.33579 0.75,0.75c0,0.41421 -0.33579,0.75 -0.75,0.75z" data-paper-data="{&quot;index&quot;:null}" fill="#9b9b9b" stroke="none" stroke-width="0.5" stroke-linecap="butt"/><path d="M267.82133,157.05368c-0.41421,0 -0.75,-0.33579 -0.75,-0.75c0,-0.41421 0.33579,-0.75 0.75,-0.75c0.41421,0 0.75,0.33579 0.75,0.75c0,0.41421 -0.33579,0.75 -0.75,0.75z" data-paper-data="{&quot;index&quot;:null}" fill="#9b9b9b" stroke="none" stroke-width="0.5" stroke-linecap="butt"/><path d="M265.23692,157.24512c-0.41421,0 -0.75,-0.33579 -0.75,-0.75c0,-0.41421 0.33579,-0.75 0.75,-0.75c0.41421,0 0.75,0.33579 0.75,0.75c0,0.41421 -0.33579,0.75 -0.75,0.75z" data-paper-data="{&quot;index&quot;:null}" fill="#9b9b9b" stroke="none" stroke-width="0.5" stroke-linecap="butt"/><path d="M242.45572,145.7588c-0.41421,0 -0.75,-0.33579 -0.75,-0.75c0,-0.41421 0.33579,-0.75 0.75,-0.75c0.41421,0 0.75,0.33579 0.75,0.75c0,0.41421 -0.33579,0.75 -0.75,0.75z" data-paper-data="{&quot;index&quot;:null}" fill="#9b9b9b" stroke="none" stroke-width="0.5" stroke-linecap="butt"/><path d="M240.06274,145.47164c-0.41421,0 -0.75,-0.33579 -0.75,-0.75c0,-0.41421 0.33579,-0.75 0.75,-0.75c0.41421,0 0.75,0.33579 0.75,0.75c0,0.41421 -0.33579,0.75 -0.75,0.75z" data-paper-data="{&quot;index&quot;:null}" fill="#9b9b9b" stroke="none" stroke-width="0.5" stroke-linecap="butt"/><path d="M237.19116,145.2802c-0.41421,0 -0.75,-0.33579 -0.75,-0.75c0,-0.41421 0.33579,-0.75 0.75,-0.75c0.41421,0 0.75,0.33579 0.75,0.75c0,0.41421 -0.33579,0.75 -0.75,0.75z" data-paper-data="{&quot;index&quot;:null}" fill="#9b9b9b" stroke="none" stroke-width="0.5" stroke-linecap="butt"/><path d="M234.31958,145.08876c-0.41421,0 -0.75,-0.33579 -0.75,-0.75c0,-0.41421 0.33579,-0.75 0.75,-0.75c0.41421,0 0.75,0.33579 0.75,0.75c0,0.41421 -0.33579,0.75 -0.75,0.75z" data-paper-data="{&quot;index&quot;:null}" fill="#9b9b9b" stroke="none" stroke-width="0.5" stroke-linecap="butt"/><path d="M245.42302,145.85452c-0.41421,0 -0.75,-0.33579 -0.75,-0.75c0,-0.41421 0.33579,-0.75 0.75,-0.75c0.41421,0 0.75,0.33579 0.75,0.75c0,0.41421 -0.33579,0.75 -0.75,0.75z" data-paper-data="{&quot;index&quot;:null}" fill="#9b9b9b" stroke="none" stroke-width="0.5" stroke-linecap="butt"/><path d="M248.48604,146.42883c-0.41421,0 -0.75,-0.33579 -0.75,-0.75c0,-0.41421 0.33579,-0.75 0.75,-0.75c0.41421,0 0.75,0.33579 0.75,0.75c0,0.41421 -0.33579,0.75 -0.75,0.75z" data-paper-data="{&quot;index&quot;:null}" fill="#9b9b9b" stroke="none" stroke-width="0.5" stroke-linecap="butt"/><path d="M251.93193,146.90743c-0.41421,0 -0.75,-0.33579 -0.75,-0.75c0,-0.41421 0.33579,-0.75 0.75,-0.75c0.41421,0 0.75,0.33579 0.75,0.75c0,0.41421 -0.33579,0.75 -0.75,0.75z" data-paper-data="{&quot;index&quot;:null}" fill="#9b9b9b" stroke="none" stroke-width="0.5" stroke-linecap="butt"/><path d="M255.28211,147.67318c-0.41421,0 -0.75,-0.33579 -0.75,-0.75c0,-0.41421 0.33579,-0.75 0.75,-0.75c0.41421,0 0.75,0.33579 0.75,0.75c0,0.41421 -0.33579,0.75 -0.75,0.75z" data-paper-data="{&quot;index&quot;:null}" fill="#9b9b9b" stroke="none" stroke-width="0.5" stroke-linecap="butt"/><path d="M258.44084,149.30041c-0.41421,0 -0.75,-0.33579 -0.75,-0.75c0,-0.41421 0.33579,-0.75 0.75,-0.75c0.41421,0 0.75,0.33579 0.75,0.75c0,0.41421 -0.33579,0.75 -0.75,0.75z" data-paper-data="{&quot;index&quot;:null}" fill="#9b9b9b" stroke="none" stroke-width="0.5" stroke-linecap="butt"/><path d="M261.21671,151.59768c-0.41421,0 -0.75,-0.33579 -0.75,-0.75c0,-0.41421 0.33579,-0.75 0.75,-0.75c0.41421,0 0.75,0.33579 0.75,0.75c0,0.41421 -0.33579,0.75 -0.75,0.75z" data-paper-data="{&quot;index&quot;:null}" fill="#9b9b9b" stroke="none" stroke-width="0.5" stroke-linecap="butt"/><path d="M263.22681,154.08638c-0.41421,0 -0.75,-0.33579 -0.75,-0.75c0,-0.41421 0.33579,-0.75 0.75,-0.75c0.41421,0 0.75,0.33579 0.75,0.75c0,0.41421 -0.33579,0.75 -0.75,0.75z" data-paper-data="{&quot;index&quot;:null}" fill="#9b9b9b" stroke="none" stroke-width="0.5" stroke-linecap="butt"/><path d="M231.16084,145.08876c-0.41421,0 -0.75,-0.33579 -0.75,-0.75c0,-0.41421 0.33579,-0.75 0.75,-0.75c0.41421,0 0.75,0.33579 0.75,0.75c0,0.41421 -0.33579,0.75 -0.75,0.75z" data-paper-data="{&quot;index&quot;:null}" fill="#9b9b9b" stroke="none" stroke-width="0.5" stroke-linecap="butt"/><path d="M228.4807,145.18448c-0.41421,0 -0.75,-0.33579 -0.75,-0.75c0,-0.41421 0.33579,-0.75 0.75,-0.75c0.41421,0 0.75,0.33579 0.75,0.75c0,0.41421 -0.33579,0.75 -0.75,0.75z" data-paper-data="{&quot;index&quot;:null}" fill="#9b9b9b" stroke="none" stroke-width="0.5" stroke-linecap="butt"/><path d="M253.01041,137.21528c0,0 5.52253,0.09746 11.29128,4.13459c5.15347,3.60654 6.33373,9.61541 6.33373,9.61541" data-paper-data="{&quot;index&quot;:null}" fill="none" stroke="#ffffff" stroke-width="1" stroke-linecap="round"/></g></g></svg>