<svg version="1.1" xmlns="http://www.w3.org/2000/svg" xmlns:xlink="http://www.w3.org/1999/xlink" width="81.89998" height="97.91399" viewBox="0,0,81.89998,97.91399"><defs><linearGradient x1="240.97651" y1="207.28292" x2="240.97651" y2="224.96215" gradientUnits="userSpaceOnUse" id="color-1"><stop offset="0" stop-color="#1c2e52"/><stop offset="1" stop-color="#000a1d"/></linearGradient><linearGradient x1="240.0697" y1="190.24178" x2="240.0697" y2="212.03984" gradientUnits="userSpaceOnUse" id="color-2"><stop offset="0" stop-color="#5e1b00"/><stop offset="1" stop-color="#3b1f1f"/></linearGradient><linearGradient x1="254.85004" y1="148.72493" x2="254.85004" y2="165.65892" gradientUnits="userSpaceOnUse" id="color-3"><stop offset="0" stop-color="#ffa9a9"/><stop offset="1" stop-color="#ff3131"/></linearGradient><linearGradient x1="230.75004" y1="152.19971" x2="230.75004" y2="169.58996" gradientUnits="userSpaceOnUse" id="color-4"><stop offset="0" stop-color="#ffa9a9"/><stop offset="1" stop-color="#ff4242"/></linearGradient></defs><g transform="translate(-199.21671,-134.04797)"><g data-paper-data="{&quot;isPaintingLayer&quot;:true}" fill-rule="nonzero" stroke-miterlimit="10" stroke-dasharray="" stroke-dashoffset="0" style="mix-blend-mode: normal"><path d="M237.15004,204.41464c0.7,0.7 2.1,1.9 -1,4.8c-3.1,2.9 -10.1,2 -10.9,1.8c-3,-0.6 -6.8,-1.5 -10.6,-3.9c-11,-6.8 -8,-20 -3.7,-21.2c4.3,-1.2 4.1,7.3 8.3,13.5c1.9,2.8 4.5,4.3 6.8,5.3c3.2,1.5 10.4,-0.9 11.1,-0.3z" data-paper-data="{&quot;index&quot;:null}" fill="#3d773c" stroke="#1e5700" stroke-width="1" stroke-linecap="butt" stroke-linejoin="miter"/><path d="M237.31671,204.24797c0.7,0.7 2.1,1.9 -1,4.8c-3.1,2.9 -10.1,2 -10.9,1.8c-3,-0.6 -6.8,-1.5 -10.6,-3.9c-11,-6.8 -8,-20 -3.7,-21.2c4.3,-1.2 4.1,7.3 8.3,13.5c1.9,2.8 4.5,4.3 6.8,5.3c3.2,1.5 10.4,-0.9 11.1,-0.3z" data-paper-data="{&quot;index&quot;:null}" fill="#3d773c" stroke="#1e5700" stroke-width="1.4" stroke-linecap="round" stroke-linejoin="round"/><path d="M241.25004,204.81464" data-paper-data="{&quot;index&quot;:null}" fill="#3d773c" stroke="#1e5700" stroke-width="1.4" stroke-linecap="round" stroke-linejoin="round"/><path d="M249.99775,195.84797c0,6.7 1.50523,16.5 -9.03139,16.5c-10.53662,0 -9.56265,-9 -9.56265,-15.7c0,-6.7 3.63026,-8.5 9.56265,-8.5c5.93238,0 9.03139,1 9.03139,7.7z" data-paper-data="{&quot;index&quot;:null}" fill="#3d773c" stroke="#1e5700" stroke-width="1.4" stroke-linecap="round" stroke-linejoin="round"/><g data-paper-data="{&quot;index&quot;:null}" fill="#3d773c" stroke="#1e5700" stroke-width="1.4" stroke-linecap="round" stroke-linejoin="round"><path d="M242.08652,211.23265c0,0 -1.48291,4.73345 -2.7974,7.30564c-0.72209,1.41299 -2.53692,2.14578 -3.58514,3.98327c-1.87855,3.35724 3.79567,2.61369 -1.21875,8.33868c-1.62467,1.90275 -6.63208,-3.4803 -8.11354,-5.15519c-1.40289,-1.61304 -0.00273,-2.37228 1.45314,-3.89886c1.19963,-1.31896 4.26898,-4.2634 5.14328,-5.57681c0.74383,-1.1174 0.72233,-5.73448 0.72233,-5.73448"/><path d="M232.53751,221.97872c1.34755,0.55147 2.4812,1.69814 2.4812,1.69814"/></g><g data-paper-data="{&quot;index&quot;:null}" fill="#3d773c" stroke="#1e5700" stroke-width="1.4" stroke-linecap="round" stroke-linejoin="round"><path d="M247.41921,209.86798c0,0 1.79295,5.52364 1.61633,7.48798c-0.18838,2.09511 -0.61786,4.87579 -0.64173,5.47038c0.46232,3.78369 6.53056,-1.13166 6.34765,6.28295c-0.10996,2.10663 -9.31009,2.30047 -11.4424,1.59106c-1.92821,-0.61806 -2.45771,-1.29602 -2.24356,-3.30703c0.32012,-2.98718 0.96003,-7.17748 0.6535,-9.42131c-0.2171,-1.58917 -1.60942,-6.46854 -1.60942,-6.46854"/><path d="M246.83459,224.44334c1.48579,-0.36391 2.79315,-0.21972 2.79315,-0.21972"/></g><g data-paper-data="{&quot;index&quot;:null}" fill="#3d773c" stroke="#1e5700" stroke-width="1.4" stroke-linecap="round" stroke-linejoin="round"><path d="M230.65004,199.54797"/><path d="M233.75004,197.74797"/><path d="M233.35004,195.44797l-2.7,4.1"/></g><path d="M249.46808,197.54946l0.92308,2.84616" data-paper-data="{&quot;index&quot;:null}" fill="none" stroke="#270800" stroke-width="1.4" stroke-linecap="round" stroke-linejoin="miter"/><path d="M250.8493,192.04081c6.28076,-2.46618 16.00944,-2.5489 16.81291,0.65026c1.03434,4.41601 -15.26914,5.85008 -17.49357,6.18267" data-paper-data="{&quot;index&quot;:null,&quot;origRot&quot;:0}" fill="#3d773c" stroke="#1e5700" stroke-width="1.4" stroke-linecap="round" stroke-linejoin="round"/><path d="M232.65987,211.56611c-0.17183,-2.5377 4.25186,-2.78697 9.00376,-3.10475c3.60502,-0.24107 6.88296,0.05794 6.44796,2.96647c-0.16646,1.11298 1.36291,3.13558 1.14279,5.24757c-0.21435,2.05656 -0.61749,5.7217 -0.66254,6.2422c-0.09742,1.12571 -2.21984,1.18746 -4.12652,1.63363c-1.35538,0.31716 -3.07003,0.36342 -3.12256,-0.30012c-0.02952,-0.37282 0.53825,-2.8252 0.53789,-4.87968c-0.00036,-2.05448 -0.77803,-4.04268 -1.04382,-4.15391c-0.46004,-0.19252 -0.76991,2.64356 -1.65726,4.10293c-1.22885,2.02099 -3.91502,4.27235 -4.62988,4.16109c-1.78231,-0.27737 -4.85204,-1.25787 -5.14907,-2.73914c-0.27677,-1.38022 1.83216,-1.92035 2.94606,-4.3125c0.46522,-0.99908 0.44139,-2.97049 0.31319,-4.86379z" data-paper-data="{&quot;index&quot;:null}" fill="url(#color-1)" stroke="#02050a" stroke-width="1.4" stroke-linecap="butt" stroke-linejoin="miter"/><path d="M232.9336,210.3187c-1.25868,-1.67972 -3.10637,-7.95681 -3.1617,-9.20758c-0.08594,-1.94288 -1.73848,2.22791 -3.05413,-3.73339c-0.43069,-0.68022 1.89063,-6.91617 1.89063,-6.91617l22.25195,-0.21978c0,0 4.40419,-1.19702 4.32108,1.96085c-0.01384,0.52595 0.12877,4.69778 -1.37372,6.22097c-1.23805,1.2551 -2.79091,1.17208 -2.99506,1.67803c-1.19498,2.96159 -0.91353,7.43106 -2.54172,10.21706c-1.32749,2.22001 -12.66654,2.36849 -15.33735,0z" data-paper-data="{&quot;index&quot;:null}" fill="url(#color-2)" stroke="#270800" stroke-width="1.4" stroke-linecap="butt" stroke-linejoin="miter"/><path d="M234.8104,192.78803c5.67214,1.39925 17.28092,0.43266 16.27419,4.23281c-1.02819,4.08277 -10.3982,5.52408 -18.77355,3.58213" data-paper-data="{&quot;index&quot;:null}" fill="#3d773c" stroke="#1e5700" stroke-width="1.4" stroke-linecap="round" stroke-linejoin="round"/><path d="M231.63571,190.60715c0,0 1.55679,0.93171 2.29564,2.19064c0.73885,1.25893 0.62679,1.43528 0.44628,2.48134c-0.18032,1.04495 -0.79165,4.33139 -2.54464,5.29965c-0.39315,0.21715 -2.86951,0.04881 -2.86951,0.04881" data-paper-data="{&quot;index&quot;:null}" fill="#561c08" stroke="#270800" stroke-width="1.4" stroke-linecap="round" stroke-linejoin="miter"/><g><path d="M243.85004,141.91464l7.2,-7l2.8,11.2c0,0 6.2,4.6 8.1,7.8c3.1,5.3 3.2,9.6 3.2,9.6c0,0 6.9,2.1 8.1,7.6c1.2,5.5 -3.1,16 -21.3,19.6c-18.2,3.6 -32.8,-1.3 -39.7,-12.4c-6.8,-11 4,-24.2 3.4,-23.4l-2.2,-18.3l12.6,8.2c0,0 4.3,-1.7 8.9,-1.9c1.7,-0.1 4.8,0.1 6.3,0.2z" data-paper-data="{&quot;index&quot;:null}" fill="#3d773c" stroke="none" stroke-width="1" stroke-linecap="butt" stroke-linejoin="miter"/><path d="M280.41669,164.64797c0,0 -1.8,1.6 -4.4,2.5c-2.2,0.8 -6.6,1.5 -6.6,1.5" data-paper-data="{&quot;index&quot;:null}" fill="none" stroke="#1e5700" stroke-width="1.4" stroke-linecap="round" stroke-linejoin="round"/><path d="M279.81671,175.84797c0,0 -1.8,0.2 -4.5,-0.1c-2.8,-0.2 -5.4,-1.3 -5.4,-1.3" data-paper-data="{&quot;index&quot;:null}" fill="none" stroke="#1e5700" stroke-width="1.4" stroke-linecap="round" stroke-linejoin="round"/><path d="M229.11671,146.74797l-5.2,-3.6" data-paper-data="{&quot;index&quot;:null}" fill="none" stroke="#1e5700" stroke-width="1.4" stroke-linecap="round" stroke-linejoin="round"/><path d="M211.8167,173.64797c0,0 -3.5,0.5 -5.3,0.6c-1.8,0.1 -5.8,-0.3 -5.8,-0.3" data-paper-data="{&quot;index&quot;:null}" fill="none" stroke="#1e5700" stroke-width="1.4" stroke-linecap="round" stroke-linejoin="round"/><path d="M199.91671,164.34797c0,0 2.2,0.4 6.2,2.2c3.6,1.6 5.9,3.3 5.9,3.3" data-paper-data="{&quot;index&quot;:null}" fill="none" stroke="#1e5700" stroke-width="1.4" stroke-linecap="round" stroke-linejoin="round"/><path d="M264.75004,164.01464c0,0 6.6,1.6 7.8,7.1c1.5,5.5 -3.4,15.9 -20.6,19c-3.9,0.7 -7.4,1.4 -12.9,1.4c-8.5,0.1 -17.8,-5.2 -17.1,-16.3c0.4,-6.4 8.5,-5.9 8.5,-5.9l7.1,-1.8c0,0 7.1,1.6 11.3,0.7c4.2,-0.9 4.2,-4.2 4.2,-4.2l8.8,-2.6l2.4,2z" data-paper-data="{&quot;index&quot;:null}" fill="#5a9758" stroke="none" stroke-width="1.5" stroke-linecap="butt" stroke-linejoin="miter"/><path d="M259.75004,154.01464c2.8,4.3 2.9,9.3 0.2,11c-2.7,1.8 -7.2,-0.3 -10,-4.7c-2.8,-4.3 -2.9,-9.3 -0.2,-11c2.7,-1.7 7.2,0.4 10,4.7z" data-paper-data="{&quot;index&quot;:null}" fill="url(#color-3)" stroke="#8a1f1f" stroke-width="1.4" stroke-linecap="round" stroke-linejoin="round"/><path d="M259.65003,157.61464c0.3,1 -0.2,2 -1.2,2.3c-0.9,0.3 -1.9,-0.3 -2.2,-1.4c-0.3,-1 0.2,-2 1.2,-2.3c1,-0.2 1.9,0.4 2.2,1.4" data-paper-data="{&quot;index&quot;:null}" fill="#ff0000" stroke="#d20000" stroke-width="1" stroke-linecap="butt" stroke-linejoin="miter"/><path d="M236.55004,157.11464c2.8,4.3 2.5,9.5 -0.7,11.6c-3.2,2.1 -8.1,0.3 -10.9,-4.1c-2.8,-4.3 -2.5,-9.5 0.7,-11.6c3.2,-2 8.1,-0.2 10.9,4.1z" data-paper-data="{&quot;index&quot;:null}" fill="url(#color-4)" stroke="#8f1111" stroke-width="1.4" stroke-linecap="round" stroke-linejoin="round"/><path d="M236.25004,161.01464c0,1 -0.8,1.9 -1.7,1.9c-1,0 -1.7,-0.8 -1.7,-1.9c0,-1 0.8,-1.9 1.7,-1.9c0.9,0 1.7,0.8 1.7,1.9" data-paper-data="{&quot;index&quot;:null}" fill="#ff0000" stroke="#d80000" stroke-width="1" stroke-linecap="butt" stroke-linejoin="miter"/><path d="M247.55004,167.01464c1.7,-0.2 4,-1.5 4.3,0.4c0,0.8 -1.6,4.1 -3.4,4.2c-2,0.1 -5.5,-2.4 -5.4,-3.9c0.1,-1.5 3,-0.5 4.5,-0.7z" data-paper-data="{&quot;index&quot;:null}" fill="#5e1b00" stroke="#270800" stroke-width="1.4" stroke-linecap="round" stroke-linejoin="round"/><path d="M241.78338,183.03672c0,0 3.73734,-1.88333 9.65,0.13333" data-paper-data="{&quot;index&quot;:null}" fill="none" stroke="#1e5700" stroke-width="1.4" stroke-linecap="round" stroke-linejoin="round"/><path d="M244.01671,141.74797l7.2,-7l2.8,11.2c0,0 6.2,4.6 8.1,7.8c3.1,5.3 3.2,9.6 3.2,9.6c0,0 6.9,2.1 8.1,7.6c1.2,5.5 -3.1,16 -21.3,19.6c-18.2,3.6 -32.8,-1.3 -39.7,-12.4c-6.8,-11 4,-24.2 3.4,-23.4l-2.2,-18.3l12.6,8.2c0,0 4.3,-1.7 8.9,-1.9c1.7,-0.1 4.8,0.1 6.3,0.2z" data-paper-data="{&quot;index&quot;:null}" fill="none" stroke="#1e5700" stroke-width="1.4" stroke-linecap="round" stroke-linejoin="round"/></g></g></g></svg>