<svg version="1.1" xmlns="http://www.w3.org/2000/svg" xmlns:xlink="http://www.w3.org/1999/xlink" width="90.21522" height="91.6" viewBox="0,0,90.21522,91.6"><g transform="translate(-186.69929,-135.6)"><g data-paper-data="{&quot;isPaintingLayer&quot;:true}" fill-rule="nonzero" stroke-miterlimit="10" stroke-dasharray="" stroke-dashoffset="0" style="mix-blend-mode: normal"><path d="M232.69999,200.9672c0,0 -4.13875,5.12193 -5.88479,5.90199c-1.99947,0.64818 -11.41407,2.89811 -11.52727,-0.33558c-0.17003,-4.63553 8.48267,-6.49071 9.47733,-7.06676c1.19271,-0.69076 4.4862,-7.50128 4.4862,-7.50128" data-paper-data="{&quot;index&quot;:null}" fill="#faa51f" stroke="#8e5322" stroke-width="1.4" stroke-linecap="round" stroke-linejoin="miter"/><g data-paper-data="{&quot;index&quot;:null}" fill="#faa51f" stroke="#8e5322" stroke-width="1.4" stroke-linecap="round" stroke-linejoin="round"><path d="M241.09929,212.4c0,0 -12.6,1.9 -18.4,6.5c-1.6,1.3 -2.4,1.2 -4,-0.1c-1.7,-1.4 -6.5,-9.3 -4.8,-10.5c6.1,-4.2 6,4.1 9.4,2.5c8,-3.8 10.6,-5.7 10.6,-5.7"/><path d="M220.69929,210c0,0 0.8,1 1.3,2.5"/></g><path d="M241.59929,204.6" data-paper-data="{&quot;index&quot;:null}" fill="#faa51f" stroke="#8e5322" stroke-width="1.4" stroke-linecap="round" stroke-linejoin="round"/><g data-paper-data="{&quot;index&quot;:null}"><path d="M253.79929,209.4c2.5,-0.1 5.5,-0.6 8.2,-2.5c6.1,-4.3 9,-12.3 12.6,-9.6c3.6,2.7 1.7,16.1 -11,18.5c-4.4,0.9 -8.3,0.4 -11.3,-0.1c-0.8,-0.1 -7.7,-1.8 -9.5,-5.6c-1.9,-3.8 -0.1,-4.4 0.8,-4.8c0.8,-0.5 6.7,4.3 10.2,4.1z" fill="#faa51f" stroke="none" stroke-width="1" stroke-linecap="butt" stroke-linejoin="miter"/><path d="M274.49929,197.1c1.9,0.9 2.4,6 1,9.4c-1.5,3.4 -3.7,5.3 -5.2,6.5c-1.7,0.8 1.1,-2.9 -0.8,-5c-1.9,-2.1 -6.1,-2 -6.1,-2c0,0 3.7,-3.9 5.8,-6.1c1.8,-2.2 3.2,-3.6 5.3,-2.8z" fill="#ffffff" stroke="none" stroke-width="1" stroke-linecap="butt" stroke-linejoin="miter"/><path d="M253.79929,209.4c2.5,-0.1 5.5,-0.6 8.2,-2.5c6.1,-4.3 9,-12.3 12.6,-9.6c3.6,2.7 1.7,16.1 -11,18.5c-4.4,0.9 -8.3,0.4 -11.3,-0.1c-0.8,-0.1 -7.7,-1.8 -9.5,-5.6c-1.9,-3.8 -0.1,-4.4 0.8,-4.8c0.8,-0.5 6.7,4.3 10.2,4.1z" fill="none" stroke="#8e5322" stroke-width="1.4" stroke-linecap="round" stroke-linejoin="round"/></g><path d="M237.09929,188.7c6.5,-1.9 10.9,-1.3 12.8,5.1c1.9,6.4 5.5,14.7 -5.9,18.1c-11.4,3.3 -12.5,-6.6 -14.4,-13c-1.9,-6.4 1.2,-8.3 7.5,-10.2z" data-paper-data="{&quot;index&quot;:null}" fill="#faa51f" stroke="#8e5322" stroke-width="1.4" stroke-linecap="round" stroke-linejoin="round"/><g data-paper-data="{&quot;index&quot;:null}" stroke="#8e5322" stroke-width="1.4" stroke-linecap="round" stroke-linejoin="round"><path d="M236.69929,189.7l7.2,-3.6c8,3.3 14.6,12.5 11.3,15.9" fill="#faa51f"/><path d="M247.49929,197.5" fill="#faa51f"/><path d="M243.99929,196.7" fill="none"/><path d="M247.49929,197.5l-3.7,-3.2" fill="#faa51f"/><path d="M248.59929,196.9l-1.1,0.6" fill="none"/></g><g data-paper-data="{&quot;index&quot;:null}" stroke="#8e5322" stroke-width="1.4" stroke-linecap="round" stroke-linejoin="round"><path d="M229.59929,202.8" fill="#faa51f"/><path d="M231.59929,200.6" fill="none"/></g><path d="M236.49929,194.9c3.6,-1.1 6,-0.6 7.2,3.5c1.2,4.1 3.2,9.4 -2.9,11.2c-6.1,1.8 -7,-4.5 -8.2,-8.5c-1.1,-4 0.4,-5.1 3.9,-6.2z" data-paper-data="{&quot;index&quot;:null}" fill="#ffffff" stroke="none" stroke-width="1" stroke-linecap="butt" stroke-linejoin="miter"/><g data-paper-data="{&quot;index&quot;:null}" fill="#faa51f" stroke="#8e5322" stroke-width="1.4" stroke-linecap="round" stroke-linejoin="round"><path d="M248.59929,202.9c0,0 10,9.1 17.1,11.1c1.9,0.5 1.9,0.5 2.2,3.3c0.1,6.1 0.7,9.2 -2.8,9.2c-5,-0.5 -3.1,-6.5 -6.4,-8.3c-7.7,-4.3 -15.9,-7 -15.9,-7"/><path d="M260.09929,219.8"/></g><path d="M255.19929,201.97863c-7.7,4.2 -12.6,3.8 -13.9,0c-0.6,-1.6 1.4,-5.5 7.3,-5.3" data-paper-data="{&quot;index&quot;:null}" fill="#faa51f" stroke="#8e5322" stroke-width="1.4" stroke-linecap="round" stroke-linejoin="round"/><g data-paper-data="{&quot;index&quot;:null}"><g><path d="M223.59929,146.2c1.5,-0.3 4.5,-0.9 6.2,-1c4.6,-0.4 9.1,0.8 9.1,0.8l11.5,-9.7l0.1,18.4c-0.7,-0.7 11.6,11.1 6.2,22.8c-5.5,11.9 -19.4,18.5 -37.9,17.2c-18.5,-1.3 -24.1,-11.2 -23.5,-16.8c0.6,-5.6 7.1,-8.5 7.1,-8.5c0,0 -0.4,-4.3 2,-9.9c1.5,-3.4 7.1,-8.7 7.1,-8.7l1.4,-11.5l8,6.1z" fill="#faa51f" stroke="none" stroke-width="1" stroke-linecap="butt" stroke-linejoin="miter"/><path d="M203.29929,169.1l2.1,-2.3l9.1,1.5c0,0 0.4,3.3 4.7,3.7c4.3,0.4 11.1,-2.1 11.1,-2.1l7.3,0.9c0,0 8,-1.5 9.2,4.8c2,11 -6.6,17.4 -15.1,18.3c-5.5,0.7 -9,0.4 -13,0.2c-17.4,-1 -23.6,-10.7 -22.8,-16.3c0.5,-5.6 6.9,-8 6.9,-8z" fill="#ffffff" stroke="none" stroke-width="1" stroke-linecap="butt" stroke-linejoin="miter"/><path d="M198.99929,175.1c0,0 -4.4,0.7 -6.7,0.6c-2.8,-0.1 -4.9,-1.1 -4.9,-1.1" fill="none" stroke="#8e5322" stroke-width="1.4" stroke-linecap="round" stroke-linejoin="round"/><path d="M199.1993,180.9c0,0 -2.2,1.8 -4.8,2.8c-2.5,1.1 -4.3,1.4 -4.3,1.4" fill="none" stroke="#8e5322" stroke-width="1.4" stroke-linecap="round" stroke-linejoin="round"/><path d="M240.99929,144.2l-4.7,4.2" fill="none" stroke="#8e5322" stroke-width="1.4" stroke-linecap="round" stroke-linejoin="round"/><path d="M223.59929,146.2c1.5,-0.3 4.5,-0.9 6.2,-1c4.6,-0.4 9.1,0.8 9.1,0.8l11.5,-9.7l0.1,18.4c-0.7,-0.7 11.6,11.1 6.2,22.8c-5.5,11.9 -19.4,18.5 -37.9,17.2c-18.5,-1.3 -24.1,-11.2 -23.5,-16.8c0.6,-5.6 7.1,-8.5 7.1,-8.5c0,0 -0.4,-4.3 2,-9.9c1.5,-3.4 7.1,-8.7 7.1,-8.7l1.4,-11.5l8,6.1z" fill="none" stroke="#8e5322" stroke-width="1.4" stroke-linecap="round" stroke-linejoin="round"/><path d="M267.79929,174.4c0,0 -4,0 -5.8,-0.3c-1.8,-0.3 -5.2,-1.1 -5.2,-1.1" fill="none" stroke="#8e5322" stroke-width="1.4" stroke-linecap="round" stroke-linejoin="round"/><path d="M256.09929,169.3c2.3,-1.5 2.3,-1.5 6.1,-2.9c4.1,-1.5 6.3,-1.8 6.3,-1.8" fill="none" stroke="#8e5322" stroke-width="1.4" stroke-linecap="round" stroke-linejoin="round"/></g><g><path d="M215.9993,153.3c2.8,1.3 3.4,6.3 1.1,10.9c-2.3,4.7 -6.5,7.4 -9.4,5.9c-2.8,-1.3 -3.4,-6.3 -1.1,-10.9c2.3,-4.6 6.5,-7.2 9.4,-5.9z" fill="#ffffff" stroke="#8e5322" stroke-width="1.4" stroke-linecap="round" stroke-linejoin="round"/><path d="M207.0993,162.8c0.2,-1 1,-1.7 2,-1.7c1.1,0.1 1.7,1.1 1.5,2.1c-0.2,1.2 -1.1,1.9 -2,1.7c-1.1,-0.1 -1.7,-1.1 -1.5,-2.1" fill="#414142" stroke="none" stroke-width="1" stroke-linecap="butt" stroke-linejoin="miter"/></g><g><path d="M240.29929,154.1c3.4,1.7 4.4,6.8 2.1,11.4c-2.2,4.7 -6.9,7.1 -10.3,5.4c-3.4,-1.7 -4.4,-6.8 -2.1,-11.4c2.3,-4.6 6.9,-7 10.3,-5.4z" fill="#ffffff" stroke="#8e5322" stroke-width="1.4" stroke-linecap="round" stroke-linejoin="round"/><path d="M230.79929,163.3c-0.2,-1.1 0.5,-2 1.5,-2.1c0.9,-0.1 1.8,0.7 1.9,1.7c0.1,1.1 -0.5,2 -1.5,2.1c-0.9,0.1 -1.8,-0.7 -1.9,-1.7" fill="#414142" stroke="none" stroke-width="1" stroke-linecap="butt" stroke-linejoin="miter"/></g><path d="M224.89929,170.8c0.3,1.4 -2.9,4.4 -4.9,4.5c-1.8,0.1 -3.8,-3 -3.9,-3.8c0,-1.9 2.5,-0.9 4.2,-0.9c1.5,0.1 4.3,-1.2 4.6,0.2z" fill="#5f4b43" stroke="#8e5322" stroke-width="1.4" stroke-linecap="round" stroke-linejoin="round"/><path d="M231.19929,184.8c0,0 -2.2,2.6 -7.7,2.2" fill="#ffffff" stroke="#8e5322" stroke-width="1.4" stroke-linecap="round" stroke-linejoin="round"/></g><path d="M229.63471,203.24368c0,0 -0.97535,-2.07293 -1.21939,-3.41317c-0.23282,-1.27862 -0.21278,-4.45213 -0.21278,-4.45213l1.87491,-0.22137l1.54958,6.53709z" data-paper-data="{&quot;index&quot;:null}" fill="#faa51f" stroke="none" stroke-width="0" stroke-linecap="butt" stroke-linejoin="miter"/></g></g></svg>