<svg version="1.1" xmlns="http://www.w3.org/2000/svg" xmlns:xlink="http://www.w3.org/1999/xlink" width="48.65177" height="32.78612" viewBox="0,0,48.65177,32.78612"><defs><linearGradient x1="239.8" y1="145.39999" x2="239.8" y2="158" gradientUnits="userSpaceOnUse" id="color-1"><stop offset="0" stop-color="#fff700"/><stop offset="1" stop-color="#af9800"/></linearGradient><linearGradient x1="239.8" y1="145.39999" x2="239.8" y2="158" gradientUnits="userSpaceOnUse" id="color-2"><stop offset="0" stop-color="#b2ac00"/><stop offset="1" stop-color="#af9800"/></linearGradient><linearGradient x1="247.74651" y1="133.9559" x2="247.74651" y2="179.10272" gradientUnits="userSpaceOnUse" id="color-3"><stop offset="0" stop-color="#fff700"/><stop offset="1" stop-color="#af9800"/></linearGradient><linearGradient x1="249.66903" y1="135.25559" x2="249.66903" y2="166.869" gradientUnits="userSpaceOnUse" id="color-4"><stop offset="0" stop-color="#b2ac00"/><stop offset="1" stop-color="#af9800"/></linearGradient><linearGradient x1="267.51428" y1="160.59803" x2="267.51428" y2="162.09803" gradientUnits="userSpaceOnUse" id="color-5"><stop offset="0" stop-color="#868100"/><stop offset="1" stop-color="#af9800"/></linearGradient><linearGradient x1="266.3213" y1="158.15368" x2="266.3213" y2="159.65368" gradientUnits="userSpaceOnUse" id="color-6"><stop offset="0" stop-color="#868100"/><stop offset="1" stop-color="#af9800"/></linearGradient><linearGradient x1="264.93688" y1="155.44511" x2="264.93688" y2="156.94511" gradientUnits="userSpaceOnUse" id="color-7"><stop offset="0" stop-color="#868100"/><stop offset="1" stop-color="#af9800"/></linearGradient><linearGradient x1="242.45568" y1="144.2588" x2="242.45568" y2="145.7588" gradientUnits="userSpaceOnUse" id="color-8"><stop offset="0" stop-color="#868100"/><stop offset="1" stop-color="#af9800"/></linearGradient><linearGradient x1="240.0627" y1="143.97164" x2="240.0627" y2="145.47164" gradientUnits="userSpaceOnUse" id="color-9"><stop offset="0" stop-color="#868100"/><stop offset="1" stop-color="#af9800"/></linearGradient><linearGradient x1="237.19112" y1="143.7802" x2="237.19112" y2="145.2802" gradientUnits="userSpaceOnUse" id="color-10"><stop offset="0" stop-color="#868100"/><stop offset="1" stop-color="#af9800"/></linearGradient><linearGradient x1="234.31954" y1="143.58876" x2="234.31954" y2="145.08876" gradientUnits="userSpaceOnUse" id="color-11"><stop offset="0" stop-color="#868100"/><stop offset="1" stop-color="#af9800"/></linearGradient><linearGradient x1="245.42298" y1="144.35452" x2="245.42298" y2="145.85452" gradientUnits="userSpaceOnUse" id="color-12"><stop offset="0" stop-color="#868100"/><stop offset="1" stop-color="#af9800"/></linearGradient><linearGradient x1="248.486" y1="144.92882" x2="248.486" y2="146.42882" gradientUnits="userSpaceOnUse" id="color-13"><stop offset="0" stop-color="#868100"/><stop offset="1" stop-color="#af9800"/></linearGradient><linearGradient x1="251.93189" y1="145.40742" x2="251.93189" y2="146.90742" gradientUnits="userSpaceOnUse" id="color-14"><stop offset="0" stop-color="#868100"/><stop offset="1" stop-color="#af9800"/></linearGradient><linearGradient x1="255.28207" y1="146.17317" x2="255.28207" y2="147.67317" gradientUnits="userSpaceOnUse" id="color-15"><stop offset="0" stop-color="#868100"/><stop offset="1" stop-color="#af9800"/></linearGradient><linearGradient x1="258.44081" y1="147.80041" x2="258.44081" y2="149.30041" gradientUnits="userSpaceOnUse" id="color-16"><stop offset="0" stop-color="#868100"/><stop offset="1" stop-color="#af9800"/></linearGradient><linearGradient x1="261.21667" y1="150.09768" x2="261.21667" y2="151.59768" gradientUnits="userSpaceOnUse" id="color-17"><stop offset="0" stop-color="#868100"/><stop offset="1" stop-color="#af9800"/></linearGradient><linearGradient x1="263.22677" y1="152.58638" x2="263.22677" y2="154.08638" gradientUnits="userSpaceOnUse" id="color-18"><stop offset="0" stop-color="#868100"/><stop offset="1" stop-color="#af9800"/></linearGradient><linearGradient x1="231.1608" y1="143.58876" x2="231.1608" y2="145.08876" gradientUnits="userSpaceOnUse" id="color-19"><stop offset="0" stop-color="#868100"/><stop offset="1" stop-color="#af9800"/></linearGradient><linearGradient x1="228.48066" y1="143.68448" x2="228.48066" y2="145.18448" gradientUnits="userSpaceOnUse" id="color-20"><stop offset="0" stop-color="#868100"/><stop offset="1" stop-color="#af9800"/></linearGradient><linearGradient x1="268.91428" y1="163.39802" x2="268.91428" y2="164.89802" gradientUnits="userSpaceOnUse" id="color-21"><stop offset="0" stop-color="#868100"/><stop offset="1" stop-color="#af9800"/></linearGradient></defs><g transform="translate(-225.34314,-134.80288)"><g data-paper-data="{&quot;isPaintingLayer&quot;:true}" fill-rule="nonzero" stroke-linecap="butt" stroke-linejoin="miter" stroke-miterlimit="10" stroke-dasharray="" stroke-dashoffset="0" style="mix-blend-mode: normal"><path d="M234.49999,158c0,0 1.05772,-5.97954 1.34381,-8.23253c0.23855,-1.87859 0.25619,-4.36747 0.25619,-4.36747l9,1.4c0,0 -2.16632,1.83841 -2.98612,3.42147c-1.05404,2.03539 -2.81388,7.77853 -2.81388,7.77853z" data-paper-data="{&quot;index&quot;:null}" fill="url(#color-1)" stroke="url(#color-2)" stroke-width="1.5"/><path d="M246.96295,147.27716c-13.41501,-1.59498 -21.79145,-0.50502 -20.78874,-2.57023c0.94085,-1.93781 -0.05209,-6.87788 1.20926,-8.10195c1.71814,-1.66736 5.7948,4.15185 7.20766,4.05881c0.96825,-0.06376 3.90089,-5.11979 5.90957,-5.11091c1.24614,0.00551 3.60016,4.76096 5.08315,4.81448c0.99413,0.03588 4.31544,-5.11131 4.81691,-5.11176c1.8083,-0.00163 3.81807,5.21305 5.5713,5.48723c1.89996,0.29713 3.66486,-5.38741 5.32695,-4.59161c0.80725,0.38651 2.83679,6.57879 4.47926,6.52127c1.77797,-0.06227 3.17109,-6.36571 3.95273,-5.61976c3.14045,2.99703 2.0552,9.6869 2.94642,14.31188c1.61079,8.35914 -0.43019,14.84999 -3.32676,15.4744c-2.81296,0.60639 -4.57905,-8.12987 -8.19148,-12.81812c-3.9228,-5.09105 -9.74837,-6.21488 -14.19623,-6.74371z" data-paper-data="{&quot;index&quot;:null}" fill="url(#color-3)" stroke="url(#color-4)" stroke-width="1.5"/><path d="M267.51428,162.09803c-0.41421,0 -0.75,-0.33579 -0.75,-0.75c0,-0.41421 0.33579,-0.75 0.75,-0.75c0.41421,0 0.75,0.33579 0.75,0.75c0,0.41421 -0.33579,0.75 -0.75,0.75z" data-paper-data="{&quot;index&quot;:null}" fill="url(#color-5)" stroke="none" stroke-width="0.5"/><path d="M266.3213,159.65368c-0.41421,0 -0.75,-0.33579 -0.75,-0.75c0,-0.41421 0.33579,-0.75 0.75,-0.75c0.41421,0 0.75,0.33579 0.75,0.75c0,0.41421 -0.33579,0.75 -0.75,0.75z" data-paper-data="{&quot;index&quot;:null}" fill="url(#color-6)" stroke="none" stroke-width="0.5"/><path d="M264.93688,156.94511c-0.41421,0 -0.75,-0.33579 -0.75,-0.75c0,-0.41421 0.33579,-0.75 0.75,-0.75c0.41421,0 0.75,0.33579 0.75,0.75c0,0.41421 -0.33579,0.75 -0.75,0.75z" data-paper-data="{&quot;index&quot;:null}" fill="url(#color-7)" stroke="none" stroke-width="0.5"/><path d="M242.45568,145.7588c-0.41421,0 -0.75,-0.33579 -0.75,-0.75c0,-0.41421 0.33579,-0.75 0.75,-0.75c0.41421,0 0.75,0.33579 0.75,0.75c0,0.41421 -0.33579,0.75 -0.75,0.75z" data-paper-data="{&quot;index&quot;:null}" fill="url(#color-8)" stroke="none" stroke-width="0.5"/><path d="M240.0627,145.47164c-0.41421,0 -0.75,-0.33579 -0.75,-0.75c0,-0.41421 0.33579,-0.75 0.75,-0.75c0.41421,0 0.75,0.33579 0.75,0.75c0,0.41421 -0.33579,0.75 -0.75,0.75z" data-paper-data="{&quot;index&quot;:null}" fill="url(#color-9)" stroke="none" stroke-width="0.5"/><path d="M237.19112,145.2802c-0.41421,0 -0.75,-0.33579 -0.75,-0.75c0,-0.41421 0.33579,-0.75 0.75,-0.75c0.41421,0 0.75,0.33579 0.75,0.75c0,0.41421 -0.33579,0.75 -0.75,0.75z" data-paper-data="{&quot;index&quot;:null}" fill="url(#color-10)" stroke="none" stroke-width="0.5"/><path d="M234.31954,145.08876c-0.41421,0 -0.75,-0.33579 -0.75,-0.75c0,-0.41421 0.33579,-0.75 0.75,-0.75c0.41421,0 0.75,0.33579 0.75,0.75c0,0.41421 -0.33579,0.75 -0.75,0.75z" data-paper-data="{&quot;index&quot;:null}" fill="url(#color-11)" stroke="none" stroke-width="0.5"/><path d="M245.42298,145.85452c-0.41421,0 -0.75,-0.33579 -0.75,-0.75c0,-0.41421 0.33579,-0.75 0.75,-0.75c0.41421,0 0.75,0.33579 0.75,0.75c0,0.41421 -0.33579,0.75 -0.75,0.75z" data-paper-data="{&quot;index&quot;:null}" fill="url(#color-12)" stroke="none" stroke-width="0.5"/><path d="M248.486,146.42882c-0.41421,0 -0.75,-0.33579 -0.75,-0.75c0,-0.41421 0.33579,-0.75 0.75,-0.75c0.41421,0 0.75,0.33579 0.75,0.75c0,0.41421 -0.33579,0.75 -0.75,0.75z" data-paper-data="{&quot;index&quot;:null}" fill="url(#color-13)" stroke="none" stroke-width="0.5"/><path d="M251.93189,146.90742c-0.41421,0 -0.75,-0.33579 -0.75,-0.75c0,-0.41421 0.33579,-0.75 0.75,-0.75c0.41421,0 0.75,0.33579 0.75,0.75c0,0.41421 -0.33579,0.75 -0.75,0.75z" data-paper-data="{&quot;index&quot;:null}" fill="url(#color-14)" stroke="none" stroke-width="0.5"/><path d="M255.28207,147.67317c-0.41421,0 -0.75,-0.33579 -0.75,-0.75c0,-0.41421 0.33579,-0.75 0.75,-0.75c0.41421,0 0.75,0.33579 0.75,0.75c0,0.41421 -0.33579,0.75 -0.75,0.75z" data-paper-data="{&quot;index&quot;:null}" fill="url(#color-15)" stroke="none" stroke-width="0.5"/><path d="M258.44081,149.30041c-0.41421,0 -0.75,-0.33579 -0.75,-0.75c0,-0.41421 0.33579,-0.75 0.75,-0.75c0.41421,0 0.75,0.33579 0.75,0.75c0,0.41421 -0.33579,0.75 -0.75,0.75z" data-paper-data="{&quot;index&quot;:null}" fill="url(#color-16)" stroke="none" stroke-width="0.5"/><path d="M261.21667,151.59768c-0.41421,0 -0.75,-0.33579 -0.75,-0.75c0,-0.41421 0.33579,-0.75 0.75,-0.75c0.41421,0 0.75,0.33579 0.75,0.75c0,0.41421 -0.33579,0.75 -0.75,0.75z" data-paper-data="{&quot;index&quot;:null}" fill="url(#color-17)" stroke="none" stroke-width="0.5"/><path d="M263.22677,154.08638c-0.41421,0 -0.75,-0.33579 -0.75,-0.75c0,-0.41421 0.33579,-0.75 0.75,-0.75c0.41421,0 0.75,0.33579 0.75,0.75c0,0.41421 -0.33579,0.75 -0.75,0.75z" data-paper-data="{&quot;index&quot;:null}" fill="url(#color-18)" stroke="none" stroke-width="0.5"/><path d="M231.1608,145.08876c-0.41421,0 -0.75,-0.33579 -0.75,-0.75c0,-0.41421 0.33579,-0.75 0.75,-0.75c0.41421,0 0.75,0.33579 0.75,0.75c0,0.41421 -0.33579,0.75 -0.75,0.75z" data-paper-data="{&quot;index&quot;:null}" fill="url(#color-19)" stroke="none" stroke-width="0.5"/><path d="M228.48066,145.18448c-0.41421,0 -0.75,-0.33579 -0.75,-0.75c0,-0.41421 0.33579,-0.75 0.75,-0.75c0.41421,0 0.75,0.33579 0.75,0.75c0,0.41421 -0.33579,0.75 -0.75,0.75z" data-paper-data="{&quot;index&quot;:null}" fill="url(#color-20)" stroke="none" stroke-width="0.5"/><path d="M268.91428,164.89802c-0.41421,0 -0.75,-0.33579 -0.75,-0.75c0,-0.41421 0.33579,-0.75 0.75,-0.75c0.41421,0 0.75,0.33579 0.75,0.75c0,0.41421 -0.33579,0.75 -0.75,0.75z" data-paper-data="{&quot;index&quot;:null}" fill="url(#color-21)" stroke="none" stroke-width="0.5"/></g></g></svg>