<svg version="1.1" xmlns="http://www.w3.org/2000/svg" xmlns:xlink="http://www.w3.org/1999/xlink" width="26.49065" height="23.89291" viewBox="0,0,26.49065,23.89291"><g transform="translate(-231.10325,-191.04955)"><g data-paper-data="{&quot;isPaintingLayer&quot;:true}" fill-rule="nonzero" stroke-miterlimit="10" stroke-dasharray="" stroke-dashoffset="0" style="mix-blend-mode: normal"><path d="M242.51586,206.57926" data-paper-data="{&quot;index&quot;:null}" fill="#faa51f" stroke="#8e5322" stroke-width="1.4" stroke-linecap="round" stroke-linejoin="round"/><path d="M242.51587,206.57926" data-paper-data="{&quot;index&quot;:null}" fill="#faa51f" stroke="#8e5322" stroke-width="1.4" stroke-linecap="round" stroke-linejoin="round"/><g data-paper-data="{&quot;index&quot;:null}" stroke-linejoin="miter"><g><path d="M254.41365,204.52351c-1.35841,0.88822 -4.31623,1.10143 -4.31623,1.10143l-0.59379,-2.32691l5.90059,-1.14302c0,0 0.00841,0.03383 0.01798,0.09432c0.05378,0.33969 0.1445,1.52025 -1.00856,2.2742z" fill="#474d55" stroke="#222931" stroke-width="1.5" stroke-linecap="butt"/><path d="M236.46941,214.19246c-2.48486,-1.49761 -2.2528,-8.82821 -2.2528,-8.82821l14.6419,-3.73635c0,0 3.63436,7.06775 2.2528,8.82821c-2.27441,2.89819 -12.39706,5.08931 -14.6419,3.73635z" fill="#474d55" stroke="#222931" stroke-width="1.5" stroke-linecap="butt"/><path d="M238.58674,205.57384l9.60875,-2.45198l0.78743,1.90616" fill="none" stroke="#69727d" stroke-width="1" stroke-linecap="round"/><path d="M247.04425,211.58599c0,0 -5.11532,2.10203 -9.39036,1.78112c-1.6025,-0.12029 -1.95307,-2.75665 -1.95307,-2.75665" fill="none" stroke="#363d45" stroke-width="1" stroke-linecap="round"/><path d="M231.91278,206.94161l2.36997,-0.34115l-0.05379,3.36877c0,0 -0.0344,0.00483 -0.09487,0.01035c-0.3395,0.03101 -1.50049,0.08386 -2.00375,-0.57399z" data-paper-data="{&quot;index&quot;:null}" fill="#474d55" stroke="#222931" stroke-width="1.5" stroke-linecap="butt"/></g><g><g fill="none" stroke-linecap="round"><path d="M249.80253,206.38622l-14.31933,3.70853" stroke="#191c20" stroke-width="0.875"/><g stroke="#32363b" stroke-width="0.5"><g><g><path d="M250.01211,205.91649l0.0544,0.37423"/><path d="M249.78533,206.84127l-0.0544,-0.37423"/><path d="M249.31917,206.11946l0.0544,0.37423"/><path d="M249.03799,206.67002l0.0544,0.37423"/><path d="M248.58168,206.29212l0.0544,0.37423"/><path d="M248.3549,207.21692l-0.0544,-0.37423"/><path d="M247.94314,206.86933l-0.0544,-0.37423"/><path d="M247.60756,207.04566l0.0544,0.37423"/></g><g><path d="M247.23933,206.99745l-0.0544,-0.37423"/><path d="M246.90374,207.1738l0.0544,0.37423"/><path d="M246.49198,206.82621l0.0544,0.37423"/><path d="M246.2652,207.75099l-0.0544,-0.37423"/><path d="M245.8089,207.3731l-0.0544,-0.37423"/><path d="M245.52772,207.92366l-0.0544,-0.37423"/><path d="M245.06156,207.20184l0.0544,0.37423"/><path d="M244.83478,208.12664l-0.0544,-0.37423"/></g><g><path d="M244.42924,207.70109l-0.0544,-0.37423"/><path d="M244.14806,208.25165l-0.0544,-0.37423"/><path d="M243.7363,207.90406l-0.0544,-0.37423"/><path d="M243.40072,208.0804l0.0544,0.37423"/><path d="M242.99883,208.07673l-0.0544,-0.37423"/><path d="M242.66324,208.25306l0.0544,0.37423"/><path d="M242.25148,207.90548l0.0544,0.37423"/><path d="M242.0247,208.83027l-0.0544,-0.37423"/></g><g><path d="M241.60207,208.40783l-0.0544,-0.37423"/><path d="M241.26648,208.58416l0.0544,0.37423"/><path d="M240.85472,208.23657l0.0544,0.37423"/><path d="M240.57354,208.78714l0.0544,0.37423"/><path d="M240.17164,208.78347l-0.0544,-0.37423"/><path d="M239.89046,209.33404l-0.0544,-0.37423"/><path d="M239.4243,208.61222l0.0544,0.37423"/><path d="M239.19751,209.53701l-0.0544,-0.37423"/></g></g><g><g><path d="M238.86687,209.17465l-0.0544,-0.37423"/><path d="M238.58569,209.72522l-0.0544,-0.37423"/><path d="M238.11953,209.0034l0.0544,0.37423"/><path d="M237.83835,209.55396l0.0544,0.37423"/><path d="M237.38206,209.17607l0.0544,0.37423"/><path d="M237.10087,209.72663l0.0544,0.37423"/><path d="M236.68912,209.37904l0.0544,0.37423"/><path d="M236.46233,210.30383l-0.0544,-0.37423"/></g><g><path d="M236.03969,209.88139l-0.0544,-0.37423"/><path d="M235.7041,210.05773l0.0544,0.37423"/><path d="M235.34675,210.08437l-0.0544,-0.37423"/><path d=""/><path d=""/><path d=""/><path d=""/><path d=""/></g><g><path d=""/><path d=""/><path d=""/><path d=""/><path d=""/><path d=""/><path d=""/><path d=""/></g><g><path d=""/><path d=""/><path d=""/><path d=""/><path d=""/><path d=""/><path d=""/><path d=""/></g></g></g></g><path d="M250.30877,208.97049l-0.98257,-2.56405l0.62953,-0.18886l1.62603,1.88382z" fill="#b0b0b0" stroke="#646464" stroke-width="0.25" stroke-linecap="butt"/></g></g><path d="M254.08015,204.37147l-9.125,-8.5l6.125,-3.875l5.125,8.125c0,0 0.17706,2.14588 -0.175,2.85c-0.35623,0.71245 -1.95,1.4 -1.95,1.4z" data-paper-data="{&quot;index&quot;:null}" fill="#faa51f" stroke="none" stroke-width="0" stroke-linecap="butt" stroke-linejoin="miter"/><g data-paper-data="{&quot;index&quot;:null}" stroke="#8e5322" stroke-width="1.4" stroke-linecap="round" stroke-linejoin="round"><path d="M251.09619,191.74955c4.6131,4.0771 7.27614,9.43158 4.9284,11.85045" fill="#faa51f"/><path d="M248.32459,199" fill="#faa51f"/><path d="M244.82459,198.2" fill="none"/><path d="M248.32459,199l-3.7,-3.2" fill="#faa51f"/><path d="M248.32459,199l1.1,-0.6" fill="none"/></g><path d="M256.02459,203.7c-7.7,4.2 -12.6,3.8 -13.9,0c-0.6,-1.6 1.4,-5.5 7.3,-5.3" data-paper-data="{&quot;index&quot;:null}" fill="#faa51f" stroke="#8e5322" stroke-width="1.4" stroke-linecap="round" stroke-linejoin="round"/></g></g></svg>