<svg version="1.1" xmlns="http://www.w3.org/2000/svg" xmlns:xlink="http://www.w3.org/1999/xlink" width="26.49064" height="23.89291" viewBox="0,0,26.49064,23.89291"><g transform="translate(-222.57642,-190.86773)"><g data-paper-data="{&quot;isPaintingLayer&quot;:true}" fill-rule="nonzero" stroke-miterlimit="10" stroke-dasharray="" stroke-dashoffset="0" style="mix-blend-mode: normal"><g><path d="M237.65445,206.39745" data-paper-data="{&quot;index&quot;:null}" fill="#faa51f" stroke="#8e5322" stroke-width="1.4" stroke-linecap="round" stroke-linejoin="round"/><path d="M237.65444,206.39744" data-paper-data="{&quot;index&quot;:null}" fill="#faa51f" stroke="#8e5322" stroke-width="1.4" stroke-linecap="round" stroke-linejoin="round"/><g data-paper-data="{&quot;index&quot;:null}" stroke-linejoin="miter"><g><path d="M225.75667,204.34171c-1.15306,-0.75395 -1.06234,-1.93451 -1.00856,-2.2742c0.00958,-0.06049 0.01798,-0.09432 0.01798,-0.09432l5.9006,1.14302l-0.59379,2.32692c0,0 -2.95782,-0.21321 -4.31623,-1.10143z" fill="#474d55" stroke="#222931" stroke-width="1.5" stroke-linecap="butt"/><path d="M229.059,210.27429c-1.38156,-1.76046 2.2528,-8.8282 2.2528,-8.8282l14.6419,3.73636c0,0 0.23207,7.3306 -2.2528,8.8282c-2.24484,1.35296 -12.36749,-0.83817 -14.6419,-3.73636z" fill="#474d55" stroke="#222931" stroke-width="1.5" stroke-linecap="butt"/><path d="M231.18739,204.84619l0.78743,-1.90615l9.60875,2.45198" fill="none" stroke="#69727d" stroke-width="1" stroke-linecap="round"/><path d="M244.4695,210.42864c0,0 -0.35057,2.63636 -1.95307,2.75665c-4.27504,0.32091 -9.39035,-1.78113 -9.39035,-1.78113" fill="none" stroke="#363d45" stroke-width="1" stroke-linecap="round"/><path d="M248.03998,209.22378c-0.50326,0.65785 -1.66425,0.605 -2.00375,0.57399c-0.06046,-0.00552 -0.09487,-0.01035 -0.09487,-0.01035l-0.05379,-3.36877l2.36997,0.34114z" data-paper-data="{&quot;index&quot;:null}" fill="#474d55" stroke="#222931" stroke-width="1.5" stroke-linecap="butt"/></g><g><g fill="none" stroke-linecap="round"><path d="M244.68711,209.91293l-14.31932,-3.70853" stroke="#191c20" stroke-width="0.875"/><g stroke="#32363b" stroke-width="0.5"><g><g><path d="M230.10381,206.1089l0.0544,-0.37423"/><path d="M230.38499,206.65946l0.0544,-0.37423"/><path d="M230.79675,206.31188l0.05441,-0.37423"/><path d="M231.07793,206.86243l0.05441,-0.37422"/><path d="M231.58864,206.11031l-0.0544,0.37423"/><path d="M231.81541,207.03511l0.05441,-0.37423"/><path d="M232.22718,206.68751l0.0544,-0.37422"/><path d="M232.56276,206.86384l-0.0544,0.37423"/></g><g><path d="M232.93099,206.81564l0.05441,-0.37423"/><path d="M233.26658,206.99198l-0.0544,0.37423"/><path d="M233.67834,206.64439l-0.0544,0.37423"/><path d="M233.90512,207.56918l0.0544,-0.37423"/><path d="M234.36141,207.19129l0.0544,-0.37423"/><path d="M234.697,207.36762l-0.0544,0.37423"/><path d="M235.10875,207.02002l-0.0544,0.37423"/><path d="M235.33554,207.94482l0.0544,-0.37422"/></g><g><path d="M235.74107,207.51927l0.0544,-0.37423"/><path d="M236.02225,208.06983l0.0544,-0.37423"/><path d="M236.48842,207.34801l-0.0544,0.37423"/><path d="M236.76959,207.89858l-0.0544,0.37422"/><path d="M237.17149,207.89491l0.05441,-0.37423"/><path d="M237.50708,208.07124l-0.05441,0.37423"/><path d="M237.91884,207.72366l-0.0544,0.37422"/><path d="M238.14562,208.64845l0.0544,-0.37423"/></g><g><path d="M238.56825,208.22601l0.0544,-0.37423"/><path d="M238.90384,208.40234l-0.0544,0.37423"/><path d="M239.31559,208.05475l-0.0544,0.37422"/><path d="M239.59678,208.60532l-0.05441,0.37423"/><path d="M239.99868,208.60165l0.0544,-0.37423"/><path d="M240.27985,209.15222l0.05441,-0.37422"/><path d="M240.74602,208.4304l-0.0544,0.37423"/><path d="M240.97281,209.35519l0.0544,-0.37423"/></g></g><g><g><path d="M241.30345,208.99283l0.0544,-0.37423"/><path d="M241.58463,209.5434l0.0544,-0.37423"/><path d="M242.05079,208.82158l-0.0544,0.37423"/><path d="M242.27757,209.74637l0.0544,-0.37423"/><path d="M242.78826,208.99425l-0.0544,0.37422"/><path d="M243.01505,209.91904l0.0544,-0.37423"/><path d="M243.4812,209.19722l-0.0544,0.37423"/><path d="M243.70799,210.12201l0.0544,-0.37422"/></g><g><path d="M244.18503,209.32534l-0.0544,0.37423"/><path d="M244.46621,209.87591l-0.0544,0.37423"/><path d="M244.82356,209.90255l0.0544,-0.37422"/><path d=""/><path d=""/><path d=""/><path d=""/><path d=""/></g><g><path d=""/><path d=""/><path d=""/><path d=""/><path d=""/><path d=""/><path d=""/><path d=""/></g><g><path d=""/><path d=""/><path d=""/><path d=""/><path d=""/><path d=""/><path d=""/><path d=""/></g></g></g></g><path d="M228.58856,207.91959l1.62603,-1.88382l0.62953,0.18886l-0.98257,2.56405z" fill="#b0b0b0" stroke="#646464" stroke-width="0.25" stroke-linecap="butt"/></g></g><path d="M224.14017,202.78965c-0.35206,-0.70412 -0.175,-2.85 -0.175,-2.85l5.125,-8.125l6.125,3.875l-9.125,8.5c0,0 -1.59377,-0.68755 -1.95,-1.4z" data-paper-data="{&quot;index&quot;:null}" fill="#faa51f" stroke="none" stroke-width="0" stroke-linecap="butt" stroke-linejoin="miter"/><g data-paper-data="{&quot;index&quot;:null}" stroke="#8e5322" stroke-width="1.4" stroke-linecap="round" stroke-linejoin="round"><path d="M224.14573,203.41818c-2.34774,-2.41887 0.3153,-7.77335 4.9284,-11.85045" fill="#faa51f"/><path d="M231.84573,198.81818" fill="#faa51f"/><path d="M235.34573,198.01818" fill="none"/><path d="M231.84573,198.81818l3.7,-3.2" fill="#faa51f"/><path d="M231.84573,198.81818l-1.1,-0.6" fill="none"/></g><path d="M230.74573,198.21818c5.9,-0.2 7.9,3.7 7.3,5.3c-1.3,3.8 -6.2,4.2 -13.9,0" data-paper-data="{&quot;index&quot;:null}" fill="#faa51f" stroke="#8e5322" stroke-width="1.4" stroke-linecap="round" stroke-linejoin="round"/></g><path d="M241.25,204.81466" data-paper-data="{&quot;index&quot;:null}" fill="#faa51f" stroke="#8e5322" stroke-width="1.4" stroke-linecap="round" stroke-linejoin="round"/><path d="M241.24999,204.81466" data-paper-data="{&quot;index&quot;:null}" fill="#faa51f" stroke="#8e5322" stroke-width="1.4" stroke-linecap="round" stroke-linejoin="round"/></g></g></svg>