<svg version="1.1" xmlns="http://www.w3.org/2000/svg" xmlns:xlink="http://www.w3.org/1999/xlink" width="82" height="103.94391" viewBox="0,0,82,103.94391"><g transform="translate(-199,-126.76156)"><g data-paper-data="{&quot;isPaintingLayer&quot;:true}" fill-rule="nonzero" stroke-width="1.5" stroke-miterlimit="10" stroke-dasharray="" stroke-dashoffset="0" style="mix-blend-mode: normal"><path d="M253.95,204.71464c2.3,-1 4.9,-2.5 6.8,-5.3c4.2,-6.2 4,-14.7 8.3,-13.5c4.3,1.2 7.3,14.4 -3.7,21.2c-3.8,2.4 -7.6,3.3 -10.6,3.9c-0.8,0.2 -7.8,1.1 -10.9,-1.8c-3.1,-2.9 -1.7,-4.1 -1,-4.8c0.7,-0.6 7.9,1.8 11.1,0.3z" data-paper-data="{&quot;index&quot;:null}" fill="#ab7f49" stroke="none" stroke-linecap="butt" stroke-linejoin="miter"/><path d="M268.85,185.81464c2.1,0.2 4.4,4.7 4.3,8.4c-0.2,3.7 -1.6,6.3 -2.5,7.9c-1.3,1.4 0,-3.1 -2.5,-4.4c-2.5,-1.3 -6.4,0.3 -6.4,0.3c0,0 2.1,-5 3.2,-7.8c0.9,-2.6 1.7,-4.4 3.9,-4.4z" data-paper-data="{&quot;index&quot;:null}" fill="#ffffff" stroke="none" stroke-linecap="butt" stroke-linejoin="miter"/><path d="M253.95,204.71464c2.3,-1 4.9,-2.5 6.8,-5.3c4.2,-6.2 4,-14.7 8.3,-13.5c4.3,1.2 7.3,14.4 -3.7,21.2c-3.8,2.4 -7.6,3.3 -10.6,3.9c-0.8,0.2 -7.8,1.1 -10.9,-1.8c-3.1,-2.9 -1.7,-4.1 -1,-4.8c0.7,-0.6 7.9,1.8 11.1,0.3z" data-paper-data="{&quot;index&quot;:null}" fill="none" stroke="#785020" stroke-linecap="round" stroke-linejoin="round"/><g data-paper-data="{&quot;index&quot;:null}" fill="#ab7f49" stroke="#785020" stroke-linecap="round" stroke-linejoin="round"><path d="M239.75,210.11464c0,0 -3.7,8.4 -2.6,15.7c0.3,2 -0.2,2.7 -2.1,3.4c-2.1,0.8 -11.3,1 -11.5,-1.1c-0.5,-7.4 6.6,-3.1 6.9,-6.9c0.8,-8.8 -0.9,-14.3 -0.9,-14.3"/><path d="M228.45,223.01464c0,0 1.3,-0.2 2.8,0.1"/></g><path d="M238.75,204.81464" data-paper-data="{&quot;index&quot;:null}" fill="#faa51f" stroke="#8e5322" stroke-linecap="round" stroke-linejoin="round"/><path d="M238.95,188.31464c6.7,0 10.8,1.8 10.8,8.5c0,6.7 1.1,15.7 -10.8,15.7c-11.9,0 -10.2,-9.8 -10.2,-16.5c0,-6.7 3.5,-7.7 10.2,-7.7z" data-paper-data="{&quot;index&quot;:null}" fill="#ab7f49" stroke="#8e5322" stroke-linecap="round" stroke-linejoin="round"/><g data-paper-data="{&quot;index&quot;:null}" fill="#ab7f49" stroke="#785020" stroke-linecap="round" stroke-linejoin="round"><path d="M248.95,206.91464c0,0 -2.6,5.5 -1.3,14.2c0.6,3.8 6.2,-0.9 5.8,6.7c-0.1,2.5 -7.7,2.3 -9.9,1.9c-2.1,-0.4 -2.9,-1.5 -2.7,-3.6c0.3,-4.2 -1.2,-13.3 -1.2,-13.3"/><path d="M247.05,223.11464c1.4,-0.4 3,-0.2 3,-0.2"/></g><g data-paper-data="{&quot;index&quot;:null}" fill="#ab7f49" stroke="#785020" stroke-linecap="round" stroke-linejoin="round"><path d="M241.15,189.21464l7.9,-1.4c6.8,5.4 10.5,16.1 6.4,18.4"/><path d="M249.35,199.71464"/><path d="M246.25,197.91464"/><path d="M246.65,195.61464l2.7,4.1"/><path d="M250.55,199.41464l-1.2,0.3"/></g><g data-paper-data="{&quot;index&quot;:null}" fill="#ab7f49" stroke="#785020" stroke-linecap="round" stroke-linejoin="round"><path d="M222.45,205.21464c-5.2,-3.9 0.1,-12.7 5.5,-15.5l4.2,0.7"/><path d="M227.65,199.71464"/><path d="M230.25,198.21464"/><path d="M227.65,199.71464l1.1,-3.7"/><path d="M227.65,199.71464l-1.1,-0.3"/></g><path d="M245.41665,211.2205c0,0 -3.86673,2.16464 -6.34009,2.20493c-2.22183,0.0362 -7.82657,-1.97412 -7.82657,-1.97412l0.83334,-17.77158c0,0 4.21633,1.21379 6.12571,0.90272c1.86748,-0.30424 5.20762,-2.74911 5.20762,-2.74911z" data-paper-data="{&quot;index&quot;:null}" fill="#b6b6b6" stroke="#6d6d6d" stroke-linecap="round" stroke-linejoin="miter"/><path d="M248.74999,198.87096c0,0 -1.44143,-2.59203 -1,-2.37634c0.6017,0.29399 2.83334,12.97849 2.83334,12.97849l-2.16667,2.19355l-4.66666,-0.18279l-2.5,-14.44086l2.33334,-5.30107l7.16666,-2.74194l5.5,6.94624l-7.5,2.92473z" data-paper-data="{&quot;index&quot;:null}" fill="#e20000" stroke="#760000" stroke-linecap="round" stroke-linejoin="miter"/><path d="M228.25,196.75683c-0.57969,-0.5565 -0.83334,2.92896 -0.83334,2.92896l-5.33333,-4.39344l2.83333,-5.12569l6.66667,1.28142l2.33333,4.94263l-0.16666,16.10929l-5.16666,-2.19672l-1.5,-4.94262c0,0 1.30884,-8.46734 1.16666,-8.60382z" data-paper-data="{&quot;index&quot;:null}" fill="#e20000" stroke="#760000" stroke-linecap="round" stroke-linejoin="miter"/><path d="M238.75,143.11464c1.5,-0.1 4.6,-0.3 6.3,-0.2c4.6,0.2 8.9,1.9 8.9,1.9l10.25186,-1.39038l0.14814,11.49038c-0.6,-0.8 10.2,12.4 3.4,23.4c-6.9,11.1 -21.5,16 -39.7,12.4c-18.2,-3.6 -22.5,-14.1 -21.3,-19.6c1.2,-5.5 8.1,-7.6 8.1,-7.6c0,0 0.1,-4.3 3.2,-9.6c1.9,-3.2 8.1,-7.8 8.1,-7.8l4.4437,-5.68185l5.5563,1.48185z" data-paper-data="{&quot;index&quot;:null}" fill="#ab7f49" stroke="none" stroke-linecap="butt" stroke-linejoin="miter"/><path d="M215.75,163.41464l2.4,-2l8.8,2.6c0,0 0,3.3 4.2,4.2c4.2,0.9 11.3,-0.7 11.3,-0.7l7.1,1.8c0,0 8.1,-0.5 8.5,5.9c0.7,11.1 -8.6,16.4 -17.1,16.3c-5.5,0 -9,-0.7 -12.9,-1.4c-17.2,-3.1 -22.1,-13.5 -20.6,-19c1.2,-5.5 7.8,-7.1 7.8,-7.1z" data-paper-data="{&quot;index&quot;:null}" fill="#ffffff" stroke="none" stroke-linecap="butt" stroke-linejoin="miter"/><path d="M210.75,168.81464c0,0 -4.4,-0.7 -6.6,-1.5c-2.6,-0.9 -4.4,-2.5 -4.4,-2.5" data-paper-data="{&quot;index&quot;:null}" fill="none" stroke="#785020" stroke-linecap="round" stroke-linejoin="round"/><path d="M210.25,174.61464c0,0 -2.6,1.1 -5.4,1.3c-2.7,0.3 -4.5,0.1 -4.5,0.1" data-paper-data="{&quot;index&quot;:null}" fill="none" stroke="#785020" stroke-linecap="round" stroke-linejoin="round"/><path d="M256.25,143.31464l-5.2,3.6" data-paper-data="{&quot;index&quot;:null}" fill="none" stroke="#785020" stroke-linecap="round" stroke-linejoin="round"/><path d="M238.75,143.11464c1.5,-0.1 4.6,-0.3 6.3,-0.2c4.6,0.2 8.9,1.9 8.9,1.9l11.19111,0.01851l-0.79111,10.08149c-0.6,-0.8 10.2,12.4 3.4,23.4c-6.9,11.1 -21.5,16 -39.7,12.4c-18.2,-3.6 -22.5,-14.1 -21.3,-19.6c1.2,-5.5 8.1,-7.6 8.1,-7.6c0,0 0.1,-4.3 3.2,-9.6c1.9,-3.2 8.1,-7.8 8.1,-7.8l5.26556,-5.32963l4.73444,1.12964z" data-paper-data="{&quot;index&quot;:null}" fill="none" stroke="#785020" stroke-linecap="round" stroke-linejoin="round"/><path d="M279.45,174.11464c0,0 -4,0.4 -5.8,0.3c-1.8,-0.1 -5.3,-0.6 -5.3,-0.6" data-paper-data="{&quot;index&quot;:null}" fill="none" stroke="#785020" stroke-linecap="round" stroke-linejoin="round"/><path d="M268.15,170.01464c0,0 2.3,-1.7 5.9,-3.3c4,-1.8 6.2,-2.2 6.2,-2.2" data-paper-data="{&quot;index&quot;:null}" fill="none" stroke="#785020" stroke-linecap="round" stroke-linejoin="round"/><path d="M230.25,149.31464c2.7,1.7 2.6,6.7 -0.2,11c-2.8,4.4 -7.3,6.5 -10,4.7c-2.7,-1.7 -2.6,-6.7 0.2,-11c2.8,-4.3 7.3,-6.4 10,-4.7z" data-paper-data="{&quot;index&quot;:null}" fill="#ffffff" stroke="#785020" stroke-linecap="round" stroke-linejoin="round"/><path d="M254.35,153.01464c3.2,2.1 3.5,7.3 0.7,11.6c-2.8,4.4 -7.7,6.2 -10.9,4.1c-3.2,-2.1 -3.5,-7.3 -0.7,-11.6c2.8,-4.3 7.7,-6.1 10.9,-4.1z" data-paper-data="{&quot;index&quot;:null}" fill="#ffffff" stroke="#785020" stroke-linecap="round" stroke-linejoin="round"/><path d="M236.95,167.71463c0.1,1.5 -3.4,4 -5.4,3.9c-1.8,-0.1 -3.4,-3.4 -3.4,-4.2c0.3,-1.9 2.6,-0.6 4.3,-0.4c1.5,0.2 4.4,-0.8 4.5,0.7z" data-paper-data="{&quot;index&quot;:null}" fill="#5f4b43" stroke="#785020" stroke-linecap="round" stroke-linejoin="round"/><path d="M241.55,182.41464c0,0 -2.5,2.3 -7.9,1.2" data-paper-data="{&quot;index&quot;:null}" fill="#ffffff" stroke="#785020" stroke-linecap="round" stroke-linejoin="round"/><path d="M255.35,206.31464c-8.5,1.9 -13.1,0.1 -13.3,-3.9c-0.1,-1.7 2.9,-4.8 8.5,-3" data-paper-data="{&quot;index&quot;:null}" fill="#ab7f49" stroke="#785020" stroke-linecap="round" stroke-linejoin="round"/><path d="M225.71933,199.54833c3.3498,0.98939 3.01645,3.71498 2.28842,5.97772c-1.00151,3.20889 -6.30348,3.45198 -7.51316,-3.18629" data-paper-data="{&quot;index&quot;:null,&quot;origRot&quot;:0}" fill="#ab7f49" stroke="#785020" stroke-linecap="round" stroke-linejoin="round"/><path d="M267.18897,150.13169c0,0 18.26788,10.08289 -27.32365,1.83246c-40.14758,-7.79699 -19.6515,-15.57489 -13.06225,-12.4917c0.60985,0.28535 0.44992,-1.47942 0.44992,-1.47942" fill="#ffde00" stroke="#d09000" stroke-linecap="round" stroke-linejoin="miter"/><path d="M223.47758,140.49796c0,0 7.87692,-17.5768 28.80674,-11.83303c19.96405,5.47873 15.73493,23.11906 15.73493,23.11906" fill="#ffde00" stroke="#d09000" stroke-linecap="round" stroke-linejoin="miter"/><path d="M268.25089,147.13706c0,0 -7.97574,0.6671 -21.90842,-2.99248c-13.14328,-3.45224 -20.38798,-8.1325 -20.38798,-8.1325" fill="none" stroke="#000000" stroke-linecap="round" stroke-linejoin="miter"/><path d="M226.10734,139.58127c0,0 -7.46992,1.93278 -6.8017,1.89141c0.20823,-0.01289 -4.66492,0.39755 0.33779,-8.61085c3.53202,-4.31097 7.03867,-3.08891 7.03867,-3.08891l2.03503,5.38581z" fill="#000000" stroke="#000000" stroke-linecap="round" stroke-linejoin="miter"/><path d="M225.94862,135.3041c-2.19132,4.16075 -5.46836,6.95377 -7.31948,6.23838c-1.85112,-0.71539 -1.57533,-4.66827 0.61599,-8.82903c2.19132,-4.16075 4.49426,-4.88186 6.34538,-4.16647c1.85112,0.71539 2.54942,2.59637 0.35811,6.75712z" fill="#ffffff" stroke="#000000" stroke-linecap="butt" stroke-linejoin="miter"/><path d="M220.18378,158.94277c0.37636,-1.25454 1.50544,-2.00726 2.75997,-1.75635c1.25453,0.37635 1.8818,1.63089 1.50544,2.88542c-0.37636,1.37999 -1.63089,2.13271 -2.75997,1.75635c-1.25453,-0.37635 -1.8818,-1.63089 -1.50544,-2.88542" data-paper-data="{&quot;index&quot;:null}" fill="#414142" stroke="none" stroke-linecap="butt" stroke-linejoin="miter"/><path d="M243.63126,162.40728c0.03567,-1.30929 0.92899,-2.33076 2.20551,-2.41618c1.30928,0.03567 2.24241,1.08286 2.20674,2.39214c-0.00291,1.43039 -1.01732,2.48462 -2.20551,2.41618c-1.30928,-0.03567 -2.24241,-1.08286 -2.20674,-2.39214" data-paper-data="{&quot;index&quot;:null}" fill="#414142" stroke="none" stroke-linecap="butt" stroke-linejoin="miter"/></g></g></svg>