<svg version="1.1" xmlns="http://www.w3.org/2000/svg" xmlns:xlink="http://www.w3.org/1999/xlink" width="88.58024" height="96.4" viewBox="0,0,88.58024,96.4"><g transform="translate(-205.08731,-136.5)"><g data-paper-data="{&quot;isPaintingLayer&quot;:true}" fill-rule="nonzero" stroke-miterlimit="10" stroke-dasharray="" stroke-dashoffset="0" style="mix-blend-mode: normal"><g data-paper-data="{&quot;index&quot;:null}"><path d="M273.68731,210.6c2.3,-0.9 5,-2.4 6.9,-5.1c4.4,-6.1 4.4,-14.6 8.7,-13.3c4.3,1.3 6.9,14.6 -4.3,21.1c-3.9,2.3 -7.7,3.1 -10.7,3.6c-0.8,0.2 -7.8,0.9 -10.8,-2.1c-3,-3 -1.6,-4.1 -0.9,-4.8c0.7,-0.6 7.8,2 11.1,0.6z" fill="#faa51f" stroke="none" stroke-width="1" stroke-linecap="butt" stroke-linejoin="miter"/><path d="M289.08731,192.1c2.1,0.3 4.3,4.8 4.1,8.5c-0.3,3.7 -1.8,6.3 -2.7,7.8c-1.3,1.4 0.1,-3.1 -2.4,-4.5c-2.5,-1.4 -6.4,0.1 -6.4,0.1c0,0 2.2,-4.9 3.4,-7.7c0.9,-2.5 1.8,-4.3 4,-4.2z" fill="#ffffff" stroke="none" stroke-width="1" stroke-linecap="butt" stroke-linejoin="miter"/><path d="M273.68731,210.6c2.3,-0.9 5,-2.4 6.9,-5.1c4.4,-6.1 4.4,-14.6 8.7,-13.3c4.3,1.3 6.9,14.6 -4.3,21.1c-3.9,2.3 -7.7,3.1 -10.7,3.6c-0.8,0.2 -7.8,0.9 -10.8,-2.1c-3,-3 -1.6,-4.1 -0.9,-4.8c0.7,-0.6 7.8,2 11.1,0.6z" fill="none" stroke="#8e5322" stroke-width="1.4" stroke-linecap="round" stroke-linejoin="round"/></g><g data-paper-data="{&quot;index&quot;:null}" fill="#faa51f" stroke="#8e5322" stroke-width="1.4" stroke-linecap="round" stroke-linejoin="round"><path d="M264.18731,212.4c0,0 -8.7,9.8 -9.5,17.1c-0.2,2 -0.9,2.5 -2.9,2.7c-2.2,0.2 -11.2,-2 -10.8,-4.1c1.5,-7.3 7.2,-1.3 8.5,-4.9c3,-8.3 2.3,-13.4 2.3,-13.4"/><path d="M247.08731,224.4c0,0 1.3,0.1 2.7,0.8"/></g><path d="M259.68731,207.5" data-paper-data="{&quot;index&quot;:null}" fill="#faa51f" stroke="#8e5322" stroke-width="1.4" stroke-linecap="round" stroke-linejoin="round"/><path d="M255.08731,191.6c6.5,-1.9 10.9,-1.3 12.8,5.1c1.9,6.4 5.5,14.8 -5.9,18.1c-11.4,3.3 -12.5,-6.6 -14.4,-13c-1.9,-6.4 1.2,-8.3 7.5,-10.2z" data-paper-data="{&quot;index&quot;:null}" fill="#faa51f" stroke="#8e5322" stroke-width="1.4" stroke-linecap="round" stroke-linejoin="round"/><path d="M253.78731,197.7c3.6,-1.1 6,-0.5 7.2,3.5c1.2,4.1 3.2,9.4 -2.9,11.2c-6.1,1.8 -7,-4.5 -8.2,-8.5c-1.2,-4 0.4,-5.1 3.9,-6.2z" data-paper-data="{&quot;index&quot;:null}" fill="#ffffff" stroke="none" stroke-width="1" stroke-linecap="butt" stroke-linejoin="miter"/><g data-paper-data="{&quot;index&quot;:null}" fill="#faa51f" stroke="#8e5322" stroke-width="1.4" stroke-linecap="round" stroke-linejoin="round"><path d="M267.48731,208.6c0,0 3.9,4.3 5.1,4.9c6.8,-3.1 6.2,-4.3 9.2,-0.7c1.4,1.7 4.4,5.4 2.8,7.3c-5.9,5.6 -3.6,-5.8 -11.8,0.8c-2.2,0.9 -4.6,-4.7 -14.2,-5.8"/><path d="M278.58731,217.3c-0.5,0.5 -2,1 -2.5,1.4"/></g><g data-paper-data="{&quot;index&quot;:null}" stroke="#8e5322" stroke-width="1.4" stroke-linecap="round" stroke-linejoin="round"><path d="M254.68731,192.7l7.2,-3.6c8,3.3 14.6,12.5 11.3,15.9" fill="#faa51f"/><path d="M265.48731,200.4" fill="#faa51f"/><path d="M261.98731,199.6" fill="none"/><path d="M265.48731,200.4l-3.7,-3.2" fill="#faa51f"/><path d="M265.48731,200.4l1.1,-0.6" fill="none"/></g><g data-paper-data="{&quot;index&quot;:null}" stroke="#8e5322" stroke-width="1.4" stroke-linecap="round" stroke-linejoin="round"><path d="M244.08731,212.4c-6.1,-2.2 -3.4,-12.2 0.9,-16.4l4.2,-0.5" fill="#faa51f"/><path d="M247.58731,205.7" fill="#faa51f"/><path d="M249.68731,203.5" fill="none"/><path d="M247.58731,201.8v3.9" fill="#faa51f"/><path d="M247.58731,205.7h-1.1" fill="none"/></g><path d="M273.18731,205.1c-7.7,4.2 -12.6,3.8 -13.9,0c-0.6,-1.6 1.4,-5.5 7.3,-5.3" data-paper-data="{&quot;index&quot;:null}" fill="#faa51f" stroke="#8e5322" stroke-width="1.4" stroke-linecap="round" stroke-linejoin="round"/><path d="M244.68731,206.6c2.7,-2.2 4.8,-0.5 6.2,1.4c2.1,2.6 -0.6,7.2 -6.8,4.5" data-paper-data="{&quot;index&quot;:null}" fill="#faa51f" stroke="#8e5322" stroke-width="1.4" stroke-linecap="round" stroke-linejoin="round"/><g data-paper-data="{&quot;index&quot;:null}"><g><path d="M241.68731,147.1c1.5,-0.3 4.5,-0.9 6.2,-1c4.6,-0.4 9.1,0.8 9.1,0.8l11.5,-9.7l0.1,18.4c-0.7,-0.7 11.6,11.1 6.2,22.8c-5.6,11.9 -19.4,18.6 -37.9,17.2c-18.5,-1.4 -24.1,-11.2 -23.5,-16.8c0.6,-5.6 7.1,-8.5 7.1,-8.5c0,0 -0.4,-4.3 2,-9.9c1.5,-3.4 7.1,-8.7 7.1,-8.7l1.4,-11.5l8,6.1z" fill="#faa51f" stroke="none" stroke-width="1" stroke-linecap="butt" stroke-linejoin="miter"/><path d="M221.28731,170l2.1,-2.3l9.1,1.5c0,0 0.4,3.3 4.7,3.7c4.3,0.4 11.1,-2.1 11.1,-2.1l7.3,0.9c0,0 8,-1.5 9.2,4.8c2,10.9 -6.5,17.3 -15,18.3c-5.5,0.7 -9,0.4 -13,0.2c-17.4,-1 -23.6,-10.7 -22.8,-16.3c0.5,-5.6 6.9,-8 6.9,-8z" fill="#ffffff" stroke="none" stroke-width="1" stroke-linecap="butt" stroke-linejoin="miter"/><path d="M216.98731,176c0,0 -4.4,-0.5 -6.7,-1.1c-2.6,-0.8 -4.5,-2.3 -4.5,-2.3" fill="none" stroke="#8e5322" stroke-width="1.4" stroke-linecap="round" stroke-linejoin="round"/><path d="M217.18731,181.8c0,0 -2.6,1.2 -5.4,1.4c-2.7,0.4 -4.5,0.2 -4.5,0.2" fill="none" stroke="#8e5322" stroke-width="1.4" stroke-linecap="round" stroke-linejoin="round"/><path d="M254.38731,149.3l4.7,-4.2" fill="none" stroke="#8e5322" stroke-width="1.4" stroke-linecap="round" stroke-linejoin="round"/><path d="M241.68731,147.1c1.5,-0.3 4.5,-0.9 6.2,-1c4.6,-0.4 9.1,0.8 9.1,0.8l11.5,-9.7l0.1,18.4c-0.7,-0.7 11.6,11.1 6.2,22.8c-5.6,11.9 -19.4,18.6 -37.9,17.2c-18.5,-1.4 -24.1,-11.2 -23.5,-16.8c0.6,-5.6 7.1,-8.5 7.1,-8.5c0,0 -0.4,-4.3 2,-9.9c1.5,-3.4 7.1,-8.7 7.1,-8.7l1.4,-11.5l8,6.1z" fill="none" stroke="#8e5322" stroke-width="1.4" stroke-linecap="round" stroke-linejoin="round"/><path d="M285.78731,172.3c0,0 -3.9,1.1 -5.6,1.3c-1.8,0.2 -5.3,0.4 -5.3,0.4" fill="none" stroke="#8e5322" stroke-width="1.4" stroke-linecap="round" stroke-linejoin="round"/><path d="M274.08731,170.2c0,0 1.9,-2.2 5,-4.5c3.5,-2.6 5.6,-3.5 5.6,-3.5" fill="none" stroke="#8e5322" stroke-width="1.4" stroke-linecap="round" stroke-linejoin="round"/></g><g><path d="M233.98731,154.3c2.8,1.3 3.4,6.3 1.1,10.9c-2.3,4.7 -6.5,7.4 -9.4,5.9c-2.8,-1.3 -3.4,-6.3 -1.1,-10.9c2.3,-4.7 6.5,-7.3 9.4,-5.9z" fill="#ffffff" stroke="#8e5322" stroke-width="1.4" stroke-linecap="round" stroke-linejoin="round"/><path d="M225.18731,163.7c0.1,-1 1,-1.7 2,-1.7c1.1,0.1 1.7,1.1 1.5,2.1c-0.2,1.2 -1.1,1.9 -2,1.7c-1.1,-0.1 -1.7,-1.1 -1.5,-2.1" fill="#414142" stroke="none" stroke-width="1" stroke-linecap="butt" stroke-linejoin="miter"/></g><g><path d="M258.28731,155c3.4,1.7 4.4,6.8 2.1,11.4c-2.2,4.7 -6.9,7.1 -10.3,5.4c-3.4,-1.7 -4.4,-6.8 -2.1,-11.4c2.3,-4.6 6.9,-7 10.3,-5.4z" fill="#ffffff" stroke="#8e5322" stroke-width="1.4" stroke-linecap="round" stroke-linejoin="round"/><path d="M248.78731,164.2c-0.1,-1.1 0.6,-2 1.5,-2.1c0.9,-0.1 1.8,0.7 1.9,1.7c0.1,1.1 -0.5,2 -1.5,2.1c-0.9,0.1 -1.8,-0.7 -1.9,-1.7" fill="#414142" stroke="none" stroke-width="1" stroke-linecap="butt" stroke-linejoin="miter"/></g><path d="M242.88731,171.8c0.3,1.4 -2.9,4.4 -4.9,4.5c-1.8,0.1 -3.8,-3 -3.9,-3.8c0,-1.9 2.5,-0.9 4.2,-0.9c1.5,0 4.3,-1.4 4.6,0.2z" fill="#5f4b43" stroke="#8e5322" stroke-width="1.4" stroke-linecap="round" stroke-linejoin="round"/><path d="M249.18731,185.7c0,0 -2.2,2.6 -7.7,2.2" fill="#ffffff" stroke="#8e5322" stroke-width="1.4" stroke-linecap="round" stroke-linejoin="round"/></g></g></g></svg>