<svg version="1.1" xmlns="http://www.w3.org/2000/svg" xmlns:xlink="http://www.w3.org/1999/xlink" width="89.00427" height="95.7" viewBox="0,0,89.00427,95.7"><g transform="translate(-184.04635,-136.9)"><g data-paper-data="{&quot;isPaintingLayer&quot;:true}" fill-rule="nonzero" stroke-miterlimit="10" stroke-dasharray="" stroke-dashoffset="0" style="mix-blend-mode: normal"><path d="M228.24705,200.9672c0,0 -4.13875,5.12193 -5.88479,5.90199c-1.99947,0.64818 -11.41407,2.89811 -11.52727,-0.33558c-0.17003,-4.63553 8.48267,-6.49071 9.47733,-7.06676c1.19271,-0.69076 4.4862,-7.50128 4.4862,-7.50128" data-paper-data="{&quot;index&quot;:null}" fill="#faa51f" stroke="#8e5322" stroke-width="1.4" stroke-linecap="round" stroke-linejoin="miter"/><g data-paper-data="{&quot;index&quot;:null}"><path d="M252.54635,211c2.4,-0.8 5.1,-2.1 7.2,-4.8c4.7,-5.9 5.1,-14.3 9.3,-12.8c4.2,1.5 6.2,14.9 -5.3,20.9c-4,2.1 -7.8,2.7 -10.9,3.1c-0.8,0.1 -7.9,0.5 -10.7,-2.6c-2.9,-3.1 -1.4,-4.2 -0.6,-4.9c0.7,-0.6 7.7,2.4 11,1.1z" fill="#faa51f" stroke="none" stroke-width="1" stroke-linecap="butt" stroke-linejoin="miter"/><path d="M268.84635,193.3c2.1,0.4 4,5 3.6,8.7c-0.5,3.7 -2.1,6.2 -3.1,7.7c-1.4,1.3 0.2,-3.1 -2.2,-4.6c-2.4,-1.5 -6.4,-0.2 -6.4,-0.2c0,0 2.5,-4.8 3.8,-7.5c1.1,-2.5 2.1,-4.3 4.3,-4.1z" fill="#ffffff" stroke="none" stroke-width="1" stroke-linecap="butt" stroke-linejoin="miter"/><path d="M252.54635,211c2.4,-0.8 5.1,-2.1 7.2,-4.8c4.7,-5.9 5.1,-14.3 9.3,-12.8c4.2,1.5 6.2,14.9 -5.3,20.9c-4,2.1 -7.8,2.7 -10.9,3.1c-0.8,0.1 -7.9,0.5 -10.7,-2.6c-2.9,-3.1 -1.4,-4.2 -0.6,-4.9c0.7,-0.6 7.7,2.4 11,1.1z" fill="none" stroke="#8e5322" stroke-width="1.4" stroke-linecap="round" stroke-linejoin="round"/></g><g data-paper-data="{&quot;index&quot;:null}" fill="#faa51f" stroke="#8e5322" stroke-width="1.4" stroke-linecap="round" stroke-linejoin="round"><path d="M243.04635,208.9c0,0 -4.8,12.2 -3,19.4c0.5,2 0,2.7 -1.8,3.6c-2.1,0.9 -11.2,1 -11.6,-1.1c-1.1,-7.3 6.3,-2.7 6.3,-6.5c0,-8.9 -2.4,-13.4 -2.4,-13.4"/><path d="M231.44635,225.9c0,0 1,-0.3 2.6,-0.5"/></g><path d="M238.44635,207.5" data-paper-data="{&quot;index&quot;:null}" fill="#faa51f" stroke="#8e5322" stroke-width="1.4" stroke-linecap="round" stroke-linejoin="round"/><path d="M233.84635,191.6c6.5,-1.9 10.9,-1.3 12.8,5.1c1.9,6.4 5.5,14.8 -5.9,18.1c-11.4,3.3 -12.5,-6.6 -14.4,-13c-1.9,-6.4 1.2,-8.3 7.5,-10.2z" data-paper-data="{&quot;index&quot;:null}" fill="#faa51f" stroke="#8e5322" stroke-width="1.4" stroke-linecap="round" stroke-linejoin="round"/><path d="M232.54635,197.7c3.6,-1.1 6,-0.5 7.2,3.5c1.2,4.1 3.2,9.4 -2.9,11.2c-6.1,1.8 -7,-4.5 -8.2,-8.5c-1.1,-4 0.4,-5.1 3.9,-6.2z" data-paper-data="{&quot;index&quot;:null}" fill="#ffffff" stroke="none" stroke-width="1" stroke-linecap="butt" stroke-linejoin="miter"/><g data-paper-data="{&quot;index&quot;:null}" fill="#faa51f" stroke="#8e5322" stroke-width="1.4" stroke-linecap="round" stroke-linejoin="round"><path d="M248.34635,208.7c0,0 -0.2,5.7 0.2,7c1.6,-2.6 2.1,-3.9 5,-1.5c1.7,1.4 5.3,4.5 4,6.6c-4.8,6.5 -3.7,-2.8 -12,3.2c-2.5,1.6 -7,1.9 -6.5,-9.2"/><path d="M247.34635,223c0.8,-0.8 2.6,-1.6 3.8,-2.4"/><path d="M248.34635,214.2c-0.4,1.2 -0.8,3.6 -1.2,4"/></g><g data-paper-data="{&quot;index&quot;:null}" stroke="#8e5322" stroke-width="1.4" stroke-linecap="round" stroke-linejoin="round"><path d="M233.44635,192.7l7.2,-3.6c8,3.3 14.6,12.5 11.3,15.9" fill="#faa51f"/><path d="M244.34635,200.4" fill="#faa51f"/><path d="M240.84635,199.6" fill="none"/><path d="M240.64635,197.2l3.7,3.2" fill="#faa51f"/><path d="M244.34635,200.4l1.1,-0.6" fill="none"/></g><path d="M251.94635,205.1c-7.7,4.2 -12.6,3.8 -13.9,0c-0.6,-1.6 1.4,-5.5 7.3,-5.3" data-paper-data="{&quot;index&quot;:null}" fill="#faa51f" stroke="#8e5322" stroke-width="1.4" stroke-linecap="round" stroke-linejoin="round"/><g data-paper-data="{&quot;index&quot;:null}"><g><path d="M220.54635,147.5c1.5,-0.3 4.5,-0.9 6.2,-1c4.6,-0.4 9.1,0.8 9.1,0.8l11.5,-9.7l0.1,18.4c-0.7,-0.7 11.6,11.1 6.2,22.8c-5.5,11.9 -19.4,18.6 -37.9,17.2c-18.5,-1.4 -24.1,-11.2 -23.5,-16.8c0.6,-5.6 7.1,-8.5 7.1,-8.5c0,0 -0.4,-4.3 2,-9.9c1.5,-3.4 7.1,-8.7 7.1,-8.7l1.4,-11.5l8,6.1z" fill="#faa51f" stroke="none" stroke-width="1" stroke-linecap="butt" stroke-linejoin="miter"/><path d="M200.24635,170.4l2.1,-2.3l9.1,1.5c0,0 0.4,3.3 4.7,3.7c4.2,0.4 11.1,-2.1 11.1,-2.1l7.3,0.9c0,0 8,-1.5 9.2,4.8c2,10.9 -6.5,17.3 -15,18.3c-5.5,0.7 -9,0.4 -13,0.2c-17.4,-1 -23.6,-10.7 -22.8,-16.3c0.5,-5.6 6.9,-8 6.9,-8z" fill="#ffffff" stroke="none" stroke-width="1" stroke-linecap="butt" stroke-linejoin="miter"/><path d="M195.94635,176.4c0,0 -4.4,-0.5 -6.7,-1.1c-2.6,-0.8 -4.5,-2.3 -4.5,-2.3" fill="none" stroke="#8e5322" stroke-width="1.4" stroke-linecap="round" stroke-linejoin="round"/><path d="M196.14635,182.2c0,0 -2.6,1.2 -5.4,1.4c-2.7,0.4 -4.5,0.2 -4.5,0.2" fill="none" stroke="#8e5322" stroke-width="1.4" stroke-linecap="round" stroke-linejoin="round"/><path d="M237.94635,145.5l-4.7,4.2" fill="none" stroke="#8e5322" stroke-width="1.4" stroke-linecap="round" stroke-linejoin="round"/><path d="M220.54635,147.5c1.5,-0.3 4.5,-0.9 6.2,-1c4.6,-0.4 9.1,0.8 9.1,0.8l11.5,-9.7l0.1,18.4c-0.7,-0.7 11.6,11.1 6.2,22.8c-5.5,11.9 -19.4,18.6 -37.9,17.2c-18.5,-1.4 -24.1,-11.2 -23.5,-16.8c0.6,-5.6 7.1,-8.5 7.1,-8.5c0,0 -0.4,-4.3 2,-9.9c1.5,-3.4 7.1,-8.7 7.1,-8.7l1.4,-11.5l8,6.1z" fill="none" stroke="#8e5322" stroke-width="1.4" stroke-linecap="round" stroke-linejoin="round"/><path d="M264.74635,172.7c0,0 -3.9,1.1 -5.6,1.3c-1.8,0.2 -5.3,0.4 -5.3,0.4" fill="none" stroke="#8e5322" stroke-width="1.4" stroke-linecap="round" stroke-linejoin="round"/><path d="M253.04635,170.6c0,0 1.9,-2.2 5,-4.5c3.5,-2.6 5.6,-3.5 5.6,-3.5" fill="none" stroke="#8e5322" stroke-width="1.4" stroke-linecap="round" stroke-linejoin="round"/></g><g><path d="M212.94635,154.7c2.8,1.3 3.4,6.3 1.1,10.9c-2.3,4.7 -6.5,7.4 -9.4,5.9c-2.8,-1.3 -3.4,-6.3 -1.1,-10.9c2.3,-4.7 6.5,-7.3 9.4,-5.9z" fill="#ffffff" stroke="#8e5322" stroke-width="1.4" stroke-linecap="round" stroke-linejoin="round"/><path d="M204.14635,164.1c0.1,-1 1,-1.7 2,-1.7c1.1,0.1 1.7,1.1 1.5,2.1c-0.2,1.2 -1.1,1.9 -2,1.7c-1.1,-0.1 -1.7,-1.1 -1.5,-2.1" fill="#414142" stroke="none" stroke-width="1" stroke-linecap="butt" stroke-linejoin="miter"/></g><g><path d="M237.24635,155.4c3.4,1.7 4.4,6.8 2.1,11.4c-2.2,4.7 -6.9,7.1 -10.3,5.4c-3.4,-1.7 -4.4,-6.8 -2.1,-11.4c2.3,-4.6 6.9,-7 10.3,-5.4z" fill="#ffffff" stroke="#8e5322" stroke-width="1.4" stroke-linecap="round" stroke-linejoin="round"/><path d="M227.74635,164.6c-0.1,-1.1 0.6,-2 1.5,-2.1c0.9,-0.1 1.8,0.7 1.9,1.7c0.1,1.1 -0.5,2 -1.5,2.1c-0.9,0.1 -1.8,-0.7 -1.9,-1.7" fill="#414142" stroke="none" stroke-width="1" stroke-linecap="butt" stroke-linejoin="miter"/></g><path d="M221.84635,172.2c0.3,1.4 -2.9,4.4 -4.9,4.5c-1.8,0.1 -3.8,-3 -3.9,-3.8c0,-1.9 2.5,-0.9 4.2,-0.9c1.5,0 4.3,-1.4 4.6,0.2z" fill="#5f4b43" stroke="#8e5322" stroke-width="1.4" stroke-linecap="round" stroke-linejoin="round"/><path d="M228.14635,186.1c0,0 -2.2,2.6 -7.7,2.2" fill="#ffffff" stroke="#8e5322" stroke-width="1.4" stroke-linecap="round" stroke-linejoin="round"/></g><path d="M224.71215,203.83071c0,0 -0.50572,-2.65995 -0.74976,-4.0002c-0.23282,-1.27862 1.31351,-3.16065 1.31351,-3.16065l1.87491,-0.22137l0.02328,5.24562z" data-paper-data="{&quot;index&quot;:null}" fill="#faa51f" stroke="none" stroke-width="0" stroke-linecap="butt" stroke-linejoin="miter"/></g></g></svg>