<svg version="1.1" xmlns="http://www.w3.org/2000/svg" xmlns:xlink="http://www.w3.org/1999/xlink" width="82" height="103.76761" viewBox="0,0,82,103.76761"><g transform="translate(-199,-126.76157)"><g data-paper-data="{&quot;isPaintingLayer&quot;:true}" fill-rule="nonzero" stroke-width="1.5" stroke-miterlimit="10" stroke-dasharray="" stroke-dashoffset="0" style="mix-blend-mode: normal"><path d="M237.15,204.41464c0.7,0.7 2.1,1.9 -1,4.8c-3.1,2.9 -10.1,2 -10.9,1.8c-3,-0.6 -6.8,-1.5 -10.6,-3.9c-11,-6.8 -8,-20 -3.7,-21.2c4.3,-1.2 4.1,7.3 8.3,13.5c1.9,2.8 4.5,4.3 6.8,5.3c3.2,1.5 10.4,-0.9 11.1,-0.3z" data-paper-data="{&quot;index&quot;:null}" fill="#ab7f49" stroke="none" stroke-linecap="butt" stroke-linejoin="miter"/><path d="M215.05,190.21464c1.1,2.8 3.2,7.8 3.2,7.8c0,0 -3.9,-1.6 -6.4,-0.3c-2.5,1.3 -1.2,5.8 -2.5,4.4c-0.9,-1.6 -2.3,-4.2 -2.5,-7.9c-0.1,-3.7 2.2,-8.2 4.3,-8.4c2.2,0 3,1.8 3.9,4.4z" data-paper-data="{&quot;index&quot;:null}" fill="#ffffff" stroke="none" stroke-linecap="butt" stroke-linejoin="miter"/><path d="M237.15,204.41464c0.7,0.7 2.1,1.9 -1,4.8c-3.1,2.9 -10.1,2 -10.9,1.8c-3,-0.6 -6.8,-1.5 -10.6,-3.9c-11,-6.8 -8,-20 -3.7,-21.2c4.3,-1.2 4.1,7.3 8.3,13.5c1.9,2.8 4.5,4.3 6.8,5.3c3.2,1.5 10.4,-0.9 11.1,-0.3z" data-paper-data="{&quot;index&quot;:null}" fill="none" stroke="#785020" stroke-linecap="round" stroke-linejoin="round"/><g data-paper-data="{&quot;index&quot;:null}" fill="#ab7f49" stroke="#785020" stroke-linecap="round" stroke-linejoin="round"><path d="M250.45,206.91464c0,0 -1.7,5.5 -0.9,14.3c0.3,3.8 7.4,-0.5 6.9,6.9c-0.2,2.1 -9.4,1.9 -11.5,1.1c-1.9,-0.7 -2.4,-1.4 -2.1,-3.4c1.1,-7.3 -2.6,-15.7 -2.6,-15.7"/><path d="M248.75,223.11464c1.5,-0.3 2.8,-0.1 2.8,-0.1"/></g><path d="M241.25,204.81464" data-paper-data="{&quot;index&quot;:null}" fill="#faa51f" stroke="#8e5322" stroke-linecap="round" stroke-linejoin="round"/><path d="M251.25,196.01464c0,6.7 1.7,16.5 -10.2,16.5c-11.9,0 -10.8,-9 -10.8,-15.7c0,-6.7 4.1,-8.5 10.8,-8.5c6.7,0 10.2,1 10.2,7.7z" data-paper-data="{&quot;index&quot;:null}" fill="#ab7f49" stroke="#8e5322" stroke-linecap="round" stroke-linejoin="round"/><g data-paper-data="{&quot;index&quot;:null}" fill="#ab7f49" stroke="#785020" stroke-linecap="round" stroke-linejoin="round"><path d="M240.35,212.81464c0,0 -1.5,9.1 -1.2,13.3c0.2,2.1 -0.6,3.2 -2.7,3.6c-2.2,0.4 -9.8,0.6 -9.9,-1.9c-0.4,-7.6 5.2,-2.9 5.8,-6.7c1.3,-8.7 -1.3,-14.2 -1.3,-14.2"/><path d="M229.95,222.91464c0,0 1.6,-0.2 3,0.2"/></g><g data-paper-data="{&quot;index&quot;:null}" fill="#ab7f49" stroke="#785020" stroke-linecap="round" stroke-linejoin="round"><path d="M224.55,206.21464c-4.1,-2.3 -0.4,-13 6.4,-18.4l7.9,1.4"/><path d="M230.65,199.71464"/><path d="M233.75,197.91464"/><path d="M230.65,199.71464l2.7,-4.1"/><path d="M229.45,199.41464l1.2,0.3"/></g><g data-paper-data="{&quot;index&quot;:null}" fill="#ab7f49" stroke="#785020" stroke-linecap="round" stroke-linejoin="round"><path d="M247.85,190.41464l4.2,-0.7c5.4,2.8 10.7,11.6 5.5,15.5"/><path d="M252.35,199.71464"/><path d="M249.75,198.21464"/><path d="M251.25,196.01464l1.1,3.7"/><path d="M252.35,199.71464l1.1,-0.3"/></g><path d="M236.58334,191.83334c0,0 3.34014,2.44487 5.20762,2.74911c1.90938,0.31107 6.12571,-0.90272 6.12571,-0.90272l0.83334,17.77158c0,0 -5.60474,2.01032 -7.82657,1.97412c-2.47336,-0.04029 -6.34009,-2.20493 -6.34009,-2.20493z" data-paper-data="{&quot;index&quot;:null}" fill="#b6b6b6" stroke="#6d6d6d" stroke-linecap="round" stroke-linejoin="miter"/><path d="M231.25,198.87097l-7.5,-2.92473l5.5,-6.94624l7.16666,2.74194l2.33334,5.30107l-2.5,14.44086l-4.66666,0.18279l-2.16667,-2.19355c0,0 2.23164,-12.6845 2.83334,-12.97849c0.44143,-0.21569 -1,2.37634 -1,2.37634z" data-paper-data="{&quot;index&quot;:null}" fill="#e20000" stroke="#760000" stroke-linecap="round" stroke-linejoin="miter"/><path d="M251.75,196.75684c-0.14218,0.13648 1.16666,8.60382 1.16666,8.60382l-1.5,4.94262l-5.16666,2.19672l-0.16666,-16.10929l2.33333,-4.94263l6.66667,-1.28142l2.83333,5.12569l-5.33333,4.39344c0,0 -0.25365,-3.48546 -0.83334,-2.92896z" data-paper-data="{&quot;index&quot;:null}" fill="#e20000" stroke="#760000" stroke-linecap="round" stroke-linejoin="miter"/><path d="M243.85,141.91464l5.5563,-1.48185l4.4437,5.68185c0,0 6.2,4.6 8.1,7.8c3.1,5.3 3.2,9.6 3.2,9.6c0,0 6.9,2.1 8.1,7.6c1.2,5.5 -3.1,16 -21.3,19.6c-18.2,3.6 -32.8,-1.3 -39.7,-12.4c-6.8,-11 4,-24.2 3.4,-23.4l0.14814,-11.49037l10.25186,1.39038c0,0 4.3,-1.7 8.9,-1.9c1.7,-0.1 4.8,0.1 6.3,0.2z" data-paper-data="{&quot;index&quot;:null}" fill="#ab7f49" stroke="none" stroke-linecap="butt" stroke-linejoin="miter"/><path d="M264.75,164.01464c0,0 6.6,1.6 7.8,7.1c1.5,5.5 -3.4,15.9 -20.6,19c-3.9,0.7 -7.4,1.4 -12.9,1.4c-8.5,0.1 -17.8,-5.2 -17.1,-16.3c0.4,-6.4 8.5,-5.9 8.5,-5.9l7.1,-1.8c0,0 7.1,1.6 11.3,0.7c4.2,-0.9 4.2,-4.2 4.2,-4.2l8.8,-2.6l2.4,2z" data-paper-data="{&quot;index&quot;:null}" fill="#ffffff" stroke="none" stroke-linecap="butt" stroke-linejoin="miter"/><path d="M280.25,164.81464c0,0 -1.8,1.6 -4.4,2.5c-2.2,0.8 -6.6,1.5 -6.6,1.5" data-paper-data="{&quot;index&quot;:null}" fill="none" stroke="#785020" stroke-linecap="round" stroke-linejoin="round"/><path d="M279.65,176.01464c0,0 -1.8,0.2 -4.5,-0.1c-2.8,-0.2 -5.4,-1.3 -5.4,-1.3" data-paper-data="{&quot;index&quot;:null}" fill="none" stroke="#785020" stroke-linecap="round" stroke-linejoin="round"/><path d="M228.95,146.91464l-5.2,-3.6" data-paper-data="{&quot;index&quot;:null}" fill="none" stroke="#785020" stroke-linecap="round" stroke-linejoin="round"/><path d="M243.85,141.91464l4.73444,-1.12964l5.26556,5.32963c0,0 6.2,4.6 8.1,7.8c3.1,5.3 3.2,9.6 3.2,9.6c0,0 6.9,2.1 8.1,7.6c1.2,5.5 -3.1,16 -21.3,19.6c-18.2,3.6 -32.8,-1.3 -39.7,-12.4c-6.8,-11 4,-24.2 3.4,-23.4l-0.79111,-10.08149l11.19111,-0.01851c0,0 4.3,-1.7 8.9,-1.9c1.7,-0.1 4.8,0.1 6.3,0.2z" data-paper-data="{&quot;index&quot;:null}" fill="none" stroke="#785020" stroke-linecap="round" stroke-linejoin="round"/><path d="M211.65,173.81464c0,0 -3.5,0.5 -5.3,0.6c-1.8,0.1 -5.8,-0.3 -5.8,-0.3" data-paper-data="{&quot;index&quot;:null}" fill="none" stroke="#785020" stroke-linecap="round" stroke-linejoin="round"/><path d="M199.75,164.51464c0,0 2.2,0.4 6.2,2.2c3.6,1.6 5.9,3.3 5.9,3.3" data-paper-data="{&quot;index&quot;:null}" fill="none" stroke="#785020" stroke-linecap="round" stroke-linejoin="round"/><path d="M259.75,154.01464c2.8,4.3 2.9,9.3 0.2,11c-2.7,1.8 -7.2,-0.3 -10,-4.7c-2.8,-4.3 -2.9,-9.3 -0.2,-11c2.7,-1.7 7.2,0.4 10,4.7z" data-paper-data="{&quot;index&quot;:null}" fill="#ffffff" stroke="#785020" stroke-linecap="round" stroke-linejoin="round"/><path d="M259.8666,158.94277c0.37636,1.25453 -0.25091,2.50907 -1.50544,2.88542c-1.12908,0.37636 -2.38361,-0.37636 -2.75997,-1.75635c-0.37636,-1.25453 0.25091,-2.50907 1.50544,-2.88542c1.25453,-0.25091 2.38361,0.50181 2.75997,1.75635" data-paper-data="{&quot;index&quot;:null}" fill="#414142" stroke="none" stroke-linecap="butt" stroke-linejoin="miter"/><path d="M236.55,157.11464c2.8,4.3 2.5,9.5 -0.7,11.6c-3.2,2.1 -8.1,0.3 -10.9,-4.1c-2.8,-4.3 -2.5,-9.5 0.7,-11.6c3.2,-2 8.1,-0.2 10.9,4.1z" data-paper-data="{&quot;index&quot;:null}" fill="#ffffff" stroke="#785020" stroke-linecap="round" stroke-linejoin="round"/><path d="M247.55,167.01463c1.7,-0.2 4,-1.5 4.3,0.4c0,0.8 -1.6,4.1 -3.4,4.2c-2,0.1 -5.5,-2.4 -5.4,-3.9c0.1,-1.5 3,-0.5 4.5,-0.7z" data-paper-data="{&quot;index&quot;:null}" fill="#5f4b43" stroke="#785020" stroke-linecap="round" stroke-linejoin="round"/><path d="M246.35,183.61464c-5.4,1.1 -7.9,-1.2 -7.9,-1.2" data-paper-data="{&quot;index&quot;:null}" fill="#ffffff" stroke="#785020" stroke-linecap="round" stroke-linejoin="round"/><path d="M229.45,199.41464c5.6,-1.8 8.6,1.3 8.5,3c-0.2,4 -4.8,5.8 -13.3,3.9" data-paper-data="{&quot;index&quot;:null}" fill="#ab7f49" stroke="#785020" stroke-linecap="round" stroke-linejoin="round"/><path d="M259.50541,202.33976c-1.20968,6.63827 -6.51165,6.39518 -7.51316,3.18629c-0.72803,-2.26274 -1.06138,-4.98833 2.28842,-5.97772" data-paper-data="{&quot;index&quot;:null,&quot;origRot&quot;:0}" fill="#ab7f49" stroke="#785020" stroke-linecap="round" stroke-linejoin="round"/><path d="M236.41912,162.40728c0.03567,1.30928 -0.89746,2.35647 -2.20674,2.39214c-1.18819,0.06844 -2.2026,-0.98579 -2.20551,-2.41618c-0.03567,-1.30928 0.89746,-2.35647 2.20674,-2.39214c1.27652,0.08542 2.16984,1.10689 2.20551,2.41618" data-paper-data="{&quot;index&quot;:null}" fill="#414142" stroke="none" stroke-linecap="butt" stroke-linejoin="miter"/><path d="M252.747,137.99302c0,0 -0.15993,1.76478 0.44992,1.47942c6.58926,-3.08318 27.08533,4.69471 -13.06225,12.4917c-45.59153,8.25043 -27.32364,-1.83246 -27.32364,-1.83246" data-paper-data="{&quot;index&quot;:null}" fill="#ffde00" stroke="#d09000" stroke-linecap="round" stroke-linejoin="miter"/><path d="M211.98076,151.78399c0,0 -4.22912,-17.64032 15.73493,-23.11905c20.92982,-5.74377 28.80674,11.83302 28.80674,11.83302" data-paper-data="{&quot;index&quot;:null}" fill="#ffde00" stroke="#d09000" stroke-linecap="round" stroke-linejoin="miter"/><path d="M254.04551,136.01208c0,0 -7.2447,4.68026 -20.38798,8.1325c-13.93268,3.65958 -21.90843,2.99248 -21.90843,2.99248" data-paper-data="{&quot;index&quot;:null}" fill="none" stroke="#000000" stroke-linecap="round" stroke-linejoin="miter"/><path d="M251.28287,135.15873l2.03503,-5.38581c0,0 3.50665,-1.22206 7.03867,3.08891c5.0027,9.0084 0.12956,8.59796 0.33778,8.61085c0.66823,0.04137 -6.8017,-1.89141 -6.8017,-1.89141z" data-paper-data="{&quot;index&quot;:null}" fill="#000000" stroke="#000000" stroke-linecap="round" stroke-linejoin="miter"/><path d="M254.40949,128.54699c1.85112,-0.7154 4.15405,0.00572 6.34538,4.16647c2.19132,4.16075 2.46712,8.11363 0.61599,8.82903c-1.85112,0.7154 -5.12815,-2.07763 -7.31948,-6.23838c-2.19132,-4.16075 -1.49302,-6.04172 0.3581,-6.75712z" data-paper-data="{&quot;index&quot;:null}" fill="#ffffff" stroke="#000000" stroke-linecap="butt" stroke-linejoin="miter"/></g></g></svg>